<svg width="64" height="56" viewBox="0 0 64 56" fill="none" xmlns="http://www.w3.org/2000/svg">
<path fill-rule="evenodd" clip-rule="evenodd" d="M45.5385 28C45.5385 29.7779 45.1883 31.5384 44.5079 33.1809C43.8275 34.8235 42.8303 36.316 41.5731 37.5731C40.316 38.8303 38.8235 39.8275 37.181 40.5079C35.5384 41.1883 33.7779 41.5385 32 41.5385C30.2221 41.5385 28.4616 41.1883 26.8191 40.5079C25.1765 39.8275 23.684 38.8303 22.4269 37.5731C21.1697 36.316 20.1725 34.8235 19.4921 33.1809C18.8117 31.5384 18.4615 29.7779 18.4615 28C18.4615 26.2221 18.8117 24.4616 19.4921 22.819C20.1725 21.1765 21.1697 19.684 22.4269 18.4269C23.684 17.1697 25.1765 16.1725 26.8191 15.4921C28.4616 14.8117 30.2221 14.4615 32 14.4615C33.7779 14.4615 35.5384 14.8117 37.181 15.4921C38.8235 16.1725 40.316 17.1697 41.5731 18.4269C42.8303 19.684 43.8275 21.1765 44.5079 22.819C45.1883 24.4616 45.5385 26.2221 45.5385 28Z" fill="#1E1D51"/>
<path fill-rule="evenodd" clip-rule="evenodd" d="M31.9473 18.4977C30.791 18.5194 29.6818 18.7252 28.6505 19.0851V26.5174H31.9473V18.4977ZM25.9506 20.7126C24.2314 22.1718 23.019 24.1842 22.6068 26.4643H25.9506V20.7126ZM28.5339 29.1543V36.9243C29.5922 37.2836 30.7305 37.4891 31.9172 37.5108V29.1543H28.5339ZM22.5959 29.1754C22.9387 31.6035 24.1767 33.7512 25.9718 35.2865V29.1754H22.5959Z" fill="url(#paint0_linear_601_49985)"/>
<path fill-rule="evenodd" clip-rule="evenodd" d="M32.1871 18.5934C37.2956 18.6932 41.4068 22.8679 41.4068 28.0002C41.4068 33.1325 37.2956 37.3049 32.1871 37.4048V18.5934Z" fill="url(#paint1_linear_601_49985)"/>
<path fill-rule="evenodd" clip-rule="evenodd" d="M28.4049 19.2032V26.7281H31.8958V28.9495H28.4049V36.8167C27.5978 36.4835 26.8462 36.0446 26.168 35.5167V28.9495H22.5312C22.5008 28.6407 22.4851 28.3276 22.4851 28.0109C22.4851 27.5758 22.5146 27.1477 22.5715 26.7281C22.5759 26.6961 22.5803 26.6642 22.585 26.6323C22.5803 26.6642 22.5759 26.6961 22.5715 26.7281H26.168V20.5036C26.8462 19.9755 27.5978 19.5364 28.4049 19.2032Z" fill="url(#paint2_linear_601_49985)"/>
<path fill-rule="evenodd" clip-rule="evenodd" d="M25.999 20.7542C25.9711 20.7774 25.9434 20.8008 25.9158 20.8243C25.9435 20.8008 25.971 20.7774 25.999 20.7542Z" fill="#FFF38D"/>
<path fill-rule="evenodd" clip-rule="evenodd" d="M22.6462 29.0209C22.6493 29.0492 22.6524 29.0774 22.6556 29.1056C22.6523 29.0775 22.6493 29.0492 22.6462 29.0209Z" fill="#FFF38D"/>
<path fill-rule="evenodd" clip-rule="evenodd" d="M25.9158 35.1747C25.9434 35.1982 25.9711 35.2217 25.999 35.2448C25.971 35.2216 25.9435 35.1983 25.9158 35.1747Z" fill="#FFF38D"/>
<path d="M37.8047 21.7613H34.5686V22.2129H37.8047V21.7613Z" fill="#9D0D16"/>
<path fill-rule="evenodd" clip-rule="evenodd" d="M32.0395 13.7756C27.1145 13.7678 22.3192 16.3195 19.6816 20.8881C15.7558 27.6877 18.0884 36.3926 24.8881 40.3184C31.6877 44.2442 40.3927 41.9116 44.3184 35.1119C48.2442 28.3123 45.9116 19.6074 39.112 15.6816C36.8808 14.3934 34.4448 13.7795 32.0395 13.7756ZM32 14.4614C39.4732 14.4614 45.5386 20.5268 45.5386 28C45.5386 35.4732 39.4732 41.5386 32 41.5386C24.5268 41.5386 18.4614 35.4732 18.4614 28C18.4614 20.5268 24.5268 14.4614 32 14.4614ZM31.1849 14.9356V17.7418H32.04V16.7963L32.7305 17.7418L33.8556 17.9064L32.8805 16.6463C33.0945 16.6018 33.4958 16.3746 33.4958 15.8961C33.4958 15.1796 32.8506 14.9506 32.4454 14.9506L31.1849 14.9356ZM32.2653 15.5508C32.4979 15.5508 32.6628 15.7084 32.6703 15.881C32.6778 16.0536 32.5584 16.2408 32.2954 16.2408H32.0249L32.0104 15.5659L32.2653 15.5508ZM36.2963 15.7103C36.2812 15.7102 36.2658 15.7104 36.2507 15.7107C35.513 15.7257 34.8892 16.1731 34.7399 16.9036C34.5912 17.6312 35.252 18.4921 36.0597 18.6754C36.9361 18.8744 37.754 18.4582 37.9384 17.5136C38.0963 16.7048 37.5018 15.9106 36.619 15.7422C36.5104 15.7215 36.4025 15.7109 36.2963 15.7103ZM25.9483 16.4511L25.183 16.8561L25.5428 20.0221L26.3533 19.4219L26.2484 18.9421L27.1336 18.4167L27.5386 18.7168L28.469 18.342L25.9483 16.4511ZM36.3161 16.4859C36.3681 16.486 36.4209 16.4908 36.4741 16.5009C36.9001 16.5822 37.1704 16.9504 37.096 17.341C37.0215 17.7316 36.6301 17.9975 36.2041 17.9163C35.7782 17.8351 35.568 17.4226 35.6425 17.032C35.7077 16.6902 35.952 16.4849 36.3161 16.4859ZM25.9784 17.4563L26.6232 17.9516L26.1581 18.2215L25.9784 17.4563ZM40.2479 17.8617L37.8471 19.5273L38.5522 20.0823L39.7079 19.182L39.1223 20.6373L39.4224 20.9224L40.8932 20.3222L40.008 21.5226L40.548 22.2879L42.2437 19.857L41.7032 19.2121L40.3227 19.7672L40.8782 18.3716L40.2479 17.8617ZM32 18.2164C26.6015 18.2164 22.2159 22.602 22.2159 28.0005C22.2159 33.399 26.6015 37.7841 32 37.7841C37.3985 37.7841 41.7841 33.399 41.7841 28.0005C41.7841 22.602 37.3985 18.2164 32 18.2164ZM23.0372 18.5367L21.8669 19.8871L23.9073 21.7027L24.4779 21.0428L23.6976 20.3523L24.2676 19.7371L23.7724 19.2869L23.2023 19.9172L22.9172 19.6472L23.5325 18.9718L23.0372 18.5367ZM31.8109 18.5936V26.3584H28.7672V19.1623C29.7193 18.8138 30.7433 18.6147 31.8109 18.5936ZM32.1872 18.5936C35.7699 18.6637 38.862 20.7381 40.3895 23.7413C40.3697 23.7149 40.3497 23.6891 40.3293 23.6637C39.955 23.1988 39.4835 22.8904 39.0819 22.6322C39.0499 22.6117 39.0125 22.6014 38.9746 22.6025C38.9161 22.6042 38.8616 22.6331 38.8274 22.6806C38.7339 22.8101 38.5575 22.9177 38.3274 22.9177H36.5941C36.5071 22.9177 36.4245 22.9414 36.3533 22.9929C36.282 23.0445 36.2187 23.1368 36.2187 23.246V23.4436C36.2179 23.4447 36.2163 23.4477 36.2089 23.4534C36.1919 23.4665 36.1586 23.4802 36.1214 23.4802H34.628L34.6294 23.3556V23.3542V23.3532C34.6294 23.1259 34.5134 22.9193 34.3344 22.7888L34.3316 22.7865L34.3293 22.785L33.6764 22.3424L33.6755 22.3415L33.6745 22.341C33.5706 22.2724 33.4544 22.2399 33.3448 22.2422C33.3082 22.243 33.2724 22.2479 33.238 22.2564C33.1003 22.2901 32.9882 22.3771 32.9158 22.4882C32.771 22.7105 32.8043 23.0619 33.0828 23.2611L33.389 23.4953L33.3914 23.4972L33.3937 23.4986C33.4581 23.5447 33.4939 23.6004 33.4939 23.6157L33.4864 24.1119V24.1134V24.1148C33.4864 24.1208 33.4855 24.1223 33.485 24.1247C33.4764 24.1246 33.4599 24.1227 33.4257 24.1115C33.3533 24.0877 33.2983 24.0571 33.2131 24.0249C33.1278 23.9927 33.0182 23.9671 32.8772 23.9671C32.629 23.9671 32.425 24.0791 32.2973 24.2281C32.2525 24.2803 32.216 24.3363 32.1872 24.3942V18.5936ZM28.3909 19.3095V26.7347H31.8109V28.9266H28.3909V36.6896C27.6002 36.3609 26.8638 35.9277 26.1994 35.4069V28.9266H22.6364C22.6066 28.6219 22.5913 28.313 22.5913 28.0005C22.5913 27.5712 22.6202 27.1488 22.6759 26.7347H26.1994V20.5927C26.8638 20.0716 27.6002 19.6383 28.3909 19.3095ZM34.7686 20.7559C34.6149 20.7559 34.4901 20.8806 34.4901 21.0343C34.4901 21.188 34.6149 21.3128 34.7686 21.3128C34.9223 21.3128 35.047 21.188 35.047 21.0343C35.047 20.8806 34.9223 20.7559 34.7686 20.7559ZM35.4779 20.7559C35.3242 20.7559 35.1994 20.8806 35.1994 21.0343C35.1994 21.188 35.3242 21.3128 35.4779 21.3128C35.6316 21.3128 35.7564 21.188 35.7564 21.0343C35.7564 20.8806 35.6316 20.7559 35.4779 20.7559ZM36.1867 20.7559C36.033 20.7559 35.9083 20.8806 35.9083 21.0343C35.9083 21.188 36.033 21.3128 36.1867 21.3128C36.3405 21.3128 36.4652 21.188 36.4652 21.0343C36.4652 20.8806 36.3405 20.7559 36.1867 20.7559ZM36.8956 20.7559C36.7419 20.7559 36.6171 20.8806 36.6171 21.0343C36.6171 21.188 36.7419 21.3128 36.8956 21.3128C37.0493 21.3128 37.174 21.188 37.174 21.0343C37.174 20.8806 37.0493 20.7559 36.8956 20.7559ZM37.6049 20.7559C37.4512 20.7559 37.3264 20.8806 37.3264 21.0343C37.3264 21.188 37.4512 21.3128 37.6049 21.3128C37.7586 21.3128 37.8834 21.188 37.8834 21.0343C37.8834 20.8806 37.7586 20.7559 37.6049 20.7559ZM25.8232 20.904V26.3584H22.7343C23.1151 24.1962 24.2349 22.2879 25.8232 20.904ZM34.5687 21.4835V21.9351H37.8048V21.4835H34.5687ZM34.5687 22.0913V22.5428H37.8048V22.0913H34.5687ZM43.579 22.0931L41.0282 23.1284L41.7484 24.809L42.4233 24.524L42.0485 23.6684L42.3636 23.5183L42.7239 24.3438L43.3387 24.0884L42.9939 23.2935L43.294 23.1585L43.6538 24.0136L44.2841 23.7587L43.579 22.0931ZM20.2761 22.4083L19.9163 23.2032L22.4069 24.3589L23.2023 22.738L22.587 22.4229L22.1068 23.2634L20.2761 22.4083ZM33.3556 22.6176C33.3853 22.6159 33.4199 22.6236 33.4671 22.6548L34.1181 23.0964C34.1992 23.1556 34.2531 23.265 34.2531 23.3532L34.2455 23.9633V23.9643V23.9657C34.2455 24.2059 34.3671 24.4107 34.524 24.5536C34.6165 24.6379 34.7225 24.7044 34.8359 24.7451C34.7225 24.7857 34.6165 24.8522 34.524 24.9365C34.3671 25.0795 34.2455 25.2842 34.2455 25.5245V25.5259V25.5268L34.2531 26.1392C34.2531 26.2275 34.1936 26.3383 34.1124 26.3975L33.4652 26.8363C33.4023 26.8778 33.3638 26.8772 33.3274 26.8683C33.2909 26.8594 33.2552 26.8335 33.231 26.7963C33.1825 26.722 33.1615 26.6354 33.3015 26.5353L33.3039 26.5334L33.3062 26.5315L33.6176 26.294C33.7229 26.2186 33.8702 26.092 33.8702 25.8744V25.873V25.8716L33.8627 25.3725C33.8627 25.2661 33.8244 25.1459 33.7168 25.0644C33.6093 24.983 33.4556 24.973 33.3086 25.0212C33.2036 25.0556 33.135 25.0926 33.08 25.1134C33.025 25.1341 32.9784 25.1468 32.8772 25.1468C32.7354 25.1468 32.6484 25.0934 32.5828 25.0169C32.5172 24.9404 32.4835 24.8339 32.4835 24.7639V24.7262C32.4835 24.6563 32.5172 24.5497 32.5828 24.4732C32.6484 24.3967 32.7354 24.3434 32.8772 24.3434C32.9784 24.3434 33.025 24.356 33.08 24.3768C33.135 24.3975 33.2036 24.4345 33.3086 24.469C33.4556 24.5172 33.6093 24.5071 33.7168 24.4257C33.8244 24.3443 33.8627 24.2212 33.8627 24.1148L33.8702 23.6185V23.6171V23.6157C33.8702 23.3981 33.7182 23.2682 33.6129 23.1929L33.3062 22.9586L33.3039 22.9567L33.3015 22.9548C33.1615 22.8547 33.1825 22.7681 33.231 22.6938C33.2552 22.6566 33.2909 22.6308 33.3274 22.6218C33.3365 22.6196 33.3457 22.6182 33.3556 22.6176ZM39.0104 23.0358C39.3705 23.2711 39.744 23.5369 40.0362 23.8998C40.3642 24.3072 40.5964 24.8313 40.5964 25.604C40.5964 27.0556 39.2408 28.2215 37.937 28.2215H34.786C34.6964 28.2215 34.6049 28.2626 34.5494 28.326C34.4939 28.3894 34.4717 28.4659 34.4723 28.539C34.4729 28.6122 34.4964 28.687 34.5513 28.7493C34.6061 28.8116 34.6963 28.8532 34.786 28.8532H37.8622C38.9682 28.8532 39.5579 29.5651 39.5579 30.4055C39.5579 31.2244 38.9454 31.9944 37.8697 31.9944H34.6999C34.6231 31.9944 34.5415 32.0292 34.4911 32.0851C34.4407 32.1411 34.4196 32.2092 34.42 32.2742C34.4204 32.3393 34.4416 32.4063 34.4915 32.4614C34.5414 32.5166 34.6228 32.5517 34.6999 32.5517H37.0593C37.5671 32.5517 37.9991 33.0466 37.9991 33.5193C37.9991 33.759 37.9309 33.9802 37.7803 34.1411C37.6298 34.302 37.3891 34.4186 36.9845 34.4186H35.5696C35.5132 34.4186 35.4539 34.431 35.3994 34.4704C35.3448 34.5098 35.3001 34.585 35.3025 34.6632C35.3048 34.7414 35.3498 34.8084 35.4022 34.8457C35.4546 34.883 35.513 34.8965 35.5696 34.8965H36.508C36.6404 34.8965 36.7383 34.9544 36.8156 35.0485C36.893 35.1425 36.9379 35.2743 36.9379 35.3796C36.9379 35.5107 36.8895 35.632 36.8039 35.7079C36.7483 35.7571 36.6716 35.7913 36.5663 35.7996C36.5715 35.7454 36.5724 35.684 36.5362 35.6105C36.4933 35.5233 36.3736 35.4539 36.2719 35.4539H35.7089C35.5128 35.4539 35.2963 35.38 35.1364 35.2404C34.9765 35.1008 34.8669 34.9029 34.8669 34.6181C34.8669 34.3561 34.9764 34.1694 35.1317 34.0353C35.287 33.9012 35.4934 33.8311 35.6454 33.8311H37.0292C37.0916 33.8311 37.1525 33.8204 37.2107 33.785C37.2689 33.7497 37.3289 33.6753 37.3288 33.5828C37.3287 33.4902 37.2684 33.4158 37.2103 33.3805C37.1521 33.3453 37.0916 33.3349 37.0292 33.3349H34.8613C34.0271 33.3349 33.5626 32.7446 33.5626 32.1082C33.5626 31.5404 34.0489 30.8674 34.786 30.8674H38.0122C38.1001 30.8674 38.1904 30.8264 38.2441 30.7639C38.2978 30.7014 38.319 30.627 38.3184 30.556C38.3179 30.485 38.2959 30.412 38.2427 30.3504C38.1895 30.2889 38.1003 30.2474 38.0122 30.2474H34.7263C33.8076 30.2474 33.0809 29.5662 33.0809 28.5376C33.0809 27.6784 33.784 26.7973 34.8236 26.7973H37.802C37.9644 26.7973 38.1101 26.7242 38.1994 26.6176C38.2888 26.511 38.3286 26.3796 38.3293 26.2502C38.3299 26.1209 38.2914 25.9883 38.2018 25.881C38.1122 25.7737 37.9654 25.7008 37.802 25.7008H34.6242L34.6218 25.5226C34.6218 25.4125 34.6816 25.3019 34.7775 25.2145C34.8734 25.1271 35.0024 25.0771 35.0814 25.0771H36.8622C36.9311 25.0771 36.9993 25.0612 37.0663 25.0151C37.1334 24.9689 37.1957 24.8694 37.1957 24.7451C37.1957 24.617 37.1576 24.5523 37.0663 24.4751C36.9993 24.4289 36.9311 24.413 36.8622 24.413H35.0814C35.0025 24.413 34.8734 24.363 34.7775 24.2756C34.6816 24.1883 34.6218 24.0757 34.6218 23.9657L34.6232 23.8565H36.7968C36.9171 23.8565 37.0269 23.818 37.1134 23.7516C37.1998 23.6853 37.2705 23.5836 37.2705 23.4553V23.294H38.3274C38.6016 23.294 38.8398 23.1918 39.0104 23.0358ZM40.928 25.0292C41.2387 25.9632 41.4069 26.9623 41.4069 28.0005C41.4069 31.2868 39.7216 34.1793 37.1679 35.8612C37.2676 35.7194 37.3142 35.5484 37.3142 35.3796C37.3142 35.1784 37.242 34.9745 37.1063 34.8095C37.1009 34.803 37.0945 34.7971 37.0889 34.7907C37.5169 34.77 37.8428 34.6252 38.055 34.3984C38.2845 34.1533 38.3754 33.8312 38.3754 33.5193C38.3754 33.0585 38.1174 32.6152 37.7267 32.3707H37.8697C39.1303 32.3707 39.9342 31.4184 39.9342 30.4055C39.9342 29.5467 39.3755 28.7773 38.4464 28.548C39.7805 28.2974 40.9727 27.0969 40.9727 25.604C40.9727 25.3996 40.9569 25.2084 40.928 25.0292ZM32.1872 25.096C32.216 25.1539 32.2525 25.2098 32.2973 25.262C32.425 25.411 32.629 25.5231 32.8772 25.5231C33.0182 25.5231 33.1278 25.4974 33.2131 25.4652C33.2983 25.433 33.3533 25.4024 33.4257 25.3786C33.4599 25.3674 33.4764 25.3655 33.485 25.3655C33.4855 25.3678 33.4864 25.3695 33.4864 25.3754V25.3768V25.3782L33.4939 25.8772C33.4939 25.8926 33.4581 25.9454 33.3937 25.9915L33.3914 25.9929L33.389 25.9948L33.0781 26.2328C32.7996 26.432 32.771 26.7796 32.9158 27.0019C32.9774 27.0965 33.0679 27.1733 33.1783 27.215C32.8769 27.5923 32.7046 28.0637 32.7046 28.5376C32.7046 29.5828 33.3824 30.3751 34.2813 30.5739C33.608 30.8039 33.1863 31.4764 33.1863 32.1082C33.1863 32.9365 33.8423 33.7112 34.8613 33.7112H34.9351C34.9186 33.7241 34.9017 33.7364 34.8857 33.7502C34.6599 33.9452 34.4906 34.2458 34.4906 34.6181C34.4906 35.005 34.6542 35.3194 34.8885 35.524C35.1229 35.7285 35.4213 35.8302 35.7089 35.8302H36.1802C36.1704 35.8646 36.1595 35.8965 36.1595 35.8965C36.1364 35.9488 36.1383 36.0086 36.1646 36.0593C36.191 36.1099 36.2389 36.146 36.2949 36.1571C36.4296 36.1838 36.5569 36.1856 36.6722 36.166C35.3462 36.9263 33.8175 37.3731 32.1872 37.405V25.096ZM22.047 25.4238L19.1209 26.3843L19.016 27.2545L21.7921 28.7549L21.7771 27.7498L21.3575 27.5555L21.4205 26.5221L21.9121 26.3993L22.047 25.4238ZM43.564 25.5141C42.5846 25.5141 42.0936 26.3167 42.0936 27.1195C42.0936 27.9222 42.6744 28.7253 43.564 28.7253C44.4531 28.7253 45.0494 27.9973 45.0494 27.1195C45.0494 26.2567 44.5284 25.5141 43.564 25.5141ZM34.6284 26.0771H37.802C37.8663 26.0771 37.8899 26.0946 37.913 26.1223C37.9361 26.15 37.9532 26.1977 37.953 26.2484C37.9527 26.2991 37.9349 26.3474 37.9111 26.3758C37.8873 26.4043 37.8635 26.421 37.802 26.421H34.8236C34.7329 26.421 34.6443 26.4268 34.5579 26.4374C34.6035 26.3456 34.6294 26.2436 34.6294 26.1369V26.1359V26.1345L34.6284 26.0771ZM43.5828 26.3843C44.0145 26.3843 44.2662 26.7874 44.2662 27.1195C44.2662 27.444 44.0052 27.8547 43.5828 27.8547C43.1602 27.8547 42.9144 27.4984 42.9144 27.1195C42.9144 26.7406 43.1511 26.3843 43.5828 26.3843ZM20.762 26.6867L20.7263 27.2625L19.9313 26.8942L20.762 26.6867ZM22.6806 29.3029H25.8232V35.0955C24.1522 33.6402 22.9997 31.6045 22.6806 29.3029ZM28.7672 29.3029H31.8109V37.405C30.7433 37.3839 29.7193 37.1847 28.7672 36.8363V29.3029Z" fill="url(#paint3_linear_601_49985)"/>
<path fill-rule="evenodd" clip-rule="evenodd" d="M33.3556 22.6176C33.3853 22.6159 33.4199 22.6236 33.4671 22.6548L34.118 23.0964C34.1992 23.1556 34.253 23.265 34.253 23.3532L34.2455 23.9633V23.9643V23.9657C34.2455 24.2059 34.367 24.4107 34.524 24.5536C34.6165 24.6379 34.7225 24.7044 34.8358 24.7451C34.7225 24.7857 34.6165 24.8522 34.524 24.9365C34.367 25.0795 34.2455 25.2842 34.2455 25.5245V25.5259V25.5268L34.253 26.1392C34.253 26.2275 34.1935 26.3383 34.1124 26.3975L33.4652 26.8363C33.4023 26.8778 33.3638 26.8772 33.3274 26.8683C33.2909 26.8594 33.2551 26.8335 33.2309 26.7963C33.1825 26.722 33.1614 26.6354 33.3015 26.5353L33.3038 26.5334L33.3062 26.5315L33.6176 26.294C33.7229 26.2186 33.8702 26.092 33.8702 25.8744V25.873V25.8716L33.8626 25.3725C33.8626 25.2661 33.8244 25.1459 33.7168 25.0644C33.6093 24.983 33.4556 24.973 33.3085 25.0212C33.2035 25.0556 33.1349 25.0926 33.0799 25.1134C33.025 25.1341 32.9784 25.1468 32.8772 25.1468C32.7354 25.1468 32.6484 25.0934 32.5828 25.0169C32.5172 24.9404 32.4835 24.8339 32.4835 24.7639V24.7263C32.4835 24.6563 32.5172 24.5497 32.5828 24.4732C32.6484 24.3967 32.7354 24.3434 32.8772 24.3434C32.9784 24.3434 33.025 24.356 33.0799 24.3768C33.1349 24.3975 33.2035 24.4345 33.3085 24.469C33.4556 24.5172 33.6093 24.5071 33.7168 24.4257C33.8244 24.3443 33.8626 24.2212 33.8626 24.1148L33.8702 23.6185V23.6171V23.6157C33.8702 23.3981 33.7182 23.2682 33.6129 23.1929L33.3062 22.9586L33.3038 22.9567L33.3015 22.9548C33.1614 22.8547 33.1825 22.7681 33.2309 22.6938C33.2551 22.6566 33.2909 22.6308 33.3274 22.6218C33.3365 22.6196 33.3457 22.6182 33.3556 22.6176Z" fill="#9D0D16"/>
<path fill-rule="evenodd" clip-rule="evenodd" d="M39.0104 23.0358C39.3705 23.2711 39.744 23.5369 40.0362 23.8998C40.3642 24.3072 40.5965 24.8313 40.5965 25.604C40.5965 27.0556 39.2409 28.2215 37.937 28.2215H34.786C34.6965 28.2215 34.6049 28.2626 34.5494 28.326C34.4939 28.3894 34.4717 28.4659 34.4723 28.539C34.4729 28.6122 34.4964 28.687 34.5513 28.7493C34.6062 28.8116 34.6963 28.8532 34.786 28.8532H37.8622C38.9682 28.8532 39.5579 29.5651 39.5579 30.4055C39.5579 31.2244 38.9454 31.9944 37.8697 31.9944H34.6999C34.6231 31.9944 34.5415 32.0292 34.4911 32.0851C34.4407 32.1411 34.4197 32.2092 34.4201 32.2742C34.4205 32.3393 34.4417 32.4063 34.4916 32.4614C34.5415 32.5166 34.6228 32.5517 34.6999 32.5517H37.0593C37.5671 32.5517 37.9991 33.0466 37.9991 33.5193C37.9991 33.759 37.931 33.9802 37.7804 34.1411C37.6298 34.302 37.3892 34.4186 36.9845 34.4186H35.5696C35.5133 34.4186 35.4539 34.431 35.3994 34.4704C35.3448 34.5098 35.3002 34.585 35.3025 34.6632C35.3048 34.7414 35.3498 34.8084 35.4022 34.8457C35.4546 34.883 35.5131 34.8965 35.5696 34.8965H36.508C36.6404 34.8965 36.7383 34.9544 36.8156 35.0485C36.893 35.1425 36.9379 35.2743 36.9379 35.3796C36.9379 35.5107 36.8895 35.632 36.8039 35.7079C36.7484 35.7571 36.6716 35.7913 36.5664 35.7996C36.5715 35.7454 36.5724 35.684 36.5362 35.6105C36.4933 35.5234 36.3736 35.4539 36.2719 35.4539H35.7089C35.5128 35.4539 35.2964 35.38 35.1364 35.2404C34.9765 35.1008 34.8669 34.9029 34.8669 34.6181C34.8669 34.3561 34.9764 34.1694 35.1317 34.0353C35.2871 33.9012 35.4934 33.8311 35.6454 33.8311H37.0292C37.0917 33.8311 37.1525 33.8204 37.2108 33.785C37.269 33.7497 37.3289 33.6753 37.3288 33.5828C37.3287 33.4902 37.2684 33.4158 37.2103 33.3805C37.1521 33.3453 37.0916 33.3349 37.0292 33.3349H34.8613C34.0271 33.3349 33.5626 32.7446 33.5626 32.1082C33.5626 31.5404 34.0489 30.8674 34.786 30.8674H38.0123C38.1001 30.8674 38.1904 30.8264 38.2441 30.7639C38.2979 30.7014 38.319 30.627 38.3185 30.556C38.318 30.485 38.2959 30.412 38.2427 30.3504C38.1896 30.2889 38.1003 30.2474 38.0123 30.2474H34.7263C33.8077 30.2474 33.0809 29.5662 33.0809 28.5376C33.0809 27.6784 33.784 26.7973 34.8236 26.7973H37.802C37.9644 26.7973 38.1101 26.7242 38.1995 26.6176C38.2888 26.511 38.3286 26.3796 38.3293 26.2502C38.33 26.1209 38.2914 25.9884 38.2018 25.881C38.1122 25.7737 37.9655 25.7009 37.802 25.7009H34.6242L34.6219 25.5226C34.6219 25.4125 34.6816 25.3019 34.7775 25.2145C34.8735 25.1271 35.0025 25.0771 35.0814 25.0771H36.8622C36.9311 25.0771 36.9993 25.0612 37.0664 25.0151C37.1334 24.9689 37.1957 24.8694 37.1957 24.7451C37.1957 24.617 37.1576 24.5523 37.0664 24.4751C36.9993 24.4289 36.9311 24.413 36.8622 24.413H35.0814C35.0025 24.413 34.8735 24.363 34.7775 24.2756C34.6816 24.1883 34.6219 24.0757 34.6219 23.9657L34.6233 23.8565H36.7968C36.9171 23.8565 37.0269 23.818 37.1134 23.7516C37.1998 23.6853 37.2705 23.5836 37.2705 23.4553V23.294H38.3274C38.6016 23.294 38.8398 23.1918 39.0104 23.0358Z" fill="url(#paint4_linear_601_49985)"/>
<defs>
<linearGradient id="paint0_linear_601_49985" x1="25.8912" y1="21.8222" x2="31.9473" y2="38.2676" gradientUnits="userSpaceOnUse">
<stop stop-color="white"/>
<stop offset="1" stop-color="#53EEEF"/>
</linearGradient>
<linearGradient id="paint1_linear_601_49985" x1="31.647" y1="19.2362" x2="37.9857" y2="37.4048" gradientUnits="userSpaceOnUse">
<stop stop-color="#2F7FBE"/>
<stop offset="1" stop-color="#225D8B"/>
</linearGradient>
<linearGradient id="paint2_linear_601_49985" x1="24.323" y1="21.2583" x2="32.6584" y2="37.5474" gradientUnits="userSpaceOnUse">
<stop stop-color="#D50D16"/>
<stop offset="0.5" stop-color="#880D16"/>
<stop offset="1" stop-color="#520D16"/>
</linearGradient>
<linearGradient id="paint3_linear_601_49985" x1="22.6773" y1="19.1573" x2="41.0882" y2="34.8825" gradientUnits="userSpaceOnUse">
<stop stop-color="#F8FFBF"/>
<stop offset="0.508929" stop-color="#F8E45E"/>
<stop offset="0.75" stop-color="#F8D35E"/>
<stop offset="1" stop-color="#EE8E0A"/>
</linearGradient>
<linearGradient id="paint4_linear_601_49985" x1="34.4614" y1="24.376" x2="38.1957" y2="35.4797" gradientUnits="userSpaceOnUse">
<stop stop-color="#157031"/>
<stop offset="1" stop-color="#0F5324"/>
</linearGradient>
</defs>
</svg>
