<svg width="64" height="39" viewBox="0 0 64 39" fill="none" xmlns="http://www.w3.org/2000/svg">
<g clip-path="url(#clip0_601_49994)">
<path fill-rule="evenodd" clip-rule="evenodd" d="M31.9999 17.8884C31.9414 17.8884 31.8984 17.9323 31.898 17.9332C31.8954 17.9352 30.8599 18.9233 30.8599 18.9233C30.4781 19.2919 29.9712 19.1376 29.917 19.1196C29.917 19.1196 25.4909 17.9122 25.4903 17.9118C24.6456 17.657 24.4778 17.3822 24.3486 17.0484C24.3486 17.0484 24.2735 16.8407 24.0896 16.7864C24.0896 16.7864 18.6791 15.1981 18.6787 15.1981C18.4579 15.1299 18.3364 15.0676 18.2496 14.8995C18.2496 14.8995 17.9526 14.3765 17.9516 14.3751C17.8857 14.2498 17.7664 14.2365 17.7595 14.2355C17.3503 14.1802 17.2303 13.9521 17.1796 13.8549L16.9382 13.4311C16.8627 13.2998 16.7548 13.2887 16.7515 13.2883C16.5188 13.2735 16.4081 13.2149 16.3119 13.0568C16.3119 13.0568 16.0759 12.6644 16.0749 12.6624C15.9589 12.4482 15.999 12.2947 16.0525 12.2038C16.1652 12.0171 16.3715 12.0029 16.4543 12H29.3919C29.7582 12 30.0542 12.111 30.2731 12.3305C30.4303 12.4872 30.5385 12.6915 30.5945 12.9377C30.5955 12.9435 30.6107 12.9949 30.7214 12.9949H33.2786C33.3893 12.9949 33.4045 12.9435 33.4055 12.9377C33.4615 12.6915 33.5697 12.4871 33.7269 12.3305C33.9457 12.111 34.2417 12 34.6081 12H47.5457C47.6285 12.0029 47.8348 12.0171 47.9474 12.2038C48.0009 12.2947 48.041 12.4482 47.925 12.6624C47.9241 12.6644 47.6881 13.0568 47.6881 13.0568C47.5919 13.2148 47.4812 13.2735 47.2485 13.2883C47.2452 13.2887 47.1372 13.2998 47.0617 13.4311L46.8204 13.8549C46.7696 13.9521 46.6496 14.1802 46.2405 14.2355C46.2335 14.2365 46.1142 14.2498 46.0483 14.3751C46.0473 14.3765 45.7504 14.8995 45.7504 14.8995C45.6636 15.0676 45.5421 15.13 45.3213 15.1981C45.3209 15.1981 39.9103 16.7864 39.9103 16.7864C39.7265 16.8407 39.6514 17.0484 39.6514 17.0484C39.5222 17.3822 39.3543 17.657 38.5097 17.9118C38.5091 17.9122 34.083 19.1196 34.083 19.1196C34.0288 19.1376 33.5218 19.2919 33.14 18.9233C33.14 18.9233 32.1046 17.9352 32.102 17.9332C32.1015 17.9323 32.0585 17.8884 32.0001 17.8884H31.9999H31.9999Z" fill="black"/>
<path fill-rule="evenodd" clip-rule="evenodd" d="M33.6406 12.9901C33.6858 12.7896 33.7723 12.6253 33.8966 12.501C34.0687 12.3286 34.3083 12.241 34.6076 12.241C34.6076 12.241 37.5015 12.241 40.551 12.241C40.3467 12.3939 40.2394 12.5873 40.2322 12.6001C40.1634 12.7291 40.0774 12.8801 39.9751 13.0491H33.6196C33.6327 13.0259 33.6406 12.9901 33.6406 12.9901L33.6406 12.9901L33.6406 12.9901ZM47.7132 12.5472C47.7099 12.5524 47.4811 12.933 47.4811 12.933C47.4377 13.0045 47.4109 13.0368 47.2326 13.0482C47.2316 13.0482 40.1941 13.0491 40.1941 13.0491C40.2728 12.9159 40.3404 12.7949 40.397 12.6896C40.399 12.6858 40.6482 12.2415 41.0909 12.2415L47.5388 12.241C47.6064 12.2439 47.6943 12.2515 47.7408 12.3282C47.7464 12.3386 47.7597 12.36 47.7597 12.3986C47.7597 12.4328 47.7488 12.4815 47.7133 12.5472H47.7132L47.7132 12.5472ZM46.8524 13.3121L46.6067 13.7435C46.5731 13.8074 46.5214 13.906 46.3572 13.9626C46.2199 13.9969 45.9469 13.9751 45.8523 13.9636L39.8655 13.5659C39.9429 13.4512 40.0146 13.3407 40.08 13.2359H46.9041C46.8863 13.2587 46.8687 13.2834 46.8524 13.312V13.3121L46.8524 13.3121ZM45.8346 14.2626C45.8362 14.2608 45.5992 14.678 45.5499 14.7647C45.5377 14.7809 45.4704 14.8542 45.251 14.8251L39.5142 14.0555C39.5929 13.9527 39.6674 13.8507 39.7372 13.7521L45.8314 14.1565C45.8402 14.1575 45.8659 14.1604 45.9026 14.1637C45.8776 14.1923 45.8547 14.2246 45.8347 14.2627L45.8346 14.2626L45.8346 14.2626ZM43.8615 15.3761C43.6456 15.4334 43.2231 15.3685 43.0764 15.3381C43.0764 15.3381 40.3779 14.7836 39.1344 14.5279C39.2207 14.4265 39.3035 14.326 39.382 14.2265L45.1431 14.9998L43.8615 15.3761H43.8615L43.8615 15.3761ZM41.9074 15.9496C41.6303 16.0238 41.2685 15.9038 41.265 15.9028L41.2607 15.9015C41.2607 15.9015 41.2602 15.901 41.2598 15.901L38.6213 15.0871C38.752 14.9542 38.8763 14.8222 38.9934 14.6899L43.0388 15.5214C43.0477 15.5228 43.1305 15.54 43.2469 15.5561L41.9074 15.9496H41.9074L41.9074 15.9496ZM39.8464 16.555C39.6591 16.6058 39.383 16.4977 39.2914 16.4515C39.2914 16.4515 38.5854 16.121 37.8604 15.7819C38.0782 15.6033 38.2815 15.421 38.471 15.2367L41.2071 16.0811C41.2124 16.083 41.2622 16.0992 41.3383 16.1163L39.8464 16.555L39.8464 16.555ZM39.4241 16.9679C39.3444 17.1722 39.2611 17.3826 38.6998 17.5936C38.4681 17.6656 38.1926 17.4607 38.1902 17.4584C38.1893 17.4574 37.5644 17.0102 36.8529 16.501C37.1419 16.3225 37.4239 16.1263 37.6975 15.912L39.2095 16.6197C39.2178 16.624 39.3737 16.7026 39.5626 16.7378C39.4723 16.8407 39.4314 16.9469 39.424 16.9679H39.4241L39.4241 16.9679ZM37.3094 17.9899L37.0987 18.047C36.9213 18.0895 36.7048 17.9137 36.6356 17.8407C36.6356 17.8407 36.2955 17.487 35.8585 17.0306C36.138 16.904 36.4112 16.7626 36.6779 16.6064L38.0791 17.6089C38.0847 17.6136 38.1648 17.6736 38.2824 17.7246C37.9711 17.8093 37.3094 17.9899 37.3094 17.9899V17.9899L37.3094 17.9899ZM35.4568 18.4952C35.3089 18.5185 35.1372 18.2757 35.0874 18.1851L34.6648 17.4698C35.01 17.3703 35.3474 17.2511 35.6756 17.1107L36.4998 17.9708C36.5072 17.978 36.5984 18.0727 36.7306 18.1475L35.4568 18.4952L35.4568 18.4952L35.4568 18.4952ZM34.0538 18.8776C33.9542 18.9005 33.8702 18.8904 33.798 18.8468C33.6429 18.7519 33.5913 18.5338 33.5884 18.5209L33.3729 17.7432C33.7499 17.6908 34.118 17.6169 34.4779 17.5217L34.9249 18.2786C34.9403 18.3057 35.031 18.4638 35.167 18.5743L34.0537 18.8776L34.0538 18.8776L34.0538 18.8776ZM33.1445 18.5953C33.1445 18.5953 32.5451 18.0232 32.3418 17.8298C32.6271 17.8199 32.9086 17.7989 33.185 17.7665L33.4055 18.5618C33.4118 18.5895 33.4557 18.7638 33.5782 18.9025C33.4093 18.8544 33.3581 18.8043 33.1445 18.5953V18.5953V18.5953ZM32.0936 17.6479V15.2248H32.4804L33.1343 17.5842C32.794 17.6232 32.4471 17.6446 32.0936 17.6479V17.6479ZM30.8652 17.5842L31.5195 15.2248H31.9063V17.6475C31.5521 17.6446 31.2054 17.6228 30.8652 17.5842V17.5842L30.8652 17.5842ZM30.6935 18.749C30.6088 18.8314 30.5135 18.8776 30.4213 18.9024C30.5446 18.7633 30.5875 18.5885 30.594 18.5614L30.8145 17.7675C31.091 17.7994 31.3724 17.8203 31.6576 17.8298C31.4292 18.047 30.6935 18.749 30.6935 18.749L30.6935 18.749ZM30.4111 18.5195C30.4111 18.5219 30.3603 18.7496 30.2012 18.8468C30.129 18.8904 30.0453 18.9005 29.9457 18.8776L28.8325 18.5743C28.9685 18.4633 29.0602 18.3051 29.0759 18.2761C29.0753 18.2766 29.2645 17.957 29.5209 17.5223C29.8809 17.6175 30.2496 17.6913 30.6266 17.7432L30.411 18.5195H30.4111V18.5195ZM28.5427 18.4952L27.269 18.1475C27.4011 18.0723 27.4928 17.9775 27.4997 17.9704C27.4997 17.9704 27.8638 17.5902 28.3239 17.1107C28.6525 17.2507 28.989 17.3707 29.3343 17.4702L28.9135 18.1833C28.8622 18.2756 28.6905 18.5185 28.5427 18.4952L28.5427 18.4952L28.5427 18.4952ZM26.9005 18.047L25.717 17.7246C25.8351 17.6732 25.9157 17.6127 25.9223 17.6074C25.9214 17.6084 26.5835 17.1345 27.3216 16.6064C27.5883 16.7621 27.8615 16.904 28.1414 17.0307L27.3639 17.8408C27.2947 17.9138 27.0782 18.0895 26.9005 18.047V18.047L26.9005 18.047ZM25.2982 17.5936C24.7393 17.3826 24.6555 17.1726 24.576 16.9689C24.5695 16.9507 24.5286 16.8421 24.4369 16.7378C24.6262 16.702 24.7827 16.6235 24.7929 16.6183C24.7914 16.6187 25.5489 16.2649 26.3024 15.912C26.5753 16.1263 26.8573 16.323 27.1465 16.501L25.8111 17.4564C25.8068 17.4607 25.5299 17.6666 25.2982 17.5936L25.2982 17.5936ZM24.1535 16.555C24.0971 16.5382 23.4698 16.3539 22.6612 16.1163C22.7383 16.0992 22.789 16.082 22.7947 16.0801C22.7924 16.0811 25.012 15.3962 25.5288 15.2367C25.7184 15.4205 25.9217 15.6033 26.1395 15.7815L24.7109 16.4502C24.6163 16.4977 24.3408 16.6058 24.1535 16.555H24.1535L24.1535 16.555ZM22.0934 15.95C21.6535 15.821 21.1898 15.6848 20.7523 15.5561C20.869 15.54 20.9524 15.5228 20.9611 15.5209C20.9607 15.5214 23.817 14.9342 25.0065 14.6899C25.1241 14.8218 25.2474 14.9542 25.3782 15.0871L22.7368 15.902C22.7308 15.9038 22.3706 16.0234 22.0934 15.95H22.0934L22.0934 15.95ZM20.1398 15.3767C19.5455 15.2014 19.0625 15.06 18.8563 14.9999L24.6183 14.2265C24.697 14.3255 24.7793 14.426 24.8655 14.5275L20.923 15.3382C20.7768 15.3686 20.3562 15.4334 20.1397 15.3767L20.1398 15.3767L20.1398 15.3767ZM18.7489 14.8251C18.531 14.8541 18.4626 14.7823 18.4501 14.7651L18.1633 14.2603C18.1439 14.2227 18.1208 14.1913 18.0969 14.1636C18.1336 14.1603 24.2633 13.7521 24.2633 13.7521C24.3331 13.8506 24.4071 13.9521 24.4857 14.0555L18.749 14.8251L18.7489 14.8251L18.7489 14.8251ZM17.6428 13.9626C17.4785 13.9059 17.4264 13.8074 17.3928 13.7435C17.2923 13.5726 17.1601 13.3173 17.0951 13.2359H23.9203C23.9858 13.3407 24.057 13.4511 24.1349 13.5659L18.1471 13.9636C18.0531 13.9751 17.78 13.9969 17.6428 13.9626V13.9626L17.6428 13.9626ZM16.7689 13.0491C16.6045 13.0368 16.5695 13.0173 16.5178 12.9324C16.5184 12.933 16.3033 12.5753 16.2861 12.5471C16.2505 12.4815 16.2387 12.4328 16.2402 12.3985C16.2443 12.3109 16.3038 12.2433 16.4608 12.2409L22.9091 12.2415C23.3455 12.2415 23.6029 12.6895 23.6029 12.6895C23.6596 12.7948 23.7272 12.9158 23.8063 13.0491H16.7689L16.7689 13.0491L16.7689 13.0491ZM29.3918 12.2409C29.6916 12.2409 29.9307 12.3286 30.1029 12.501C30.2272 12.6252 30.3135 12.7896 30.3594 12.9901C30.3594 12.9901 30.3686 13.0243 30.3804 13.0491H24.0249C23.9278 12.8896 23.7677 12.6001 23.7677 12.6001C23.7606 12.5872 23.6532 12.3938 23.4489 12.2409C26.4984 12.2409 29.3918 12.2409 29.3918 12.2409L29.3918 12.2409L29.3918 12.2409ZM38.5951 13.4821V13.2359H39.8586C39.7943 13.3368 39.7241 13.4425 39.6489 13.5516L38.5951 13.4821L38.5951 13.4821ZM38.5951 13.9326V13.6764L39.5177 13.7374C39.4495 13.8321 39.3767 13.9287 39.3007 14.0274L38.5951 13.9326H38.5951ZM38.5951 14.4174V14.1212L39.1657 14.1979C39.089 14.2928 39.0085 14.3884 38.9246 14.4851C38.7775 14.4546 38.6642 14.4317 38.5951 14.4174L38.5951 14.4174ZM38.5951 14.6085L38.7813 14.6465C38.7213 14.7127 38.6589 14.7799 38.5951 14.8461V14.6085ZM36.67 15.2248H38.2123C38.0551 15.381 37.6841 15.6833 37.6719 15.6934C37.2968 15.5176 36.931 15.3471 36.67 15.2248H36.67V15.2248ZM35.0693 15.2248H36.2283L37.5068 15.823C37.2411 16.0263 36.9679 16.2129 36.6872 16.383C36.0702 15.941 35.4201 15.4757 35.0693 15.2248V15.2248L35.0693 15.2248ZM34.1264 15.2248H34.7482L36.5105 16.4868C36.2536 16.634 35.9897 16.7679 35.7207 16.8869C35.1404 16.2821 34.4414 15.5528 34.1264 15.2248V15.2248ZM33.3387 15.2248H33.8667L35.5365 16.9659C35.2212 17.0974 34.8974 17.2092 34.5662 17.3031L33.3386 15.2248H33.3387V15.2248ZM33.1212 15.2248L34.379 17.3536C34.0347 17.4432 33.682 17.5117 33.3222 17.5608L32.6745 15.2248H33.1212V15.2248ZM30.8783 15.2248H31.325L30.6773 17.5608C30.3169 17.5117 29.9648 17.4431 29.6205 17.3541C30.0918 16.5569 30.7206 15.4918 30.8783 15.2248V15.2248ZM30.1327 15.2248H30.6609L29.4333 17.3031C29.1021 17.2098 28.7787 17.0974 28.4627 16.9654C29.1324 16.2677 29.9382 15.4276 30.1327 15.2248L30.1327 15.2248V15.2248ZM29.2514 15.2248H29.8732L28.2794 16.8869C28.0098 16.7679 27.7465 16.634 27.4888 16.4868C28.2537 15.9391 29.0509 15.3681 29.2514 15.2248V15.2248ZM26.3277 15.6934C26.3136 15.6819 25.9442 15.3714 25.7873 15.2248H27.3294L26.3277 15.6934V15.6934ZM27.7712 15.2248H28.9299L27.3122 16.3825C27.0313 16.2129 26.7582 16.0263 26.4929 15.8229C27.1002 15.5386 27.6625 15.2756 27.7712 15.2247V15.2248V15.2248ZM25.403 14.6085V14.8442C25.3397 14.7785 25.2781 14.7123 25.2187 14.6465C25.2927 14.6309 25.3546 14.6184 25.403 14.6085ZM25.403 14.1212V14.4174L25.0748 14.485C24.991 14.388 24.911 14.2927 24.8344 14.1979L25.403 14.1212L25.403 14.1212ZM25.403 13.6764V13.9326L24.6993 14.0274C24.6232 13.9287 24.551 13.8321 24.4829 13.7374L25.403 13.6764H25.403H25.403ZM25.403 13.4821L24.3516 13.5516C24.2759 13.4425 24.2061 13.3368 24.1418 13.2359H25.403V13.4821H25.403L25.403 13.4821Z" fill="white"/>
<path fill-rule="evenodd" clip-rule="evenodd" d="M25.5931 15.0376C25.5921 15.0366 25.5913 15.0356 25.5903 15.0347V13.2368H38.4081V15.0357C38.4077 15.0366 38.4071 15.0366 38.4067 15.0371L25.5931 15.0376L25.5931 15.0376L25.5931 15.0376Z" fill="url(#paint0_linear_601_49994)"/>
<path fill-rule="evenodd" clip-rule="evenodd" d="M26.442 13.524H26.3885L25.8408 14.7493H25.9892L25.9915 14.7423C26.0359 14.5931 26.093 14.4503 26.1484 14.3132C26.1484 14.3132 26.1563 14.2935 26.1599 14.2841C26.1734 14.2841 26.5699 14.2841 26.5835 14.2841C26.6407 14.4145 26.6993 14.5641 26.7621 14.7427L26.7646 14.7493H26.9693L26.442 13.5239V13.524L26.442 13.524ZM26.2014 14.1907C26.2126 14.1636 26.3563 13.8269 26.3735 13.7869C26.3903 13.8269 26.5369 14.1636 26.5485 14.1907C26.5197 14.1907 26.2294 14.1907 26.2013 14.1907H26.2014V14.1907Z" fill="white"/>
<path fill-rule="evenodd" clip-rule="evenodd" d="M27.0283 14.6622L27.0329 14.6669C27.0976 14.7374 27.2434 14.7703 27.322 14.7703C27.579 14.7703 27.7589 14.6046 27.7589 14.3666C27.7589 14.1693 27.6096 14.1112 27.4653 14.0541C27.3371 14.0031 27.2152 13.956 27.2152 13.8103C27.2152 13.6997 27.3024 13.6198 27.4219 13.6198C27.5174 13.6198 27.5896 13.6702 27.6262 13.7626L27.6287 13.7692H27.6613L27.7124 13.6145L27.7068 13.6093C27.637 13.5464 27.5296 13.524 27.4531 13.524C27.2136 13.524 27.059 13.6578 27.059 13.8654C27.059 14.0769 27.2167 14.1383 27.3555 14.1936C27.4811 14.2421 27.5988 14.2889 27.5988 14.4342C27.5988 14.569 27.4983 14.6751 27.3703 14.6751C27.2531 14.6751 27.1753 14.6247 27.0995 14.5008L27.0966 14.4961H27.064L27.0283 14.6622V14.6622L27.0283 14.6622Z" fill="white"/>
<path fill-rule="evenodd" clip-rule="evenodd" d="M28.726 13.5493H27.825V13.6755L27.8366 13.6745C27.94 13.6636 28.0399 13.654 28.2029 13.6535C28.2029 13.6749 28.2029 14.7532 28.2029 14.7532H28.376C28.376 14.7532 28.376 13.6755 28.376 13.654C28.4983 13.654 28.6153 13.6611 28.7246 13.6745L28.7368 13.6759V13.5493H28.726V13.5493Z" fill="white"/>
<path fill-rule="evenodd" clip-rule="evenodd" d="M29.3469 13.524C28.9646 13.524 28.6973 13.7816 28.6973 14.1498C28.6973 14.5212 28.9573 14.7703 29.3435 14.7703C29.7428 14.7703 30.0117 14.5103 30.0117 14.1236C30.0117 13.7092 29.6776 13.524 29.3469 13.524V13.524ZM29.6669 14.5565C29.5819 14.6465 29.4751 14.6923 29.3482 14.6923C29.0684 14.6923 28.8875 14.4875 28.8875 14.1708C28.8875 13.8198 29.0703 13.6021 29.364 13.6021C29.5025 13.6021 29.6333 13.6631 29.714 13.7649C29.8028 13.8783 29.8209 13.9965 29.8209 14.1379C29.8214 14.1455 29.8218 14.1541 29.8218 14.1623C29.8218 14.2774 29.775 14.4408 29.6669 14.5565L29.6669 14.5565L29.6669 14.5565Z" fill="white"/>
<path fill-rule="evenodd" clip-rule="evenodd" d="M31.2118 13.5493H31.1044C31.1044 13.5493 31.1044 14.4165 31.1044 14.4375C31.1034 14.4375 31.103 14.4375 31.1024 14.4375C31.0962 14.4303 30.2825 13.5493 30.2825 13.5493H30.1997V14.7494H30.3178C30.3178 14.7494 30.3178 13.842 30.3178 13.8206C30.3188 13.8206 30.3193 13.8206 30.3203 13.8206C30.3266 13.8278 31.0619 14.6418 31.0619 14.6418L31.1541 14.7494H31.1597H31.2224V13.5493H31.2118H31.2118L31.2118 13.5493Z" fill="white"/>
<path fill-rule="evenodd" clip-rule="evenodd" d="M33.1509 13.5492H33.1085L32.8178 14.0763C32.8178 14.0763 32.6339 14.4117 32.6172 14.4417C32.4379 14.1426 32.2764 13.8278 32.1389 13.5549L32.136 13.5492H32.075L32.0741 13.5592C32.0569 13.7364 31.9537 14.4588 31.9086 14.7374L31.9062 14.7493H32.0517V14.7389C32.0517 14.5699 32.0817 14.3178 32.1136 14.0506C32.1136 14.0506 32.1271 13.9326 32.1327 13.8854C32.1531 13.9244 32.3789 14.3531 32.4652 14.5298L32.5628 14.7308H32.5954L32.5981 14.7241C32.6986 14.4935 32.8402 14.2302 33.0342 13.8835C33.0617 14.0901 33.098 14.5031 33.1181 14.7398L33.1192 14.7493H33.3031L33.3014 14.7374C33.26 14.4464 33.2147 14.0611 33.1616 13.5592L33.1607 13.5492H33.151H33.1509V13.5492Z" fill="white"/>
<path fill-rule="evenodd" clip-rule="evenodd" d="M33.9741 13.524H33.9203L33.3723 14.7493H33.5215L33.5234 14.7423C33.5679 14.5917 33.6253 14.4484 33.681 14.3103C33.681 14.3103 33.6879 14.2931 33.6912 14.2841C33.7048 14.2841 34.1013 14.2841 34.1151 14.2841C34.1734 14.4174 34.2334 14.5707 34.2934 14.7427L34.2959 14.7493H34.5009L33.9741 13.5239V13.524V13.524ZM33.7331 14.1907C33.7443 14.1636 33.8882 13.8269 33.9054 13.7869C33.9225 13.8269 34.0686 14.1636 34.0804 14.1907C34.0515 14.1907 33.7615 14.1907 33.7331 14.1907V14.1907Z" fill="white"/>
<path fill-rule="evenodd" clip-rule="evenodd" d="M35.0278 14.1564C35.2444 14.1126 35.374 13.9893 35.374 13.8226C35.374 13.6393 35.2454 13.5493 34.9802 13.5493H34.6041V14.7494H34.7768C34.7768 14.7494 34.7768 14.195 34.7768 14.1741C34.7903 14.1741 34.8196 14.1741 34.8271 14.1741C34.8328 14.1812 34.9616 14.3327 34.9616 14.3327C34.9611 14.3321 35.165 14.596 35.165 14.596L35.2767 14.7494H35.2826H35.5028C35.5028 14.7494 35.0483 14.1817 35.0279 14.1564H35.0278L35.0278 14.1564ZM34.7768 14.0879C34.7768 14.0688 34.7768 13.6535 34.7768 13.6344C34.848 13.6311 34.9583 13.6264 35.0183 13.6359C35.138 13.6554 35.199 13.7254 35.199 13.843C35.199 13.9636 35.1197 14.0516 34.9863 14.0783C34.9113 14.0935 34.8206 14.0908 34.7768 14.0879V14.0879Z" fill="white"/>
<path fill-rule="evenodd" clip-rule="evenodd" d="M36.373 13.5493H35.4717V13.6755L35.4834 13.6745C35.587 13.6636 35.6868 13.654 35.8492 13.6535C35.8492 13.6749 35.8492 14.7532 35.8492 14.7532H36.0233C36.0233 14.7532 36.0233 13.6755 36.0233 13.654C36.1452 13.654 36.2623 13.6611 36.3717 13.6745L36.3839 13.6759V13.5493H36.3731H36.373L36.373 13.5493Z" fill="white"/>
<path fill-rule="evenodd" clip-rule="evenodd" d="M36.5261 14.7494H36.6895V13.5493H36.5261V14.7494Z" fill="white"/>
<path fill-rule="evenodd" clip-rule="evenodd" d="M37.8487 13.5493C37.8487 13.5493 37.8487 14.4165 37.8487 14.4375C37.8482 14.4375 37.8478 14.4375 37.8473 14.4375C37.8408 14.4303 37.0274 13.5493 37.0274 13.5493H36.9445V14.7494H37.0627C37.0627 14.7494 37.0627 13.842 37.0627 13.8206C37.0636 13.8206 37.0641 13.8206 37.0646 13.8206C37.071 13.8278 37.8073 14.6418 37.8073 14.6418L37.8995 14.7494H37.9668V13.5493H37.8487V13.5493Z" fill="white"/>
<path fill-rule="evenodd" clip-rule="evenodd" d="M22.1646 26.2674C22.0998 26.2635 22.0448 26.2569 21.9862 26.2569C21.9212 26.2569 21.8629 26.2635 21.8043 26.2674C21.7051 25.9825 21.5814 25.6538 21.444 25.342H20.5729C20.4528 25.6434 20.3291 25.9448 20.2333 26.2674C20.1851 26.2635 20.1475 26.2569 20.1061 26.2569C20.0615 26.2569 20.0237 26.2635 19.9861 26.2674L21.0565 23.8727H21.1356L22.1645 26.2674H22.1646ZM43.8927 26.2674H43.7893C43.7517 26.2197 43.6829 26.1373 43.6113 26.0582L42.1286 24.4199H42.095V26.2673C42.0606 26.2635 42.0297 26.2568 41.9984 26.2568C41.9644 26.2568 41.9331 26.2635 41.9024 26.2673V23.9236H42.0365L43.666 25.6881H43.7005V23.9236C43.7312 23.9265 43.7619 23.9337 43.7967 23.9337C43.8278 23.9337 43.8587 23.9265 43.8927 23.9236V26.2673L43.8927 26.2674ZM41.1149 23.9236C41.163 23.9265 41.2147 23.9337 41.2658 23.9337C41.3138 23.9337 41.3621 23.9265 41.4167 23.9236V26.2674C41.362 26.2635 41.3138 26.2569 41.2658 26.2569C41.2147 26.2569 41.163 26.2635 41.1149 26.2674V23.9236ZM40.0154 26.274C39.9604 26.2707 39.9122 26.2635 39.8638 26.2635C39.8127 26.2635 39.7614 26.2707 39.7133 26.274V24.088C39.3671 24.088 39.1578 24.1084 38.9614 24.1289C38.9657 24.0946 38.972 24.0603 38.972 24.0265C38.972 23.9918 38.9657 23.9612 38.9614 23.9236H40.7321C40.7287 23.9612 40.7223 23.9918 40.7223 24.0265C40.7223 24.0603 40.7287 24.0946 40.7321 24.1289C40.5608 24.1084 40.3203 24.088 40.0155 24.088V26.274H40.0154H40.0154ZM37.2358 23.9236H37.9632C38.492 23.9236 38.7251 24.0979 38.7251 24.4442C38.7251 24.8414 38.3686 25.0338 38.0219 25.0952L38.7287 25.9896L38.8935 26.1815L38.9582 26.2674C38.8865 26.2635 38.8246 26.2569 38.7594 26.2569C38.6944 26.2569 38.6258 26.2635 38.5632 26.2674C38.4881 26.1611 38.4198 26.0644 38.3471 25.9686L37.9428 25.4448L37.6682 25.1233H37.5383V26.2674C37.483 26.2635 37.4351 26.2569 37.387 26.2569C37.3354 26.2569 37.2839 26.2635 37.2358 26.2674V23.9236L37.2358 23.9236ZM37.5383 24.9923C37.5859 24.9957 37.8054 25.0095 37.9805 24.9752C38.2317 24.9242 38.4199 24.7523 38.4199 24.4855C38.4199 24.2489 38.2993 24.0946 38.0423 24.0531C37.9157 24.0332 37.6817 24.0432 37.5383 24.0504V24.9924L37.5383 24.9923H37.5383ZM36.9982 26.2674C36.9325 26.2635 36.8785 26.2569 36.8193 26.2569C36.7543 26.2569 36.696 26.2635 36.6383 26.2674C36.5384 25.9825 36.4145 25.6538 36.2774 25.342H35.4064C35.286 25.6434 35.1622 25.9448 35.0665 26.2674C35.0184 26.2635 34.9808 26.2569 34.9397 26.2569C34.8952 26.2569 34.8569 26.2635 34.8197 26.2674L35.8897 23.8727H35.9687L36.9982 26.2674ZM35.8454 24.3213L35.4713 25.198H36.2261L35.8454 24.3213H35.8454ZM34.3843 23.9236C34.4736 24.7695 34.5699 25.6129 34.6621 26.2674C34.6002 26.2635 34.5521 26.2569 34.501 26.2569C34.4457 26.2569 34.3912 26.2635 34.3399 26.2674C34.2819 25.5782 34.2121 24.8385 34.1642 24.4994C33.7664 25.2086 33.4712 25.7563 33.2655 26.2296H33.2279L33.0393 25.842C32.8193 25.3905 32.5793 24.9448 32.3461 24.4994C32.2706 25.1671 32.178 25.8453 32.178 26.2674C32.1337 26.2635 32.0956 26.2569 32.0584 26.2569C32.0137 26.2569 31.9756 26.2635 31.9347 26.2674C32.0234 25.7158 32.2293 24.2832 32.2637 23.9236H32.353C32.6275 24.469 32.957 25.1123 33.3236 25.7191C33.6504 25.1324 33.9659 24.5371 34.3121 23.9236H34.3843H34.3843ZM30.5179 26.2674H30.4144C30.377 26.2197 30.3082 26.1373 30.2365 26.0582L28.7539 24.4199H28.7198V26.2673C28.6855 26.2635 28.6544 26.2568 28.6236 26.2568C28.5896 26.2568 28.5589 26.2635 28.5276 26.2673V23.9236H28.6617L30.291 25.6881H30.3257V23.9236C30.3564 23.9265 30.3872 23.9337 30.4213 23.9337C30.4519 23.9337 30.4832 23.9265 30.5179 23.9236V26.2673V26.2674H30.5179ZM25.597 25.0952C25.597 24.3447 26.156 23.8727 26.8665 23.8727C27.5118 23.8727 28.1667 24.2212 28.1667 25.0437C28.1667 25.8077 27.6249 26.3087 26.8603 26.3087C26.1019 26.3087 25.5971 25.8287 25.5971 25.0952L25.597 25.0952L25.597 25.0952ZM27.6147 24.3174C27.4434 24.1018 27.1758 23.9851 26.9005 23.9851C26.2974 23.9851 25.9335 24.4409 25.9335 25.1361C25.9335 25.8324 26.3588 26.1949 26.8701 26.1949C27.5942 26.1949 27.855 25.4481 27.8306 25.0714C27.8306 24.7876 27.793 24.547 27.6147 24.3174V24.3174L27.6147 24.3174ZM24.9202 26.274C24.865 26.2707 24.8173 26.2635 24.7691 26.2635C24.7174 26.2635 24.6657 26.2707 24.6183 26.274V24.088C24.2716 24.088 24.0619 24.1084 23.8668 24.1289C23.8701 24.0946 23.877 24.0603 23.877 24.0265C23.877 23.9918 23.8701 23.9612 23.8668 23.9236H25.637C25.6332 23.9612 25.6268 23.9918 25.6268 24.0265C25.6268 24.0603 25.6332 24.0946 25.637 24.1289C25.4653 24.1084 25.2256 24.088 24.9202 24.088V26.274ZM22.4052 25.8044C22.5387 26.0239 22.6928 26.1611 22.9612 26.1611C23.2386 26.1611 23.4377 25.931 23.4377 25.6606C23.4377 25.0233 22.3637 25.3048 22.3637 24.5299C22.3637 24.088 22.7137 23.8727 23.1256 23.8727C23.2898 23.8727 23.4894 23.9236 23.6156 24.0365C23.5745 24.1256 23.5508 24.2212 23.5234 24.3175H23.4894C23.4172 24.1322 23.2664 24.0194 23.064 24.0194C22.8271 24.0194 22.6319 24.1774 22.6319 24.4199C22.6319 25.051 23.7122 24.7972 23.7122 25.5272C23.7122 26.0173 23.3307 26.3087 22.8645 26.3087C22.6969 26.3087 22.4223 26.2368 22.3056 26.1096C22.3394 26.0101 22.3568 25.9072 22.3706 25.8044H22.4052L22.4052 25.8044ZM21.0118 24.3213L20.6383 25.198H21.3927L21.0118 24.3213H21.0118H21.0118Z" fill="black"/>
</g>
<defs>
<linearGradient id="paint0_linear_601_49994" x1="29.2947" y1="11.4328" x2="34.7036" y2="16.8417" gradientUnits="userSpaceOnUse">
<stop stop-color="#339966"/>
<stop offset="1" stop-color="#004F32"/>
</linearGradient>
<clipPath id="clip0_601_49994">
<rect width="32" height="14.3087" fill="white" transform="translate(16 12)"/>
</clipPath>
</defs>
</svg>
