<svg width="64" height="35" viewBox="0 0 64 35" fill="none" xmlns="http://www.w3.org/2000/svg">
<g clip-path="url(#clip0_601_50003)">
<path fill-rule="evenodd" clip-rule="evenodd" d="M34.7726 12.9139C33.826 12.4535 32.965 12.3036 31.9434 12.3036C31.0174 12.3036 30.0493 12.5 29.1706 12.8796C28.2561 12.5613 26.0652 12.7503 25.5864 12.761C25.0381 12.7736 22.7697 12.6366 22.2339 12.6366C21.6982 12.6366 20.5906 12.654 19.7551 12.7112C18.4831 12.7987 17.0451 12.6746 16.8716 12.6314C16.7874 12.6108 16.725 12.6617 16.725 12.6617C16.6877 12.7112 16.3015 13.1472 16.3015 13.1472L16.3392 13.2724L17.2485 13.7332L17.1241 14.3316L18.0095 14.7308C18.0095 14.7308 18.0095 15.2285 18.0586 15.2909C18.1084 15.354 18.9938 15.5777 18.9938 15.5777C18.9938 15.5777 19.082 16.1596 19.1433 16.2131C19.2471 16.3054 20.1782 16.4007 20.1782 16.4007C20.1782 16.4007 20.4643 16.9239 20.5888 16.9737C20.7135 17.0235 21.7108 17.1734 21.8972 17.1232C21.8972 17.1232 21.9799 17.5589 22.1564 17.6375C22.3451 17.721 23.4302 17.6848 23.4302 17.6848C23.4302 17.6848 23.5649 18.1142 23.7809 18.1814C23.9829 18.2438 24.9258 17.9957 24.9258 17.9957C24.9258 17.9957 25.0636 18.3139 25.2005 18.3697C25.4095 18.455 26.1712 18.1847 26.1712 18.1847C26.5629 19.7985 27.8677 20.9405 29.4043 21.5375L29.6192 21.9695L30.1243 21.7782L30.3883 22.1832L30.8494 21.9325L31.1636 22.3136L31.5779 22.0138L31.943 22.3527L32.3067 22.0038L32.722 22.3076L33.0348 21.9274L33.4966 22.1788L33.7614 21.7771L34.2686 21.9717L34.4776 21.5393C35.902 20.9866 37.2208 19.8358 37.6495 18.3767C37.7828 18.4361 38.0357 18.5225 38.2446 18.5314C38.2446 18.5314 38.4828 18.4454 38.5795 18.1441C38.5795 18.1441 39.4062 18.4022 39.5572 18.356C39.5572 18.356 39.696 18.3486 39.8241 17.9259C39.9087 17.9647 39.9788 17.944 40.1047 17.9713C40.7482 18.1112 41.0288 18.0355 41.0288 18.0355C41.0288 18.0355 41.1728 18.0112 41.2869 17.4692C41.3441 17.4777 41.3851 17.4847 41.4283 17.4821C41.4283 17.4821 42.3838 17.5094 42.5492 17.4267C42.5492 17.4267 42.7002 17.3887 42.7545 16.8456C43.1485 16.9047 43.5029 16.9305 43.7898 16.8976C43.7898 16.8976 44.111 16.7872 44.2347 16.1555C44.4514 16.1419 45.0905 16.0994 45.1699 16.0053C45.1699 16.0053 45.3272 15.9329 45.3272 15.3654C45.5771 15.3492 45.9836 15.2968 46.1302 15.141C46.1302 15.141 46.2852 14.9615 46.218 14.5292C46.8084 14.4055 47.0133 14.2131 47.0133 14.2131C47.0093 14.0042 46.8254 13.6198 46.8254 13.6198C46.8254 13.6198 47.4859 13.3651 47.6465 13.2358L47.6986 13.1402C47.6986 13.1402 47.2987 12.661 47.2367 12.6481C47.0945 12.6185 45.8167 12.8035 44.9908 12.8035C44.1642 12.8035 42.6744 12.678 42.0611 12.678C41.4475 12.678 39.5317 12.816 38.6305 12.816C37.7289 12.816 37.3792 12.678 36.7158 12.678C36.3033 12.678 35.3563 12.7042 34.7726 12.9139Z" fill="black"/>
<path d="M45.6104 13.8047C45.3963 13.8051 45.1829 13.8058 44.9695 13.8058C44.6047 13.8228 44.2133 13.8125 43.8368 13.8184C43.3409 13.8262 42.1993 13.8354 42.1413 13.8398C41.9047 13.8398 41.6676 13.8398 41.4313 13.8398C41.0286 13.8398 40.673 13.8383 40.2706 13.8383C40.2023 13.8413 39.7943 13.8524 39.6654 13.8516C39.6078 13.8502 39.5037 13.8431 39.4465 13.8516C39.3512 13.8664 39.1958 14.0669 39.383 14.0669C39.3911 14.065 39.4 14.0636 39.4088 14.0624C39.4277 14.0599 39.4465 14.0569 39.4657 14.0536C39.5181 14.0373 39.5864 14.0569 39.6399 14.061C39.7396 14.068 39.8404 14.0757 39.9405 14.0828C40.2037 14.1008 40.4666 14.1186 40.7291 14.137C40.9178 14.1522 41.1072 14.168 41.2959 14.1828C42.6778 14.2699 44.0431 14.3936 45.4753 14.3936C45.8065 14.3936 46.1022 14.2485 46.2063 14.2153C46.2506 14.2009 46.3437 14.1906 46.3787 14.1592C46.4526 14.0946 46.3677 13.8601 46.2968 13.8173C46.2484 13.7878 45.6639 13.8018 45.6104 13.8047Z" fill="white"/>
<path d="M17.8106 13.9098C17.7382 13.9371 17.7065 13.9733 17.6969 14.0534C17.6891 14.1118 17.7334 14.2462 17.8752 14.3196C17.9764 14.3658 18.3607 14.5452 18.4597 14.5663C18.5512 14.5858 24.3375 14.2476 24.3467 14.2462C24.425 14.2104 24.6373 14.1517 24.6188 14.028C24.6136 13.9925 24.5579 13.9574 24.5269 13.9449C24.4615 13.9202 23.7486 13.9851 23.6954 13.9855C23.204 13.9855 17.9435 13.9098 17.8106 13.9098Z" fill="white"/>
<path d="M38.0909 13.9971C38.027 13.9956 37.9624 14.034 37.9373 14.103C37.9163 14.1599 37.9092 14.2374 37.9584 14.2769C38.0093 14.3175 38.0883 14.329 38.1522 14.3456C38.2552 14.3722 38.3586 14.3987 38.4608 14.4253C38.5797 14.4545 38.6787 14.4711 38.8164 14.4848C38.9227 14.4947 39.015 14.4711 39.0427 14.3858C39.0734 14.2869 39.0623 14.2208 38.9851 14.1769C38.9489 14.1565 38.8002 14.1145 38.5831 14.0746C38.3711 14.0358 38.154 14.0011 38.0909 13.9971Z" fill="white"/>
<path d="M25.6831 13.9925C25.4811 14.0549 25.2725 14.0855 25.0621 14.1246C24.9797 14.139 24.8712 14.1435 24.8044 14.19C24.7737 14.2114 24.7567 14.2439 24.7483 14.2782C24.7409 14.3126 24.7457 14.3532 24.7663 14.3775C24.797 14.4141 24.9916 14.4986 25.1178 14.4769C25.3179 14.4285 25.4922 14.3646 25.6783 14.3044C25.7429 14.2856 25.8271 14.2749 25.8736 14.2236C25.9246 14.1671 25.8909 14.1047 25.8507 14.0563C25.809 14.0076 25.744 13.9781 25.6831 13.9925Z" fill="white"/>
<path d="M39.3567 14.3137C39.3327 14.3244 39.3087 14.3314 39.2895 14.3513C39.2241 14.4178 39.2082 14.5274 39.3349 14.5274C39.3862 14.5119 39.525 14.533 39.5745 14.5407C39.6664 14.5544 39.758 14.5688 39.8492 14.5832C40.2195 14.6415 40.5902 14.6999 40.9605 14.7582C41.4076 14.8313 41.8566 14.9059 42.3111 14.9561C42.6301 14.9915 42.9476 15.0476 43.2699 15.0783C43.7669 15.1255 44.2572 15.1953 44.7825 15.1953C44.8143 15.1942 44.8464 15.1924 44.8782 15.1913C44.8966 15.1891 44.9158 15.1879 44.9346 15.1872C44.9476 15.185 44.9616 15.1839 44.9745 15.1824C44.9886 15.1809 45.003 15.1795 45.0177 15.1776C45.0332 15.1765 45.0495 15.175 45.0653 15.1739C45.079 15.1717 45.0916 15.171 45.1049 15.1695C45.1152 15.1673 45.1252 15.1662 45.1348 15.1647C45.144 15.1636 45.1525 15.1617 45.1617 15.1606C45.1706 15.1591 45.1787 15.1577 45.1872 15.1562C45.196 15.1547 45.2053 15.1536 45.2138 15.1518C45.2614 15.1396 45.309 15.127 45.3559 15.1145C45.5224 15.0635 45.6073 14.9937 45.6653 14.8287C45.6779 14.7914 45.6937 14.739 45.6646 14.7054C45.6384 14.6759 45.5977 14.6707 45.5579 14.6688C45.3489 14.6688 45.1396 14.6681 44.9306 14.6681C44.6456 14.6578 44.3616 14.6471 44.0759 14.6367C43.0199 14.5872 41.9714 14.5027 40.9254 14.4355C40.571 14.4082 40.2166 14.3809 39.8617 14.3532C39.7152 14.3417 39.5099 14.3137 39.3567 14.3137Z" fill="white"/>
<path d="M25.9331 14.4592C25.7393 14.4969 25.5669 14.5799 25.3845 14.6412C25.3092 14.666 25.2124 14.6837 25.1567 14.745C25.1227 14.7823 25.1139 14.8299 25.126 14.8819C25.1338 14.9166 25.1493 14.9687 25.1737 14.996C25.2224 15.0514 25.3513 15.1031 25.438 15.1031C25.4864 15.1016 25.561 15.0865 25.5924 15.0739C25.7349 14.9971 25.8767 14.9207 26.0192 14.8439C26.0679 14.8177 26.1307 14.8099 26.1705 14.7686C26.3064 14.6287 26.0487 14.4396 25.9331 14.4592Z" fill="white"/>
<path d="M37.8245 14.5298C37.7433 14.5564 37.5587 14.6568 37.6381 14.7465C37.6694 14.7827 37.7702 14.8167 37.8134 14.8314C37.867 14.8547 37.8633 14.8613 37.9164 14.8846C37.9766 14.9123 38.0357 14.9403 38.0955 14.9677C38.207 15.0219 38.2664 15.081 38.4067 15.081C38.5722 15.0773 38.6464 15.1028 38.7283 14.9463C38.7505 14.9056 38.7357 14.8602 38.7121 14.8296C38.6733 14.779 38.454 14.6993 38.3588 14.6668C38.1719 14.6033 37.8769 14.5158 37.8245 14.5298Z" fill="white"/>
<path d="M24.4956 14.4852C24.3649 14.4985 23.4098 14.5905 23.062 14.6126C22.8759 14.6277 19.6277 14.8297 19.3445 14.8338C19.292 14.8378 18.6053 14.8304 18.5341 14.891C18.4971 14.9224 18.5381 15.1081 18.5735 15.1421C18.6397 15.2059 18.7604 15.2248 18.8471 15.2488C19.0993 15.3196 19.326 15.4001 19.6188 15.4001C19.638 15.3986 24.7168 14.7511 24.8091 14.7511C24.8224 14.7381 24.8353 14.7289 24.8331 14.7082C24.8291 14.6621 24.6514 14.521 24.6071 14.5007C24.5743 14.486 24.5363 14.4852 24.4956 14.4852Z" fill="white"/>
<path d="M39.0562 14.6939C39.0063 14.7128 38.9469 14.7386 38.9595 14.8077C38.9679 14.8571 38.9894 14.9358 39.0304 14.9672C39.1005 15.0211 39.2578 15.0421 39.3475 15.0654C39.5967 15.13 39.847 15.1942 40.0966 15.2581C40.4654 15.353 40.8373 15.4312 41.2124 15.5199C41.6661 15.6277 42.1354 15.7222 42.6028 15.7979C42.8601 15.8389 43.1182 15.8854 43.3833 15.9197C43.5199 15.9371 43.6528 15.9622 43.7968 15.9622C43.8105 15.9611 43.823 15.9596 43.8367 15.9577C43.8607 15.9566 43.8865 15.9552 43.9109 15.9537C43.9283 15.9522 43.9452 15.9511 43.9633 15.9492C43.9759 15.9478 43.9888 15.9467 44.0021 15.9448C44.0213 15.9437 44.0405 15.9422 44.0586 15.9408C44.0782 15.9389 44.0966 15.9374 44.1154 15.9367C44.1346 15.9345 44.1531 15.9334 44.1723 15.9319C44.1871 15.9304 44.2011 15.9289 44.2155 15.9275C44.2288 15.926 44.2417 15.9245 44.255 15.9234C44.2679 15.9216 44.2812 15.9204 44.2941 15.919C44.3071 15.9171 44.32 15.916 44.3337 15.9142C44.3447 15.9131 44.3565 15.9116 44.3676 15.9101C44.3768 15.909 44.3853 15.9072 44.3946 15.9057C44.4031 15.9042 44.4119 15.9031 44.4208 15.9012C44.4296 15.8998 44.4381 15.8987 44.4462 15.8968C44.4555 15.8957 44.464 15.8939 44.4732 15.8924C44.5245 15.8688 44.5795 15.8699 44.6275 15.8377C44.6925 15.7938 44.8491 15.5771 44.766 15.5084C44.7003 15.4534 44.3436 15.4645 44.2328 15.4556C43.8954 15.429 43.5598 15.3881 43.2268 15.3559C42.7483 15.3109 42.2727 15.2263 41.8016 15.1658C41.2423 15.0938 40.6914 15.0026 40.1413 14.9107C39.8858 14.8667 39.6296 14.8235 39.3748 14.7792C39.2637 14.7526 39.181 14.6939 39.0562 14.6939Z" fill="white"/>
<path d="M24.426 15.0223C24.1425 15.0722 23.8597 15.1213 23.5761 15.1707C23.1279 15.2527 21.3649 15.5163 20.9304 15.5647C20.649 15.5961 20.3684 15.6286 20.0804 15.6515C19.5536 15.626 19.4606 15.7127 19.5274 15.8534C19.5562 15.914 19.5846 15.9941 19.6422 16.0376C19.7127 16.0904 20.2994 16.2093 20.5264 16.2093C20.7997 16.2186 22.011 16.0258 22.2115 15.9764C22.5235 15.8999 24.8993 15.2605 24.9603 15.2202C25.0071 15.1888 24.9688 15.046 24.9104 14.9732C24.8595 14.9101 24.5567 14.9987 24.426 15.0223Z" fill="white"/>
<path d="M26.3431 14.9599C26.2581 14.964 25.6788 15.3243 25.6375 15.3786C25.6091 15.4155 25.6098 15.4602 25.6238 15.5049C25.6349 15.5403 25.6449 15.5773 25.6722 15.6046C25.7357 15.6684 25.8775 15.6703 25.9731 15.6703C25.999 15.6603 26.0252 15.65 26.0514 15.6396C26.1023 15.6112 26.1433 15.568 26.191 15.5311C26.2888 15.4517 26.3634 15.3956 26.4612 15.3166C26.511 15.2815 26.6255 15.2527 26.6576 15.1977C26.7399 15.0552 26.4409 14.9577 26.3431 14.9599Z" fill="white"/>
<path d="M37.448 14.96C37.3516 14.9651 37.1747 15.0246 37.1585 15.1519C37.1541 15.1844 37.1596 15.2177 37.1836 15.2372C37.2268 15.2734 37.5683 15.4455 37.6772 15.5152C37.7599 15.5677 37.8238 15.6308 37.9335 15.6308C38.0811 15.626 38.1336 15.5898 38.1697 15.568C38.2336 15.5285 38.3104 15.4311 38.255 15.355C38.2063 15.2871 38.1026 15.2579 38.0317 15.2254C37.9534 15.1885 37.8755 15.1516 37.7968 15.1147C37.7444 15.0884 37.5332 14.96 37.448 14.96Z" fill="white"/>
<path d="M38.8642 15.2127C38.8129 15.2353 38.7619 15.2582 38.7106 15.2807C38.6404 15.3087 38.4643 15.3464 38.5064 15.4531C38.5407 15.5406 39.3711 15.7861 39.6255 15.8769C40.2878 16.1062 40.8546 16.3019 41.5527 16.4559C42.06 16.5677 42.6002 16.694 43.1617 16.694C43.1846 16.6929 43.2083 16.6918 43.2304 16.6899C43.247 16.6885 43.2622 16.687 43.2788 16.6859C43.288 16.684 43.2961 16.6829 43.305 16.6814C43.3434 16.6619 43.3811 16.6534 43.4172 16.6287C43.4734 16.5884 43.5048 16.5286 43.5483 16.4802C43.5885 16.4359 43.6487 16.402 43.6727 16.3488C43.6831 16.3241 43.6842 16.2919 43.6679 16.2698C43.6491 16.2458 43.6207 16.2388 43.5926 16.231C43.4638 16.2137 43.3345 16.1963 43.205 16.1786C42.9535 16.138 42.7024 16.0974 42.4506 16.0567C42.1132 16.0003 41.7743 15.9268 41.4438 15.8548C40.9147 15.74 40.3953 15.6237 39.8799 15.4911C39.6402 15.428 39.4003 15.3656 39.1607 15.3028C39.1101 15.2869 39.0591 15.2718 39.0082 15.2559C38.9598 15.2386 38.9199 15.2164 38.8642 15.2127Z" fill="white"/>
<path d="M26.852 15.3687C26.7656 15.3687 26.5138 15.6257 26.4208 15.701C26.3765 15.738 26.2675 15.8332 26.245 15.8867C26.2025 15.9916 26.2683 16.0477 26.3366 16.0983C26.3993 16.1452 26.5917 16.1153 26.677 16.0514C26.7394 16.0045 27.14 15.6456 27.164 15.6036C27.2799 15.3986 26.9867 15.3687 26.852 15.3687Z" fill="white"/>
<path d="M25.2404 15.3698C25.2064 15.379 25.1714 15.389 25.1374 15.3986C25.0477 15.4366 22.9639 16.0827 21.9763 16.2928C21.6912 16.3534 21.4029 16.3925 21.109 16.4357C21.0189 16.449 20.828 16.4364 20.7652 16.4896C20.7246 16.5261 20.8446 16.7189 20.879 16.7713C20.9661 16.9009 21.9881 16.9441 22.4425 16.8241C22.6264 16.7702 25.3327 15.8228 25.3881 15.7523C25.4449 15.6795 25.4309 15.4983 25.4232 15.4654C25.4036 15.382 25.3231 15.3698 25.2404 15.3698Z" fill="white"/>
<path d="M36.9549 15.383C36.8733 15.4047 36.747 15.3697 36.6961 15.4461C36.668 15.4871 36.6621 15.5535 36.6883 15.5938C36.72 15.6414 37.1613 16.0029 37.2137 16.0298C37.2831 16.0653 37.3735 16.063 37.4603 16.063C37.5334 16.0616 37.6844 16.0003 37.6663 15.8843C37.6619 15.8537 37.6412 15.8264 37.618 15.805C37.5508 15.7441 37.4681 15.7049 37.395 15.654C37.3326 15.6119 37.2624 15.5587 37.2 15.5166C37.1432 15.4738 37.0933 15.4417 37.0365 15.3988C37.0117 15.3867 36.9851 15.3848 36.9549 15.383Z" fill="white"/>
<path d="M36.2971 15.7315C36.2233 15.7496 36.1383 15.7806 36.1527 15.8792C36.1542 15.898 36.2698 15.9863 36.3137 16.0291C36.413 16.1288 36.4861 16.3016 36.6124 16.3695C36.7003 16.4171 36.8302 16.4751 36.9292 16.4245C37.0525 16.3643 37.0208 16.2432 37.0004 16.217C36.91 16.0996 36.787 16.0095 36.6818 15.9043C36.6309 15.8534 36.5829 15.7795 36.5194 15.75C36.4584 15.7223 36.3717 15.7315 36.2971 15.7315Z" fill="white"/>
<path d="M27.3488 15.7474C27.282 15.7862 27.1993 15.8929 27.1465 15.9497C27.1073 15.9914 27.0693 16.0332 27.0309 16.0741C26.953 16.1535 26.7902 16.2898 26.929 16.3872C26.9866 16.4275 27.0822 16.4603 27.1454 16.4419C27.1963 16.4182 27.2443 16.4138 27.2886 16.3762C27.3326 16.3392 27.3621 16.285 27.3916 16.2381C27.4263 16.1856 27.543 16.0221 27.5722 15.9966C27.6324 15.9434 27.721 15.9032 27.6619 15.7958C27.6357 15.747 27.412 15.7112 27.3488 15.7474Z" fill="white"/>
<path d="M38.3929 15.7531C38.3339 15.7786 38.1275 15.851 38.1312 15.9101C38.1374 15.9957 38.2615 16.0334 38.3368 16.0592C38.3937 16.0792 38.4446 16.1113 38.4971 16.1382C38.6041 16.1951 38.7119 16.2516 38.8186 16.3084C38.9888 16.3941 39.159 16.4797 39.3292 16.5654C39.5759 16.6954 39.8273 16.815 40.0839 16.9217C40.3475 17.0313 40.617 17.1624 40.908 17.2159C41.155 17.2614 41.4415 17.2481 41.7139 17.2481C41.7357 17.2462 41.7579 17.2451 41.7793 17.2436C41.8158 17.2422 41.852 17.2407 41.8886 17.2392C41.9078 17.2377 41.9263 17.2363 41.9451 17.2351C41.9565 17.2329 41.9683 17.2322 41.9802 17.2303C41.9916 17.2289 42.0034 17.2278 42.0152 17.2259C42.0237 17.2244 42.0318 17.2233 42.0407 17.2215C42.0666 17.21 42.0931 17.1982 42.1197 17.1871C42.1803 17.1443 42.3224 16.9974 42.2626 16.9217C42.2065 16.8523 41.9691 16.8357 41.8757 16.815C41.6715 16.7703 41.4688 16.7227 41.2698 16.6728C40.5495 16.4927 39.858 16.2575 39.169 16.0238C38.9918 15.9588 38.8142 15.8938 38.637 15.8285C38.5583 15.7993 38.4826 15.7561 38.3929 15.7531Z" fill="white"/>
<path d="M25.6152 15.9274C25.48 15.9333 24.9931 16.2147 24.7992 16.2955C24.2557 16.5267 23.689 16.7227 23.1219 16.9117C22.9716 16.9575 22.8206 17.0037 22.67 17.0487C22.5758 17.0753 22.4632 17.0904 22.3794 17.137C22.3547 17.1499 22.3336 17.1724 22.3296 17.2008C22.3211 17.2514 22.3636 17.2909 22.399 17.3175C22.4422 17.3492 22.4835 17.3862 22.5337 17.405C22.6124 17.4334 22.704 17.4316 22.7959 17.436C23.0104 17.446 23.4368 17.5132 23.7152 17.3913C23.9714 17.2798 25.0547 16.7094 25.3405 16.5547C25.4752 16.479 26.0671 16.2029 26.0589 16.0936C26.046 15.9212 25.7684 15.9274 25.6152 15.9274Z" fill="white"/>
<path d="M37.8485 16.1064C37.7998 16.1385 37.6705 16.2367 37.6871 16.3035C37.7063 16.3778 37.9471 16.4889 37.9866 16.5177C38.3543 16.7938 38.7209 17.0678 39.1045 17.317C39.3157 17.4536 39.5302 17.5969 39.765 17.6851C39.9943 17.7711 40.2672 17.801 40.5378 17.801C40.5533 17.7999 40.5696 17.7985 40.5858 17.7974C40.6083 17.7874 40.6312 17.7785 40.6541 17.7693C40.7172 17.7302 40.8675 17.602 40.8217 17.5205C40.8103 17.5009 40.7911 17.4869 40.7711 17.4776C40.7154 17.4588 40.6596 17.4396 40.6039 17.4204C40.5075 17.3853 40.4108 17.3495 40.3148 17.3148C40.0161 17.1948 39.7248 17.0645 39.435 16.9257C39.0377 16.7348 38.6471 16.5332 38.2638 16.322C38.1439 16.2537 38.0242 16.1847 37.905 16.116C37.895 16.1134 37.8847 16.1108 37.8747 16.1075C37.8655 16.1075 37.8577 16.1068 37.8485 16.1064Z" fill="white"/>
<path d="M37.2734 16.3592C37.2508 16.3706 37.2302 16.3821 37.2143 16.4042C37.1862 16.4433 37.1766 16.4965 37.1589 16.5412C37.1415 16.5814 37.1235 16.6206 37.1054 16.6601C37.0998 16.6822 37.0995 16.7088 37.1087 16.7287C37.1316 16.7745 37.1921 16.7756 37.2328 16.7967C37.2675 16.8144 37.2992 16.838 37.3288 16.8653C37.5972 17.1183 37.8497 17.3848 38.1214 17.6241C38.2222 17.7138 38.3105 17.8245 38.4253 17.8858C38.5172 17.9357 38.6287 17.9597 38.7325 17.9866C38.8931 18.0276 39.0493 18.0845 39.2302 18.0845C39.2959 18.0516 39.4912 17.9914 39.4583 17.8851C39.4569 17.881 39.455 17.877 39.4528 17.8729C39.4487 17.8666 39.4443 17.8596 39.4399 17.8533C39.3738 17.7802 39.2745 17.743 39.1947 17.6931C39.0452 17.6004 38.9001 17.503 38.7535 17.4066C38.3969 17.1718 38.059 16.9023 37.7149 16.6442C37.5879 16.5489 37.5015 16.4009 37.3428 16.364C37.3335 16.3629 37.3254 16.3621 37.3166 16.3603C37.3096 16.3595 37.3025 16.3595 37.2951 16.3595C37.2874 16.3592 37.2811 16.3592 37.2734 16.3592Z" fill="white"/>
<path d="M26.1953 16.363C26.0978 16.3903 23.8689 17.6117 23.8368 17.6645C23.7833 17.7509 23.9479 17.8849 24.0299 17.903C24.1521 17.9299 24.8274 17.8646 25.1201 17.6899C25.2054 17.6261 26.2145 16.833 26.2939 16.7669C26.3906 16.6842 26.7059 16.521 26.6708 16.4524C26.6309 16.3745 26.2872 16.3338 26.1953 16.363Z" fill="white"/>
<path d="M26.8185 16.6728C26.7569 16.665 26.4017 17.1055 25.5555 17.6977C25.4827 17.7479 25.3177 17.8535 25.2815 17.9284C25.2287 18.0747 25.4702 18.1112 25.5588 18.1112C25.5791 18.1094 26.038 18.0507 26.251 17.927C26.3489 17.8697 27.3 16.9139 27.3295 16.8718C27.3428 16.8529 27.3528 16.7558 27.3487 16.7473C27.2985 16.6713 27.1405 16.7237 27.0515 16.7123C26.9832 16.7027 26.8857 16.6831 26.8185 16.6728Z" fill="white"/>
<path d="M36.6106 16.6771C36.5276 16.703 36.4471 16.8015 36.4843 16.8998C36.5039 16.9526 36.5608 16.9636 36.6007 16.9969C36.6379 17.0293 36.6653 17.0663 36.6926 17.105C36.8624 17.3399 37.0304 17.578 37.2124 17.8054C37.2822 17.8918 37.3538 18.0018 37.4495 18.0687C37.5732 18.1558 37.8201 18.2418 37.9881 18.2418C38.0483 18.2116 38.1975 18.206 38.2004 18.1145C38.2004 18.1108 38.2004 18.1063 38.1997 18.1023C38.1897 18.0151 38.0291 17.9014 37.9656 17.8416C37.7135 17.5998 37.4617 17.3579 37.2087 17.1161C37.1563 17.0626 37.1035 17.0094 37.0507 16.9562C37.002 16.9009 36.961 16.8396 36.9012 16.7919C36.8218 16.7277 36.7218 16.6804 36.6106 16.6771Z" fill="white"/>
<path d="M26.6112 18.5232C26.5728 18.5365 26.5861 18.6055 26.5968 18.641C26.6156 18.703 26.8634 19.1069 26.973 19.269C27.0672 19.4085 27.1573 19.5518 27.2691 19.6825C27.6919 20.1787 28.2025 20.6192 28.7519 20.9016C28.8357 20.9437 29.2928 21.1815 29.3965 21.1719C29.4183 21.17 29.4257 21.149 29.4216 21.1364C29.4146 21.1102 29.3917 21.0947 29.3703 21.0811C29.2665 21.0323 29.1624 20.9832 29.0583 20.9345C28.8792 20.8499 28.7028 20.7477 28.5348 20.6391C28.1408 20.3836 27.7775 20.0812 27.443 19.7131C27.2902 19.5452 27.1879 19.3713 27.0495 19.1704C26.9188 18.9817 26.7452 18.6358 26.7013 18.5645C26.6784 18.5269 26.6463 18.5025 26.6112 18.5232Z" fill="white"/>
<path d="M37.1688 18.564C37.1245 18.5876 36.8757 19.0484 36.6616 19.3596C36.4234 19.7044 36.1225 20.0367 35.7898 20.3048C35.5118 20.5293 35.2401 20.6928 34.9307 20.8545C34.7369 20.9487 34.4928 21.0587 34.447 21.0975C34.3858 21.1481 34.4168 21.1872 34.4884 21.1872C34.5512 21.161 34.8362 21.0417 35.1234 20.8833C35.7278 20.5503 36.3418 19.9998 36.7631 19.4261C36.9444 19.1783 37.1895 18.7157 37.2161 18.6511C37.2368 18.6005 37.2253 18.5695 37.1688 18.564Z" fill="white"/>
<path fill-rule="evenodd" clip-rule="evenodd" d="M29.5547 13.0553C29.5547 13.0553 29.493 12.9401 29.6274 12.8729C29.7632 12.8053 30.7697 12.483 31.9597 12.483C33.2667 12.483 34.4024 12.9065 34.4684 12.9604C34.5585 13.0335 34.4765 13.1697 34.375 13.1494C34.2746 13.1295 33.2445 12.6923 31.9733 12.6923C30.7022 12.6923 29.8142 13.0298 29.7359 13.0756C29.6429 13.1295 29.5547 13.0553 29.5547 13.0553Z" fill="white"/>
<path d="M28.1779 17.1505C28.1779 15.5891 29.8485 14.3234 31.9098 14.3234C33.9715 14.3234 35.6425 15.5891 35.6425 17.1505C35.6425 18.7122 33.9715 19.9778 31.9098 19.9778C29.8485 19.9778 28.1779 18.7122 28.1779 17.1505Z" stroke="white" stroke-width="0.2" stroke-miterlimit="3.864"/>
<path d="M31.6298 14.8817C31.6006 14.8986 31.5512 14.8879 31.5165 14.892C31.3655 14.9119 31.2145 14.9308 31.0682 14.9584C30.6448 15.0371 30.2372 15.2025 29.8923 15.4392C29.8048 15.4993 29.7048 15.5684 29.635 15.6544C29.6331 15.6581 29.6309 15.6614 29.628 15.6655C29.6029 15.7072 29.5586 15.739 29.5416 15.7847C29.5349 15.8032 29.5286 15.8316 29.5357 15.8523C29.5593 15.9199 29.6852 16.0362 29.748 16.0735C29.779 16.0923 29.8318 16.1281 29.8366 16.1672C29.8432 16.227 29.8299 16.2843 29.8262 16.3371C29.8255 16.4083 29.8255 16.4796 29.8255 16.5508V17.6009V18.0188C29.8244 18.0801 29.8229 18.1403 29.8211 18.2012C29.8129 18.2315 29.6926 18.3474 29.6642 18.3799C29.6265 18.4231 29.6069 18.4774 29.5759 18.5232C29.5756 18.5268 29.5737 18.5302 29.5722 18.5335C29.5903 18.5505 29.587 18.5833 29.5995 18.604C29.6361 18.6642 29.697 18.7277 29.755 18.7724C30.2272 19.1412 30.9372 19.3446 31.5685 19.3952C31.8181 19.4148 32.0747 19.3963 32.3276 19.3963C32.349 19.3745 32.5059 19.3745 32.5492 19.3745C32.5694 19.3546 32.6795 19.3531 32.7149 19.3531C32.7356 19.3306 32.8046 19.3306 32.8371 19.3306C32.8497 19.3177 32.8737 19.3177 32.894 19.3177C32.9143 19.2963 32.9623 19.2963 32.9937 19.2963C33.0084 19.2797 33.0487 19.2745 33.0723 19.2745C33.0867 19.259 33.1236 19.2523 33.1461 19.2523C33.1606 19.2365 33.2019 19.2309 33.2244 19.2309C33.247 19.2062 33.3127 19.1874 33.347 19.1874C33.364 19.1637 33.3946 19.16 33.4186 19.149C33.4796 19.1194 33.5401 19.0899 33.6003 19.0603C33.8111 18.9359 34.0005 18.7679 34.112 18.5483C34.1341 18.5058 34.1663 18.4644 34.1663 18.4113C34.1836 18.3939 34.1877 18.36 34.1877 18.333C34.2132 18.3079 34.2095 18.2499 34.2095 18.2112C34.2375 18.1794 34.2231 18.0823 34.2224 18.0369C34.2161 17.6053 33.8805 17.1899 33.5061 17.0297C33.4991 17.0268 33.4818 17.026 33.4818 17.0168C33.5091 16.998 33.5464 16.9599 33.5825 16.9599C33.6103 16.9186 33.7011 16.8831 33.7432 16.8469C33.8314 16.7727 34.0441 16.563 34.0441 16.4508C34.0588 16.4368 34.0655 16.4157 34.0655 16.3939C34.0832 16.3773 34.0876 16.3448 34.0876 16.3193C34.1186 16.2869 34.1094 16.203 34.1094 16.1539C34.1371 16.124 34.1179 16.0531 34.112 16.0188C34.0743 15.8132 33.9913 15.6411 33.8499 15.4897C33.8177 15.4554 33.7819 15.4299 33.7502 15.3974C33.6501 15.2937 33.5187 15.2272 33.3961 15.1659C33.052 14.9939 32.6525 14.902 32.2357 14.8824C32.033 14.882 31.8314 14.8817 31.6298 14.8817Z" fill="white"/>
<path d="M31.8426 15.2565C32.0786 15.2565 32.3115 15.2768 32.4932 15.3835C32.7752 15.5489 32.8591 15.8904 32.8173 16.2153C32.7915 16.4092 32.7269 16.5964 32.5803 16.7248C32.437 16.85 32.2513 16.8806 32.0568 16.9058C31.6259 16.9611 31.1799 16.8112 31.0573 16.3974C31.0274 16.2973 31.0042 16.1873 31.0027 16.0758C31.0053 16.0208 31.0082 15.965 31.0108 15.9104C31.0293 15.8901 31.0322 15.8387 31.0322 15.8099C31.047 15.7952 31.0547 15.7664 31.0547 15.7446C31.0665 15.7339 31.0758 15.7139 31.0758 15.6966C31.0843 15.6888 31.0891 15.6785 31.0891 15.666C31.1127 15.6475 31.1548 15.5832 31.1548 15.5526C31.1888 15.5334 31.208 15.4957 31.2356 15.4695C31.3102 15.3998 31.4498 15.3134 31.5554 15.3134C31.5657 15.3015 31.5827 15.3004 31.5989 15.3004C31.6215 15.2761 31.6861 15.2783 31.7212 15.2783C31.7474 15.2499 31.8105 15.2742 31.8426 15.2565Z" fill="black"/>
<path d="M31.7869 17.2482C32.0764 17.2482 32.3315 17.2522 32.5611 17.3582C33.0511 17.5845 33.0965 18.3994 32.7576 18.773C32.512 19.0462 31.9833 19.0942 31.62 18.9986C31.537 18.9761 31.4535 18.9583 31.3797 18.9166C31.2818 18.8601 31.2047 18.7878 31.1378 18.6955C31.0433 18.5651 30.9891 18.3779 30.9809 18.2066C30.9765 18.1103 30.9891 18.0146 30.9891 17.9231C31.0071 17.9054 31.0108 17.864 31.0108 17.8363C31.0267 17.8204 31.0322 17.7898 31.0322 17.7665C31.0466 17.7547 31.0548 17.7333 31.0548 17.7141C31.0706 17.7004 31.0891 17.6672 31.0891 17.644C31.1279 17.6148 31.1533 17.5565 31.181 17.5177C31.2128 17.4734 31.3376 17.3704 31.39 17.3704C31.4081 17.3471 31.4557 17.3261 31.486 17.3261C31.4996 17.3102 31.5336 17.3047 31.5554 17.3047C31.5724 17.2858 31.616 17.2829 31.6429 17.2829C31.6747 17.2489 31.7514 17.2784 31.7869 17.2482Z" fill="black"/>
<path d="M35.258 13.139C35.3134 13.1228 35.3673 13.1353 35.4042 13.1752C35.4393 13.2136 35.4293 13.2782 35.3843 13.3033C35.3477 13.3236 35.299 13.3255 35.258 13.3362C35.1528 13.3635 34.7913 13.4163 34.7714 13.5418C34.7607 13.6142 34.8563 13.698 34.8928 13.7238C34.9427 13.7674 34.8563 13.6854 34.9061 13.729C34.9789 13.7929 35.1409 13.9048 35.0534 14.0196C35.032 14.0473 34.9969 14.0602 34.9608 14.0565C34.7884 14.0391 34.5532 13.6969 34.5329 13.6404C34.5081 13.5703 34.5181 13.4983 34.558 13.4403C34.6927 13.2472 35.0508 13.2099 35.258 13.139Z" fill="black"/>
<path d="M38.1341 13.6958C38.1248 13.8424 38.5446 13.8125 38.6469 13.8217C38.7986 13.8354 39.094 13.9447 39.1505 13.8941C39.2188 13.8332 39.2915 13.5444 39.1689 13.5389C38.991 13.5315 38.9238 13.5515 38.7255 13.5666C38.5217 13.5792 38.1433 13.5529 38.1341 13.6958Z" fill="white"/>
<path d="M25.7072 13.7467C25.7131 13.8479 25.2837 13.8468 25.1818 13.856C25.0304 13.8697 24.7878 13.9738 24.7063 13.8837C24.6446 13.8162 24.5656 13.619 24.6889 13.6138C24.8661 13.6061 24.9913 13.6183 25.1888 13.6334C25.3937 13.6459 25.698 13.6002 25.7072 13.7467Z" fill="white"/>
<path d="M28.9599 13.1092C29.1607 13.1594 29.2755 13.1539 29.3914 13.3429C29.4498 13.4367 29.4535 13.5869 29.3556 13.7169C29.2925 13.8018 29.2685 13.8284 29.1991 13.9129C29.1282 13.9986 29.1197 14.0566 28.9997 14.0739C28.9599 14.0798 28.9255 14.0702 28.9033 14.0381C28.824 13.9233 28.9927 13.7841 29.0817 13.6837C29.1157 13.6453 29.1925 13.5312 29.1799 13.4836C29.1563 13.3266 28.968 13.3292 28.8432 13.2905C28.7974 13.2757 28.6697 13.2521 28.6294 13.2266C28.581 13.1959 28.5954 13.1369 28.6242 13.0929C28.6468 13.0586 28.7634 13.063 28.9599 13.1092Z" fill="black"/>
<path d="M37.814 13.646C37.8572 13.6571 37.9118 13.6582 37.9203 13.711C37.9299 13.7767 37.8801 13.8391 37.7468 13.8539C37.6541 13.8443 37.4669 13.6789 37.3942 13.8247C37.3318 13.948 37.7243 13.9971 37.7065 14.1193C37.6925 14.2216 37.6552 14.2382 37.5648 14.2382C37.5238 14.2404 37.4271 14.1814 37.3942 14.1692C37.3041 14.1275 37.0907 13.958 37.0102 14.0939C36.9308 14.2283 37.4728 14.4107 37.4584 14.5155C37.444 14.6148 37.3444 14.6931 37.269 14.6673C37.1649 14.6421 36.8315 14.2508 36.6801 14.4044C36.5406 14.5462 37.0981 14.7946 37.0704 14.881C37.0231 15.0261 36.8961 15.0693 36.7193 14.9224C36.627 14.8456 36.4815 14.7027 36.3984 14.8146C36.2962 14.9527 36.5908 15.1265 36.6166 15.1727C36.6813 15.289 36.5328 15.4234 36.435 15.4012C36.3442 15.3891 36.2102 15.0464 36.0831 15.1642C35.9857 15.2539 36.2238 15.4677 36.1991 15.553C36.1891 15.6324 35.9872 15.7368 35.8934 15.6634C35.7645 15.5777 36.0684 15.1325 35.7701 14.7127C35.6257 14.5343 35.5083 14.2574 35.5002 14.2087C35.4887 14.1234 35.495 13.9768 35.5496 13.9037C35.7586 13.6235 36.7067 13.6423 37.1118 13.6235C37.3831 13.6106 37.536 13.646 37.814 13.646Z" fill="white"/>
<path d="M25.9639 13.6874C25.9092 13.6874 25.862 13.6992 25.8538 13.7538C25.8435 13.821 25.8534 13.9277 25.9672 13.9307C26.1012 13.9329 26.2647 13.7546 26.343 13.8672C26.4316 13.9942 25.9738 14.0706 26.0469 14.2249C26.1411 14.4221 26.3268 14.2416 26.3607 14.2294C26.453 14.1862 26.741 13.9296 26.8581 14.0987C26.9618 14.2475 26.4889 14.4635 26.4316 14.5343C26.4154 14.555 26.3818 14.6665 26.3947 14.6938C26.4981 14.9235 26.7591 14.7034 26.9341 14.5118C26.9991 14.4406 27.0464 14.4014 27.1114 14.3844C27.2011 14.3612 27.2793 14.3789 27.3033 14.4594C27.3177 14.5052 27.3041 14.5591 27.2705 14.5905C27.2339 14.6255 26.8263 14.9198 26.84 15.0077C26.868 15.186 26.9758 15.2096 27.0549 15.1716C27.1398 15.1339 27.3783 14.7289 27.519 14.7824C27.5562 14.7968 27.6028 14.8031 27.6175 14.8389C27.6382 14.888 27.6301 14.9567 27.5991 14.9981C27.5596 15.0512 27.485 15.121 27.4348 15.1653C27.392 15.203 27.3443 15.2477 27.3189 15.2945C27.2524 15.4138 27.351 15.4684 27.4599 15.4684C27.4983 15.4684 27.519 15.447 27.5455 15.4241C27.612 15.3676 27.681 15.1158 27.8158 15.183C27.9568 15.2539 27.6958 15.4533 27.7216 15.5947C27.76 15.7014 27.9295 15.7232 27.9764 15.6438C28.0281 15.5172 27.9975 15.3219 28.0495 15.1018C28.1001 14.9047 28.2419 14.603 28.3102 14.4841C28.3537 14.414 28.4065 14.359 28.4265 14.2752C28.428 14.2692 28.429 14.2637 28.4302 14.2578C28.4416 14.1696 28.3859 14.0968 28.3261 14.0429C28.2278 13.9532 28.0953 13.8982 27.9723 13.8572C27.6098 13.7365 27.2217 13.7254 26.806 13.7062C26.5265 13.6925 26.2489 13.6874 25.9639 13.6874Z" fill="white"/>
<path d="M35.735 15.9457C35.786 15.8427 36.0175 15.9557 36.0389 15.9753C36.1028 16.0314 36.1246 16.1233 36.1718 16.1905C36.2298 16.2732 36.3804 16.4482 36.3719 16.542C36.3649 16.6181 36.0721 16.8451 36.0083 16.7916C36.0064 16.7897 36.0049 16.7872 36.002 16.7849C35.9588 16.5021 35.8654 16.2304 35.7284 15.976C35.7284 15.9649 35.7313 15.9546 35.735 15.9457Z" fill="white"/>
<path d="M36.0519 16.9343C36.1324 16.9343 36.2697 16.9657 36.3254 17.0148C36.3716 17.0551 36.3949 17.1156 36.4277 17.1655L36.5976 17.4051L36.9919 17.9349L37.1724 18.1678C37.206 18.2251 37.1968 18.2675 37.147 18.307L37.1163 18.3111C36.9328 18.3111 36.6478 18.2428 36.523 18.1328C36.4606 18.0774 36.4274 18.0117 36.3875 17.9456L36.1948 17.5893C36.1637 17.5361 36.053 17.3733 36.0334 17.3153C36.0312 17.3087 36.0283 17.2998 36.026 17.2895C36.029 17.2434 36.0301 17.1972 36.0301 17.1503C36.0301 17.0887 36.0279 17.027 36.0234 16.9657C36.0301 16.948 36.0393 16.9362 36.0519 16.9343Z" fill="white"/>
<path d="M27.368 17.1122C27.4736 16.966 27.611 16.8453 27.7391 16.8648C27.7686 16.8659 27.79 16.877 27.804 16.8936C27.7944 16.9782 27.79 17.0642 27.79 17.1506L27.7911 17.1905L27.7878 17.1993C27.7516 17.3289 27.7383 17.299 27.6508 17.4685C27.5179 17.7251 27.3728 18.0921 27.2871 18.1316C27.1624 18.1892 26.9722 18.1822 26.8349 18.2165C26.6385 18.2663 26.4989 18.2154 26.4989 18.1238C26.4996 18.0064 27.2894 17.2311 27.368 17.1122Z" fill="white"/>
<path d="M27.42 18.3243C27.5355 18.3354 27.5721 18.4893 27.7083 18.5218C27.7947 18.5425 27.8948 18.496 27.9627 18.4568C28.0066 18.4314 28.0679 18.3811 28.1263 18.3874C28.5176 19.0734 29.2247 19.632 30.1089 19.958C30.1108 19.9617 30.1122 19.965 30.1141 19.9687C30.1211 20.0031 30.1111 20.0315 30.0993 20.0459C30.0528 20.0991 29.6027 20.8072 29.5108 20.8294C29.4303 20.8578 29.1213 20.6599 29.0101 20.5993C28.4235 20.2818 27.8685 19.8565 27.4392 19.3034C27.3033 19.1295 26.9197 18.6832 26.9241 18.4989C26.9278 18.369 27.352 18.3213 27.42 18.3243Z" fill="white"/>
<path d="M36.4338 18.4294C36.4826 18.4098 36.833 18.5394 36.8389 18.6254C36.8355 18.6963 36.621 18.9968 36.3807 19.3191C35.9594 19.8848 35.437 20.2676 34.8533 20.5929C34.7277 20.6627 34.5944 20.7262 34.4615 20.7812L34.3489 20.8255C34.3138 20.8255 34.2821 20.8163 34.2599 20.7927C34.2149 20.7461 33.7597 20.0675 33.7383 20.0384C33.7209 20.0151 33.7257 19.9752 33.7419 19.9475C34.5715 19.6341 35.2424 19.1161 35.6386 18.4803C35.7054 18.4618 35.8224 18.5623 35.8734 18.5874C35.962 18.6309 36.0739 18.6749 36.1831 18.6446C36.2976 18.6132 36.3441 18.4703 36.4338 18.4294Z" fill="white"/>
<path d="M32.5277 20.2368C32.5739 20.2642 32.5979 20.3162 32.6152 20.3513C32.6503 20.4229 32.7614 21.0687 32.8194 21.3208C32.8371 21.4047 32.8604 21.5342 32.8467 21.6225C32.8349 21.6996 32.7456 21.8075 32.6525 21.82C32.5754 21.8315 32.421 21.7148 32.3948 21.6565C32.3609 21.5793 32.3664 21.4848 32.3583 21.3947C32.338 21.1229 32.2981 20.4683 32.2981 20.3982C32.2981 20.3568 32.3117 20.293 32.355 20.2535C32.4129 20.2487 32.4705 20.2435 32.5277 20.2368Z" fill="white"/>
<path d="M33.0597 20.1482C33.0845 20.17 33.1029 20.1969 33.1177 20.2165C33.1665 20.283 33.3939 20.9154 33.4969 21.1609C33.5305 21.2418 33.577 21.3692 33.5785 21.4604C33.5803 21.5408 33.5094 21.6656 33.4183 21.6944C33.3415 21.7199 33.1653 21.6302 33.1288 21.5752C33.0801 21.5036 33.069 21.4072 33.0442 21.3171C32.9756 21.0461 32.8183 20.3919 32.8057 20.3214C32.7998 20.2878 32.8002 20.2383 32.8194 20.1951C32.901 20.1814 32.9804 20.1655 33.0597 20.1482Z" fill="white"/>
<path d="M33.5456 20.0158C33.5773 20.0354 33.6024 20.0631 33.6224 20.0837C33.6785 20.1436 33.9816 20.7439 34.1138 20.9746C34.1563 21.0511 34.2187 21.1714 34.232 21.2619C34.2426 21.3413 34.1877 21.4734 34.1005 21.5141C34.0278 21.548 33.8417 21.4805 33.7985 21.4306C33.7416 21.3653 33.7191 21.2711 33.6837 21.1847C33.5821 20.9241 33.3466 20.2938 33.3255 20.2251C33.3141 20.1886 33.3086 20.1306 33.33 20.0812C33.4027 20.0609 33.4751 20.0394 33.5456 20.0158Z" fill="white"/>
<path d="M31.9948 20.2708C32.0369 20.3043 32.0538 20.3583 32.0671 20.3944C32.0934 20.4705 32.1255 21.1251 32.1513 21.3828C32.1591 21.4674 32.1668 21.5995 32.1425 21.6848C32.1207 21.7601 32.0195 21.8561 31.9257 21.8576C31.8475 21.8587 31.7079 21.7251 31.6898 21.6638C31.6647 21.5829 31.6828 21.4899 31.685 21.3987C31.6983 21.1269 31.7374 20.4723 31.7463 20.4033C31.7511 20.3634 31.771 20.3051 31.8146 20.2708C31.8471 20.2715 31.8788 20.2715 31.9099 20.2715C31.9383 20.2715 31.9667 20.2715 31.9948 20.2708Z" fill="white"/>
<path d="M31.5023 20.2565C31.5362 20.2953 31.5444 20.3503 31.551 20.3869C31.5654 20.4662 31.4945 21.1172 31.4805 21.3763C31.4742 21.4609 31.4613 21.5927 31.424 21.6732C31.3904 21.7441 31.2756 21.8231 31.1833 21.8098C31.105 21.7991 30.9895 21.6444 30.9806 21.5812C30.9688 21.4971 31.0005 21.4085 31.0168 21.3191C31.0725 21.0525 31.2143 20.412 31.2335 20.3451C31.2427 20.3119 31.266 20.2676 31.3026 20.2381C31.3686 20.2451 31.4355 20.2514 31.5023 20.2565Z" fill="white"/>
<path d="M31.006 20.1958C31.0477 20.2427 31.0458 20.3099 31.0466 20.3535C31.0466 20.434 30.8638 21.0627 30.8044 21.3149C30.7837 21.398 30.7483 21.525 30.6973 21.5984C30.6523 21.662 30.5256 21.7199 30.437 21.6908C30.3624 21.6664 30.2742 21.4947 30.2764 21.4305C30.2794 21.3459 30.3262 21.2639 30.3587 21.1787C30.4592 20.9258 30.7099 20.3199 30.7405 20.2571C30.7564 20.2261 30.7867 20.1855 30.8291 20.1622C30.8867 20.1752 30.9462 20.1859 31.006 20.1958Z" fill="white"/>
<path d="M30.52 20.0894C30.5496 20.1411 30.5374 20.2031 30.5315 20.2441C30.5197 20.3231 30.2405 20.9164 30.1423 21.1564C30.1091 21.235 30.0537 21.355 29.9924 21.4189C29.9378 21.4754 29.803 21.5123 29.72 21.4698C29.6505 21.434 29.5907 21.2505 29.6029 21.1874C29.6188 21.1047 29.6779 21.0308 29.7233 20.9518C29.8621 20.7178 30.2044 20.1588 30.2446 20.1012C30.2612 20.0776 30.2889 20.0491 30.3236 20.0318C30.3882 20.0524 30.4543 20.0713 30.52 20.0894Z" fill="white"/>
<path d="M27.8938 15.9225C27.9621 15.9055 28.098 15.8534 28.1231 15.9203C27.9776 16.1754 27.8768 16.4479 27.8266 16.7325C27.7738 16.7632 27.6409 16.686 27.5047 16.6288C27.3204 16.5501 27.5951 16.394 27.6908 16.2529C27.7425 16.1765 27.8281 15.9749 27.8938 15.9225Z" fill="white"/>
<path d="M27.8096 17.4657C27.8469 17.7363 27.9278 17.9958 28.0489 18.241C28.0219 18.2908 27.7505 18.3938 27.604 18.2702C27.5213 18.1679 27.7158 17.4538 27.8096 17.4657Z" fill="white"/>
<path d="M46.5691 12.8377C46.6359 12.8377 46.695 12.8377 46.7474 12.8647C46.8198 12.9016 47.0335 13.1135 47.0313 13.1988C47.0299 13.2442 46.7629 13.3277 46.6429 13.3731C46.5536 13.4133 46.3524 13.4938 46.318 13.5049C46.2955 13.513 46.1356 13.5145 46.109 13.5138C46.0729 13.5149 45.8237 13.5174 45.7192 13.5174C45.6771 13.5189 44.918 13.5389 44.6599 13.5389C44.373 13.5389 44.0913 13.5455 43.8056 13.5455C43.7417 13.5455 43.4153 13.5507 43.3961 13.5529H42.1715H41.906L41.8015 13.557L41.7361 13.561H40.9475C40.8877 13.561 40.489 13.5728 40.311 13.5832C40.0655 13.6035 39.7037 13.6341 39.6878 13.6352C39.6398 13.6352 39.5438 13.6533 39.5294 13.5998C39.5143 13.5426 39.6328 13.5156 39.6701 13.5086C40.1091 13.4222 40.5495 13.317 41.0465 13.2549C41.8731 13.1512 42.2711 13.1386 42.4059 13.0988C42.4842 13.0748 42.4683 12.9729 42.4059 12.9651C41.5194 12.8606 39.5368 13.2494 39.2521 13.3085C38.7234 13.4226 38.3317 13.451 38.2014 13.4521H36.9686C36.2829 13.451 35.9861 13.5263 35.9392 13.5355C35.8067 13.5658 35.6815 13.6075 35.5637 13.6685C35.3141 13.7966 35.1554 13.9546 35.2606 14.2544C35.2979 14.319 35.3333 14.408 35.3695 14.4726C35.4544 14.6413 35.5637 14.8492 35.652 15.0142C35.7158 15.1316 35.7554 15.2789 35.7554 15.4263L35.7199 15.6094C35.7177 15.6408 35.6409 15.7759 35.6007 15.7519C35.5966 15.7489 35.5896 15.7412 35.5804 15.7309C35.532 15.66 35.4807 15.5902 35.426 15.5226C35.4083 15.4979 35.3943 15.4779 35.388 15.4706C35.3241 15.3871 35.5087 15.273 35.4917 15.1671C35.457 14.957 35.1484 14.5549 34.9165 14.3633C34.7807 14.2511 34.6547 14.1023 34.534 13.9649C34.4842 13.8966 34.4284 13.8401 34.3778 13.7726C34.3335 13.7128 34.3129 13.6755 34.2948 13.6024C34.2597 13.4565 34.3472 13.3679 34.4413 13.293C34.4975 13.2483 34.6038 13.1818 34.6906 13.1464C34.9246 13.05 35.4736 12.9526 35.7985 12.9101C35.9064 12.8994 36.17 12.868 36.3671 12.864C36.5872 12.864 36.7969 12.8706 37.0029 12.8865C37.4046 12.9179 37.7971 12.9928 38.2146 12.9987C38.8224 13.0083 39.4072 12.9703 39.9968 12.9419C40.2597 12.9293 40.537 12.9119 40.8183 12.8883C41.2499 12.8514 42.5658 12.868 42.76 12.8802C42.8556 12.8857 43.7269 12.9215 44.1674 12.9555C44.2652 12.9629 44.3446 12.9721 44.4077 12.9832C44.6012 12.9791 44.7932 12.9876 44.9826 12.9762C45.3367 12.9537 45.6918 12.9145 46.0415 12.8865L46.5691 12.8377Z" fill="white"/>
<path d="M22.1967 12.8033C22.7586 12.8033 23.2555 12.8506 23.7983 12.8768C24.077 12.8893 24.3469 12.8952 24.6257 12.9082C24.9066 12.9215 25.195 12.9429 25.4807 12.9429C25.9932 12.9429 26.4761 12.9096 26.9749 12.8864L27.3585 12.8853C27.5978 12.8812 27.8621 12.8712 28.104 12.8945C28.2546 12.9085 28.4067 12.9096 28.5526 12.9266C28.7508 12.9495 29.0935 12.9901 29.2374 13.0551C29.3704 13.1142 29.4671 13.2039 29.518 13.2604C29.6159 13.3682 29.7617 13.5366 29.6801 13.6636C29.6465 13.7274 29.5531 13.8205 29.5044 13.8766C29.4394 13.9493 28.9317 14.371 28.8055 14.5504C28.691 14.7103 28.6578 14.8306 28.5873 14.9562C28.4909 15.1175 28.5969 15.2375 28.5614 15.332C28.4566 15.4435 28.3602 15.5598 28.2742 15.6817C28.2554 15.692 28.2387 15.6953 28.2254 15.6857C28.1383 15.6248 28.1553 15.4945 28.1763 15.3254C28.1856 15.198 28.2878 14.9347 28.3251 14.8668C28.3967 14.7317 28.6279 14.4481 28.6463 14.3968C28.7944 13.9818 28.382 13.7252 28.0685 13.6229C27.9644 13.589 27.8603 13.5502 27.751 13.5303C27.3471 13.4572 26.9144 13.4653 26.4787 13.4516C26.1793 13.4424 25.8636 13.4306 25.5587 13.4306L24.9003 13.4291C24.6903 13.4125 24.4776 13.4003 24.2816 13.3538C23.9456 13.274 23.6639 13.2009 23.3279 13.1267C23.0421 13.064 22.7335 13.0093 22.4281 12.9901C22.2203 12.9772 21.8585 12.9543 21.6428 12.9543C21.4841 12.9543 20.3081 12.9421 20.1343 12.9905C20.0741 13.0023 20.0837 13.1157 20.1243 13.1256C20.3502 13.1902 21.1891 13.2087 21.7451 13.1895C22.0719 13.2054 22.437 13.246 22.746 13.2903C23.1459 13.3471 23.5151 13.4199 23.8858 13.5373L24.2816 13.6407C24.3469 13.661 24.4322 13.7045 24.3428 13.7658C24.0981 13.7658 23.8717 13.7182 23.6236 13.7145C22.9989 13.7145 22.0977 13.6957 21.4711 13.6957C21.4058 13.6916 18.3683 13.6591 18.0058 13.6385C17.6022 13.6152 17.2385 13.4217 17.1027 13.3549C17.051 13.332 16.8989 13.2139 16.9081 13.1906C16.9373 13.1157 17.1027 12.8332 17.2323 12.8229C17.507 12.8487 17.8455 12.8853 18.1287 12.8978C18.1287 12.8978 20.1575 12.8753 20.2173 12.8709C20.523 12.8469 21.2493 12.8155 21.5631 12.81C21.737 12.807 22.0312 12.7959 22.1967 12.8033Z" fill="white"/>
<path d="M36.04 17.6061C36.1337 17.5942 36.329 18.4032 36.205 18.4645C36.0794 18.5313 35.7808 18.3781 35.7461 18.3375C35.7394 18.3304 35.7357 18.3219 35.735 18.3131C35.8491 18.0982 35.9321 17.8723 35.9805 17.6371C35.9967 17.6205 36.0152 17.6112 36.04 17.6061Z" fill="white"/>
<path d="M31.9806 12.866C30.9645 12.866 29.875 13.1532 29.8344 13.2152C29.7402 13.3633 29.9425 13.3574 29.9374 13.563C29.9311 13.8148 29.7354 13.9836 29.6675 14.0563C29.4087 14.331 29.0786 14.4709 28.8504 14.7777C28.8331 14.8006 28.8161 14.904 28.8394 14.9357C28.8995 15.0162 29.0409 14.9273 29.0749 14.9003C29.5549 14.5248 30.0053 14.3742 30.5495 14.2051C30.6847 14.1626 31.3703 14.0194 32.2549 14.0574C33.0369 14.091 33.7579 14.2955 34.3856 14.664C34.6363 14.811 34.86 14.9937 35.0978 15.1912C35.1842 15.264 35.2518 15.1576 35.2547 15.1181C35.258 15.0724 35.2207 15.0077 35.1971 14.9693C35.0166 14.6677 34.6182 14.3952 34.342 14.0711C34.2054 13.9105 34.1371 13.8525 34.0858 13.7606C33.9171 13.4752 34.1751 13.4589 34.1427 13.3282C34.1176 13.2241 33.1166 12.866 31.9806 12.866Z" fill="white"/>
</g>
<defs>
<clipPath id="clip0_601_50003">
<rect width="32" height="10.6562" fill="white" transform="translate(16 12)"/>
</clipPath>
</defs>
</svg>
