<svg width="64" height="40" viewBox="0 0 64 40" fill="none" xmlns="http://www.w3.org/2000/svg">
<g clip-path="url(#clip0_601_50012)">
<path fill-rule="evenodd" clip-rule="evenodd" d="M16 19.8674C16 15.5224 23.1634 12 32 12C40.8366 12 48 15.5224 48 19.8674C48 24.2125 40.8366 27.7349 32 27.7349C23.1634 27.7349 16 24.2125 16 19.8674Z" fill="#DB1C30"/>
<path fill-rule="evenodd" clip-rule="evenodd" d="M33.0917 26.4681C32.8557 26.4681 32.6644 26.6594 32.6644 26.8954C32.6644 27.1313 32.8557 27.3226 33.0917 27.3226C33.3278 27.3226 33.5191 27.1313 33.5191 26.8954C33.5191 26.6594 33.3278 26.4681 33.0917 26.4681ZM32.0011 26.4681C31.7652 26.4681 31.5739 26.6594 31.5739 26.8954C31.5739 27.1313 31.7652 27.3226 32.0011 27.3226C32.2371 27.3226 32.4284 27.1313 32.4284 26.8954C32.4284 26.6594 32.2371 26.4681 32.0011 26.4681ZM30.895 26.4681C30.6591 26.4681 30.4678 26.6594 30.4678 26.8954C30.4678 27.1313 30.6591 27.3226 30.895 27.3226C31.131 27.3226 31.3224 27.1313 31.3224 26.8954C31.3224 26.6594 31.131 26.4681 30.895 26.4681ZM34.1824 26.407C33.9464 26.407 33.7552 26.5983 33.7552 26.8343C33.7552 27.0702 33.9464 27.2615 34.1824 27.2615C34.4183 27.2615 34.6096 27.0702 34.6096 26.8343C34.6096 26.5983 34.4183 26.407 34.1824 26.407ZM29.8045 26.407C29.5685 26.407 29.3772 26.5983 29.3772 26.8343C29.3772 27.0702 29.5685 27.2615 29.8045 27.2615C30.0404 27.2615 30.2317 27.0702 30.2317 26.8343C30.2317 26.5983 30.0404 26.407 29.8045 26.407ZM35.294 26.2983C35.0581 26.2983 34.8668 26.4896 34.8668 26.7256C34.8668 26.9615 35.0581 27.1528 35.294 27.1528C35.53 27.1528 35.7213 26.9615 35.7213 26.7256C35.7213 26.4896 35.53 26.2983 35.294 26.2983ZM28.6928 26.2983C28.4569 26.2983 28.2656 26.4896 28.2656 26.7256C28.2656 26.9615 28.4569 27.1528 28.6928 27.1528C28.9288 27.1528 29.1201 26.9615 29.1201 26.7256C29.1201 26.4896 28.9288 26.2983 28.6928 26.2983ZM36.4461 26.1699C36.2102 26.1699 36.0189 26.3612 36.0189 26.5971C36.0189 26.8331 36.2102 27.0244 36.4461 27.0244C36.6821 27.0244 36.8734 26.8331 36.8734 26.5971C36.8734 26.3612 36.6821 26.1699 36.4461 26.1699ZM27.5408 26.1699C27.3048 26.1699 27.1135 26.3612 27.1135 26.5971C27.1135 26.8331 27.3048 27.0244 27.5408 27.0244C27.7767 27.0244 27.968 26.8331 27.968 26.5971C27.968 26.3612 27.7767 26.1699 27.5408 26.1699ZM37.5982 25.9798C37.3622 25.9798 37.171 26.1711 37.171 26.407C37.171 26.643 37.3622 26.8343 37.5982 26.8343C37.8342 26.8343 38.0254 26.643 38.0254 26.407C38.0254 26.1711 37.8342 25.9798 37.5982 25.9798ZM26.3887 25.9798C26.1527 25.9798 25.9614 26.1711 25.9614 26.407C25.9614 26.643 26.1527 26.8343 26.3887 26.8343C26.6247 26.8343 26.816 26.643 26.816 26.407C26.816 26.1711 26.6247 25.9798 26.3887 25.9798ZM38.7474 25.7278C38.5113 25.7278 38.32 25.9191 38.32 26.155C38.32 26.391 38.5113 26.5823 38.7474 26.5823C38.9833 26.5823 39.1746 26.391 39.1746 26.155C39.1746 25.9191 38.9833 25.7278 38.7474 25.7278ZM25.2395 25.7278C25.0036 25.7278 24.8123 25.9191 24.8123 26.155C24.8123 26.391 25.0036 26.5823 25.2395 26.5823C25.4755 26.5823 25.6668 26.391 25.6668 26.155C25.6668 25.9191 25.4755 25.7278 25.2395 25.7278ZM39.9314 25.4438C39.6953 25.4438 39.504 25.6351 39.504 25.8711C39.504 26.107 39.6953 26.2983 39.9314 26.2983C40.1673 26.2983 40.3586 26.107 40.3586 25.8711C40.3586 25.6351 40.1673 25.4438 39.9314 25.4438ZM24.0555 25.4438C23.8195 25.4438 23.6283 25.6351 23.6283 25.8711C23.6283 26.107 23.8195 26.2983 24.0555 26.2983C24.2915 26.2983 24.4828 26.107 24.4828 25.8711C24.4828 25.6351 24.2915 25.4438 24.0555 25.4438ZM41.0428 25.0882C40.8068 25.0882 40.6155 25.2795 40.6155 25.5154C40.6155 25.7514 40.8068 25.9427 41.0428 25.9427C41.2787 25.9427 41.47 25.7514 41.47 25.5154C41.47 25.2795 41.2787 25.0882 41.0428 25.0882ZM22.9441 25.0882C22.7081 25.0882 22.5169 25.2795 22.5169 25.5154C22.5169 25.7514 22.7081 25.9427 22.9441 25.9427C23.1801 25.9427 23.3714 25.7514 23.3714 25.5154C23.3714 25.2795 23.1801 25.0882 22.9441 25.0882ZM42.196 24.64C41.9601 24.64 41.7688 24.8313 41.7688 25.0672C41.7688 25.3032 41.9601 25.4945 42.196 25.4945C42.432 25.4945 42.6233 25.3032 42.6233 25.0672C42.6233 24.8313 42.432 24.64 42.196 24.64ZM21.7908 24.64C21.5548 24.64 21.3635 24.8313 21.3635 25.0672C21.3635 25.3032 21.5548 25.4945 21.7908 25.4945C22.0267 25.4945 22.218 25.3032 22.218 25.0672C22.218 24.8313 22.0267 24.64 21.7908 24.64ZM43.3146 24.1141C43.0786 24.1141 42.8873 24.3054 42.8873 24.5414C42.8873 24.7773 43.0786 24.9686 43.3146 24.9686C43.5507 24.9686 43.742 24.7773 43.742 24.5414C43.742 24.3054 43.5507 24.1141 43.3146 24.1141ZM20.6722 24.1141C20.4362 24.1141 20.2449 24.3054 20.2449 24.5414C20.2449 24.7773 20.4362 24.9686 20.6722 24.9686C20.9082 24.9686 21.0994 24.7773 21.0994 24.5414C21.0994 24.3054 20.9082 24.1141 20.6722 24.1141ZM44.4233 23.466C44.1874 23.466 43.9961 23.6573 43.9961 23.8933C43.9961 24.1292 44.1874 24.3205 44.4233 24.3205C44.6593 24.3205 44.8506 24.1292 44.8506 23.8933C44.8506 23.6573 44.6593 23.466 44.4233 23.466ZM19.5635 23.466C19.3276 23.466 19.1363 23.6573 19.1363 23.8933C19.1363 24.1292 19.3276 24.3205 19.5635 24.3205C19.7995 24.3205 19.9908 24.1292 19.9908 23.8933C19.9908 23.6573 19.7995 23.466 19.5635 23.466ZM45.478 22.6747C45.242 22.6747 45.0507 22.866 45.0507 23.102C45.0507 23.338 45.242 23.5293 45.478 23.5293C45.7139 23.5293 45.9052 23.338 45.9052 23.102C45.9052 22.866 45.7139 22.6747 45.478 22.6747ZM18.5088 22.6747C18.2729 22.6747 18.0816 22.866 18.0816 23.102C18.0816 23.338 18.2729 23.5293 18.5088 23.5293C18.7448 23.5293 18.9361 23.338 18.9361 23.102C18.9361 22.866 18.7448 22.6747 18.5088 22.6747ZM46.3739 21.686C46.138 21.686 45.9467 21.8773 45.9467 22.1133C45.9467 22.3492 46.138 22.5405 46.3739 22.5405C46.6099 22.5405 46.8012 22.3492 46.8012 22.1133C46.8012 21.8773 46.6099 21.686 46.3739 21.686ZM17.6129 21.686C17.3769 21.686 17.1856 21.8773 17.1856 22.1133C17.1856 22.3492 17.3769 22.5405 17.6129 22.5405C17.8489 22.5405 18.0401 22.3492 18.0401 22.1133C18.0401 21.8773 17.8489 21.686 17.6129 21.686ZM46.9329 20.6239C46.697 20.6239 46.5057 20.8152 46.5057 21.0511C46.5057 21.2871 46.697 21.4784 46.9329 21.4784C47.169 21.4784 47.3603 21.2871 47.3603 21.0511C47.3603 20.8152 47.169 20.6239 46.9329 20.6239ZM17.0539 20.6239C16.8179 20.6239 16.6266 20.8152 16.6266 21.0511C16.6266 21.2871 16.8179 21.4784 17.0539 21.4784C17.2898 21.4784 17.4811 21.2871 17.4811 21.0511C17.4811 20.8152 17.2898 20.6239 17.0539 20.6239ZM47.1656 19.4402C46.9296 19.4402 46.7384 19.6315 46.7384 19.8674C46.7384 20.1034 46.9296 20.2947 47.1656 20.2947C47.4015 20.2947 47.5928 20.1034 47.5928 19.8674C47.5928 19.6315 47.4015 19.4402 47.1656 19.4402ZM16.8213 19.4402C16.5853 19.4402 16.3941 19.6315 16.3941 19.8674C16.3941 20.1034 16.5853 20.2947 16.8213 20.2947C17.0573 20.2947 17.2486 20.1034 17.2486 19.8674C17.2486 19.6315 17.0573 19.4402 16.8213 19.4402ZM46.9329 18.2565C46.697 18.2565 46.5057 18.4478 46.5057 18.6837C46.5057 18.9197 46.697 19.111 46.9329 19.111C47.169 19.111 47.3603 18.9197 47.3603 18.6837C47.3603 18.4478 47.169 18.2565 46.9329 18.2565ZM17.0538 18.2565C16.8179 18.2565 16.6266 18.4478 16.6266 18.6837C16.6266 18.9197 16.8179 19.111 17.0538 19.111C17.2898 19.111 17.4811 18.9197 17.4811 18.6837C17.4811 18.4478 17.2898 18.2565 17.0538 18.2565ZM46.3739 17.1944C46.138 17.1944 45.9467 17.3856 45.9467 17.6216C45.9467 17.8576 46.138 18.0488 46.3739 18.0488C46.6099 18.0488 46.8012 17.8576 46.8012 17.6216C46.8012 17.3856 46.6099 17.1944 46.3739 17.1944ZM17.6129 17.1944C17.3769 17.1944 17.1857 17.3856 17.1857 17.6216C17.1857 17.8576 17.3769 18.0488 17.6129 18.0488C17.8489 18.0488 18.0402 17.8576 18.0402 17.6216C18.0402 17.3856 17.8489 17.1944 17.6129 17.1944ZM45.478 16.2057C45.242 16.2057 45.0507 16.3969 45.0507 16.6329C45.0507 16.8688 45.242 17.0601 45.478 17.0601C45.7139 17.0601 45.9052 16.8688 45.9052 16.6329C45.9052 16.3969 45.7139 16.2057 45.478 16.2057ZM18.5088 16.2057C18.2729 16.2057 18.0816 16.3969 18.0816 16.6329C18.0816 16.8688 18.2729 17.0601 18.5088 17.0601C18.7448 17.0601 18.9361 16.8688 18.9361 16.6329C18.9361 16.3969 18.7448 16.2057 18.5088 16.2057ZM44.4233 15.4144C44.1874 15.4144 43.9961 15.6056 43.9961 15.8416C43.9961 16.0776 44.1874 16.2688 44.4233 16.2688C44.6593 16.2688 44.8506 16.0776 44.8506 15.8416C44.8506 15.6056 44.6593 15.4144 44.4233 15.4144ZM19.5635 15.4144C19.3276 15.4144 19.1363 15.6056 19.1363 15.8416C19.1363 16.0775 19.3276 16.2688 19.5635 16.2688C19.7995 16.2688 19.9908 16.0775 19.9908 15.8416C19.9908 15.6056 19.7995 15.4144 19.5635 15.4144ZM43.3146 14.7662C43.0786 14.7662 42.8873 14.9575 42.8873 15.1935C42.8873 15.4294 43.0786 15.6207 43.3146 15.6207C43.5507 15.6207 43.742 15.4294 43.742 15.1935C43.742 14.9575 43.5507 14.7662 43.3146 14.7662ZM20.6722 14.7662C20.4362 14.7662 20.2449 14.9575 20.2449 15.1935C20.2449 15.4294 20.4362 15.6207 20.6722 15.6207C20.9082 15.6207 21.0995 15.4294 21.0995 15.1935C21.0995 14.9575 20.9082 14.7662 20.6722 14.7662ZM42.196 14.2404C41.9601 14.2404 41.7688 14.4317 41.7688 14.6677C41.7688 14.9036 41.9601 15.0949 42.196 15.0949C42.432 15.0949 42.6233 14.9036 42.6233 14.6677C42.6233 14.4317 42.432 14.2404 42.196 14.2404ZM21.7908 14.2404C21.5548 14.2404 21.3635 14.4317 21.3635 14.6677C21.3635 14.9036 21.5548 15.0949 21.7908 15.0949C22.0267 15.0949 22.218 14.9036 22.218 14.6677C22.218 14.4317 22.0267 14.2404 21.7908 14.2404ZM41.0428 13.7922C40.8068 13.7922 40.6155 13.9835 40.6155 14.2195C40.6155 14.4554 40.8068 14.6467 41.0428 14.6467C41.2787 14.6467 41.47 14.4554 41.47 14.2195C41.47 13.9835 41.2787 13.7922 41.0428 13.7922ZM22.9441 13.7922C22.7082 13.7922 22.5169 13.9835 22.5169 14.2195C22.5169 14.4554 22.7082 14.6467 22.9441 14.6467C23.1801 14.6467 23.3714 14.4554 23.3714 14.2195C23.3714 13.9835 23.1801 13.7922 22.9441 13.7922ZM31.9934 13.6022C24.0454 13.6022 17.6023 16.4072 17.6023 19.8674C17.6023 23.3276 24.0454 26.1326 31.9934 26.1326C39.9415 26.1326 46.3845 23.3276 46.3845 19.8674C46.3845 16.4072 39.9415 13.6022 31.9934 13.6022ZM39.9314 13.4366C39.6953 13.4366 39.504 13.6279 39.504 13.8638C39.504 14.0998 39.6953 14.2911 39.9314 14.2911C40.1673 14.2911 40.3586 14.0998 40.3586 13.8638C40.3586 13.6279 40.1673 13.4366 39.9314 13.4366ZM24.0555 13.4366C23.8196 13.4366 23.6283 13.6279 23.6283 13.8638C23.6283 14.0998 23.8196 14.2911 24.0555 14.2911C24.2915 14.2911 24.4828 14.0998 24.4828 13.8638C24.4828 13.6279 24.2915 13.4366 24.0555 13.4366ZM38.7474 13.1526C38.5113 13.1526 38.32 13.3438 38.32 13.5798C38.32 13.8157 38.5113 14.007 38.7474 14.007C38.9833 14.007 39.1746 13.8157 39.1746 13.5798C39.1746 13.3438 38.9833 13.1526 38.7474 13.1526ZM25.2396 13.1526C25.0036 13.1526 24.8123 13.3438 24.8123 13.5798C24.8123 13.8157 25.0036 14.007 25.2396 14.007C25.4755 14.007 25.6668 13.8157 25.6668 13.5798C25.6668 13.3438 25.4755 13.1526 25.2396 13.1526ZM37.5982 12.9006C37.3622 12.9006 37.171 13.0919 37.171 13.3278C37.171 13.5638 37.3622 13.7551 37.5982 13.7551C37.8342 13.7551 38.0254 13.5638 38.0254 13.3278C38.0254 13.0919 37.8342 12.9006 37.5982 12.9006ZM26.3887 12.9006C26.1527 12.9006 25.9615 13.0919 25.9615 13.3278C25.9615 13.5638 26.1527 13.7551 26.3887 13.7551C26.6247 13.7551 26.816 13.5638 26.816 13.3278C26.816 13.0919 26.6247 12.9006 26.3887 12.9006ZM36.4461 12.7105C36.2102 12.7105 36.0189 12.9018 36.0189 13.1377C36.0189 13.3737 36.2102 13.565 36.4461 13.565C36.6821 13.565 36.8734 13.3737 36.8734 13.1377C36.8734 12.9018 36.6821 12.7105 36.4461 12.7105ZM27.5408 12.7105C27.3048 12.7105 27.1135 12.9018 27.1135 13.1377C27.1135 13.3737 27.3048 13.565 27.5408 13.565C27.7767 13.565 27.968 13.3737 27.968 13.1377C27.968 12.9018 27.7767 12.7105 27.5408 12.7105ZM35.294 12.5821C35.0581 12.5821 34.8668 12.7734 34.8668 13.0093C34.8668 13.2453 35.0581 13.4366 35.294 13.4366C35.53 13.4366 35.7213 13.2453 35.7213 13.0093C35.7213 12.7734 35.53 12.5821 35.294 12.5821ZM28.6928 12.5821C28.4569 12.5821 28.2656 12.7734 28.2656 13.0093C28.2656 13.2453 28.4569 13.4366 28.6928 13.4366C28.9288 13.4366 29.1201 13.2453 29.1201 13.0093C29.1201 12.7734 28.9288 12.5821 28.6928 12.5821ZM34.1824 12.4734C33.9464 12.4734 33.7552 12.6646 33.7552 12.9006C33.7552 13.1366 33.9464 13.3278 34.1824 13.3278C34.4183 13.3278 34.6096 13.1366 34.6096 12.9006C34.6096 12.6646 34.4183 12.4734 34.1824 12.4734ZM29.8045 12.4734C29.5685 12.4734 29.3772 12.6646 29.3772 12.9006C29.3772 13.1365 29.5685 13.3278 29.8045 13.3278C30.0404 13.3278 30.2317 13.1365 30.2317 12.9006C30.2317 12.6646 30.0404 12.4734 29.8045 12.4734ZM33.0917 12.4123C32.8557 12.4123 32.6644 12.6036 32.6644 12.8395C32.6644 13.0755 32.8557 13.2668 33.0917 13.2668C33.3278 13.2668 33.5191 13.0755 33.5191 12.8395C33.5191 12.6036 33.3278 12.4123 33.0917 12.4123ZM32.0011 12.4123C31.7652 12.4123 31.5739 12.6036 31.5739 12.8395C31.5739 13.0755 31.7652 13.2668 32.0011 13.2668C32.2371 13.2668 32.4284 13.0755 32.4284 12.8395C32.4284 12.6036 32.2371 12.4123 32.0011 12.4123ZM30.895 12.4123C30.6591 12.4123 30.4678 12.6036 30.4678 12.8395C30.4678 13.0755 30.6591 13.2668 30.895 13.2668C31.1311 13.2668 31.3224 13.0755 31.3224 12.8395C31.3224 12.6036 31.1311 12.4123 30.895 12.4123ZM31.9934 12.0795C40.7824 12.0795 47.9073 15.5663 47.9073 19.8674C47.9073 24.1686 40.7824 27.6553 31.9934 27.6553C23.2045 27.6553 16.0796 24.1686 16.0796 19.8674C16.0796 15.5663 23.2045 12.0795 31.9934 12.0795Z" fill="white"/>
<path fill-rule="evenodd" clip-rule="evenodd" d="M33.9956 20.1014L33.7419 20.9937H34.2658L33.9956 20.1014ZM33.21 17.6603H34.1208L34.6872 18.227L36.043 23.1085H35.1535L34.5871 22.5418L34.5192 22.3012H33.4227L33.2278 23.1085H32.4206L31.8541 22.5418L33.21 17.6603Z" fill="black"/>
<path fill-rule="evenodd" clip-rule="evenodd" d="M28.9594 17.6603H30.7092C30.8799 17.6699 30.978 17.6975 31.1553 17.8308L31.7058 18.3938C31.7727 18.4947 31.814 18.7049 31.8409 18.8842L31.801 19.5359H30.9266L30.3626 18.9733L29.8103 18.9729C29.8055 19.8912 29.8008 20.8095 29.796 21.7278H30.1342C30.2588 21.7278 30.3598 21.6269 30.3598 21.5025V20.4987H30.0048V19.8331L31.3671 19.8331L31.8144 20.3068C31.8144 20.9948 31.801 21.6298 31.801 22.3179C31.801 22.6809 31.3338 23.1079 30.9705 23.1079H29.5262C29.3477 23.1168 29.1703 23.0256 29.0714 22.9349L28.4419 22.2992C28.3749 22.1983 28.2998 22.0253 28.3015 21.884V18.3176C28.3015 17.9546 28.5961 17.6603 28.9594 17.6603Z" fill="black"/>
<path fill-rule="evenodd" clip-rule="evenodd" d="M38.8666 17.6603H42.1541L42.4192 18.0297V19.0362H41.5788C41.5803 20.3936 41.5821 21.7511 41.5837 23.1085H40.5783L40.0077 22.5418V19.0362H39.3339L38.8666 18.6668V17.6603Z" fill="black"/>
<path fill-rule="evenodd" clip-rule="evenodd" d="M24.0862 17.6603H25.1363L25.7024 18.227L25.7022 21.7282H25.9605C26.0849 21.7282 26.1857 21.6273 26.1857 21.5029V19.2874V17.6603H27.1919L27.7581 18.227V22.4512C27.7581 22.8142 27.4639 23.1085 27.101 23.1085H25.3095C25.1241 23.1 25.0066 23.0292 24.8692 22.9255L24.2216 22.2883C24.1547 22.1874 24.1088 22.0535 24.0862 21.8845V21.2743V19.2874V17.6603Z" fill="black"/>
<path fill-rule="evenodd" clip-rule="evenodd" d="M42.6711 17.6603H43.6806L44.2486 18.227V23.1085H43.2392L42.6711 22.5418V17.6603Z" fill="black"/>
<path fill-rule="evenodd" clip-rule="evenodd" d="M35.1549 17.6603H38.4424L38.7075 18.0297V19.0362H37.8671C37.8688 20.3936 37.8542 21.7511 37.856 23.1085H36.8671L36.296 22.5418V19.0362H35.6222L35.1549 18.6668V17.6603Z" fill="black"/>
<path fill-rule="evenodd" clip-rule="evenodd" d="M21.3199 20.9272V21.7282H21.6574C21.891 21.7282 22.0803 21.5383 22.0803 21.304V20.9272H21.3199ZM21.3199 19.0407V19.5469H21.5887C21.7719 19.5469 21.9205 19.3979 21.9205 19.2141V19.0407H21.3199ZM19.7515 17.6603L22.306 17.6603C22.46 17.6782 22.5517 17.7081 22.7235 17.8059C22.8876 17.9191 23.209 18.2586 23.3366 18.4321C23.3995 18.5273 23.4635 18.6021 23.4889 18.8469V19.9005C23.4889 20.1572 23.3332 20.3775 23.1113 20.4716C23.4219 20.7193 23.6448 20.89 23.6487 21.4123V22.2166C23.6487 22.7092 23.2505 23.1085 22.7593 23.1085H20.3162L19.7515 22.5418V17.6603Z" fill="black"/>
<path fill-rule="evenodd" clip-rule="evenodd" d="M24.0862 17.6603H25.135L25.1347 21.5003C25.1347 21.6246 25.2355 21.7254 25.3597 21.7254H25.9582C26.0824 21.7254 26.1831 21.6246 26.1831 21.5003V19.2863V17.6603H27.1881V21.8816C27.1881 22.2444 26.8942 22.5385 26.5318 22.5385H24.7425C24.38 22.5385 24.0862 22.2444 24.0862 21.8816V21.2719V19.2863V17.6603Z" fill="white"/>
<path fill-rule="evenodd" clip-rule="evenodd" d="M28.9587 17.6603H30.7066C31.0695 17.6603 31.3637 17.9544 31.3637 18.3172V18.9685H30.3574V18.6986C30.3574 18.5742 30.2566 18.4734 30.1322 18.4734H29.533C29.4085 18.4734 29.3076 18.5742 29.3076 18.6986V21.5003C29.3076 21.6246 29.4085 21.7254 29.533 21.7254H30.1322C30.2566 21.7254 30.3574 21.6246 30.3574 21.5003V20.4971H30.0028V19.8319H31.242H31.3637V21.8816C31.3637 22.2444 31.0695 22.5385 30.7066 22.5385H28.9587C28.5957 22.5385 28.3015 22.2444 28.3015 21.8816V18.3172C28.3015 17.9544 28.5957 17.6603 28.9587 17.6603Z" fill="white"/>
<path d="M43.6786 17.6603H42.6711V22.5385H43.6786V17.6603Z" fill="white"/>
<path fill-rule="evenodd" clip-rule="evenodd" d="M38.8666 17.6603H42.1541V18.6661H41.013V22.5385H40.0077V18.6661H38.8666V17.6603Z" fill="white"/>
<path fill-rule="evenodd" clip-rule="evenodd" d="M35.1549 17.6603H38.4424V18.6661H37.3013V22.5385H36.296V18.6661H35.1549V17.6603Z" fill="white"/>
<path fill-rule="evenodd" clip-rule="evenodd" d="M33.6636 19.2734L33.2115 20.8764H34.1156L33.6636 19.2734ZM33.2086 17.6603H34.1185L35.473 22.5385H34.5845L34.3569 21.7317H32.9703L32.7427 22.5385H31.8541L33.2086 17.6603Z" fill="white"/>
<path fill-rule="evenodd" clip-rule="evenodd" d="M20.7535 20.3586V21.7254H21.6544C21.8876 21.7254 22.0767 21.5356 22.0767 21.3015V20.7825C22.0767 20.5484 21.8876 20.3586 21.6544 20.3586H20.7535ZM20.7535 18.4734V19.5456H21.5858C21.7687 19.5456 21.917 19.3967 21.917 19.2131V18.8059C21.917 18.6223 21.7687 18.4734 21.5858 18.4734H20.7535ZM19.7515 17.6603C20.6016 17.6603 21.4518 17.6603 22.302 17.6603C22.6428 17.6603 22.9191 17.9377 22.9191 18.2798V19.3327C22.9191 19.6748 22.6428 19.9521 22.302 19.9521L22.3697 19.9702C22.7743 20.0533 23.0787 20.4127 23.0787 20.8435V21.6472C23.0787 22.1394 22.6811 22.5385 22.1907 22.5385C21.3776 22.5385 20.5645 22.5385 19.7515 22.5385V17.6603Z" fill="white"/>
<path fill-rule="evenodd" clip-rule="evenodd" d="M32.2495 15.7516V16.3439H32.8424C33.0062 16.3439 33.1391 16.2113 33.1391 16.0477C33.1391 15.8842 33.0062 15.7516 32.8424 15.7516H32.2495ZM32.9319 14.8652L32.2495 14.8666V15.2711H32.9319C33.0463 15.2711 33.1391 15.1709 33.1391 15.0642C33.1391 14.9576 33.0463 14.8652 32.9319 14.8652ZM30.1707 14.3861H33.1912C33.543 14.3861 33.8281 14.6707 33.8281 15.0218C33.8281 15.1973 33.7569 15.3562 33.6416 15.4713L33.534 15.5437L33.6191 15.601C33.7482 15.7299 33.8408 15.8451 33.8281 16.1048C33.8281 16.4984 33.5085 16.8252 33.1142 16.8252L30.1707 16.8244V15.996H30.6004V16.3439H31.6321V15.7516H31.2685V15.9243H30.8389V15.0959H31.2685V15.2711H31.6321V14.8666H30.6004V15.2145H30.1707V14.3861Z" fill="black"/>
</g>
<defs>
<clipPath id="clip0_601_50012">
<rect width="32" height="15.7349" fill="white" transform="translate(16 12)"/>
</clipPath>
</defs>
</svg>
