<svg width="64" height="54" viewBox="0 0 64 54" fill="none" xmlns="http://www.w3.org/2000/svg">
<path d="M42.5869 19.93L42.0308 19.8687L31.9939 18.7492V19.1244L41.9909 20.2379L42.5869 19.93Z" fill="#A1C1E4"/>
<path d="M42.5871 19.9295L42.0309 19.8682L31.994 18.7487V19.1239L41.991 20.2374L42.5871 19.9295Z" fill="url(#paint0_linear_601_50021)"/>
<path d="M31.9939 19.123L41.9909 20.2364L40.4814 22.9249C40.4814 22.9249 40.2956 26.5405 40.1724 27.9612C40.0491 29.3831 40.0182 30.496 38.9398 30.9593C36.7819 31.887 34.1208 32.7164 31.9939 33.1803V19.123Z" fill="#D3E2F5"/>
<path d="M31.994 19.1211L41.991 20.2345L40.4816 22.923C40.4816 22.923 40.2958 26.5386 40.1725 27.9593C40.0492 29.3812 40.0183 30.4941 38.9399 30.9574C36.782 31.8851 34.121 32.7146 31.994 33.1784V19.1211Z" fill="url(#paint1_linear_601_50021)"/>
<path d="M42.5866 19.9293L41.9906 20.2371L40.4811 22.9256L40.8497 22.9792L42.3121 20.4188L42.5866 19.9293Z" fill="#415050"/>
<path d="M42.5865 19.9284L41.9904 20.2363L40.481 22.9247L40.8496 22.9783L42.3119 20.4179L42.5865 19.9284Z" fill="url(#paint2_linear_601_50021)"/>
<path d="M21.4006 19.9319L21.9568 19.8705L31.9936 18.7511V19.1262L21.9978 20.2397L23.5073 22.9282C23.5073 22.9282 23.6925 26.5437 23.8157 27.9645C23.9384 29.3864 23.9688 30.4993 25.0483 30.9626C27.2051 31.8903 29.8679 32.7197 31.9936 33.1836V33.5659C29.7357 33.0734 26.9812 32.1975 24.9025 31.3043C23.6812 30.7786 23.5823 29.6002 23.4674 28.236L23.4471 27.9972C23.3346 26.7081 23.1661 23.5415 23.1376 22.9818L21.6751 20.4213L21.4006 19.9319Z" fill="#F6F8FD"/>
<path d="M21.4005 19.9333L21.9566 19.8719L31.9935 18.7525V19.1276L21.9977 20.2411L23.5072 22.9296C23.5072 22.9296 23.6923 26.5451 23.8156 27.9659C23.9383 29.3878 23.9687 30.5007 25.0482 30.964C27.2049 31.8917 29.8677 32.7211 31.9935 33.185V33.5673C29.7356 33.0748 26.981 32.1989 24.9023 31.3057C23.6811 30.78 23.5822 29.6016 23.4673 28.2374L23.447 27.9986C23.3345 26.7095 23.166 23.5429 23.1374 22.9832L21.675 20.4227L21.4005 19.9333Z" fill="url(#paint3_linear_601_50021)"/>
<path d="M21.4006 19.93L21.9568 19.8687L31.9936 18.7492V19.1244L21.9978 20.2379L21.4006 19.93Z" fill="#BECDE1"/>
<path d="M21.4005 19.9295L21.9566 19.8682L31.9935 18.7487V19.1239L21.9977 20.2374L21.4005 19.9295Z" fill="url(#paint4_linear_601_50021)"/>
<path d="M31.9936 19.123L21.9978 20.2364L23.5073 22.9249C23.5073 22.9249 23.6924 26.5405 23.8157 27.9612C23.9384 29.3831 23.9688 30.496 25.0483 30.9593C27.205 31.887 29.8678 32.7164 31.9936 33.1803V19.123Z" fill="#F4F6FD"/>
<path d="M31.9935 19.1211L21.9977 20.2345L23.5072 22.923C23.5072 22.923 23.6923 26.5386 23.8156 27.9593C23.9382 29.3812 23.9686 30.4941 25.0482 30.9574C27.2049 31.8851 29.8677 32.7146 31.9935 33.1784V19.1211Z" fill="url(#paint5_linear_601_50021)"/>
<path d="M21.4006 19.9293L21.9978 20.2371L23.5073 22.9256L23.1376 22.9792L21.6751 20.4188L21.4006 19.9293Z" fill="#415050"/>
<path d="M21.4005 19.9284L21.9977 20.2363L23.5072 22.9247L23.1374 22.9783L21.675 20.4179L21.4005 19.9284Z" fill="url(#paint6_linear_601_50021)"/>
<path d="M40.4814 22.9282C40.4814 22.9282 40.2956 26.5437 40.1724 27.9645C40.0491 29.3864 40.0182 30.4993 38.9398 30.9626C36.7819 31.8903 34.1208 32.7197 31.9939 33.1836V33.5659C34.2524 33.0734 37.007 32.1975 39.0857 31.3043C40.307 30.7786 40.4059 29.6002 40.5202 28.236L40.5404 27.9972C40.6535 26.7081 40.8203 23.5415 40.85 22.9818L40.4814 22.9282Z" fill="#7D8283"/>
<path d="M40.8221 22.977C40.7941 23.4944 40.625 26.6956 40.5124 27.9948C40.5124 28.002 40.4922 28.23 40.4916 28.2378C40.3772 29.596 40.2784 30.7601 39.0744 31.2776C36.9903 32.1743 34.2429 33.046 31.9939 33.5367L31.9659 33.1562C34.0917 32.6923 36.7552 31.8635 38.9119 30.9364C39.9908 30.4725 40.0224 29.3709 40.1444 27.949C40.2683 26.5283 40.4529 22.9121 40.4529 22.9121L40.8221 22.977Z" fill="#787E80"/>
<path d="M40.7929 22.9729C40.7691 23.4469 40.597 26.6826 40.4845 27.9926C40.4827 28.008 40.4642 28.2248 40.4636 28.2397C40.3493 29.5913 40.2511 30.7411 39.0632 31.2508C36.9719 32.15 34.2328 33.0187 31.994 33.5064L31.938 33.1307C34.0649 32.6662 36.7266 31.8368 38.8833 30.9097C39.9623 30.4458 39.9944 29.3549 40.1177 27.9336C40.2416 26.5117 40.4261 22.8961 40.4261 22.8961L40.7929 22.9729Z" fill="#737A7C"/>
<path d="M40.7648 22.9692C40.7428 23.3998 40.5701 26.6706 40.4564 27.9901C40.4546 28.0133 40.4361 28.2187 40.435 28.2419C40.3212 29.5859 40.2224 30.722 39.0523 31.2257C36.9557 32.1261 34.222 32.9912 31.9939 33.4777L31.9099 33.1026C34.0363 32.6387 36.6991 31.8099 38.8564 30.8822C39.9348 30.4183 39.967 29.3382 40.0896 27.9168C40.2135 26.4955 40.398 22.8799 40.398 22.8799L40.7648 22.9692Z" fill="#6E7578"/>
<path d="M40.7369 22.9651C40.716 23.3528 40.5428 26.6575 40.4273 27.9877C40.4249 28.0181 40.4076 28.2134 40.4058 28.2438C40.2933 29.5812 40.1951 30.7036 39.0411 31.1984C36.938 32.1029 34.2125 32.9651 31.9939 33.448L31.882 33.077C34.0077 32.612 36.6712 31.7831 38.8279 30.8554C39.9068 30.3922 39.9396 29.3233 40.0628 27.9008C40.1855 26.4789 40.3713 22.8639 40.3713 22.8639L40.7369 22.9651Z" fill="#687173"/>
<path d="M40.7077 22.961C40.6905 23.3057 40.5154 26.645 40.3993 27.9848C40.3958 28.0235 40.3808 28.2081 40.3772 28.245C40.2641 29.577 40.1665 30.6839 39.0286 31.1734C36.9213 32.0791 34.2013 32.9371 31.9939 33.4188L31.854 33.0496C33.9809 32.5852 36.6432 31.7551 38.7999 30.8304C39.8783 30.3654 39.9122 29.3061 40.0355 27.8853C40.1587 26.464 40.3433 22.8478 40.3433 22.8478L40.7077 22.961Z" fill="#646D70"/>
<path d="M40.6798 22.9568C40.6649 23.2581 40.4881 26.6325 40.3714 27.9824C40.3666 28.0289 40.3529 28.2021 40.3493 28.2474C40.2368 29.5723 40.1385 30.6643 39.0185 31.1466C36.9041 32.0553 34.1918 32.9098 31.994 33.3891L31.8267 33.0229C33.953 32.559 36.6159 31.729 38.772 30.8019C39.851 30.3386 39.8849 29.2906 40.0075 27.8693C40.132 26.4474 40.3154 22.8324 40.3154 22.8324L40.6798 22.9568Z" fill="#5F696C"/>
<path d="M40.6518 22.9527C40.6387 23.2111 40.4607 26.6201 40.3428 27.9801C40.338 28.0343 40.3244 28.1974 40.319 28.2486C40.2088 29.5682 40.1105 30.6459 39.0066 31.1205C36.8868 32.0321 34.1811 32.8824 31.994 33.3594L31.7981 32.995C33.9256 32.5323 36.5867 31.7028 38.7446 30.7751C39.8236 30.3119 39.8569 29.2746 39.9801 27.8533C40.104 26.4319 40.2886 22.8164 40.2886 22.8164L40.6518 22.9527Z" fill="#5A6569"/>
<path d="M40.6226 22.9485C40.6119 23.164 40.4332 26.6075 40.3141 27.977C40.3094 28.0389 40.2957 28.192 40.291 28.2509C40.1808 29.5633 40.0831 30.6268 38.9952 31.0942C36.8695 32.0076 34.1709 32.8555 31.9939 33.3307L31.7706 32.9693C33.897 32.5048 36.5592 31.6753 38.7166 30.7482C39.7943 30.285 39.83 29.2596 39.9539 27.8371C40.0766 26.4152 40.2606 22.7996 40.2606 22.7996L40.6226 22.9485Z" fill="#556266"/>
<path d="M40.5946 22.9443C40.5857 23.117 40.4059 26.5944 40.285 27.9746C40.2796 28.0437 40.2677 28.1854 40.2617 28.2527C40.1528 29.5591 40.0545 30.6083 38.9839 31.0674C36.8522 31.9844 34.1608 32.8287 31.9939 33.3015L31.7421 32.9419C33.8684 32.478 36.5319 31.6485 38.6886 30.7214C39.7675 30.2582 39.8021 29.2429 39.9253 27.821C40.0492 26.4003 40.2343 22.7841 40.2343 22.7841L40.5946 22.9443Z" fill="#515E62"/>
<path d="M40.5661 22.9402C40.5595 23.0694 40.3786 26.5813 40.2577 27.9729C40.2511 28.0497 40.2398 28.1801 40.2333 28.2545C40.1243 29.5538 40.0267 30.5887 38.9733 31.0418C36.835 31.96 34.1501 32.8014 31.994 33.2718L31.7153 32.9145C33.8411 32.4525 36.504 31.623 38.6601 30.6947C39.7391 30.2308 39.7754 29.2269 39.898 27.8056C40.0225 26.3836 40.2064 22.7681 40.2064 22.7681L40.5661 22.9402Z" fill="#4C5A5F"/>
<path d="M40.538 22.936C40.5332 23.0224 40.3511 26.5689 40.2296 27.9706C40.2219 28.0557 40.2117 28.1748 40.2052 28.2564C40.0956 29.5497 39.9991 30.5697 38.963 31.0157C36.8176 31.938 34.1411 32.774 31.9939 33.2421L31.6873 32.8878C33.8124 32.4251 36.4753 31.5956 38.6332 30.6679C39.7109 30.2047 39.7479 29.2109 39.8711 27.7889C39.9944 26.3676 40.1789 22.752 40.1789 22.752L40.538 22.936Z" fill="#48575C"/>
<path d="M40.5089 22.9318C40.5065 22.9747 40.3231 26.5563 40.201 27.9681C40.1927 28.0604 40.1844 28.1694 40.1766 28.2581C40.0676 29.5449 39.9706 30.5512 38.9512 30.9894C36.8004 31.9136 34.1304 32.7472 31.9939 33.2128L31.6587 32.8621C33.785 32.3983 36.4473 31.5682 38.604 30.6411C39.6836 30.1778 39.7193 29.1953 39.8431 27.7734C39.9664 26.3515 40.1516 22.7353 40.1516 22.7353L40.5089 22.9318Z" fill="#435459"/>
<path d="M31.6307 32.8353C33.7565 32.3715 36.4188 31.5414 38.5761 30.6143C39.6556 30.151 39.6925 29.1787 39.8152 27.7573C39.9396 26.336 40.1242 22.7204 40.1242 22.7204L40.4815 22.9282C40.4815 22.9282 40.2957 26.5438 40.1724 27.9645C40.1629 28.0652 40.1564 28.164 40.1481 28.2605C40.0397 29.5395 39.9426 30.5321 38.9399 30.9626C36.782 31.8903 34.1209 32.7198 31.994 33.1837L31.6307 32.8353Z" fill="#3F5257"/>
<path d="M23.5013 22.9282C23.5013 22.9282 23.6865 26.5437 23.8091 27.9645C23.9324 29.3864 23.9634 30.4993 25.0418 30.9626C27.1991 31.8903 29.8619 32.7197 31.987 33.1836V33.5659C29.7291 33.0734 26.9746 32.1975 24.8965 31.3043C23.6752 30.7786 23.5757 29.6002 23.4614 28.236L23.4406 27.9972C23.3292 26.7081 23.1608 23.5415 23.131 22.9818L23.5013 22.9282Z" fill="#7D8283"/>
<path d="M23.1602 22.977C23.187 23.4944 23.3567 26.6956 23.4698 27.9948C23.4704 28.002 23.4894 28.23 23.49 28.2378C23.6043 29.596 23.7032 30.7601 24.9084 31.2776C26.9925 32.1743 29.7393 33.046 31.9871 33.5367L32.0156 33.1562C29.8893 32.6923 27.2271 31.8635 25.0704 30.9364C23.992 30.4725 23.9598 29.3709 23.8366 27.949C23.7133 26.5283 23.5287 22.9121 23.5287 22.9121L23.1602 22.977Z" fill="#787E80"/>
<path d="M23.1887 22.9729C23.2131 23.4469 23.384 26.6826 23.4984 27.9926C23.4984 28.008 23.518 28.2248 23.5192 28.2397C23.6324 29.5913 23.7312 30.7411 24.9185 31.2508C27.0097 32.15 29.7494 33.0187 31.9871 33.5064L32.0443 33.1307C29.9179 32.6662 27.2539 31.8368 25.0978 30.9097C24.0194 30.4458 23.9884 29.3549 23.8646 27.9336C23.7413 26.5117 23.5567 22.8961 23.5567 22.8961L23.1887 22.9729Z" fill="#737A7C"/>
<path d="M23.2167 22.9692C23.2393 23.3998 23.4114 26.6706 23.5257 27.9901C23.5281 28.0133 23.5454 28.2187 23.5472 28.2419C23.6603 29.5859 23.7592 30.722 24.9298 31.2257C27.027 32.1261 29.7595 32.9912 31.987 33.4777L32.071 33.1026C29.9452 32.6387 27.2836 31.8099 25.1257 30.8822C24.0474 30.4183 24.0152 29.3382 23.8914 27.9168C23.7687 26.4955 23.5847 22.8799 23.5847 22.8799L23.2167 22.9692Z" fill="#6E7578"/>
<path d="M23.2452 22.9651C23.2655 23.3528 23.4394 26.6575 23.5543 27.9877C23.5573 28.0181 23.5733 28.2134 23.5763 28.2438C23.6889 29.5812 23.7877 30.7036 24.9411 31.1984C27.0448 32.1029 29.7696 32.9651 31.987 33.448L32.0996 33.077C29.9732 32.612 27.311 31.7831 25.1543 30.8554C24.0753 30.3922 24.0426 29.3233 23.9193 27.9008C23.7955 26.4789 23.6114 22.8639 23.6114 22.8639L23.2452 22.9651Z" fill="#687173"/>
<path d="M23.2738 22.961C23.2911 23.3057 23.4667 26.645 23.5834 27.9848C23.5864 28.0235 23.6018 28.2081 23.6048 28.245C23.7168 29.577 23.8157 30.6839 24.9518 31.1734C27.0614 32.0791 29.7802 32.9371 31.987 33.4188L32.1275 33.0496C30.0017 32.5852 27.3389 31.7551 25.1816 30.8304C24.1038 30.3654 24.0693 29.3061 23.946 27.8853C23.8233 26.464 23.6382 22.8478 23.6382 22.8478L23.2738 22.961Z" fill="#646D70"/>
<path d="M23.303 22.9568C23.3173 23.2581 23.4941 26.6325 23.6114 27.9824C23.615 28.0289 23.6293 28.2021 23.6341 28.2474C23.7448 29.5723 23.8425 30.6643 24.9637 31.1466C27.0776 32.0553 29.7904 32.9098 31.987 33.3891L32.1555 33.0229C30.0291 32.559 27.3669 31.729 25.2102 30.8019C24.1301 30.3386 24.0973 29.2906 23.974 27.8693C23.8508 26.4474 23.665 22.8324 23.665 22.8324L23.303 22.9568Z" fill="#5F696C"/>
<path d="M23.3311 22.9527C23.3442 23.2111 23.5216 26.6201 23.6395 27.9801C23.6442 28.0343 23.658 28.1974 23.6621 28.2486C23.7729 29.5682 23.8717 30.6459 24.9751 31.1205C27.0961 32.0321 29.8018 32.8824 31.9871 33.3594L32.183 32.995C30.0572 32.5323 27.395 31.7028 25.2371 30.7751C24.1594 30.3119 24.1242 29.2746 24.0009 27.8533C23.8795 26.4319 23.6937 22.8164 23.6937 22.8164L23.3311 22.9527Z" fill="#5A6569"/>
<path d="M23.3584 22.9485C23.3709 23.164 23.549 26.6075 23.668 27.977C23.6734 28.0389 23.6859 28.192 23.6901 28.2509C23.8014 29.5633 23.8991 30.6268 24.9864 31.0942C27.1133 32.0076 29.8107 32.8555 31.987 33.3307L32.2109 32.9693C30.0857 32.5048 27.4229 31.6753 25.2656 30.7482C24.1873 30.285 24.1521 29.2596 24.0289 27.8371C23.9056 26.4152 23.7205 22.7996 23.7205 22.7996L23.3584 22.9485Z" fill="#556266"/>
<path d="M23.3876 22.9443C23.3959 23.117 23.5764 26.5944 23.6955 27.9746C23.702 28.0437 23.7151 28.1854 23.7198 28.2527C23.83 29.5591 23.9277 30.6083 24.9965 31.0674C27.13 31.9844 29.8214 32.8287 31.987 33.3015L32.2389 32.9419C30.1132 32.478 27.4503 31.6485 25.2936 30.7214C24.2153 30.2582 24.1801 29.2429 24.0575 27.821C23.933 26.4003 23.7485 22.7841 23.7485 22.7841L23.3876 22.9443Z" fill="#515E62"/>
<path d="M23.4155 22.9402C23.4227 23.0694 23.6043 26.5813 23.724 27.9729C23.7312 28.0497 23.7413 28.1801 23.7484 28.2545C23.8568 29.5538 23.9556 30.5887 25.0084 31.0418C27.1472 31.96 29.8309 32.8014 31.987 33.2718L32.2669 32.9145C30.1411 32.4525 27.4783 31.623 25.321 30.6947C24.2432 30.2308 24.2069 29.2269 24.0837 27.8056C23.9598 26.3836 23.7752 22.7681 23.7752 22.7681L23.4155 22.9402Z" fill="#4C5A5F"/>
<path d="M23.4442 22.936C23.449 23.0224 23.6311 26.5689 23.7532 27.9706C23.7603 28.0557 23.7705 28.1748 23.7776 28.2564C23.886 29.5497 23.9837 30.5697 25.0203 31.0157C27.164 31.938 29.8405 32.774 31.9871 33.2421L32.2949 32.8878C30.1691 32.4251 27.5069 31.5956 25.349 30.6679C24.2713 30.2047 24.2355 29.2109 24.1123 27.7889C23.9884 26.3676 23.8032 22.752 23.8032 22.752L23.4442 22.936Z" fill="#48575C"/>
<path d="M23.4733 22.9318C23.4751 22.9747 23.6584 26.5563 23.7817 27.9681C23.7894 28.0604 23.7984 28.1694 23.8055 28.2581C23.9139 29.5449 24.0115 30.5512 25.0315 30.9894C27.1817 31.9136 29.8511 32.7472 31.987 33.2128L32.3228 32.8621C30.197 32.3983 27.5342 31.5682 25.3769 30.6411C24.2992 30.1778 24.2616 29.1953 24.1383 27.7734C24.0151 26.3515 23.8311 22.7353 23.8311 22.7353L23.4733 22.9318Z" fill="#435459"/>
<path d="M32.3507 32.8353C30.225 32.3715 27.5622 31.5414 25.4055 30.6143C24.3271 30.151 24.2896 29.1787 24.1663 27.7573C24.0424 26.336 23.8567 22.7204 23.8567 22.7204L23.5012 22.9282C23.5012 22.9282 23.6864 26.5438 23.809 27.9645C23.8186 28.0652 23.8263 28.164 23.8346 28.2605C23.943 29.5395 24.0395 30.5321 25.0417 30.9626C27.199 31.8903 29.8618 32.7198 31.9869 33.1837L32.3507 32.8353Z" fill="#3F5257"/>
<path d="M31.9925 19.1098L21.9954 20.2221L21.974 20.225L21.9848 20.2441L23.4942 22.9325L23.4924 22.926C23.4942 22.9623 23.6794 26.5588 23.8009 27.9641L23.8205 28.2035C23.9307 29.5045 24.017 30.534 25.0418 30.9741C27.0991 31.8583 29.7619 32.7092 31.9901 33.1957L31.9936 33.1963L31.9966 33.1957C34.2272 32.7092 36.8889 31.8583 38.9449 30.9741C39.9715 30.534 40.0572 29.5045 40.1661 28.2035L40.187 27.9641C40.3091 26.5588 40.493 22.9623 40.4948 22.926L40.4931 22.9325L42.0031 20.2441L42.0138 20.225L41.9918 20.2221L31.9954 19.1098H31.9925ZM41.9781 20.2292L40.4681 22.9189L40.4657 22.9212V22.9254C40.4633 22.9611 40.2793 26.557 40.1573 27.9617L40.1376 28.2011C40.028 29.4938 39.9429 30.5132 38.9336 30.9473C36.8781 31.8297 34.2182 32.6812 31.9901 33.1665H31.9966C29.7696 32.6812 27.1092 31.8297 25.0531 30.9473C24.0456 30.5132 23.9592 29.4938 23.8503 28.2011L23.8301 27.9617C23.708 26.557 23.524 22.9611 23.5222 22.9254V22.9212L23.5204 22.9189L22.0092 20.2292L21.9984 20.2518L31.9954 19.1389H31.9925L41.9888 20.2518L41.9781 20.2292Z" fill="white"/>
<path d="M28.019 12.2698C22.3474 13.9252 17.442 18.1546 17.442 25.2947C17.442 32.6377 23.7449 38.8959 32.0001 39.3216L31.9966 40.7573C24.7405 40.7573 16.3792 34.7974 16.3792 25.6805C16.3792 17.8444 21.2375 13.8906 27.0335 12.0221C27.105 12.0066 27.1818 12.0126 27.2479 12.0257C27.4962 12.0751 27.7499 12.1287 28.019 12.2698Z" fill="#D7D8D9"/>
<path d="M32.0068 41.2059C22.6952 41.2059 16 33.2823 16 25.7546C16 22.9816 17.9013 16.8009 22.1016 16.8009C21.2299 17.6726 18.8135 20.5641 18.8135 24.7055C18.8135 30.3908 22.6565 36.5716 31.9967 37.5147C34.4821 37.7654 36.6811 41.2059 32.0068 41.2059Z" fill="#D7D8D9"/>
<path d="M31.914 37.533C34.0183 37.736 35.8046 40.1631 33.6128 40.905C33.1859 41.0479 32.6131 41.1307 31.8658 41.1271C23.0376 41.0544 16.6324 33.9347 16.0941 26.7351C16.0691 26.4034 16.0566 26.0712 16.0578 25.7407C16.0656 23.4959 17.2719 19.2622 19.7859 17.5968C20.4361 17.1752 21.1804 16.9358 22.0224 16.9632C21.3245 17.7016 19.6567 19.7231 19.05 22.6027C18.9059 23.2958 18.8218 24.0371 18.826 24.8225C18.8635 30.5186 22.7715 36.6267 31.914 37.533Z" fill="#D3D5D6"/>
<path d="M31.8307 37.5543C33.9577 37.749 35.6499 40.154 33.4587 40.8483C33.03 40.9811 32.4613 41.0561 31.7259 41.0466C22.9663 40.9037 16.6652 33.8983 16.1495 26.713C16.1245 26.3831 16.1126 26.0544 16.1144 25.7257C16.1311 23.4261 17.3595 19.2717 19.8211 17.6616C20.4392 17.2757 21.143 17.0715 21.9421 17.1257C21.252 17.8986 19.6312 19.9165 19.0482 22.7396C18.9095 23.4285 18.8321 24.1645 18.8392 24.9415C18.9113 30.6465 22.8859 36.6838 31.8307 37.5543Z" fill="#CED0D1"/>
<path d="M31.7467 37.5741C33.8962 37.7605 35.4944 40.1441 33.3043 40.7901C32.8726 40.9128 32.3082 40.9807 31.5853 40.9676C22.8941 40.752 16.6985 33.8633 16.2031 26.6899C16.1799 26.363 16.1697 26.0361 16.1715 25.7116C16.1971 23.3566 17.4458 19.2802 19.8562 17.7242C20.4403 17.3753 21.1066 17.2062 21.8628 17.2872C21.1804 18.094 19.6048 20.1102 19.0463 22.8755C18.9135 23.5608 18.8403 24.2903 18.851 25.059C18.9605 30.7747 23.0007 36.7399 31.7467 37.5741Z" fill="#CBCDCF"/>
<path d="M31.6633 37.5944C33.8337 37.7718 35.339 40.1333 33.1496 40.7318C32.7167 40.8461 32.1558 40.9062 31.4442 40.8884C22.8227 40.6008 16.7312 33.8275 16.2579 26.6673C16.2352 26.3422 16.2263 26.0194 16.2281 25.6973C16.2633 23.2869 17.5333 19.2891 19.8913 17.7885C20.4421 17.4759 21.0697 17.3414 21.7825 17.4497C21.1078 18.2899 19.5787 20.3031 19.044 23.0124C18.9172 23.6936 18.8499 24.4177 18.8642 25.1769C19.0089 30.9021 23.1151 36.7959 31.6633 37.5944Z" fill="#C7C9CB"/>
<path d="M31.58 37.6147C33.7724 37.785 35.1836 40.1233 32.9948 40.6741C32.5595 40.7789 32.0039 40.8301 31.3043 40.8075C22.7519 40.4502 16.764 33.7913 16.3121 26.6447C16.2913 26.3226 16.2817 26.0016 16.2853 25.6825C16.3282 23.2179 17.6191 19.2987 19.9264 17.8529C20.4439 17.5766 21.0322 17.4766 21.7027 17.6124C21.0352 18.4865 19.5531 20.4967 19.0422 23.1477C18.9207 23.8259 18.8594 24.544 18.876 25.2948C19.0583 31.0308 23.2288 36.8525 31.58 37.6147Z" fill="#C3C6C7"/>
<path d="M31.4966 37.6343C33.7105 37.7963 35.0276 40.1138 32.8399 40.6169C32.4041 40.7116 31.8521 40.7557 31.1626 40.7289C22.6798 40.2978 16.7985 33.7562 16.3668 26.6221C16.3472 26.3018 16.3383 25.9838 16.3418 25.6682C16.3942 23.1477 17.7072 19.3082 19.9622 17.9167C20.4457 17.6767 20.9959 17.6118 21.6223 17.775C20.9631 18.683 19.5263 20.6897 19.0411 23.284C18.9255 23.9593 18.8684 24.6696 18.8892 25.4128C19.1065 31.1588 23.3443 36.9091 31.4966 37.6343Z" fill="#BFC2C4"/>
<path d="M31.4138 37.6545C33.6491 37.8075 34.8727 40.103 32.6856 40.5591C32.2462 40.6443 31.6996 40.6812 31.0226 40.649C22.6071 40.1465 16.8301 33.7204 16.421 26.5988C16.4019 26.282 16.3948 25.9664 16.399 25.6532C16.4597 23.0785 17.7941 19.3165 19.9973 17.9809C20.4474 17.7772 20.9583 17.7469 21.543 17.9368C20.8904 18.8788 19.5007 20.8825 19.038 23.4203C18.929 24.092 18.8772 24.7964 18.9016 25.5312C19.1553 31.2868 23.4586 36.9656 31.4138 37.6545Z" fill="#BCBFC1"/>
<path d="M31.3298 37.6754C33.5884 37.8207 34.7173 40.0935 32.5308 40.502C32.0896 40.5764 31.5466 40.6068 30.8815 40.5693C22.5369 39.9953 16.864 33.6841 16.4758 26.5763C16.4585 26.2625 16.4513 25.9498 16.4567 25.639C16.5246 23.0089 17.8804 19.3261 20.0324 18.0447C20.4492 17.8768 20.9214 17.8821 21.4639 18.0989C20.8184 19.0754 19.4739 21.0761 19.0362 23.5567C18.9326 24.2236 18.8862 24.9227 18.9142 25.6486C19.2053 31.4143 23.5729 37.0216 31.3298 37.6754Z" fill="#B8BCBE"/>
<path d="M31.2465 37.6947C33.5271 37.8317 34.562 40.0842 32.3761 40.4439C31.9337 40.5094 31.3942 40.5308 30.7422 40.4903C22.4643 39.8443 16.8974 33.6498 16.5306 26.5539C16.5127 26.2418 16.508 25.9322 16.5127 25.6256C16.5901 22.9395 17.9674 19.3352 20.0682 18.1086C20.4511 17.9776 20.8845 18.0175 21.3835 18.2617C20.7458 19.2715 19.4472 21.2693 19.0345 23.6933C18.9369 24.3567 18.8963 25.0498 18.9273 25.7667C19.253 31.5431 23.6879 37.0784 31.2465 37.6947Z" fill="#B5B8BA"/>
<path d="M31.1625 37.7147C33.4651 37.8445 34.4071 40.0745 32.2224 40.3865C31.7764 40.4425 31.2423 40.4562 30.601 40.4103C22.3933 39.6922 16.9295 33.6127 16.5848 26.5304C16.5693 26.2214 16.5639 25.9147 16.5699 25.6104C16.6562 22.8696 18.0549 19.3439 20.1027 18.1721C20.454 18.078 20.8475 18.1524 21.3042 18.424C20.6737 19.4678 19.4209 21.4625 19.0326 23.8289C18.9403 24.4892 18.9046 25.1752 18.9403 25.8843C19.3024 31.6703 23.8022 37.1347 31.1625 37.7147Z" fill="#B1B5B7"/>
<path d="M31.0798 37.7351C33.4045 37.8565 34.2512 40.0639 32.0676 40.3282C31.6199 40.3747 31.0899 40.3812 30.46 40.3306C22.3214 39.5417 16.9623 33.5782 16.639 26.5079C16.6241 26.2012 16.6206 25.897 16.6277 25.5968C16.723 22.8 18.1419 19.3536 20.1378 18.2359C20.4558 18.1782 20.8113 18.2883 21.224 18.586C20.6011 19.6632 19.3953 21.6562 19.0315 23.9647C18.9446 24.6221 18.9142 25.3027 18.9517 26.0029C19.3513 31.799 23.9172 37.1908 31.0798 37.7351Z" fill="#AEB1B3"/>
<path d="M30.9958 37.7558C33.3431 37.8678 34.0964 40.0542 31.9123 40.2704C31.4627 40.3067 30.9364 40.3049 30.3201 40.2507C22.25 39.3903 16.9951 33.5424 16.6944 26.4858C16.6801 26.1809 16.6771 25.879 16.6843 25.5825C16.7873 22.7309 18.2283 19.3624 20.1736 18.3001C20.4576 18.2787 20.7732 18.4228 21.1448 18.7485C20.5291 19.8602 19.3691 21.8496 19.0297 24.101C18.9482 24.7542 18.9237 25.4288 18.9648 26.1202C19.4007 31.9276 24.0315 37.2479 30.9958 37.7558Z" fill="#AAAEB1"/>
<path d="M30.9118 37.7756C33.2805 37.8798 33.9397 40.0448 31.7585 40.2134C31.3066 40.2396 30.785 40.23 30.1794 40.1717C22.1784 39.2386 17.0284 33.5062 16.7473 26.4627C16.736 26.1614 16.733 25.8624 16.7408 25.5671C16.8533 22.6613 18.3157 19.3715 20.2081 18.364C20.4587 18.3789 20.7368 18.5581 21.0649 18.9112C20.4563 20.0556 19.3435 22.0426 19.0273 24.2375C18.9516 24.8871 18.932 25.5558 18.9778 26.2388C19.4488 32.0551 24.1463 37.304 30.9118 37.7756Z" fill="#A6ABAD"/>
<path d="M30.8291 37.7954C33.2198 37.8925 33.7849 40.0337 31.6037 40.1552C31.15 40.1724 30.632 40.1552 30.0389 40.0927C22.1064 39.0881 17.0617 33.4713 16.8033 26.4408C16.7908 26.1407 16.789 25.8448 16.7986 25.553C16.9182 22.5918 18.4027 19.3812 20.2438 18.4285C20.4618 18.4785 20.6999 18.6934 20.9852 19.0733C20.3838 20.2523 19.3167 22.2364 19.0255 24.374C18.9565 25.0195 18.9416 25.6816 18.991 26.3569C19.4995 32.1833 24.2601 37.3607 30.8291 37.7954Z" fill="#A2A7AA"/>
<path d="M30.7458 37.8153C33.1579 37.904 33.6301 40.0238 31.449 40.0977C30.9929 40.1048 30.4802 40.0804 29.8978 40.0119C22.0349 38.936 17.0945 33.4352 16.8587 26.4173C16.8468 26.1201 16.8456 25.8278 16.8557 25.5384C16.9843 22.5218 18.4896 19.3898 20.2796 18.4912C20.4635 18.5794 20.663 18.8289 20.9054 19.2356C20.3117 20.4491 19.2905 22.4289 19.0226 24.51C18.9607 25.1519 18.9499 25.8081 19.0029 26.4738C19.5477 32.3104 24.3751 37.4158 30.7458 37.8153Z" fill="#9FA4A7"/>
<path d="M30.6618 37.8357C33.0972 37.9161 33.4742 40.0144 31.2942 40.0394C30.8363 40.0376 30.3277 40.0043 29.7585 39.9328C21.9635 38.7842 17.1279 33.399 16.9117 26.3941C16.9028 26.1 16.9028 25.81 16.9117 25.5242C17.0499 22.4523 18.576 19.3988 20.3141 18.5556C20.4654 18.6795 20.6255 18.9635 20.8256 19.397C20.2391 20.6451 19.265 22.622 19.022 24.6465C18.9649 25.2842 18.9595 25.9339 19.0148 26.5924C19.5972 32.4391 24.49 37.473 30.6618 37.8357Z" fill="#9CA1A3"/>
<path d="M30.5785 37.8555C33.0359 37.9287 33.3199 40.0033 31.14 39.983C30.6803 39.9699 30.1747 39.93 29.618 39.8526C21.8921 38.6331 17.1606 33.3646 16.9671 26.3716C16.9582 26.0805 16.9594 25.7929 16.9689 25.51C17.1154 22.3827 18.6635 19.4085 20.3486 18.6189C20.4677 18.7797 20.5892 19.0994 20.7458 19.5597C20.167 20.8417 19.2382 22.8156 19.0196 24.7824C18.9684 25.4177 18.969 26.0614 19.0279 26.7105C19.6454 32.5673 24.6043 37.5298 30.5785 37.8555Z" fill="#989EA1"/>
<path d="M30.4956 37.8757C32.9738 37.9412 33.1638 39.9943 30.985 39.9246C30.5236 39.902 30.0233 39.8561 29.4761 39.7728C21.8199 38.4824 17.1939 33.3282 17.0218 26.349C17.0129 26.0602 17.0146 25.7756 17.0259 25.4951C17.1813 22.3136 18.7498 19.4174 20.3849 18.6838C20.4688 18.8797 20.5516 19.2351 20.6659 19.7222C20.0949 21.0382 19.2118 23.0091 19.0177 24.9193C18.9718 25.5499 18.9778 26.187 19.041 26.8283C19.6936 32.6953 24.7191 37.5857 30.4956 37.8757Z" fill="#959B9D"/>
<path d="M30.4116 37.8962C32.9125 37.9528 33.0078 39.985 30.8302 39.8671C30.3664 39.8356 29.8709 39.7802 29.3362 39.6927C21.7484 38.3309 17.2266 33.2922 17.0754 26.326C17.0688 26.039 17.0712 25.758 17.0831 25.4811C17.2462 22.2436 18.8367 19.426 20.4194 18.7472C20.4706 18.98 20.5146 19.3694 20.5873 19.8845C20.0216 21.2332 19.1856 23.2017 19.0165 25.0548C18.9754 25.6818 18.9868 26.3135 19.0535 26.9459C19.743 32.8224 24.8334 37.6425 30.4116 37.8962Z" fill="#91979A"/>
<path d="M30.3289 37.9163C32.85 37.9651 32.853 39.9748 30.6755 39.8092C30.2104 39.7687 29.7186 39.7056 29.1952 39.6145C21.6771 38.1801 17.2601 33.2569 17.1303 26.3033C17.1249 26.0198 17.1279 25.7412 17.1398 25.4667C17.3125 22.1744 18.9243 19.436 20.4552 18.8113C20.4731 19.0811 20.4784 19.505 20.5058 20.0469C19.9491 21.4307 19.1601 23.3957 19.0131 25.1916C18.9791 25.815 18.9964 26.4408 19.0655 27.0648C19.7925 32.952 24.9478 37.6984 30.3289 37.9163Z" fill="#8E9496"/>
<path d="M30.2449 37.9358C32.7892 37.9769 32.6975 39.9639 30.5206 39.7519C30.0526 39.7007 29.5661 39.6299 29.0546 39.534C21.6056 38.0287 17.2927 33.2211 17.1849 26.2811C17.1796 25.9995 17.1843 25.7232 17.1968 25.4522C17.3778 22.1046 19.0106 19.4448 20.4908 18.8755C20.4748 19.181 20.4409 19.6401 20.4272 20.2099C19.8776 21.6265 19.1332 23.5891 19.0117 25.3272C18.9832 25.9471 19.0052 26.5663 19.0791 27.182C19.8406 33.0793 25.0627 37.7548 30.2449 37.9358Z" fill="#8A9194"/>
<path d="M30.1615 37.9564C32.7279 37.9891 32.5422 39.9547 30.3664 39.6939C29.8972 39.6331 29.4143 39.5546 28.9141 39.4551C21.5335 37.8772 17.3255 33.1856 17.2397 26.257C17.2356 25.9795 17.2403 25.7062 17.254 25.4371C17.4427 22.0347 19.0981 19.454 20.5254 18.9377C20.476 19.2801 20.4046 19.7743 20.3468 20.371C19.8049 21.8221 19.1065 23.7817 19.0094 25.4633C18.9868 26.0801 19.0142 26.6929 19.0916 27.3008C19.8901 33.2071 25.177 37.8111 30.1615 37.9564Z" fill="#878D90"/>
<path d="M30.0771 37.9771C32.6667 38.0009 32.3862 39.945 30.2123 39.6366C29.7395 39.5663 29.2613 39.4806 28.7742 39.3752C21.4627 37.7264 17.3583 33.1504 17.294 26.2354C17.291 25.9591 17.297 25.6888 17.3107 25.4244C17.5084 21.9655 19.1846 19.4628 20.5606 19.0031C20.4785 19.3812 20.3671 19.9112 20.2676 20.5334C19.7323 22.019 19.0815 23.9757 19.0083 25.6001C18.991 26.2134 19.0226 26.8201 19.1036 27.4186C19.939 33.3355 25.2914 37.8681 30.0771 37.9771Z" fill="#838A8D"/>
<path d="M29.9949 37.9963C32.6041 38.013 32.2314 39.9339 30.0574 39.5784C29.584 39.4981 29.1089 39.4052 28.6331 39.295C21.3907 37.5748 17.3922 33.1148 17.3476 26.213C17.3458 25.9385 17.3529 25.6705 17.3672 25.4091C17.5738 21.8954 19.272 19.4713 20.5963 19.0664C20.4802 19.4815 20.3301 20.0448 20.1872 20.6962C19.6602 22.214 19.0553 24.1682 19.0065 25.736C18.9952 26.3446 19.0326 26.9454 19.1166 27.5361C19.9877 33.4632 25.4069 37.9237 29.9949 37.9963Z" fill="#81878A"/>
<path d="M29.911 38.0169C32.5429 38.0253 32.076 39.9248 29.9026 39.5204C29.4263 39.4311 28.9577 39.3293 28.4938 39.2156C21.3192 37.4233 17.4244 33.0789 17.4036 26.1907C17.4024 25.9198 17.4089 25.6536 17.425 25.3952C17.64 21.8273 19.359 19.4818 20.6315 19.1305C20.4821 19.5825 20.2933 20.1803 20.1075 20.8591C19.5877 22.4114 19.0291 24.3621 19.0047 25.8722C18.9988 26.4777 19.0416 27.0726 19.1292 27.6549C20.0366 33.5916 25.5213 37.9806 29.911 38.0169Z" fill="#7D8387"/>
<path d="M29.7484 39.4636C21.7456 37.7993 17.4578 33.4806 17.4578 26.1679C17.4578 22.0866 19.3596 19.5113 20.6672 19.194C20.0724 20.779 19.0029 23.9087 19.0029 26.0083C19.0029 32.8464 25.2308 38.0363 29.8271 38.0363C32.4816 38.0363 31.9206 39.915 29.7484 39.4636Z" fill="#798083"/>
<path d="M35.3857 12.6991C35.3797 12.7056 35.3743 12.7122 35.3708 12.7199L35.3452 12.7824C39.9796 14.2311 45.1796 18.2897 45.1796 24.7021C45.1796 30.2737 41.302 36.7177 31.9969 37.5167L32.0005 37.8859C41.3062 37.085 45.4869 30.3755 45.4869 24.9051C45.4869 18.4946 40.8983 14.1525 35.3857 12.6991Z" fill="#3C535A"/>
<path d="M35.3858 12.7003C35.3798 12.7069 35.3745 12.7134 35.3709 12.7212L35.3453 12.7837C39.9797 14.2324 45.1797 18.291 45.1797 24.7034C45.1797 30.275 41.3021 36.7189 31.9971 37.518L32.0006 37.8872C41.3063 37.0863 45.487 30.3768 45.487 24.9064C45.487 18.4958 40.8985 14.1538 35.3858 12.7003Z" fill="url(#paint7_linear_601_50021)"/>
<path d="M35.9731 12.2646C41.6442 13.9212 46.5661 18.1554 46.5661 25.2954C46.5661 32.6385 40.255 38.8966 32.0003 39.3224L31.9967 40.758C39.254 40.758 47.6129 34.7934 47.6129 25.6765C47.6129 17.8416 42.7541 13.886 36.9586 12.0187C36.8865 12.0026 36.7936 12.0133 36.7263 12.0229C36.6186 12.0378 36.4733 12.0735 36.3066 12.1235C36.1916 12.164 36.0523 12.2247 35.9731 12.2646Z" fill="#DEE4E9"/>
<path d="M35.3856 12.6999C40.8983 14.1534 45.4868 18.4954 45.4868 24.906L46.5663 25.2972C46.5663 18.1572 41.6443 13.9229 35.9733 12.2664C35.7083 12.392 35.497 12.5742 35.3856 12.6999Z" fill="#C6DAF1"/>
<path d="M35.3859 12.7017C40.8985 14.1552 45.487 18.4972 45.487 24.9078L46.5666 25.299C46.5666 18.159 41.6446 13.9248 35.9735 12.2682C35.7086 12.3939 35.4972 12.5761 35.3859 12.7017Z" fill="url(#paint8_linear_601_50021)"/>
<path d="M46.5662 25.2937C46.5662 32.6367 40.2603 38.8949 32.0068 39.3218V37.8838C41.3119 37.083 45.4866 30.3728 45.4866 24.9025L46.5662 25.2937Z" fill="white"/>
<path d="M46.5662 25.2922C46.5662 32.6353 40.2603 38.8934 32.0068 39.3204V37.8824C41.3119 37.0815 45.4866 30.3714 45.4866 24.901L46.5662 25.2922Z" fill="url(#paint9_linear_601_50021)"/>
<path d="M28.6067 12.7041C23.0934 14.1576 18.5043 18.4996 18.5043 24.9102C18.5043 30.38 22.6933 37.0854 32.0001 37.8863V39.3237C23.7448 38.8979 17.442 32.6398 17.442 25.2967C17.442 18.1567 22.3474 13.9272 28.019 12.2719C28.2238 12.3653 28.4846 12.5565 28.6067 12.7041Z" fill="#7093AE"/>
<path d="M28.6064 12.7055C23.0932 14.159 18.5041 18.501 18.5041 24.9116C18.5041 30.3814 22.693 37.0868 31.9999 37.8877V39.3251C23.7446 38.8993 17.4418 32.6412 17.4418 25.2981C17.4418 18.1581 22.3471 13.9286 28.0188 12.2733C28.2236 12.3667 28.4844 12.5579 28.6064 12.7055Z" fill="url(#paint10_linear_601_50021)"/>
<path d="M18.8136 24.7075C18.8136 18.2933 24.0137 14.2365 28.6475 12.7872L28.6225 12.7247C28.6177 12.7169 28.6129 12.7104 28.607 12.7038C23.0937 14.1573 18.5046 18.4993 18.5046 24.9099C18.5046 30.3797 22.6936 37.085 32.0004 37.8859L31.9969 37.5167C22.6977 36.7177 18.8136 30.1767 18.8136 24.7075Z" fill="#3C535A"/>
<path d="M18.8138 24.7087C18.8138 18.2946 24.0138 14.2378 28.6476 12.7885L28.6226 12.7259C28.6178 12.7182 28.6131 12.7116 28.6071 12.7051C23.0938 14.1586 18.5048 18.5006 18.5048 24.9112C18.5048 30.381 22.6937 37.0863 32.0006 37.8872L31.997 37.518C22.6979 36.7189 18.8138 30.1779 18.8138 24.7087Z" fill="url(#paint11_linear_601_50021)"/>
<path d="M35.3772 12.7055C36.7646 13.0717 38.0722 13.6141 39.2655 14.318C40.4993 15.0456 41.5818 15.9286 42.4845 16.9433C43.4313 18.0068 44.1673 19.2036 44.6698 20.4969C45.2046 21.87 45.4748 23.3521 45.4748 24.902C45.4748 26.2918 45.1992 27.7507 44.6781 29.1208C44.1154 30.5981 43.2895 31.9486 42.2249 33.1353C41.0638 34.4298 39.652 35.4855 38.0276 36.2757C36.243 37.1439 34.2155 37.681 31.9993 37.8721L32.0011 37.8953C34.2191 37.7036 36.2513 37.1665 38.0389 36.2965C39.6644 35.5052 41.0787 34.4477 42.2428 33.1508C43.3086 31.9623 44.1351 30.6082 44.699 29.1297C45.2218 27.756 45.4987 26.2942 45.4987 24.902C45.4987 23.3491 45.2271 21.8647 44.6912 20.4886C44.1869 19.1917 43.4509 17.9942 42.5018 16.9278C41.5979 15.9114 40.5136 15.0265 39.278 14.2983C38.0859 13.5957 36.7802 13.0538 35.3969 12.6858C35.3916 12.6852 35.3719 12.7037 35.3772 12.7055Z" fill="#EDF1FB"/>
<path d="M31.8678 41.4957C41.1795 41.4957 48.0003 33.2827 48.0003 25.755C48.0003 22.982 46.0978 16.8013 41.8987 16.8013C42.7705 17.673 45.1868 20.5645 45.1868 24.7059C45.1868 30.3912 41.3437 36.572 32.0035 37.5152C29.5169 37.7658 27.193 41.4957 31.8678 41.4957Z" fill="#DEE4E9"/>
<path d="M31.941 41.4214C41.1884 41.3417 47.8961 33.3007 47.8961 25.7826C47.8961 22.9471 45.9949 16.9384 41.9315 16.9229C42.7902 17.8286 45.1439 20.732 45.1439 24.7751C45.1439 30.5158 41.1866 36.6489 32.0714 37.5475C29.5777 37.7862 27.3102 41.4566 31.941 41.4214Z" fill="#D6DCE1"/>
<path d="M32.0136 41.345C41.1996 41.1878 47.7918 33.3165 47.7918 25.8103C47.7918 22.9123 45.8899 17.0751 41.9653 17.0447C42.8102 17.9843 45.0992 20.8991 45.0992 24.8445C45.0992 30.64 41.0293 36.7267 32.1398 37.58C29.6389 37.8068 27.4281 41.4182 32.0136 41.345Z" fill="#CFD5DA"/>
<path d="M32.0868 41.2696C41.2109 41.0338 47.6882 33.3346 47.6882 25.8379C47.6882 22.8773 45.7857 17.2122 41.9987 17.1664C42.8311 18.1405 45.0557 21.066 45.0557 24.9156C45.0557 30.7652 40.8721 36.8043 32.2083 37.6129C29.6991 37.8279 27.5454 41.3791 32.0868 41.2696Z" fill="#C8CED2"/>
<path d="M32.1602 41.1946C41.2211 40.8808 47.5841 33.352 47.5841 25.8648C47.5841 22.8429 45.6816 17.3487 42.0327 17.288C42.852 18.2961 45.0118 21.2334 45.0118 24.9847C45.0118 30.8892 40.715 36.8818 32.2775 37.6458C29.7594 37.8488 27.6622 41.3399 32.1602 41.1946Z" fill="#C0C7CB"/>
<path d="M32.2322 41.1195C41.2324 40.7271 47.4793 33.3691 47.4793 25.8927C47.4793 22.8083 45.578 17.4849 42.0667 17.4099C42.8723 18.452 44.9695 21.4006 44.9695 25.0549C44.9695 31.0153 40.5572 36.9597 32.346 37.6778C29.8201 37.8683 27.7807 41.3023 32.2322 41.1195Z" fill="#BAC0C4"/>
<path d="M32.3055 41.0438C41.2438 40.5734 47.3757 33.3851 47.3757 25.92C47.3757 22.7725 45.4744 17.6218 42.1 17.5319C42.8931 18.6079 44.9248 21.5667 44.9248 25.1245C44.9248 31.1397 40.4006 37.037 32.415 37.7111C29.8802 37.8903 27.8986 41.2635 32.3055 41.0438Z" fill="#B2B9BD"/>
<path d="M32.378 40.9695C41.2538 40.4199 47.2714 33.4032 47.2714 25.9476C47.2714 22.7381 45.3707 17.759 42.1339 17.6536C42.9127 18.7629 44.8807 21.7342 44.8807 25.1943C44.8807 31.2643 40.2427 37.1146 32.4829 37.7434C29.9409 37.9107 28.0152 41.2256 32.378 40.9695Z" fill="#ABB2B6"/>
<path d="M32.4508 40.893C41.2646 40.266 47.1673 33.4202 47.1673 25.9741C47.1673 22.7033 45.266 17.8962 42.1685 17.7754C42.9336 18.9186 44.8373 21.9018 44.8373 25.2643C44.8373 31.3885 40.085 37.1911 32.5519 37.7759C30.0022 37.9307 28.1332 41.186 32.4508 40.893Z" fill="#A4ABAF"/>
<path d="M32.5246 40.818C41.2765 40.1124 47.0636 33.438 47.0636 26.002C47.0636 22.6681 45.1618 18.0326 42.2018 17.8968C42.9545 19.0746 44.7932 22.0679 44.7932 25.3339C44.7932 31.5135 39.9284 37.2691 32.6217 37.808C30.0624 37.9521 28.2498 41.1479 32.5246 40.818Z" fill="#9DA3A7"/>
<path d="M32.5967 40.7435C41.2866 39.9587 46.9595 33.4552 46.9595 26.0299C46.9595 22.6335 45.0575 18.1694 42.2351 18.0188C42.9741 19.2299 44.7503 22.2352 44.7503 25.4041C44.7503 31.6385 39.7712 37.347 32.6889 37.8413C30.1231 37.9723 28.3678 41.1085 32.5967 40.7435Z" fill="#979DA1"/>
<path d="M32.6693 40.6673C41.2973 39.8045 46.8552 33.4725 46.8552 26.0568C46.8552 22.5984 44.9534 18.3064 42.2691 18.1403C42.9961 19.3854 44.7057 22.4019 44.7057 25.4738C44.7057 31.763 39.6134 37.4245 32.758 37.8734C30.1833 37.9931 28.4851 41.0704 32.6693 40.6673Z" fill="#8F9699"/>
<path d="M32.7431 40.5921C41.308 39.6524 46.7516 33.4895 46.7516 26.0845C46.7516 22.5637 44.8497 18.4432 42.303 18.2621C43.0151 19.5418 44.6633 22.5696 44.6633 25.5445C44.6633 31.8884 39.4568 37.5023 32.8265 37.9072C30.244 38.015 28.6023 41.0321 32.7431 40.5921Z" fill="#888F92"/>
<path d="M32.8151 40.5173C41.3193 39.4973 46.6468 33.5065 46.6468 26.1116C46.6468 22.5282 44.7455 18.5804 42.3357 18.3839C43.036 19.6969 44.6193 22.7361 44.6193 25.6133C44.6193 32.0125 39.2995 37.58 32.8955 37.939C30.3053 38.0349 28.7202 40.9931 32.8151 40.5173Z" fill="#81878A"/>
<path d="M32.8877 40.4416C41.3294 39.3442 46.5426 33.5237 46.5426 26.139C46.5426 22.4936 44.6414 18.7167 42.3691 18.5059C43.0569 19.8528 44.5752 22.9027 44.5752 25.6841C44.5752 32.1375 39.1424 37.6573 32.964 37.9723C30.3654 38.0551 28.8375 40.9543 32.8877 40.4416Z" fill="#7A7F83"/>
<path d="M32.9616 40.3667C41.3408 39.1906 46.439 33.541 46.439 26.1658C46.439 22.4591 44.5372 18.8531 42.4031 18.6274C43.0771 20.0089 44.5312 23.0701 44.5312 25.7526C44.5312 32.262 38.9834 37.7354 33.0331 38.0045C30.4268 38.076 28.9554 40.9163 32.9616 40.3667Z" fill="#73787B"/>
<path d="M33.0343 40.2915C41.3516 39.0357 46.3348 33.5582 46.3348 26.1931C46.3348 22.4239 44.4336 18.9899 42.4364 18.7494C43.0974 20.1642 44.4884 23.2379 44.4884 25.8227C44.4884 32.3857 38.8269 37.8127 33.1022 38.0365C30.487 38.0967 29.0722 40.8774 33.0343 40.2915Z" fill="#6C7174"/>
<path d="M33.1069 40.216C41.3616 38.8839 46.2312 33.5761 46.2312 26.2205C46.2312 22.3894 44.3299 19.1276 42.4703 18.8709C43.1176 20.3196 44.4443 23.4041 44.4443 25.893C44.4443 32.512 38.6702 37.8901 33.1694 38.07C30.5483 38.1176 29.1895 40.8382 33.1069 40.216Z" fill="#656A6C"/>
<path d="M33.1797 40.1416C41.373 38.7292 46.1264 33.5923 46.1264 26.2486C46.1264 22.355 44.2246 19.2646 42.5049 18.9925C43.1379 20.4751 44.4009 23.5715 44.4009 25.9622C44.4009 32.6366 38.5119 37.9676 33.2386 38.1028C30.6085 38.1391 29.3081 40.8002 33.1797 40.1416Z" fill="#5D6265"/>
<path d="M33.2522 40.0656C41.3842 38.5764 46.0228 33.6104 46.0228 26.2763C46.0228 22.3201 44.1209 19.4012 42.5382 19.1148C43.1587 20.6308 44.3567 23.739 44.3567 26.0333C44.3567 32.7601 38.3552 38.0459 33.307 38.1358C30.6692 38.1596 29.4247 40.7611 33.2522 40.0656Z" fill="#565A5C"/>
<path d="M33.3255 39.991C41.3951 38.4226 45.918 33.6263 45.918 26.3035C45.918 22.2854 44.0174 19.538 42.5716 19.2367C43.1802 20.7866 44.3139 23.9056 44.3139 26.1028C44.3139 32.8855 38.1981 38.1231 33.3761 38.1678C30.73 38.1797 29.5421 40.7228 33.3255 39.991Z" fill="#4F5355"/>
<path d="M33.3986 39.9154C41.405 38.2683 45.8143 33.6453 45.8143 26.3314C45.8143 22.2496 43.913 19.6755 42.6054 19.3581C43.1997 20.9426 44.2697 24.0729 44.2697 26.1724C44.2697 33.0105 38.0407 38.2005 33.4444 38.2005C30.7899 38.2005 29.6591 40.6835 33.3986 39.9154Z" fill="#474B4C"/>
<path d="M31.997 40.7792C33.9578 40.7792 36.0294 40.3398 37.9873 39.5091C39.9779 38.6648 41.8225 37.4257 43.3219 35.9275C44.664 34.5842 45.7168 33.0604 46.4516 31.3962C47.2423 29.6003 47.643 27.677 47.643 25.6804C47.643 23.7941 47.3572 22.0488 46.7922 20.4959C46.2682 19.0531 45.4923 17.7425 44.4836 16.5993C42.7073 14.5813 40.1809 13.0343 36.9738 12.0006C36.9625 11.9976 36.95 12.0036 36.9458 12.0155C36.9417 12.0268 36.9488 12.0399 36.9601 12.0435C40.1595 13.0748 42.6794 14.617 44.4509 16.6278C45.4548 17.7675 46.2277 19.0745 46.7511 20.5108C47.3138 22.0595 47.599 23.7988 47.599 25.6804C47.599 27.8592 47.1221 29.9427 46.1807 31.8731C45.3125 33.6517 44.0805 35.2499 42.5162 36.6206C41.0562 37.9014 39.3187 38.9536 37.4918 39.6616C35.687 40.3636 33.7858 40.7346 31.997 40.7346C31.9845 40.7346 31.9756 40.7441 31.9756 40.7572C31.9756 40.7691 31.9845 40.7792 31.997 40.7792Z" fill="#E5E6E6"/>
<path d="M28.6032 12.6888C27.2087 13.0562 25.8939 13.6011 24.6953 14.3091C23.4615 15.0373 22.3796 15.9215 21.4769 16.9368C20.5319 18.002 19.7971 19.1995 19.2946 20.4958C18.7599 21.8718 18.4901 23.3563 18.4901 24.9086C18.4901 26.3014 18.7676 27.7638 19.2916 29.1363C19.8549 30.6148 20.6831 31.9683 21.7514 33.1574C24.2106 35.8947 27.7547 37.5333 31.9985 37.9001L32.0014 37.8704C27.7642 37.5053 24.2279 35.8691 21.774 33.1371C20.7076 31.951 19.8817 30.6017 19.319 29.1262C18.7962 27.7561 18.5199 26.2972 18.5199 24.9086C18.5199 23.3599 18.789 21.8784 19.322 20.5071C19.8233 19.2138 20.5563 18.0199 21.4989 16.9564C22.3998 15.9424 23.48 15.0605 24.7096 14.3347C25.9064 13.6285 27.2271 13.0842 28.6199 12.7168L28.6032 12.6888Z" fill="#EDF1FB"/>
<path d="M36.2345 12.8792C37.6767 12.9024 38.5621 13.1179 39.9948 14.0069C38.5389 13.9527 37.3003 13.3341 36.2345 12.8792Z" fill="#E5E6E6"/>
<path d="M39.9951 14.0047C38.5624 13.1157 37.677 12.9001 36.2349 12.8769C37.7003 13.1943 38.6625 13.4879 39.9951 14.0047Z" fill="#232E30"/>
<path d="M39.9953 14.0029C38.5627 13.1139 37.6773 12.8983 36.2351 12.8751C37.7005 13.1925 38.6627 13.486 39.9953 14.0029Z" fill="url(#paint12_linear_601_50021)"/>
<path d="M40.0952 13.32C40.6031 14.2167 41.535 15.0742 42.652 15.8852C42.19 14.7657 41.9744 14.2948 40.0952 13.32Z" fill="#7093AE"/>
<path d="M40.095 13.3209C40.6029 14.2177 41.5347 15.0751 42.6518 15.8861C42.1897 14.7667 41.9742 14.2957 40.095 13.3209Z" fill="url(#paint13_linear_601_50021)"/>
<path d="M42.652 15.8852C41.9208 14.9742 41.1498 14.0536 40.0952 13.32C40.6031 14.2167 41.535 15.0742 42.652 15.8852Z" fill="#232E30"/>
<path d="M42.6518 15.8861C41.9206 14.9751 41.1495 14.0545 40.095 13.3209C40.6029 14.2177 41.5347 15.0751 42.6518 15.8861Z" fill="url(#paint14_linear_601_50021)"/>
<path d="M41.5422 15.9176C42.7325 16.2421 43.3339 16.4738 44.2932 17.8868C42.8838 17.308 42.6051 17.0412 41.5422 15.9176Z" fill="#9CB3CF"/>
<path d="M41.5421 15.9193C42.7324 16.2439 43.3338 16.4755 44.2931 17.8885C42.8837 17.3097 42.605 17.043 41.5421 15.9193Z" fill="url(#paint15_linear_601_50021)"/>
<path d="M41.5422 15.9176C42.3294 16.3219 43.3304 17.0162 44.2932 17.8868C43.3339 16.4738 42.7325 16.2421 41.5422 15.9176Z" fill="#232E30"/>
<path d="M41.5421 15.9193C42.3293 16.3236 43.3302 17.0179 44.2931 17.8885C43.3338 16.4755 42.7324 16.2439 41.5421 15.9193Z" fill="url(#paint16_linear_601_50021)"/>
<path d="M44.2598 16.473C44.3854 17.6549 44.8821 18.8833 45.6681 20.0653C45.6454 18.8595 45.7603 17.886 44.2598 16.473Z" fill="#9CB3CF"/>
<path d="M44.2595 16.4741C44.3852 17.6561 44.8818 18.8845 45.6678 20.0665C45.6452 18.8607 45.7601 17.8871 44.2595 16.4741Z" fill="url(#paint17_linear_601_50021)"/>
<path d="M44.1841 19.214C45.4828 20.1869 46.0306 20.9908 46.2616 22.5104C45.5167 21.7172 44.9087 21.0748 44.1841 19.214Z" fill="#9CB3CF"/>
<path d="M44.1843 19.2131C45.483 20.186 46.0308 20.9899 46.2619 22.5095C45.5169 21.7163 44.909 21.0738 44.1843 19.2131Z" fill="url(#paint18_linear_601_50021)"/>
<path d="M44.1841 19.214C45.1815 20.3697 45.7072 21.2552 46.2616 22.5104C46.0306 20.9908 45.4828 20.1869 44.1841 19.214Z" fill="#232E30"/>
<path d="M44.1843 19.2131C45.1817 20.3688 45.7075 21.2543 46.2619 22.5095C46.0308 20.9899 45.483 20.186 44.1843 19.2131Z" fill="url(#paint19_linear_601_50021)"/>
<path d="M47.159 22.0323C46.9631 22.8439 46.7422 23.0529 46.6725 23.6781C46.604 24.3045 46.6279 25.452 46.5928 26.2397C46.9971 25.4055 47.9908 24.582 47.159 22.0323Z" fill="#9CB3CF"/>
<path d="M47.1588 22.0308C46.9629 22.8424 46.7419 23.0514 46.6723 23.6767C46.6038 24.3031 46.6277 25.4505 46.5925 26.2383C46.9968 25.4041 47.9906 24.5806 47.1588 22.0308Z" fill="url(#paint20_linear_601_50021)"/>
<path d="M46.6725 23.6781C46.604 24.3045 46.6279 25.452 46.5928 26.2397C47.0733 24.6422 47.2221 23.5209 47.159 22.0323C46.9631 22.8439 46.7422 23.0529 46.6725 23.6781Z" fill="#232E30"/>
<path d="M46.6723 23.6767C46.6038 24.3031 46.6277 25.4505 46.5925 26.2383C47.0731 24.6407 47.2219 23.5195 47.1588 22.0308C46.9629 22.8424 46.7419 23.0514 46.6723 23.6767Z" fill="url(#paint21_linear_601_50021)"/>
<path d="M45.6107 25.1397C45.9578 26.2639 46.72 27.2839 45.8536 29.3233C45.8071 28.3617 45.1248 27.7585 45.6107 25.1397Z" fill="#9CB3CF"/>
<path d="M45.6109 25.1389C45.9581 26.2632 46.7202 27.2832 45.8538 29.3226C45.8074 28.3609 45.125 27.7577 45.6109 25.1389Z" fill="url(#paint22_linear_601_50021)"/>
<path d="M45.8535 29.3233C46.7199 27.2839 45.9577 26.2639 45.6106 25.1397C45.7892 26.8641 46.0714 27.8966 45.8535 29.3233Z" fill="#232E30"/>
<path d="M45.8536 29.3226C46.72 27.2832 45.9579 26.2632 45.6107 25.1389C45.7894 26.8634 46.0716 27.8959 45.8536 29.3226Z" fill="url(#paint23_linear_601_50021)"/>
<path d="M47.2515 28.7921C46.7198 29.5466 45.8766 29.7806 44.6053 32.1874C46.3262 31.3079 46.8698 30.5189 47.2515 28.7921Z" fill="#9CB3CF"/>
<path d="M47.2514 28.7937C46.7196 29.5482 45.8765 29.7822 44.6052 32.189C46.3261 31.3095 46.8697 30.5205 47.2514 28.7937Z" fill="url(#paint24_linear_601_50021)"/>
<path d="M44.6053 32.1874C45.9749 30.9078 46.6942 30.0753 47.2515 28.7921C46.7198 29.5466 45.8766 29.7806 44.6053 32.1874Z" fill="#232E30"/>
<path d="M44.6052 32.189C45.9748 30.9093 46.694 30.0769 47.2514 28.7937C46.7196 29.5482 45.8765 29.7822 44.6052 32.189Z" fill="url(#paint25_linear_601_50021)"/>
<path d="M44.5402 29.7143C43.9935 30.7421 43.7553 31.3143 43.6547 31.6459C43.5541 31.9776 43.4963 33.34 43.4272 33.6264C44.1984 32.7535 44.3162 32.13 44.3936 31.7829C44.4692 31.4352 44.5783 30.4789 44.5402 29.7143Z" fill="#9CB3CF"/>
<path d="M44.5404 29.7147C43.9938 30.7425 43.7556 31.3147 43.6549 31.6464C43.5543 31.978 43.4966 33.3404 43.4275 33.6268C44.1986 32.7539 44.3164 32.1305 44.3939 31.7833C44.4695 31.4356 44.5785 30.4793 44.5404 29.7147Z" fill="url(#paint26_linear_601_50021)"/>
<path d="M43.4272 33.6273C43.8435 32.6305 44.318 30.8781 44.5402 29.7152C43.9935 30.7429 43.7553 31.3151 43.6547 31.6468C43.557 31.9678 43.4963 33.3409 43.4272 33.6273C43.4284 33.6267 43.4272 33.6279 43.4272 33.6273Z" fill="#232E30"/>
<path d="M43.4275 33.6282C43.8437 32.6315 44.3183 30.8791 44.5404 29.7162C43.9938 30.7439 43.7556 31.3161 43.6549 31.6478C43.5573 31.9687 43.4966 33.3418 43.4275 33.6282C43.4287 33.6277 43.4275 33.6288 43.4275 33.6282Z" fill="url(#paint27_linear_601_50021)"/>
<path d="M41.8515 33.6008C41.1268 34.2802 40.6957 34.6976 40.3491 35.2389C40.0026 35.7801 39.9025 36.4095 39.5399 36.9418C41.4817 35.8605 41.5204 34.6357 41.8515 33.6008Z" fill="#9CB3CF"/>
<path d="M41.8515 33.6008C41.1268 34.2802 40.6957 34.6976 40.3491 35.2389C40.0026 35.7801 39.9025 36.4095 39.5399 36.9418C41.4817 35.8605 41.5204 34.6357 41.8515 33.6008Z" fill="url(#paint28_linear_601_50021)"/>
<path d="M40.3491 35.2389C40.0026 35.7801 39.9025 36.4095 39.5399 36.9418C40.3366 36.1737 41.2269 34.8214 41.8515 33.6008C41.1268 34.2802 40.6957 34.6976 40.3491 35.2389Z" fill="#232E30"/>
<path d="M40.3491 35.2389C40.0026 35.7801 39.9025 36.4095 39.5399 36.9418C40.3366 36.1737 41.2269 34.8214 41.8515 33.6008C41.1268 34.2802 40.6957 34.6976 40.3491 35.2389Z" fill="url(#paint29_linear_601_50021)"/>
<path d="M44.779 34.0701C44.1716 34.344 43.5863 34.4405 42.9634 34.7132C42.3412 34.9877 41.5749 35.7409 41.1152 36.0446C42.7706 35.9362 43.9769 35.4039 44.779 34.0701Z" fill="#9CB3CF"/>
<path d="M44.7788 34.0687C44.1714 34.3426 43.586 34.4391 42.9632 34.7118C42.3409 34.9863 41.5747 35.7395 41.115 36.0432C42.7703 35.9348 43.9767 35.4025 44.7788 34.0687Z" fill="url(#paint30_linear_601_50021)"/>
<path d="M34.5802 38.9068C35.1584 38.3733 35.3382 37.8743 35.8926 37.4456C36.4469 37.0168 37.3604 36.5542 37.9481 36.3797C37.2675 37.2032 36.4058 38.5471 34.5802 38.9068Z" fill="#9CB3CF"/>
<path d="M34.5801 38.9048C35.1583 38.3713 35.3381 37.8723 35.8924 37.4436C36.4468 37.0149 37.3602 36.5522 37.9479 36.3778C37.2673 37.2013 36.4057 38.5452 34.5801 38.9048Z" fill="url(#paint31_linear_601_50021)"/>
<path d="M34.5802 38.9068C36.0128 38.1244 36.6446 37.2253 37.9481 36.3797C37.3604 36.5542 36.4469 37.0168 35.8926 37.4456C35.3382 37.8743 35.1584 38.3733 34.5802 38.9068Z" fill="#232E30"/>
<path d="M34.5801 38.9048C36.0127 38.1224 36.6445 37.2233 37.9479 36.3778C37.3602 36.5522 36.4468 37.0149 35.8924 37.4436C35.3381 37.8723 35.1583 38.3713 34.5801 38.9048Z" fill="url(#paint32_linear_601_50021)"/>
<path d="M38.6776 38.5956C37.4409 38.676 37.22 38.4616 36.6204 38.4556C38.4234 37.7375 38.7467 37.6798 40.8963 37.8191C40.1913 38.3753 39.5083 38.5289 38.6776 38.5956Z" fill="#9CB3CF"/>
<path d="M38.6776 38.5956C37.4409 38.676 37.22 38.4616 36.6204 38.4556C38.4234 37.7375 38.7467 37.6798 40.8963 37.8191C40.1913 38.3753 39.5083 38.5289 38.6776 38.5956Z" fill="url(#paint33_linear_601_50021)"/>
<path d="M36.6202 38.4537C38.1345 38.0142 39.5439 38.3388 40.8962 37.8171C38.7466 37.6778 38.4233 37.7356 36.6202 38.4537Z" fill="#232E30"/>
<path d="M36.6201 38.4517C38.1343 38.0123 39.5438 38.3368 40.8961 37.8152C38.7465 37.6759 38.4231 37.7336 36.6201 38.4517Z" fill="url(#paint34_linear_601_50021)"/>
<path d="M34.5632 40.124C33.364 40.0334 32.5965 39.5446 32.0909 39.3487C33.2914 39.2385 34.4846 39.1516 35.2337 39.2903C35.9988 39.4309 36.3144 39.8 36.8634 39.8233C35.9387 40.1484 35.1986 40.1722 34.5632 40.124Z" fill="#9CB3CF"/>
<path d="M34.5632 40.123C33.364 40.0325 32.5965 39.5436 32.0909 39.3477C33.2914 39.2375 34.4846 39.1506 35.2337 39.2894C35.9988 39.4299 36.3144 39.7991 36.8634 39.8223C35.9387 40.1474 35.1986 40.1712 34.5632 40.123Z" fill="url(#paint35_linear_601_50021)"/>
<path d="M32.0909 39.3495C33.6736 39.5335 35.0026 39.8127 36.8634 39.824C36.3144 39.8008 35.9988 39.4316 35.2337 39.2911C34.4846 39.1524 33.2914 39.2393 32.0909 39.3495Z" fill="#232E30"/>
<path d="M32.0909 39.3492C33.6736 39.5332 35.0026 39.8124 36.8634 39.8237C36.3144 39.8005 35.9988 39.4313 35.2337 39.2908C34.4846 39.1521 33.2914 39.239 32.0909 39.3492Z" fill="url(#paint36_linear_601_50021)"/>
<path d="M41.1152 36.0446C42.0745 35.5135 43.4857 35.1913 44.779 34.0701C44.1716 34.344 43.5863 34.4405 42.9634 34.7132C42.3412 34.9877 41.5749 35.7409 41.1152 36.0446Z" fill="#232E30"/>
<path d="M41.115 36.0432C42.0743 35.5121 43.4854 35.1899 44.7788 34.0687C44.1714 34.3426 43.586 34.4391 42.9632 34.7118C42.3409 34.9863 41.5747 35.7395 41.115 36.0432Z" fill="url(#paint37_linear_601_50021)"/>
<path d="M44.2598 16.473C44.3854 17.6549 44.8821 18.8833 45.6681 20.0653C45.3507 18.5761 44.9344 17.8473 44.2598 16.473Z" fill="#232E30"/>
<path d="M44.2595 16.4741C44.3852 17.6561 44.8818 18.8845 45.6678 20.0665C45.3505 18.5773 44.9342 17.8484 44.2595 16.4741Z" fill="url(#paint38_linear_601_50021)"/>
<path d="M27.772 12.8769C26.3322 12.9001 25.4462 13.1157 24.0135 14.0047C25.4688 13.9505 26.7086 13.3318 27.772 12.8769Z" fill="#F1F5FC"/>
<path d="M27.7719 12.8751C26.3321 12.8983 25.4461 13.1139 24.0134 14.0029C25.4687 13.9487 26.7084 13.33 27.7719 12.8751Z" fill="url(#paint39_radial_601_50021)"/>
<path d="M24.0135 14.0047C25.4462 13.1157 26.3322 12.9001 27.772 12.8769C26.334 13.2092 25.3462 13.4879 24.0135 14.0047Z" fill="#232E30"/>
<path d="M24.0134 14.0029C25.4461 13.1139 26.3321 12.8983 27.7719 12.8751C26.3339 13.2073 25.346 13.486 24.0134 14.0029Z" fill="url(#paint40_linear_601_50021)"/>
<path d="M23.9131 13.32C23.4057 14.2167 22.4732 15.0742 21.3556 15.8852C21.8177 14.7657 22.0332 14.2948 23.9131 13.32Z" fill="#232E30"/>
<path d="M23.9131 13.3209C23.4057 14.2177 22.4732 15.0751 21.3556 15.8861C21.8177 14.7667 22.0332 14.2957 23.9131 13.3209Z" fill="url(#paint41_linear_601_50021)"/>
<path d="M21.3556 15.8852C22.2321 14.9313 22.5828 14.3716 23.9131 13.32C23.4057 14.2167 22.4732 15.0742 21.3556 15.8852Z" fill="#587089"/>
<path d="M21.3556 15.8861C22.2321 14.9322 22.5828 14.3725 23.9131 13.3209C23.4057 14.2177 22.4732 15.0751 21.3556 15.8861Z" fill="url(#paint42_linear_601_50021)"/>
<path d="M22.4642 15.9176C21.2751 16.2421 20.6737 16.4738 19.7139 17.8868C21.1239 17.308 21.4025 17.0412 22.4642 15.9176Z" fill="#F1F5FC"/>
<path d="M22.4642 15.9193C21.2751 16.2439 20.6737 16.4755 19.7139 17.8885C21.1239 17.3097 21.4025 17.043 22.4642 15.9193Z" fill="url(#paint43_radial_601_50021)"/>
<path d="M22.4642 15.9176C21.6788 16.3219 20.688 17.0537 19.7139 17.8868C20.6737 16.4738 21.2751 16.2421 22.4642 15.9176Z" fill="#232E30"/>
<path d="M22.4642 15.9193C21.6788 16.3236 20.688 17.0555 19.7139 17.8885C20.6737 16.4755 21.2751 16.2439 22.4642 15.9193Z" fill="url(#paint44_linear_601_50021)"/>
<path d="M19.7493 16.473C19.6219 17.6549 19.1998 18.8321 18.3394 20.0653C18.3632 18.8595 18.3345 17.9169 19.7493 16.473Z" fill="#9CB3CF"/>
<path d="M19.7491 16.4741C19.6217 17.6561 19.1995 18.8333 18.3391 20.0665C18.3629 18.8607 18.3343 17.9181 19.7491 16.4741Z" fill="url(#paint45_linear_601_50021)"/>
<path d="M19.7493 16.473C19.6219 17.6549 19.1164 18.8822 18.3394 20.0653C18.7443 18.4076 19.1932 17.7859 19.7493 16.473Z" fill="#232E30"/>
<path d="M19.7491 16.4741C19.6217 17.6561 19.1162 18.8833 18.3391 20.0665C18.744 18.4087 19.1929 17.7871 19.7491 16.4741Z" fill="url(#paint46_linear_601_50021)"/>
<path d="M19.831 19.2192C18.5245 20.1814 17.9696 20.9805 17.7267 22.4989C18.4781 21.7111 19.0908 21.0734 19.831 19.2192Z" fill="#F1F5FC"/>
<path d="M19.8307 19.2203C18.5243 20.1826 17.9694 20.9817 17.7264 22.5001C18.4779 21.7123 19.0906 21.0746 19.8307 19.2203Z" fill="url(#paint47_radial_601_50021)"/>
<path d="M19.831 19.2192C19.1087 19.9921 17.894 21.9576 17.7267 22.4989C17.9696 20.9805 18.5245 20.1814 19.831 19.2192Z" fill="#232E30"/>
<path d="M19.8307 19.2203C19.1084 19.9932 17.8938 21.9588 17.7264 22.5001C17.9694 20.9817 18.5243 20.1826 19.8307 19.2203Z" fill="url(#paint48_linear_601_50021)"/>
<path d="M17.3338 23.6781C17.4034 24.3045 17.3802 25.452 17.4147 26.2397C16.9735 24.9167 16.9212 23.543 16.8485 22.0323C17.0444 22.8439 17.2647 23.0529 17.3338 23.6781Z" fill="#232E30"/>
<path d="M17.3338 23.6767C17.4034 24.3031 17.3802 25.4505 17.4147 26.2383C16.9735 24.9152 16.9212 23.5415 16.8485 22.0308C17.0444 22.8424 17.2647 23.0514 17.3338 23.6767Z" fill="url(#paint49_linear_601_50021)"/>
<path d="M18.3972 25.1397C18.0506 26.2639 17.2879 27.2839 18.1543 29.3233C18.2013 28.3617 18.8825 27.7585 18.3972 25.1397Z" fill="#F1F5FC"/>
<path d="M18.3971 25.1389C18.0505 26.2632 17.2878 27.2832 18.1541 29.3226C18.2012 28.3609 18.8823 27.7577 18.3971 25.1389Z" fill="url(#paint50_radial_601_50021)"/>
<path d="M18.1543 29.3233C17.2879 27.2839 18.0506 26.2639 18.3972 25.1397C18.3632 26.9016 17.8726 27.8966 18.1543 29.3233Z" fill="#232E30"/>
<path d="M18.1541 29.3226C17.2878 27.2832 18.0505 26.2632 18.3971 25.1389C18.3631 26.9009 17.8725 27.8959 18.1541 29.3226Z" fill="url(#paint51_linear_601_50021)"/>
<path d="M16.7567 28.7921C17.2879 29.5466 18.1316 29.7806 19.4029 32.1874C17.6808 31.3079 17.1372 30.5189 16.7567 28.7921Z" fill="#9CB3CF"/>
<path d="M16.7567 28.7937C17.2879 29.5482 18.1316 29.7822 19.4029 32.189C17.6808 31.3095 17.1372 30.5205 16.7567 28.7937Z" fill="url(#paint52_linear_601_50021)"/>
<path d="M19.4684 29.7143C20.0144 30.7421 20.2538 31.3143 20.3538 31.6459C20.4539 31.9776 20.5116 33.34 20.5807 33.6264C19.8102 32.7535 19.5988 32.1485 19.522 31.8014C19.4452 31.453 19.4297 30.4789 19.4684 29.7143Z" fill="#232E30"/>
<path d="M19.4683 29.7147C20.0143 30.7425 20.2537 31.3147 20.3537 31.6464C20.4537 31.978 20.5115 33.3404 20.5806 33.6268C19.81 32.7539 19.5987 32.1489 19.5219 31.8018C19.4451 31.4534 19.4296 30.4793 19.4683 29.7147Z" fill="url(#paint53_linear_601_50021)"/>
<path d="M20.5806 33.6273C20.0048 32.7645 19.8179 30.8037 19.4684 29.7152C20.0144 30.7429 20.2537 31.3151 20.3538 31.6468C20.4502 31.9678 20.5116 33.3409 20.5806 33.6273C20.5806 33.6279 20.58 33.6267 20.5806 33.6273Z" fill="#F1F5FC"/>
<path d="M20.5804 33.6282C20.0046 32.7654 19.8177 30.8046 19.4681 29.7162C20.0142 30.7439 20.2535 31.3161 20.3535 31.6478C20.45 31.9687 20.5113 33.3418 20.5804 33.6282C20.5804 33.6288 20.5798 33.6277 20.5804 33.6282Z" fill="url(#paint54_radial_601_50021)"/>
<path d="M22.1558 33.6008C22.881 34.2802 23.3122 34.6976 23.6587 35.2389C24.0058 35.7801 24.1065 36.4095 24.4685 36.9418C22.5262 35.8605 22.4886 34.6357 22.1558 33.6008Z" fill="#232E30"/>
<path d="M22.1558 33.6008C22.881 34.2802 23.3122 34.6976 23.6587 35.2389C24.0058 35.7801 24.1065 36.4095 24.4685 36.9418C22.5262 35.8605 22.4886 34.6357 22.1558 33.6008Z" fill="url(#paint55_linear_601_50021)"/>
<path d="M23.6587 35.2389C24.0058 35.7801 24.1065 36.4095 24.4685 36.9418C24.0172 36.6447 22.6143 34.4951 22.1558 33.6008C22.881 34.2802 23.3122 34.6976 23.6587 35.2389Z" fill="#F1F5FC"/>
<path d="M23.6587 35.2389C24.0058 35.7801 24.1065 36.4095 24.4685 36.9418C24.0172 36.6447 22.6143 34.4951 22.1558 33.6008C22.881 34.2802 23.3122 34.6976 23.6587 35.2389Z" fill="url(#paint56_radial_601_50021)"/>
<path d="M19.2296 34.0696C19.8376 34.3405 20.4235 34.4334 21.0475 34.7032C21.6709 34.9741 22.4414 35.7226 22.9041 36.0245C21.2475 35.9238 20.0376 35.3975 19.2296 34.0696Z" fill="#9CB3CF"/>
<path d="M19.2294 34.068C19.8373 34.3389 20.4232 34.4318 21.0473 34.7015C21.6707 34.9725 22.4412 35.7209 22.9038 36.0228C21.2473 35.9222 20.0374 35.3958 19.2294 34.068Z" fill="url(#paint57_linear_601_50021)"/>
<path d="M22.9041 36.0245C21.94 35.4993 20.623 35.1373 19.2296 34.0696C19.8376 34.3405 20.4235 34.4334 21.0475 34.7032C21.6709 34.9741 22.4414 35.7226 22.9041 36.0245Z" fill="#232E30"/>
<path d="M22.9038 36.0228C21.9398 35.4976 20.6227 35.1356 19.2294 34.068C19.8373 34.3389 20.4232 34.4318 21.0473 34.7015C21.6707 34.9725 22.4412 35.7209 22.9038 36.0228Z" fill="url(#paint58_linear_601_50021)"/>
<path d="M29.4283 38.9068C28.8495 38.3733 28.6703 37.8743 28.1159 37.4456C27.561 37.0168 26.6481 36.5542 26.0586 36.3797C26.7404 37.2032 27.6014 38.5471 29.4283 38.9068Z" fill="#232E30"/>
<path d="M29.4285 38.9048C28.8497 38.3713 28.6705 37.8723 28.1162 37.4436C27.5612 37.0149 26.6483 36.5522 26.0588 36.3778C26.7406 37.2013 27.6017 38.5452 29.4285 38.9048Z" fill="url(#paint59_linear_601_50021)"/>
<path d="M29.4283 38.9068C28.1987 38.2286 27.4775 37.2931 26.0586 36.3797C26.6481 36.5542 27.561 37.0168 28.1159 37.4456C28.6703 37.8743 28.8495 38.3733 29.4283 38.9068Z" fill="#F1F5FC"/>
<path d="M29.4285 38.9048C28.1989 38.2266 27.4778 37.2912 26.0588 36.3778C26.6483 36.5522 27.5612 37.0149 28.1162 37.4436C28.6705 37.8723 28.8497 38.3713 29.4285 38.9048Z" fill="url(#paint60_radial_601_50021)"/>
<path d="M25.3307 38.5956C26.5669 38.676 26.789 38.4616 27.388 38.4556C25.5856 37.7375 25.261 37.6798 23.1121 37.8191C23.8171 38.3753 24.4995 38.5289 25.3307 38.5956Z" fill="#9CB3CF"/>
<path d="M25.3307 38.5956C26.5669 38.676 26.789 38.4616 27.388 38.4556C25.5856 37.7375 25.261 37.6798 23.1121 37.8191C23.8171 38.3753 24.4995 38.5289 25.3307 38.5956Z" fill="url(#paint61_linear_601_50021)"/>
<path d="M27.3881 38.4537C25.806 38.1357 24.4639 38.3388 23.1122 37.8171C25.2612 37.6778 25.5857 37.7356 27.3881 38.4537Z" fill="#232E30"/>
<path d="M27.3884 38.4517C25.8063 38.1338 24.4641 38.3368 23.1124 37.8152C25.2614 37.6759 25.5859 37.7336 27.3884 38.4517Z" fill="url(#paint62_linear_601_50021)"/>
<path d="M29.4434 40.124C30.6438 40.0334 31.4113 39.5446 31.9169 39.3487C30.717 39.2385 29.5244 39.1516 28.7741 39.2903C28.009 39.4309 27.6934 39.8 27.1444 39.8233C28.0691 40.1484 28.8093 40.1722 29.4434 40.124Z" fill="#9CB3CF"/>
<path d="M29.4434 40.123C30.6438 40.0325 31.4113 39.5436 31.9169 39.3477C30.717 39.2375 29.5244 39.1506 28.7741 39.2894C28.009 39.4299 27.6934 39.7991 27.1444 39.8223C28.0691 40.1474 28.8093 40.1712 29.4434 40.123Z" fill="url(#paint63_linear_601_50021)"/>
<path d="M31.9169 39.3495C30.3342 39.5335 29.0052 39.8127 27.1444 39.824C27.6934 39.8008 28.009 39.4316 28.7741 39.2911C29.5244 39.1524 30.717 39.2393 31.9169 39.3495Z" fill="#232E30"/>
<path d="M31.9169 39.3492C30.3342 39.5332 29.0052 39.8124 27.1444 39.8237C27.6934 39.8005 28.009 39.4313 28.7741 39.2908C29.5244 39.1521 30.717 39.239 31.9169 39.3492Z" fill="url(#paint64_linear_601_50021)"/>
<path d="M19.4029 32.1874C18.5782 31.3615 17.2777 30.1938 16.7567 28.7921C17.2879 29.5466 18.1316 29.7806 19.4029 32.1874Z" fill="#232E30"/>
<path d="M19.4029 32.189C18.5782 31.3631 17.2777 30.1954 16.7567 28.7937C17.2879 29.5482 18.1316 29.7822 19.4029 32.189Z" fill="url(#paint65_linear_601_50021)"/>
<path d="M40.8976 37.8087C38.7629 37.67 38.4437 37.7182 36.6151 38.4476C36.6074 38.45 36.6032 38.4589 36.6062 38.4655C36.6098 38.4738 36.6187 38.4774 36.6258 38.475C38.4485 37.7486 38.7677 37.7003 40.8946 37.8379C40.9035 37.8397 40.9107 37.8313 40.9107 37.8236C40.9113 37.8159 40.9047 37.8087 40.8976 37.8087Z" fill="#818384"/>
<path d="M44.7682 34.0487C44.4627 34.1863 44.1555 34.2815 43.8578 34.3726C43.5654 34.4625 43.2623 34.556 42.9544 34.6912C42.5513 34.8698 42.0923 35.2426 41.6874 35.5719C41.4694 35.7499 41.2646 35.9172 41.1008 36.0244L41.0806 36.0387L41.108 36.0804L41.1288 36.0661C41.2938 35.9571 41.4998 35.7892 41.7183 35.6106C42.1214 35.2825 42.577 34.9115 42.9741 34.7382C43.2802 34.6031 43.5814 34.5096 43.872 34.4197C44.1715 34.328 44.48 34.2333 44.7885 34.094L44.8116 34.0832L44.7914 34.0386L44.7682 34.0487Z" fill="#88898A"/>
<path d="M46.2738 22.5L46.2625 22.4893C45.5122 21.689 44.9197 21.0578 44.1992 19.2102C44.1951 19.2012 44.1867 19.1971 44.1784 19.2001C44.1695 19.2036 44.1653 19.2126 44.1689 19.2215C44.8918 21.0763 45.486 21.7099 46.2387 22.5113L46.25 22.5232C46.2553 22.5298 46.266 22.5304 46.2732 22.5238C46.2797 22.5179 46.2803 22.5066 46.2738 22.5Z" fill="#D0D1D3"/>
<path d="M45.7101 20.0652L45.7066 19.7877C45.6958 18.6986 45.6863 17.7584 44.287 16.443L44.2299 16.5032C45.6024 17.7953 45.6113 18.7188 45.6232 19.7883L45.6267 20.0663L45.7101 20.0652Z" fill="#EBF1FB"/>
<path d="M44.2993 17.87C42.9012 17.2954 42.6249 17.0357 41.5555 15.9044C41.5483 15.8972 41.5382 15.8972 41.5305 15.9032C41.5245 15.9091 41.5245 15.9199 41.5305 15.9264C42.6053 17.0625 42.8815 17.3227 44.2868 17.9003C44.2951 17.9045 44.3047 17.9003 44.3088 17.892C44.3124 17.8831 44.3088 17.8735 44.2993 17.87Z" fill="#C3C4C6"/>
<path d="M23.1132 37.8334C25.2396 37.6953 25.5593 37.7435 27.3814 38.47C27.3897 38.4729 27.3981 38.4694 27.4016 38.4616C27.4046 38.4539 27.4011 38.4456 27.3933 38.4426C25.5641 37.7137 25.2449 37.6655 23.1108 37.8037C23.1031 37.8054 23.0966 37.812 23.0966 37.8197C23.0972 37.8281 23.1049 37.834 23.1132 37.8334Z" fill="#939596"/>
<path d="M27.1462 39.8383C27.4285 39.8258 27.6464 39.7252 27.8995 39.609C28.1353 39.4983 28.4032 39.3744 28.7778 39.3048C29.5376 39.1648 30.7445 39.2571 31.9158 39.3637C31.9235 39.3643 31.9313 39.3584 31.9325 39.35C31.9336 39.3423 31.9277 39.3346 31.9182 39.3334C30.7445 39.2274 29.5346 39.1345 28.7712 39.2756C28.3949 39.3459 28.1246 39.4709 27.8864 39.5817C27.6357 39.6966 27.4207 39.7966 27.1445 39.8085C27.1361 39.8085 27.1296 39.8157 27.1302 39.824C27.1308 39.8323 27.1367 39.8383 27.1462 39.8383Z" fill="#838486"/>
<path d="M36.8872 39.8383C36.6049 39.8258 36.3864 39.7252 36.1339 39.609C35.8976 39.4983 35.6296 39.3744 35.2563 39.3048C34.4953 39.1648 33.2883 39.2571 32.1176 39.3637C32.1087 39.3643 32.1022 39.3584 32.1004 39.35C32.0998 39.3423 32.1063 39.3346 32.1147 39.3334C33.2883 39.2274 34.4977 39.1345 35.2616 39.2756C35.6391 39.3459 35.9083 39.4709 36.147 39.5817C36.3971 39.6966 36.6115 39.7966 36.889 39.8085C36.8973 39.8085 36.9033 39.8157 36.9033 39.824C36.9033 39.8323 36.8961 39.8383 36.8872 39.8383Z" fill="#838486"/>
<path d="M16.8342 22.0377C16.9236 22.4045 17.0164 22.6474 17.0986 22.8629C17.1969 23.119 17.2814 23.3399 17.3195 23.6817C17.3618 24.0652 17.3701 24.6517 17.3779 25.2185C17.382 25.5716 17.3862 25.9372 17.4005 26.2427C17.4011 26.2511 17.4071 26.2564 17.416 26.2564C17.4243 26.2558 17.4303 26.2487 17.4303 26.2415C17.4166 25.9361 17.4112 25.5716 17.4059 25.2179C17.3993 24.6505 17.3922 24.0628 17.3481 23.6787C17.3106 23.3328 17.2249 23.1107 17.1266 22.851C17.0438 22.6379 16.9521 22.3955 16.864 22.0311C16.8616 22.0228 16.8539 22.0186 16.8455 22.0198C16.8372 22.0222 16.8324 22.0305 16.8342 22.0377Z" fill="#94A3AF"/>
<path d="M19.2238 34.0851C19.5323 34.2227 19.8419 34.3162 20.1408 34.4073C20.4326 34.4942 20.7345 34.5859 21.0417 34.7187C21.4413 34.892 21.8998 35.2611 22.3041 35.5868C22.5232 35.7643 22.7304 35.9316 22.8959 36.0394C22.9031 36.043 22.912 36.0418 22.9162 36.0346C22.921 36.0275 22.9186 36.0185 22.912 36.0138C22.7483 35.9078 22.5417 35.7405 22.3225 35.5636C21.9176 35.2367 21.4567 34.8669 21.0536 34.6913C20.7446 34.5579 20.4421 34.4662 20.1491 34.3775C19.8508 34.2882 19.5436 34.1941 19.2351 34.0583C19.228 34.0553 19.2191 34.0583 19.2155 34.0661C19.2125 34.0726 19.2155 34.0821 19.2238 34.0851Z" fill="#818384"/>
<path d="M16.7438 28.7996C16.9117 29.0372 17.1118 29.2253 17.3428 29.4421C17.8394 29.9071 18.5194 30.5442 19.3893 32.1942C19.3935 32.2014 19.4024 32.2038 19.409 32.1996C19.4161 32.1966 19.4191 32.1871 19.4155 32.1799C18.542 30.5264 17.8614 29.8863 17.3636 29.42C17.1332 29.2039 16.9343 29.0181 16.7694 28.7823C16.764 28.7752 16.7545 28.7746 16.7473 28.7781C16.7408 28.7841 16.7396 28.793 16.7438 28.7996Z" fill="#838486"/>
<path d="M19.7346 16.47C19.6012 17.7169 19.1403 18.8899 18.327 20.0558C18.3222 20.0624 18.3234 20.0713 18.3305 20.0767C18.3377 20.0808 18.3466 20.0791 18.3508 20.0725C19.1677 18.903 19.6292 17.7246 19.7644 16.4724C19.765 16.4647 19.759 16.4575 19.7507 16.4563C19.7423 16.4557 19.7352 16.4611 19.7346 16.47Z" fill="#BABBBD"/>
<path d="M35.975 12.2786C39.0047 13.161 41.5687 14.6996 43.3901 16.7289C44.3923 17.8448 45.1682 19.1078 45.6963 20.4815C46.2638 21.9564 46.5514 23.5754 46.5514 25.2951C46.5514 27.0927 46.1768 28.8511 45.4373 30.5183C44.721 32.1403 43.6885 33.6111 42.3707 34.8907C39.6525 37.5333 35.972 39.1023 32.0052 39.3066C31.9968 39.3071 31.9903 39.3143 31.9915 39.322C31.9915 39.3316 31.998 39.3369 32.007 39.3369C35.9798 39.1315 39.6686 37.5607 42.3916 34.9121C43.7117 33.6296 44.7454 32.1552 45.4659 30.5314C46.2054 28.8594 46.5812 27.0981 46.5812 25.2951C46.5812 23.5718 46.2924 21.9486 45.7243 20.4707C45.1938 19.0935 44.4167 17.8275 43.4122 16.7099C41.5871 14.6758 39.0178 13.1336 35.9834 12.2494C35.975 12.2476 35.9637 12.2601 35.9613 12.2684C35.9589 12.2756 35.9673 12.2762 35.975 12.2786Z" fill="white"/>
<path d="M32.001 39.3075C28.0341 39.1027 24.3542 37.5337 21.6354 34.8916C20.3195 33.6114 19.2875 32.1407 18.57 30.5187C17.8317 28.8514 17.4577 27.0931 17.4577 25.2954C17.4577 23.5775 17.7441 21.9597 18.3104 20.4866C18.8392 19.1129 19.6145 17.8511 20.6154 16.7358C22.4351 14.7071 24.9967 13.1679 28.0228 12.2837C28.0311 12.2813 28.0448 12.2837 28.043 12.2759C28.04 12.2688 28.0049 12.2581 28.0002 12.2592C24.9759 13.1453 22.4142 14.6863 20.5928 16.7162C19.5894 17.8338 18.813 19.0986 18.2836 20.4758C17.7156 21.9526 17.4274 23.5746 17.4274 25.2954C17.4274 27.0984 17.8025 28.8598 18.542 30.5318C19.2619 32.1556 20.2956 33.6299 21.6152 34.9137C24.3387 37.561 28.0258 39.1318 31.9992 39.3373C32.0081 39.3373 32.0147 39.3319 32.0147 39.3236C32.0159 39.3146 32.0087 39.3081 32.001 39.3075Z" fill="white"/>
<path d="M32.0051 33.2078C34.1315 32.7451 36.7937 31.9025 38.9511 30.976C39.2178 30.8623 39.4155 30.686 39.5757 30.4598V28.8181L32.0051 27.0145V33.2078Z" fill="#D3E2F5"/>
<path d="M32.0051 33.2078C34.1315 32.7451 36.7937 31.9025 38.9511 30.976C39.2178 30.8623 39.4155 30.686 39.5757 30.4598V28.8181L32.0051 27.0145V33.2078Z" fill="url(#paint66_linear_601_50021)"/>
<path d="M35.9666 21.6696H40.3182L40.8815 20.7473H35.8112V23.3226H32.0897V20.7473H31.9307V22.5973H24.3239L24.3798 22.6944C24.3798 22.6944 24.3798 22.7075 24.3798 22.7319H31.9307V24.0383H24.3941C24.3941 24.0818 24.3947 24.1336 24.3953 24.1777H31.9307V25.9122H24.4156C24.4162 25.9551 24.4167 26.0033 24.4167 26.0462H28.0978V28.528H24.4561C24.4561 28.531 24.4561 28.5334 24.4561 28.5345C24.4668 28.8936 24.5031 29.2092 24.5787 29.4813H28.102V30.3268H25.1224C25.2617 30.4311 25.429 30.5132 25.6279 30.5746C26.4264 30.8181 27.3523 31.07 28.2348 31.2956V28.6632L31.9307 28.659V32.0977C31.9444 32.0995 31.961 32.1025 31.9759 32.1049C32.0033 32.1007 32.0617 32.0953 32.0897 32.0918V29.3974H39.5197C39.5292 29.3551 39.5388 29.3033 39.5477 29.2592H32.0897V27.9623H39.6298C39.631 27.9212 39.6317 27.8522 39.6335 27.8069H32.0897V26.0462H39.6578C39.6578 26.0033 39.6585 25.9467 39.659 25.9033H35.9666V23.4524H39.6865C39.6912 22.9909 39.6954 22.6944 39.6954 22.6944L39.8246 22.4812H35.9666V21.6696Z" fill="#BCD0ED"/>
<path d="M35.9668 21.6691H40.3183L40.8816 20.7467H35.8114V23.322H32.0898V20.7467H31.9308V22.5968H24.324L24.3799 22.6938C24.3799 22.6938 24.3799 22.7069 24.3799 22.7314H31.9308V24.0378H24.3943C24.3943 24.0812 24.3948 24.133 24.3954 24.1771H31.9308V25.9116H24.4157C24.4163 25.9545 24.4169 26.0027 24.4169 26.0456H28.0979V28.5275H24.4562C24.4562 28.5304 24.4562 28.5328 24.4562 28.534C24.4669 28.8931 24.5032 29.2086 24.5788 29.4808H28.1021V30.3263H25.1225C25.2618 30.4305 25.4292 30.5127 25.628 30.574C26.4265 30.8175 27.3524 31.0694 28.2349 31.2951V28.6626L31.9308 28.6584V32.0972C31.9445 32.0989 31.9612 32.1019 31.9761 32.1043C32.0034 32.1001 32.0618 32.0948 32.0898 32.0912V29.3968H39.5198C39.5294 29.3545 39.5389 29.3027 39.5478 29.2587H32.0898V27.9618H39.63C39.6311 27.9207 39.6318 27.8516 39.6336 27.8064H32.0898V26.0456H39.6579C39.6579 26.0027 39.6586 25.9462 39.6592 25.9027H35.9668V23.4518H39.6866C39.6913 22.9904 39.6955 22.6938 39.6955 22.6938L39.8247 22.4807H35.9668V21.6691Z" fill="url(#paint67_linear_601_50021)"/>
<path d="M39.1791 29.6755L32.2594 31.8828L32.048 32.1412V29.3563H39.5721L39.1791 29.6755Z" fill="#606969"/>
<path d="M32.2594 31.8828L39.1791 29.6755L39.5721 29.3563L39.5602 29.4081C39.4065 30.0542 39.057 30.4329 38.4592 30.6151C36.4716 31.2219 33.6342 31.9025 32.0962 32.1335L32.048 32.1412L32.2594 31.8828Z" fill="#E3EBF7"/>
<path d="M24.9186 28.0724L28.1388 26.005V28.5714H24.4166L24.9186 28.0724Z" fill="#E3EBF7"/>
<path d="M24.9186 28.0724L24.4167 28.5714L24.4155 28.5303C24.4048 28.1576 24.3917 27.3221 24.375 26.0473V26.005H28.1388L24.9186 28.0724Z" fill="#606969"/>
<path d="M31.7246 28.9104L31.9711 28.6174V32.1467L31.9235 32.1395C31.0762 32.0145 29.7388 31.7215 28.2496 31.341L28.2186 31.3339L31.7246 28.9104Z" fill="#E3EBF7"/>
<path d="M31.7246 28.9104L28.2186 31.3339V28.6174H31.9711L31.7246 28.9104Z" fill="#606969"/>
<path d="M25.1902 30.1309L27.8923 29.6647L28.1436 29.4408V30.3691H25.1223L25.1902 30.1309Z" fill="#E3EBF7"/>
<path d="M27.8924 29.6647L25.1902 30.1309L25.1224 30.3691H25.1075L25.0967 30.3614C24.8282 30.1625 24.6448 29.8779 24.5388 29.4932L24.5239 29.4408H28.1437L27.8924 29.6647Z" fill="#606969"/>
<path d="M31.8354 24.2928L24.78 25.6266L24.3739 25.9553L24.3733 25.913L24.353 24.1784V24.1362H31.9712L31.8354 24.2928Z" fill="#606969"/>
<path d="M24.7799 25.6266L31.8353 24.2928L31.9711 24.1362V25.9553H24.3738L24.7799 25.6266Z" fill="#E3EBF7"/>
<path d="M32.3588 23.0688L35.5403 21.0609L35.8529 20.7061V23.3647H32.048L32.3588 23.0688Z" fill="#E3EBF7"/>
<path d="M35.5403 21.0609L32.3588 23.0688L32.048 23.3647V20.7061H35.8529L35.5403 21.0609Z" fill="#606969"/>
<path d="M31.7747 22.8747L31.9712 22.6907V24.081H24.3524L31.7747 22.8747Z" fill="#E3EBF7"/>
<path d="M31.7747 22.8747L24.3524 24.081L24.3512 24.0388L24.3393 22.733L24.3387 22.6907H31.9712L31.7747 22.8747Z" fill="#606969"/>
<path d="M24.4196 22.4376L31.7954 20.9002L31.9711 20.7061V22.6395H24.3005L24.4196 22.4376Z" fill="#E3EBF7"/>
<path d="M31.7956 20.9002L24.4197 22.4376L24.3006 22.6395L24.2887 22.6198L23.158 20.7686L23.1199 20.7061H31.9712L31.7956 20.9002Z" fill="#606969"/>
<path d="M39.2565 23.9073L36.2947 25.6377L35.9255 25.9455V23.4113H39.7287L39.2565 23.9073Z" fill="#606969"/>
<path d="M36.2947 25.6377L39.2565 23.9073L39.7287 23.4113V23.453L39.7013 25.9045L39.7001 25.9455H35.9255L36.2947 25.6377Z" fill="#E3EBF7"/>
<path d="M39.9264 21.8607L36.1536 22.3537L35.9255 22.5234V21.629H40.3414L39.9264 21.8607Z" fill="#606969"/>
<path d="M36.1536 22.3537L39.9264 21.8607L40.3414 21.629L40.3021 21.6921L39.8079 22.5031L39.796 22.5234H35.9255L36.1536 22.3537Z" fill="#E3EBF7"/>
<path d="M39.2779 28.2058L32.2647 29.1037L32.048 29.3008V27.9224H39.6733L39.2779 28.2058Z" fill="#606969"/>
<path d="M32.2647 29.1037L39.2779 28.2058L39.6733 27.9224V27.964L39.659 28.5369C39.6513 28.8173 39.6286 29.0561 39.5875 29.2669L39.5822 29.3008H32.048L32.2647 29.1037Z" fill="#E3EBF7"/>
<path d="M39.4619 26.2313L32.304 27.6121L32.048 27.8485V26.005H39.6995L39.4619 26.2313Z" fill="#606969"/>
<path d="M32.304 27.6121L39.4619 26.2313L39.6995 26.005L39.6983 26.0473C39.6894 26.7773 39.6816 27.3692 39.6751 27.808L39.6739 27.8485H32.048L32.304 27.6121Z" fill="#E3EBF7"/>
<path d="M35.6504 24.419L32.3147 24.9555L32.048 25.1907V24.2493H35.8529L35.6504 24.419Z" fill="#606969"/>
<path d="M32.3147 24.9555L35.6504 24.419L35.8529 24.2493V25.1907H32.048L32.3147 24.9555Z" fill="#E3EBF7"/>
<path d="M28.3717 27.6171L31.8021 27.0294L31.9712 26.8341V27.7743H28.2157L28.3717 27.6171Z" fill="#E3EBF7"/>
<path d="M31.8021 27.0294L28.3717 27.6171L28.2157 27.7743V26.8341H31.9712L31.8021 27.0294Z" fill="#606969"/>
<path d="M32.0895 32.0905C33.5227 31.875 36.3612 31.2093 38.4465 30.5733C39.0652 30.384 39.3784 29.9939 39.5195 29.3961H32.0895V32.0905Z" fill="#D4B066"/>
<path d="M32.0892 32.0886C33.5225 31.8731 36.361 31.2074 38.4463 30.5714C39.0649 30.3821 39.3781 29.9921 39.5193 29.3942H32.0892V32.0886Z" fill="url(#paint68_linear_601_50021)"/>
<path d="M28.0979 26.0469H24.4169C24.43 27.0997 24.4449 28.0982 24.4562 28.5287H28.0979V26.0469Z" fill="#D91121"/>
<path d="M28.0981 26.0473H24.417C24.4301 27.1001 24.445 28.0987 24.4563 28.5292H28.0981V26.0473Z" fill="url(#paint69_linear_601_50021)"/>
<path d="M28.2596 28.6594V31.3008C29.7024 31.6688 31.0511 31.9683 31.9306 32.0981V28.6594H28.2596Z" fill="#D91121"/>
<path d="M28.2596 28.6594V31.3008C29.7024 31.6688 31.0511 31.9683 31.9306 32.0981V28.6594H28.2596Z" fill="url(#paint70_linear_601_50021)"/>
<path d="M28.102 29.4804H24.5787C24.6788 29.8418 24.8485 30.1253 25.1224 30.3259H28.102V29.4804Z" fill="#003971"/>
<path d="M28.102 29.479H24.5787C24.6788 29.8405 24.8485 30.1239 25.1224 30.3246H28.102V29.479Z" fill="url(#paint71_linear_601_50021)"/>
<path d="M31.9308 24.1763H24.3954C24.4007 24.7044 24.4079 25.307 24.4157 25.9108H31.9308V24.1763Z" fill="#D4B066"/>
<path d="M31.931 24.1745H24.3956C24.401 24.7026 24.4082 25.3052 24.4159 25.909H31.931V24.1745Z" fill="url(#paint72_linear_601_50021)"/>
<path d="M32.0896 23.3229H35.8112V20.7478H32.0896V23.3229Z" fill="#D91121"/>
<path d="M35.8108 23.3202V20.7449H32.0892V23.3202H35.8108Z" fill="url(#paint73_linear_601_50021)"/>
<path d="M31.9305 20.7475H23.1935L24.3236 22.5976H31.9305V20.7475Z" fill="#D4B066"/>
<path d="M31.9304 20.7472H23.1934L24.3235 22.5973H31.9304V20.7472Z" fill="url(#paint74_linear_601_50021)"/>
<path d="M35.9664 25.9048H39.6588C39.6701 24.998 39.6803 24.0804 39.6862 23.454H35.9664V25.9048Z" fill="#D91121"/>
<path d="M35.9662 25.9058H39.6586C39.6699 24.999 39.68 24.0814 39.686 23.455H35.9662V25.9058Z" fill="url(#paint75_linear_601_50021)"/>
<path d="M35.9664 21.6706V22.4822H39.7726L40.2662 21.6706H35.9664Z" fill="#003971"/>
<path d="M35.9662 21.6712V22.4828H39.7723L40.266 21.6712H35.9662Z" fill="url(#paint76_linear_601_50021)"/>
<path d="M32.0896 29.2599H39.5476C39.5887 29.042 39.6095 28.8014 39.6179 28.5352C39.6214 28.3929 39.6262 28.2137 39.6298 27.963H32.0896V29.2599Z" fill="#141314"/>
<path d="M32.0895 27.8062H39.6333C39.641 27.3191 39.6499 26.6927 39.6576 26.0455H32.0895V27.8062Z" fill="#D4B066"/>
<path d="M32.0892 27.8047H39.633C39.6408 27.3177 39.6496 26.6913 39.6574 26.044H32.0892V27.8047Z" fill="url(#paint77_linear_601_50021)"/>
<path d="M28.2579 27.7327H31.9307V26.8748H28.2579V27.7327Z" fill="#003971"/>
<path d="M31.931 27.7295H28.2583V26.8715H31.931V27.7295Z" fill="url(#paint78_linear_601_50021)"/>
<path d="M32.0896 25.1494H35.8112V24.29H32.0896V25.1494Z" fill="#003971"/>
<path d="M35.8108 25.15H32.0892V24.2908H35.8108V25.15Z" fill="url(#paint79_linear_601_50021)"/>
<path d="M31.9306 22.7324H24.3798C24.3821 22.8694 24.3869 23.3743 24.3941 24.0388H31.9306V22.7324Z" fill="#141314"/>
<path d="M39.4668 29.4404C39.3132 30.0322 38.9929 30.3651 38.4343 30.536C36.4705 31.1344 33.6773 31.8073 32.1327 32.0443V29.4404H39.4668Z" fill="#D4B066"/>
<path d="M39.4671 29.4408C39.3135 30.0327 38.9931 30.3655 38.4346 30.5364C36.4708 31.1348 33.6775 31.8077 32.1329 32.0447V29.4408H39.4671Z" fill="url(#paint80_linear_601_50021)"/>
<path d="M40.2663 21.6702H35.9666V22.4818H36.0267V21.7298H40.2663V21.6702Z" fill="#233B4D"/>
<path d="M35.8112 24.29H32.0896V25.1492H32.1491V24.3489H35.8112V24.29Z" fill="#233B4D"/>
<path d="M35.8112 20.7478H32.0896V23.3231H32.1491V20.8073H35.8112V20.7478Z" fill="#96423A"/>
<path d="M31.9306 20.7478H23.1936L24.3238 22.5979H24.3916L23.3044 20.8073H31.9306V20.7478Z" fill="#716543"/>
<path d="M31.9307 24.1784H24.3917L24.4114 25.9129H24.4745L24.4548 24.2374H31.9307V24.1784Z" fill="#716543"/>
<path d="M28.0977 26.0467H24.4125L24.4518 28.5285H24.5203L24.4798 26.1062H28.0977V26.0467Z" fill="#95473F"/>
<path d="M39.6863 23.4531H35.9666V25.9027H36.0267V23.5126H39.6863V23.4531Z" fill="#96423A"/>
<path d="M31.9307 26.8748H28.2579V27.7328H28.3169V26.9343H31.9307V26.8748Z" fill="#264865"/>
<path d="M31.9337 28.6597H28.2598V31.3011L28.3193 31.3183V28.7186H31.9337V28.6597Z" fill="#95473F"/>
<path d="M39.5142 29.3981H32.0896V32.0972H32.1491V29.4576H39.5142V29.3981Z" fill="#716543"/>
<path d="M39.6577 26.0467H32.0896V27.8074H32.1491V26.1062H39.6577V26.0467Z" fill="#716543"/>
<path d="M24.5786 29.482C24.5828 29.4963 24.5875 29.51 24.5917 29.5249L24.5965 29.5415C24.6906 29.847 24.9025 30.1358 25.1354 30.3275H25.2294C24.9984 30.1554 24.7614 29.8637 24.6584 29.5415H28.1019V29.482H24.5786Z" fill="#264865"/>
<path d="M40.9314 20.6962C40.6932 21.1553 40.2847 21.8537 39.775 22.66C39.7584 24.4219 39.7155 27.4051 39.6923 28.5251C39.6673 29.7279 39.3148 30.3746 38.5502 30.6223C37.8089 30.8634 33.4686 32.0276 32.011 32.1562L32.0473 32.1091C33.6479 31.9275 37.7922 30.8063 38.5323 30.5663C39.2689 30.327 39.6071 29.6964 39.6333 28.5251C39.6565 27.4021 39.6994 24.4118 39.7143 22.651L39.7155 22.6433L39.7191 22.6355L40.8576 20.7682L40.9314 20.6962Z" fill="#E3EBF7"/>
<path d="M40.9314 20.6962H23.0972L23.1263 20.742L24.3238 22.6903C24.3399 24.4159 24.3923 27.3604 24.4179 28.5549C24.4429 29.7285 24.7823 30.3365 25.5576 30.5878C26.3757 30.8539 30.4539 31.9793 32.011 32.1562L32.0146 32.1568L32.0182 32.1562C33.6205 31.9752 37.7762 30.8503 38.5175 30.6092C39.2815 30.3615 39.634 29.7142 39.659 28.5138C39.6834 27.3914 39.7263 24.4088 39.7411 22.6474L40.9029 20.7414L40.9314 20.6962ZM39.6816 22.6302V22.6385C39.6673 24.3987 39.6238 27.389 39.6006 28.512C39.575 29.6839 39.2356 30.3139 38.499 30.5526C37.7589 30.7932 33.6152 31.915 32.0146 32.096C30.4593 31.9198 26.3936 30.7974 25.5754 30.5318C24.8198 30.2859 24.5006 29.713 24.4768 28.5537C24.4518 27.3574 24.3982 24.4058 24.3833 22.6814V22.6725L24.3786 22.6653L23.2043 20.7557H40.8237L39.6864 22.623L39.6816 22.6302Z" fill="#606E7B"/>
<path d="M45.1341 37.3724C45.249 37.4873 45.3062 37.6266 45.3062 37.7904C45.3062 37.9547 45.249 38.0952 45.1341 38.2113C45.0192 38.3274 44.8799 38.3852 44.7161 38.3852C44.5518 38.3852 44.4124 38.3274 44.2981 38.2113C44.1838 38.0952 44.1266 37.9547 44.1266 37.7904C44.1266 37.6266 44.1844 37.4873 44.2987 37.3724C44.4142 37.2562 44.5536 37.1979 44.7161 37.1979C44.8793 37.1979 45.0186 37.2562 45.1341 37.3724ZM45.202 37.3057C45.0686 37.1723 44.9061 37.1056 44.7161 37.1056C44.5268 37.1056 44.3654 37.1723 44.2326 37.3057C44.0986 37.4396 44.0308 37.601 44.0308 37.7904C44.0308 37.9809 44.0975 38.1435 44.2308 38.278C44.3642 38.4126 44.5262 38.4793 44.7161 38.4793C44.9061 38.4793 45.0686 38.4126 45.202 38.278C45.3366 38.1429 45.4033 37.9803 45.4033 37.7904C45.4033 37.6004 45.3366 37.439 45.202 37.3057ZM44.8179 37.7582C44.79 37.7695 44.7477 37.7749 44.6917 37.7749H44.572V37.5022H44.6852C44.759 37.5022 44.812 37.5111 44.8453 37.5301C44.8787 37.5486 44.8954 37.5855 44.8954 37.6403C44.8954 37.6981 44.8697 37.738 44.8179 37.7582ZM44.4392 38.1655H44.572V37.8678H44.6762C44.7471 37.8678 44.7965 37.8761 44.8245 37.8922C44.8715 37.9196 44.8954 37.9779 44.8954 38.0655V38.125L44.8983 38.1494C44.8989 38.153 44.8995 38.1548 44.9007 38.1577C44.9007 38.1601 44.9013 38.1631 44.9025 38.1655H45.0264L45.0216 38.156C45.0186 38.1494 45.0168 38.1369 45.015 38.1167C45.0138 38.0964 45.0133 38.078 45.0133 38.0607V38.0053C45.0133 37.9672 44.9996 37.9285 44.9722 37.8886C44.9454 37.8481 44.9013 37.8237 44.8418 37.8148C44.8888 37.807 44.9251 37.7951 44.9519 37.7778C45.0007 37.7463 45.0258 37.6963 45.0258 37.629C45.0258 37.5343 44.9865 37.4712 44.9085 37.4384C44.865 37.4206 44.7965 37.4111 44.7024 37.4111H44.4392V38.1655Z" fill="black"/>
<defs>
<linearGradient id="paint0_linear_601_50021" x1="43.9272" y1="20.0768" x2="43.8865" y2="20.4454" gradientUnits="userSpaceOnUse">
<stop stop-color="#A1C1E4"/>
<stop offset="1" stop-color="#CCDCF3"/>
</linearGradient>
<linearGradient id="paint1_linear_601_50021" x1="37.8262" y1="36.0637" x2="30.3269" y2="34.2546" gradientUnits="userSpaceOnUse">
<stop stop-color="#D3E2F5"/>
<stop offset="1" stop-color="#9EBDE2"/>
</linearGradient>
<linearGradient id="paint2_linear_601_50021" x1="43.0631" y1="18.3343" x2="43.3845" y2="18.5159" gradientUnits="userSpaceOnUse">
<stop stop-color="#415050"/>
<stop offset="1" stop-color="#576162"/>
</linearGradient>
<linearGradient id="paint3_linear_601_50021" x1="35.0259" y1="19.0271" x2="33.3193" y2="33.4939" gradientUnits="userSpaceOnUse">
<stop stop-color="#F6F8FD"/>
<stop offset="1" stop-color="#4B616C"/>
</linearGradient>
<linearGradient id="paint4_linear_601_50021" x1="33.0862" y1="17.236" x2="33.3606" y2="18.134" gradientUnits="userSpaceOnUse">
<stop stop-color="#BECDE1"/>
<stop offset="1" stop-color="#D7E6F7"/>
</linearGradient>
<linearGradient id="paint5_linear_601_50021" x1="31.0945" y1="34.3695" x2="22.7492" y2="34.3695" gradientUnits="userSpaceOnUse">
<stop stop-color="#F4F6FD"/>
<stop offset="1" stop-color="#C9DCF2"/>
</linearGradient>
<linearGradient id="paint6_linear_601_50021" x1="24.3352" y1="24.3738" x2="24.0129" y2="24.5559" gradientUnits="userSpaceOnUse">
<stop stop-color="#415050"/>
<stop offset="1" stop-color="#576162"/>
</linearGradient>
<linearGradient id="paint7_linear_601_50021" x1="52.6892" y1="19.0056" x2="45.9896" y2="41.2048" gradientUnits="userSpaceOnUse">
<stop stop-color="#3C535A"/>
<stop offset="1" stop-color="#87A3C1"/>
</linearGradient>
<linearGradient id="paint8_linear_601_50021" x1="34.5898" y1="28.1941" x2="31.131" y2="13.2666" gradientUnits="userSpaceOnUse">
<stop stop-color="#C6DAF1"/>
<stop offset="1" stop-color="#84A3C2"/>
</linearGradient>
<linearGradient id="paint9_linear_601_50021" x1="48.8607" y1="64.4191" x2="30.5675" y2="40.3688" gradientUnits="userSpaceOnUse">
<stop stop-color="white"/>
<stop offset="1" stop-color="#C6DAF1"/>
</linearGradient>
<linearGradient id="paint10_linear_601_50021" x1="32.4541" y1="9.3922" x2="43.3914" y2="34.4873" gradientUnits="userSpaceOnUse">
<stop stop-color="#7093AE"/>
<stop offset="1" stop-color="#F6F8FD"/>
</linearGradient>
<linearGradient id="paint11_linear_601_50021" x1="33.2871" y1="12.7495" x2="35.1955" y2="37.187" gradientUnits="userSpaceOnUse">
<stop stop-color="#3C535A"/>
<stop offset="1" stop-color="#8AAACA"/>
</linearGradient>
<linearGradient id="paint12_linear_601_50021" x1="40.7136" y1="11.1815" x2="41.1816" y2="11.6792" gradientUnits="userSpaceOnUse">
<stop stop-color="#232E30"/>
<stop offset="1" stop-color="#7F919D"/>
</linearGradient>
<linearGradient id="paint13_linear_601_50021" x1="38.7833" y1="9.22071" x2="43.3984" y2="11.8748" gradientUnits="userSpaceOnUse">
<stop stop-color="#7093AE"/>
<stop offset="1" stop-color="#F6F8FD"/>
</linearGradient>
<linearGradient id="paint14_linear_601_50021" x1="42.5695" y1="10.8536" x2="45.1264" y2="13.418" gradientUnits="userSpaceOnUse">
<stop stop-color="#232E30"/>
<stop offset="1" stop-color="#7F919D"/>
</linearGradient>
<linearGradient id="paint15_linear_601_50021" x1="43.9121" y1="20.9476" x2="41.4954" y2="19.6798" gradientUnits="userSpaceOnUse">
<stop stop-color="#9CB3CF"/>
<stop offset="1" stop-color="#F1F5FC"/>
</linearGradient>
<linearGradient id="paint16_linear_601_50021" x1="40.1559" y1="18.5232" x2="39.7697" y2="17.4241" gradientUnits="userSpaceOnUse">
<stop stop-color="#232E30"/>
<stop offset="1" stop-color="#7F919D"/>
</linearGradient>
<linearGradient id="paint17_linear_601_50021" x1="47.1667" y1="16.4345" x2="47.3449" y2="17.3851" gradientUnits="userSpaceOnUse">
<stop stop-color="#9CB3CF"/>
<stop offset="1" stop-color="#F1F5FC"/>
</linearGradient>
<linearGradient id="paint18_linear_601_50021" x1="42.0864" y1="19.3831" x2="42.3836" y2="18.9373" gradientUnits="userSpaceOnUse">
<stop stop-color="#9CB3CF"/>
<stop offset="1" stop-color="#F1F5FC"/>
</linearGradient>
<linearGradient id="paint19_linear_601_50021" x1="47.7306" y1="19.8744" x2="47.8643" y2="20.766" gradientUnits="userSpaceOnUse">
<stop stop-color="#232E30"/>
<stop offset="1" stop-color="#7F919D"/>
</linearGradient>
<linearGradient id="paint20_linear_601_50021" x1="44.4444" y1="25.8257" x2="44.8342" y2="23.7949" gradientUnits="userSpaceOnUse">
<stop stop-color="#9CB3CF"/>
<stop offset="1" stop-color="#F1F5FC"/>
</linearGradient>
<linearGradient id="paint21_linear_601_50021" x1="47.0415" y1="27.4836" x2="46.5955" y2="27.4687" gradientUnits="userSpaceOnUse">
<stop stop-color="#232E30"/>
<stop offset="1" stop-color="#7F919D"/>
</linearGradient>
<linearGradient id="paint22_linear_601_50021" x1="43.864" y1="29.3535" x2="43.6189" y2="25.3046" gradientUnits="userSpaceOnUse">
<stop stop-color="#9CB3CF"/>
<stop offset="1" stop-color="#F1F5FC"/>
</linearGradient>
<linearGradient id="paint23_linear_601_50021" x1="47.9772" y1="25.0402" x2="48.2283" y2="29.1782" gradientUnits="userSpaceOnUse">
<stop stop-color="#232E30"/>
<stop offset="1" stop-color="#7F919D"/>
</linearGradient>
<linearGradient id="paint24_linear_601_50021" x1="41.758" y1="29.1605" x2="43.5411" y2="27.4841" gradientUnits="userSpaceOnUse">
<stop stop-color="#9CB3CF"/>
<stop offset="1" stop-color="#F1F5FC"/>
</linearGradient>
<linearGradient id="paint25_linear_601_50021" x1="47.1848" y1="33.5258" x2="45.5209" y2="33.7189" gradientUnits="userSpaceOnUse">
<stop stop-color="#232E30"/>
<stop offset="1" stop-color="#7F919D"/>
</linearGradient>
<linearGradient id="paint26_linear_601_50021" x1="43.2692" y1="35.1621" x2="42.779" y2="34.9988" gradientUnits="userSpaceOnUse">
<stop stop-color="#9CB3CF"/>
<stop offset="1" stop-color="#F1F5FC"/>
</linearGradient>
<linearGradient id="paint27_linear_601_50021" x1="43.1156" y1="35.0763" x2="42.7593" y2="34.9724" gradientUnits="userSpaceOnUse">
<stop stop-color="#232E30"/>
<stop offset="1" stop-color="#7F919D"/>
</linearGradient>
<linearGradient id="paint28_linear_601_50021" x1="39.4999" y1="38.7851" x2="39.054" y2="38.5325" gradientUnits="userSpaceOnUse">
<stop stop-color="#9CB3CF"/>
<stop offset="1" stop-color="#F1F5FC"/>
</linearGradient>
<linearGradient id="paint29_linear_601_50021" x1="39.534" y1="38.5578" x2="38.8865" y2="38.3274" gradientUnits="userSpaceOnUse">
<stop stop-color="#232E30"/>
<stop offset="1" stop-color="#7F919D"/>
</linearGradient>
<linearGradient id="paint30_linear_601_50021" x1="42.0798" y1="32.3813" x2="43.4764" y2="32.5595" gradientUnits="userSpaceOnUse">
<stop stop-color="#9CB3CF"/>
<stop offset="1" stop-color="#F1F5FC"/>
</linearGradient>
<linearGradient id="paint31_linear_601_50021" x1="34.1393" y1="40.7693" x2="33.8458" y2="40.5077" gradientUnits="userSpaceOnUse">
<stop stop-color="#9CB3CF"/>
<stop offset="1" stop-color="#F1F5FC"/>
</linearGradient>
<linearGradient id="paint32_linear_601_50021" x1="33.6208" y1="40.3382" x2="33.2652" y2="39.9686" gradientUnits="userSpaceOnUse">
<stop stop-color="#232E30"/>
<stop offset="1" stop-color="#7F919D"/>
</linearGradient>
<linearGradient id="paint33_linear_601_50021" x1="36.494" y1="36.423" x2="38.7742" y2="36.2817" gradientUnits="userSpaceOnUse">
<stop stop-color="#9CB3CF"/>
<stop offset="1" stop-color="#F1F5FC"/>
</linearGradient>
<linearGradient id="paint34_linear_601_50021" x1="35.3091" y1="38.7199" x2="35.216" y2="38.0085" gradientUnits="userSpaceOnUse">
<stop stop-color="#232E30"/>
<stop offset="1" stop-color="#7F919D"/>
</linearGradient>
<linearGradient id="paint35_linear_601_50021" x1="32.4726" y1="37.0375" x2="34.3696" y2="37.3509" gradientUnits="userSpaceOnUse">
<stop stop-color="#9CB3CF"/>
<stop offset="1" stop-color="#F1F5FC"/>
</linearGradient>
<linearGradient id="paint36_linear_601_50021" x1="30.7276" y1="38.8841" x2="30.7741" y2="38.6368" gradientUnits="userSpaceOnUse">
<stop stop-color="#232E30"/>
<stop offset="1" stop-color="#7F919D"/>
</linearGradient>
<linearGradient id="paint37_linear_601_50021" x1="44.4793" y1="37.7086" x2="41.9104" y2="38.52" gradientUnits="userSpaceOnUse">
<stop stop-color="#232E30"/>
<stop offset="1" stop-color="#7F919D"/>
</linearGradient>
<linearGradient id="paint38_linear_601_50021" x1="42.7006" y1="19.5337" x2="42.4629" y2="18.4193" gradientUnits="userSpaceOnUse">
<stop stop-color="#232E30"/>
<stop offset="1" stop-color="#7F919D"/>
</linearGradient>
<radialGradient id="paint39_radial_601_50021" cx="0" cy="0" r="1" gradientUnits="userSpaceOnUse" gradientTransform="translate(25.201 11.8352) scale(1.99744 1.99744)">
<stop stop-color="#7F9FBD"/>
<stop offset="1" stop-color="#F1F5FC"/>
</radialGradient>
<linearGradient id="paint40_linear_601_50021" x1="27.5904" y1="15.7943" x2="26.6397" y2="16.2102" gradientUnits="userSpaceOnUse">
<stop stop-color="#232E30"/>
<stop offset="1" stop-color="#7F919D"/>
</linearGradient>
<linearGradient id="paint41_linear_601_50021" x1="26.3473" y1="15.9059" x2="23.7431" y2="18.3586" gradientUnits="userSpaceOnUse">
<stop stop-color="#232E30"/>
<stop offset="1" stop-color="#7F919D"/>
</linearGradient>
<linearGradient id="paint42_linear_601_50021" x1="20.8037" y1="17.5522" x2="20.5136" y2="17.3366" gradientUnits="userSpaceOnUse">
<stop stop-color="#587089"/>
<stop offset="1" stop-color="#E0ECF9"/>
</linearGradient>
<radialGradient id="paint43_radial_601_50021" cx="0" cy="0" r="1" gradientUnits="userSpaceOnUse" gradientTransform="translate(20.209 15.6162) scale(2.08423 2.08427)">
<stop stop-color="#7F9FBD"/>
<stop offset="1" stop-color="#F1F5FC"/>
</radialGradient>
<linearGradient id="paint44_linear_601_50021" x1="18.3275" y1="18.8055" x2="18.1049" y2="18.4939" gradientUnits="userSpaceOnUse">
<stop stop-color="#232E30"/>
<stop offset="1" stop-color="#7F919D"/>
</linearGradient>
<linearGradient id="paint45_linear_601_50021" x1="19.781" y1="14.8487" x2="20.1802" y2="14.9984" gradientUnits="userSpaceOnUse">
<stop stop-color="#9CB3CF"/>
<stop offset="1" stop-color="#F1F5FC"/>
</linearGradient>
<linearGradient id="paint46_linear_601_50021" x1="20.0076" y1="14.9398" x2="20.384" y2="15.0784" gradientUnits="userSpaceOnUse">
<stop stop-color="#232E30"/>
<stop offset="1" stop-color="#7F919D"/>
</linearGradient>
<radialGradient id="paint47_radial_601_50021" cx="0" cy="0" r="1" gradientUnits="userSpaceOnUse" gradientTransform="translate(17.4179 19.4408) scale(2.30299 2.30303)">
<stop stop-color="#7F9FBD"/>
<stop offset="1" stop-color="#F1F5FC"/>
</radialGradient>
<linearGradient id="paint48_linear_601_50021" x1="20.1068" y1="23.9961" x2="19.2153" y2="24.2933" gradientUnits="userSpaceOnUse">
<stop stop-color="#232E30"/>
<stop offset="1" stop-color="#7F919D"/>
</linearGradient>
<linearGradient id="paint49_linear_601_50021" x1="16.6882" y1="20.7698" x2="17.1236" y2="20.7401" gradientUnits="userSpaceOnUse">
<stop stop-color="#232E30"/>
<stop offset="1" stop-color="#7F919D"/>
</linearGradient>
<radialGradient id="paint50_radial_601_50021" cx="0" cy="0" r="1" gradientUnits="userSpaceOnUse" gradientTransform="translate(16.9896 27.1116) scale(2.05244 2.05248)">
<stop stop-color="#7F9FBD"/>
<stop offset="1" stop-color="#F1F5FC"/>
</radialGradient>
<linearGradient id="paint51_linear_601_50021" x1="18.4246" y1="30.5622" x2="17.9492" y2="30.582" gradientUnits="userSpaceOnUse">
<stop stop-color="#232E30"/>
<stop offset="1" stop-color="#7F919D"/>
</linearGradient>
<linearGradient id="paint52_linear_601_50021" x1="20.51" y1="33.4532" x2="20.2722" y2="33.6612" gradientUnits="userSpaceOnUse">
<stop stop-color="#9CB3CF"/>
<stop offset="1" stop-color="#F1F5FC"/>
</linearGradient>
<linearGradient id="paint53_linear_601_50021" x1="20.5105" y1="35.0472" x2="20.0747" y2="35.1265" gradientUnits="userSpaceOnUse">
<stop stop-color="#232E30"/>
<stop offset="1" stop-color="#7F919D"/>
</linearGradient>
<radialGradient id="paint54_radial_601_50021" cx="0" cy="0" r="1" gradientUnits="userSpaceOnUse" gradientTransform="translate(18.4217 32.2114) scale(2.16793 2.16802)">
<stop stop-color="#7F9FBD"/>
<stop offset="1" stop-color="#F1F5FC"/>
</radialGradient>
<linearGradient id="paint55_linear_601_50021" x1="25.3457" y1="38.357" x2="24.9297" y2="38.6542" gradientUnits="userSpaceOnUse">
<stop stop-color="#232E30"/>
<stop offset="1" stop-color="#7F919D"/>
</linearGradient>
<radialGradient id="paint56_radial_601_50021" cx="0" cy="0" r="1" gradientUnits="userSpaceOnUse" gradientTransform="translate(21.2135 36.5175) scale(2.89365 2.89363)">
<stop stop-color="#7F9FBD"/>
<stop offset="1" stop-color="#F1F5FC"/>
</radialGradient>
<linearGradient id="paint57_linear_601_50021" x1="24.1108" y1="32.9453" x2="24.5268" y2="34.6981" gradientUnits="userSpaceOnUse">
<stop stop-color="#9CB3CF"/>
<stop offset="1" stop-color="#F1F5FC"/>
</linearGradient>
<linearGradient id="paint58_linear_601_50021" x1="17.6529" y1="33.8927" x2="17.8709" y2="33.3182" gradientUnits="userSpaceOnUse">
<stop stop-color="#232E30"/>
<stop offset="1" stop-color="#7F919D"/>
</linearGradient>
<linearGradient id="paint59_linear_601_50021" x1="29.0576" y1="34.2586" x2="31.3714" y2="35.6344" gradientUnits="userSpaceOnUse">
<stop stop-color="#232E30"/>
<stop offset="1" stop-color="#7F919D"/>
</linearGradient>
<radialGradient id="paint60_radial_601_50021" cx="0" cy="0" r="1" gradientUnits="userSpaceOnUse" gradientTransform="translate(27.1284 38.2515) scale(1.20932 1.20931)">
<stop stop-color="#7F9FBD"/>
<stop offset="1" stop-color="#F1F5FC"/>
</radialGradient>
<linearGradient id="paint61_linear_601_50021" x1="28.7036" y1="37.7172" x2="28.6442" y2="38.7423" gradientUnits="userSpaceOnUse">
<stop stop-color="#9CB3CF"/>
<stop offset="1" stop-color="#F1F5FC"/>
</linearGradient>
<linearGradient id="paint62_linear_601_50021" x1="21.8121" y1="38.0493" x2="21.8566" y2="37.4109" gradientUnits="userSpaceOnUse">
<stop stop-color="#232E30"/>
<stop offset="1" stop-color="#7F919D"/>
</linearGradient>
<linearGradient id="paint63_linear_601_50021" x1="33.2055" y1="39.1351" x2="33.2501" y2="39.6696" gradientUnits="userSpaceOnUse">
<stop stop-color="#9CB3CF"/>
<stop offset="1" stop-color="#F1F5FC"/>
</linearGradient>
<linearGradient id="paint64_linear_601_50021" x1="25.8579" y1="40.0551" x2="25.7837" y2="39.3127" gradientUnits="userSpaceOnUse">
<stop stop-color="#232E30"/>
<stop offset="1" stop-color="#7F919D"/>
</linearGradient>
<linearGradient id="paint65_linear_601_50021" x1="15.5794" y1="27.5927" x2="15.9162" y2="27.3352" gradientUnits="userSpaceOnUse">
<stop stop-color="#232E30"/>
<stop offset="1" stop-color="#7F919D"/>
</linearGradient>
<linearGradient id="paint66_linear_601_50021" x1="37.821" y1="36.0891" x2="30.3223" y2="34.2802" gradientUnits="userSpaceOnUse">
<stop stop-color="#D3E2F5"/>
<stop offset="1" stop-color="#748A9B"/>
</linearGradient>
<linearGradient id="paint67_linear_601_50021" x1="44.9592" y1="31.9059" x2="30.3862" y2="38.8647" gradientUnits="userSpaceOnUse">
<stop stop-color="#BCD0ED"/>
<stop offset="1" stop-color="#C7D9EF"/>
</linearGradient>
<linearGradient id="paint68_linear_601_50021" x1="35.8534" y1="28.2033" x2="44.2609" y2="28.2033" gradientUnits="userSpaceOnUse">
<stop stop-color="#D4B066"/>
<stop offset="1" stop-color="#E7CC8F"/>
</linearGradient>
<linearGradient id="paint69_linear_601_50021" x1="24.2277" y1="24.8564" x2="31.6971" y2="24.8564" gradientUnits="userSpaceOnUse">
<stop stop-color="#D91121"/>
<stop offset="1" stop-color="#DC7866"/>
</linearGradient>
<linearGradient id="paint70_linear_601_50021" x1="28.2597" y1="27.4682" x2="31.8095" y2="27.4682" gradientUnits="userSpaceOnUse">
<stop stop-color="#D91121"/>
<stop offset="1" stop-color="#DC7866"/>
</linearGradient>
<linearGradient id="paint71_linear_601_50021" x1="24.1891" y1="28.2885" x2="31.6502" y2="28.2885" gradientUnits="userSpaceOnUse">
<stop stop-color="#003971"/>
<stop offset="1" stop-color="#5687C0"/>
</linearGradient>
<linearGradient id="paint72_linear_601_50021" x1="24.1664" y1="22.9834" x2="31.7019" y2="22.9834" gradientUnits="userSpaceOnUse">
<stop stop-color="#D4B066"/>
<stop offset="1" stop-color="#E7CC8F"/>
</linearGradient>
<linearGradient id="paint73_linear_601_50021" x1="34.2372" y1="19.554" x2="49.6685" y2="19.554" gradientUnits="userSpaceOnUse">
<stop stop-color="#D91121"/>
<stop offset="1" stop-color="#DC7866"/>
</linearGradient>
<linearGradient id="paint74_linear_601_50021" x1="22.9653" y1="19.5563" x2="31.7023" y2="19.5563" gradientUnits="userSpaceOnUse">
<stop stop-color="#D4B066"/>
<stop offset="1" stop-color="#E7CC8F"/>
</linearGradient>
<linearGradient id="paint75_linear_601_50021" x1="34.2368" y1="22.2641" x2="49.6638" y2="22.2641" gradientUnits="userSpaceOnUse">
<stop stop-color="#D91121"/>
<stop offset="1" stop-color="#DC7866"/>
</linearGradient>
<linearGradient id="paint76_linear_601_50021" x1="34.745" y1="20.4805" x2="45.9242" y2="20.4805" gradientUnits="userSpaceOnUse">
<stop stop-color="#003971"/>
<stop offset="1" stop-color="#5687C0"/>
</linearGradient>
<linearGradient id="paint77_linear_601_50021" x1="35.8536" y1="24.8531" x2="44.2615" y2="24.8531" gradientUnits="userSpaceOnUse">
<stop stop-color="#D4B066"/>
<stop offset="1" stop-color="#E7CC8F"/>
</linearGradient>
<linearGradient id="paint78_linear_601_50021" x1="24.19" y1="25.6803" x2="31.6506" y2="25.6803" gradientUnits="userSpaceOnUse">
<stop stop-color="#003971"/>
<stop offset="1" stop-color="#5687C0"/>
</linearGradient>
<linearGradient id="paint79_linear_601_50021" x1="34.7454" y1="23.0997" x2="45.9261" y2="23.0997" gradientUnits="userSpaceOnUse">
<stop stop-color="#003971"/>
<stop offset="1" stop-color="#5687C0"/>
</linearGradient>
<linearGradient id="paint80_linear_601_50021" x1="35.8548" y1="28.2497" x2="44.2628" y2="28.2497" gradientUnits="userSpaceOnUse">
<stop stop-color="#D4B066"/>
<stop offset="1" stop-color="#E7CC8F"/>
</linearGradient>
</defs>
</svg>
