<svg width="64" height="46" viewBox="0 0 64 46" fill="none" xmlns="http://www.w3.org/2000/svg">
<g clip-path="url(#clip0_601_50039)">
<path d="M22.6321 12.0971C25.6889 13.1604 28.7295 14.2727 31.7935 15.3145C31.9019 15.3564 32.0092 15.3564 32.1176 15.3145C35.1765 14.2676 38.215 13.1645 41.2667 12.0971C40.184 13.8229 39.0911 15.5425 37.9849 17.2529C37.4737 17.0331 36.9472 16.8501 36.432 16.6395C36.7305 16.114 37.0515 15.6008 37.3541 15.0773C36.3686 15.5732 35.3656 16.0342 34.3872 16.5444C35.0712 16.8051 35.7562 17.0607 36.435 17.3357C36.8133 17.4901 37.2192 17.7876 37.2447 18.2313C37.3051 18.7241 36.9687 19.1269 36.7305 19.5215C35.2562 21.828 33.7902 24.1406 32.3088 26.4429C32.3169 25.8357 32.2474 25.2222 32.319 24.619C32.9017 22.7696 33.4773 20.9181 34.0079 19.0533C34.1122 18.7762 33.8024 18.628 33.6031 18.5309C33.0408 18.2824 32.5143 17.9532 31.9387 17.7406C31.3549 17.9931 30.7946 18.2988 30.2221 18.5758C30.0452 18.6576 29.7958 18.8192 29.897 19.0502C30.4235 20.916 31.0052 22.7665 31.5839 24.617C31.6483 25.2212 31.587 25.8346 31.59 26.4429C30.1321 24.161 28.6773 21.876 27.2215 19.5931C26.9679 19.1729 26.5999 18.7435 26.6633 18.219C26.697 17.7784 27.1008 17.486 27.4791 17.3326C28.1518 17.0587 28.8348 16.8082 29.5126 16.5434C28.5362 16.0353 27.5374 15.5701 26.5528 15.0783C26.8544 15.6018 27.1755 16.114 27.473 16.6405C26.9546 16.847 26.4302 17.0382 25.9139 17.2498C24.8118 15.5374 23.7209 13.8167 22.6321 12.0971Z" fill="black"/>
<path d="M29.1097 32.9779C29.12 31.9698 29.1026 30.9628 29.1189 29.9548C30.7772 29.966 32.4365 29.9517 34.0948 29.9609C34.4189 29.9496 34.7972 30.1122 34.8616 30.4619C34.9014 30.8043 34.8922 31.1519 34.8677 31.4944C34.8473 31.8727 34.4506 32.1017 34.1009 32.0772C32.7483 32.0803 31.3957 32.0751 30.0421 32.0782C30.0432 32.3808 30.0442 32.6824 30.0483 32.985C29.7354 32.9932 29.4226 32.9891 29.1097 32.9779ZM30.0391 30.6387C30.0432 30.8739 30.0452 31.109 30.0503 31.3452C31.3344 31.3329 32.6185 31.3564 33.9026 31.3339C34.1357 31.199 33.9772 30.8749 34.0212 30.6581C32.6952 30.6132 31.3661 30.6489 30.0391 30.6387Z" fill="black"/>
<path d="M16.1186 30.4199C16.2515 30.1194 16.5961 29.9517 16.9161 29.9588C18.5416 29.9548 20.1672 29.9609 21.7938 29.9568C21.7968 30.2349 21.7979 30.514 21.7999 30.7921C20.2071 30.8033 18.6122 30.7778 17.0204 30.8043C16.9907 30.8279 16.9324 30.8759 16.9028 30.9004C16.8844 31.3002 16.9069 31.702 16.8905 32.1027C17.0347 32.1385 17.1809 32.1753 17.3312 32.1692C18.8197 32.1651 20.3083 32.1712 21.7968 32.1651C21.7979 32.434 21.7989 32.7029 21.7989 32.9718C20.2398 33.0167 18.6786 32.9779 17.1195 32.9942C16.7372 33.0096 16.2628 32.936 16.1115 32.527C16.0287 32.1651 16.0859 31.7899 16.0706 31.4229C16.0757 31.0896 16.0266 30.7461 16.1186 30.4199Z" fill="#010101"/>
<path d="M22.5749 32.2438C22.5718 31.4811 22.5697 30.7185 22.5789 29.9568C22.9122 29.9578 23.2465 29.9558 23.5809 29.9619C23.5921 30.6929 23.5686 31.4249 23.5952 32.1559C24.8322 32.1804 26.0703 32.1661 27.3074 32.1641C27.3585 31.43 27.3196 30.6939 27.3309 29.9599C27.6683 29.9578 28.0057 29.9588 28.343 29.9548C28.3502 30.7164 28.3522 31.4791 28.3451 32.2418C28.3492 32.6507 27.9617 32.9922 27.5619 32.985C26.4005 33.0198 25.2381 32.9738 24.0757 32.9942C23.7403 32.9932 23.3989 33.0137 23.0707 32.9309C22.7926 32.8266 22.5595 32.5516 22.5749 32.2438Z" fill="#010101"/>
<path d="M35.6539 29.9568C37.2826 29.9609 38.9112 29.9568 40.5398 29.9578C40.8915 29.9507 41.3056 30.1337 41.3935 30.5048C41.418 30.8452 41.417 31.1888 41.3925 31.5292C41.3414 31.8155 41.0888 31.9657 40.8578 32.0987C41.0786 32.3788 41.2749 32.6763 41.4732 32.9728C41.0704 32.9472 40.4591 33.1885 40.2341 32.7325C40.0992 32.5178 39.9714 32.299 39.8405 32.0823C38.764 32.0731 37.6874 32.0782 36.6109 32.0792C36.6129 32.3757 36.6139 32.6722 36.617 32.9697C36.295 32.9983 35.9719 32.9994 35.6509 32.9779C35.656 31.9709 35.6468 30.9638 35.6539 29.9568ZM36.6211 30.605C36.6129 30.8503 36.6129 31.0967 36.6139 31.3421C37.8858 31.3329 39.1586 31.3595 40.4294 31.3298C40.4611 31.3073 40.5245 31.2613 40.5572 31.2378C40.5388 31.0313 40.6625 30.7195 40.4151 30.6173C39.1515 30.5907 37.8858 30.6162 36.6211 30.605Z" fill="#010101"/>
<path d="M42.191 30.7082C42.1777 30.2472 42.6593 29.9261 43.0866 29.9578C44.6999 29.9568 46.3132 29.9609 47.9265 29.9558C47.9316 30.9628 47.9439 31.9709 47.9142 32.9779C47.6341 32.9902 47.3509 33.0167 47.0718 32.982C46.945 32.7172 47.0524 32.3716 47.0217 32.0782C45.7253 32.0772 44.429 32.0782 43.1326 32.0772C43.1306 32.3798 43.1326 32.6835 43.1347 32.9871C42.8208 32.9953 42.5079 32.9912 42.1951 32.9779C42.2043 32.2213 42.1757 31.4648 42.191 30.7082ZM43.1367 30.6479C43.1326 30.88 43.1336 31.1121 43.1377 31.3452C44.43 31.338 45.7233 31.3431 47.0166 31.3421C47.0186 31.108 47.0196 30.8749 47.0227 30.6408C45.7274 30.6408 44.432 30.6275 43.1367 30.6479Z" fill="#010101"/>
</g>
<defs>
<clipPath id="clip0_601_50039">
<rect width="32" height="21.0607" fill="white" transform="translate(16 12)"/>
</clipPath>
</defs>
</svg>
