<svg width="166" height="38" viewBox="0 0 166 38" fill="none" xmlns="http://www.w3.org/2000/svg">
<path fill-rule="evenodd" clip-rule="evenodd" d="M16 12V16.6225L33.013 16.7315C33.4192 16.7315 33.644 16.8247 33.9024 17.083L35.7116 18.6465C35.844 18.7789 35.9046 18.8634 35.9046 18.9998C35.9046 19.1362 35.844 19.2211 35.7116 19.3535L33.9024 20.917C33.644 21.1753 33.4192 21.2685 33.013 21.2685L16 21.3775V26H35.1432C35.8268 26 36.1638 25.8882 36.6023 25.4497L42.0725 19.7955C42.2785 19.5895 42.4133 19.2678 42.4133 18.9998C42.4133 18.7319 42.2785 18.4105 42.0725 18.2045L36.6023 12.5499C36.1638 12.1114 35.8268 12 35.1432 12H16Z" fill="#241F21"/>
<path d="M59.1885 12C58.8874 12 58.7168 12.0603 58.5987 12.1784L45.1689 25.6634C45.0279 25.8051 45.0915 26 45.3107 26H51.8407L58.7665 18.8157C58.9102 18.672 59.0181 18.612 59.1885 18.612C59.3589 18.612 59.4668 18.672 59.6105 18.8157L66.5363 26H73.0663C73.2855 26 73.3491 25.8051 73.2081 25.6634L59.7783 12.1784C59.6602 12.0603 59.4896 12 59.1885 12Z" fill="#241F21"/>
<path fill-rule="evenodd" clip-rule="evenodd" d="M102.489 12V16.6225L85.476 16.7315C85.0698 16.7315 84.845 16.8247 84.5867 17.083L82.7774 18.6465C82.645 18.7789 82.5844 18.8634 82.5844 18.9998C82.5844 19.1362 82.645 19.2211 82.7774 19.3535L84.5867 20.917C84.845 21.1753 85.0698 21.2685 85.476 21.2685L102.489 21.3775V26H83.3458C82.6622 26 82.3252 25.8882 81.8867 25.4497L76.4165 19.7955C76.2105 19.5895 76.0757 19.2678 76.0757 18.9998C76.0757 18.7319 76.2105 18.4105 76.4165 18.2045L81.8867 12.5499C82.3252 12.1114 82.6622 12 83.3458 12H102.489Z" fill="#241F21"/>
<path d="M115.832 12H110.481V26H115.832V12Z" fill="#241F21"/>
<path d="M135.149 12C134.848 12 134.677 12.0603 134.559 12.1784L121.129 25.6634C120.988 25.8051 121.052 26 121.271 26H127.801L134.727 18.8157C134.871 18.672 134.979 18.612 135.149 18.612C135.319 18.612 135.427 18.672 135.571 18.8157L142.497 26H149.027C149.246 26 149.31 25.8051 149.169 25.6634L135.739 12.1784C135.621 12.0603 135.45 12 135.149 12Z" fill="#241F21"/>
</svg>
