<svg width="53" height="56" viewBox="0 0 53 56" fill="none" xmlns="http://www.w3.org/2000/svg">
<g clip-path="url(#clip0_601_50057)">
<path d="M16.4314 16.4475H35.5865V42.9194C35.5865 43.1396 35.549 43.2757 35.4005 43.4234C35.2393 43.5835 35.0979 43.5979 34.8427 43.5979L17.0033 43.5996C16.8628 43.5996 16.7549 43.5548 16.6386 43.4565C16.4945 43.3329 16.4314 43.179 16.4314 43.0161V16.4475Z" fill="#FFF200"/>
<path d="M35.5865 15.1157H16.4314V16.4757H35.5865V15.1157Z" fill="#ED1C24"/>
<path d="M16.9729 12.3696H35.0325C35.3218 12.3696 35.5885 12.6484 35.5885 12.9206V13.7887H16.4314L16.4331 13.0252V12.9617C16.4331 12.6538 16.6703 12.4001 16.9729 12.3696Z" fill="#009A4E"/>
<path d="M34.9618 12.0022C35.5151 12.0022 35.9624 12.4448 35.9624 12.9922V42.9794C35.9624 43.5263 35.5151 43.9693 34.9618 43.9693H17.0427C16.49 43.9693 16.0425 43.5263 16.0425 42.9794V12.9922C16.0425 12.4448 16.49 12.0022 17.0427 12.0022H34.9618ZM34.9618 12.3974H17.0427C16.7106 12.3974 16.4421 12.6641 16.4421 12.9922V42.9794C16.4421 43.3079 16.7106 43.5728 17.0427 43.5728H34.9618C35.294 43.5728 35.5624 43.3079 35.5624 42.9794V12.9922C35.5624 12.6641 35.294 12.3974 34.9618 12.3974Z" fill="black"/>
<path d="M25.6501 18.1276C25.6501 18.1276 25.638 18.243 25.6116 18.3106C25.5857 18.3732 25.5181 18.4154 25.5226 18.4574C25.527 18.4986 25.5709 18.5482 25.6389 18.5826C25.7056 18.6175 25.7324 18.6444 25.8009 18.6619C25.8644 18.6776 25.945 18.7241 25.9678 18.6708C25.9907 18.6167 25.9562 18.5509 25.9177 18.4878C25.8506 18.3777 25.8166 18.3508 25.7177 18.1996C25.6966 18.167 25.6801 18.132 25.6501 18.1276Z" fill="black"/>
<path d="M25.1484 30.0207C25.1551 30.001 25.3135 30.1013 25.3959 30.1496C25.5691 30.2534 25.6469 30.3152 25.8 30.4297C25.9213 30.5219 25.9799 30.5694 26.1017 30.6741C26.2511 30.803 26.3317 30.913 26.372 30.888C26.4302 30.8182 26.2767 30.6141 26.141 30.5032C26.009 30.3939 25.8726 30.3054 25.7674 30.2365C25.6317 30.146 25.6196 30.1254 25.4169 29.9894C25.199 29.8435 25.0111 29.66 25.0111 29.66L24.7993 29.4936L24.4678 29.2138L24.099 28.8742L23.8207 28.564C23.8207 28.564 23.604 28.2991 23.5696 28.248C23.5347 28.1975 23.4326 28.0336 23.3486 27.895C23.2733 27.7705 23.1275 27.5773 23.114 27.5607C23.0353 27.4653 22.8554 27.5038 22.6463 27.3808C22.3926 27.2308 22.3313 27.0939 22.3313 27.0939C22.3313 27.0939 22.3218 27.0738 22.312 27.063C22.3026 27.0518 22.2834 27.038 22.2834 27.038L22.1504 26.9453L22.0743 26.8952C22.0743 26.8952 22.0166 26.8473 21.9441 26.8164C21.8712 26.7842 21.7087 26.6897 21.7087 26.6897L21.4183 26.5045C21.4183 26.5045 21.3046 26.4132 21.267 26.3828C21.2285 26.3537 21.1569 26.3121 21.1569 26.3121C21.1569 26.3121 21.1112 26.2892 21.0974 26.2883C21.0836 26.2874 21.0232 26.2821 21.0232 26.2821C21.0232 26.2821 20.9672 26.2673 20.9103 26.334C20.8535 26.4012 20.8674 26.3653 20.96 26.743C20.9967 26.8916 20.9931 27.4157 21.0325 27.5754C21.0826 27.7804 21.2267 28.0453 21.2415 28.0766C21.2559 28.1075 21.2661 28.2221 21.2661 28.2221C21.2661 28.2221 21.2599 28.3148 21.2697 28.3734C21.3136 28.6441 21.7096 28.466 21.797 28.8375C21.8829 29.204 21.7455 29.5696 21.7455 29.5696C21.7455 29.5696 21.6604 29.7514 21.54 29.78C21.4201 29.8078 21.234 29.5419 21.0993 29.3267C20.9664 29.1149 20.8576 28.8375 20.8227 28.7493C20.7878 28.6611 20.7694 28.6419 20.7292 28.5779C20.6696 28.4826 20.6218 28.5001 20.5551 28.3497C20.4879 28.1993 20.5475 28.1389 20.5175 28.0078C20.5 27.9353 20.4844 27.9272 20.4616 27.8234C20.4397 27.72 20.4101 27.3911 20.4101 27.3911L20.368 27.085C20.368 27.085 20.3533 26.9453 20.3341 26.8576C20.2674 26.5515 20.2441 26.2552 20.2441 26.2552L20.2316 26.1335L20.2271 26.0078C20.2271 26.0078 20.2231 25.9473 20.2379 25.8851C20.2527 25.823 20.2827 25.7715 20.2827 25.7715C20.2827 25.7715 20.3445 25.6681 20.3552 25.6422C20.3655 25.6176 20.4917 25.4708 20.4917 25.4708C20.4917 25.4708 20.5579 25.4157 20.6657 25.3499C20.7741 25.2841 20.8712 25.2886 20.8712 25.2886C20.8712 25.2886 20.8998 25.2859 21.0914 25.3097C21.2829 25.3334 21.6768 25.4381 21.7761 25.4636C21.8741 25.4901 21.9914 25.5312 22.0675 25.5737C22.2863 25.6927 22.3526 25.6422 22.1785 25.5057C22.0612 25.414 22.0281 25.3728 21.9336 25.2869C21.8539 25.2135 21.7913 25.1647 21.7318 25.0971C21.6723 25.0282 21.5027 24.7781 21.5027 24.7781L21.3966 24.6214C21.3966 24.6214 21.3398 24.557 21.3304 24.5525C21.3215 24.5471 21.2928 24.5252 21.2928 24.5252C21.2928 24.5252 21.2225 24.5288 21.15 24.5149C21.0766 24.5001 21.0426 24.6031 21.0426 24.6031C21.0426 24.6031 20.885 24.8971 20.7249 25.0771C20.4653 25.3693 20.2791 25.568 20.1838 25.7237C20.05 25.9394 20.0796 26.1758 20.0106 26.2849C19.9704 26.3489 19.9484 26.3583 19.9265 26.4143C19.8593 26.5839 20.1032 26.6769 20.0473 26.8649C19.9583 27.163 19.2601 27.4579 19.1674 27.4086C19.0712 27.3581 19.15 26.9549 19.1822 26.8246C19.2153 26.6935 19.3133 26.5002 19.3223 26.4904C19.3308 26.4809 19.3546 26.4353 19.3617 26.3968C19.3693 26.3583 19.372 26.2711 19.3764 26.2227C19.3809 26.1739 19.401 26.097 19.401 26.097C19.401 26.097 19.4037 26.0804 19.4655 25.9466C19.5277 25.812 19.755 25.4986 19.9179 25.1997C20.0253 25.0046 20.0701 24.8865 20.1775 24.6909C20.2764 24.5114 20.446 24.2375 20.446 24.2375C20.446 24.2375 20.5176 24.0979 20.5511 24.046C20.5852 23.9927 20.6567 23.892 20.7239 23.7926C20.7915 23.6937 20.808 23.6194 20.8961 23.538C20.9691 23.47 21.0188 23.4337 21.1141 23.4033C21.2559 23.3563 21.3531 23.3814 21.4981 23.4217C21.6484 23.4628 21.7518 23.5318 21.8503 23.6132C21.9483 23.6956 22.0213 23.7864 22.0213 23.7864L22.0692 23.8571L22.0986 23.8746L22.19 23.9332L22.399 24.0714C22.399 24.0714 22.8949 24.4089 22.9226 24.4272C22.949 24.4447 23.0381 24.5176 23.0555 24.5235C23.0739 24.5288 23.2059 24.3856 23.465 24.2071C23.7649 23.999 23.8709 24.0146 23.9704 23.9605C24.0683 23.9063 24.1086 23.8616 24.1856 23.7846C24.302 23.6682 24.3029 23.6061 24.4349 23.4436C24.5678 23.2816 24.6922 23.1907 24.6922 23.1907C24.6922 23.1907 24.7105 23.1724 24.9473 22.9048C25.1836 22.6381 25.2884 22.4362 25.2884 22.4362L25.4182 22.1762C25.4182 22.1762 25.6061 21.7721 25.6665 21.6123C25.7274 21.4521 25.7274 21.3988 25.7274 21.3988C25.7274 21.3988 25.7363 21.3567 25.6907 21.2753C25.6437 21.1942 25.5953 21.231 25.5054 21.2493C25.3331 21.2861 25.2284 21.2413 25.0543 21.2109C24.895 21.1844 24.8117 21.1366 24.652 21.1102C24.49 21.0829 24.3956 21.0561 24.233 21.0717C24.2084 21.0744 24.1588 21.0847 24.135 21.0927C24.0433 21.1231 24.0178 21.1303 23.9498 21.1697C23.871 21.2064 23.8191 21.218 23.7318 21.2202C23.6714 21.2221 23.6347 21.2239 23.5788 21.2019C23.5403 21.1871 23.5183 21.176 23.4879 21.1487C23.4696 21.1321 23.4598 21.1213 23.4458 21.0999C23.4441 21.0829 23.4387 21.0838 23.4553 21.0561C23.4714 21.0278 23.4915 21.0229 23.4915 21.0229L23.5658 21.0046C23.5658 21.0046 23.6705 20.9773 23.6804 20.9745C23.6898 20.9719 23.7896 20.9396 23.8334 20.9258C23.8777 20.9119 23.9261 20.8864 23.9261 20.8864C23.9261 20.8864 23.9529 20.8435 23.9426 20.8189C23.9296 20.791 23.8701 20.7884 23.8701 20.7884C23.8701 20.7884 23.7869 20.8189 23.7775 20.8215C23.7685 20.8233 23.6356 20.8653 23.6356 20.8653C23.6356 20.8653 23.5313 20.8882 23.4503 20.9074C23.3689 20.9257 23.2525 20.9352 23.2525 20.9352L23.2176 20.9257C23.2176 20.9257 23.1782 20.8993 23.172 20.8716C23.1662 20.847 23.1626 20.8286 23.1581 20.8005C23.1406 20.6975 23.1196 20.6353 23.1442 20.5338C23.1537 20.4912 23.1635 20.4675 23.1818 20.4282C23.1975 20.3955 23.2078 20.3767 23.2279 20.3458L23.292 20.241L23.4128 20.0625C23.4544 20.0204 23.4817 19.9994 23.5341 19.9699C23.611 19.9269 23.6558 19.9148 23.752 19.9041C23.8464 19.8938 23.8594 19.8947 23.9932 19.8647C24.1279 19.8342 24.2233 19.781 24.2233 19.781C24.2233 19.781 24.5451 19.6628 24.741 19.5666C24.9464 19.4659 25.036 19.3585 25.2486 19.2753C25.3385 19.2404 25.3909 19.2238 25.4835 19.2001C25.4951 19.1925 25.5009 19.1853 25.5046 19.1714C25.5135 19.1379 25.4616 19.1222 25.4258 19.1258C25.3935 19.1284 25.3202 19.1625 25.3036 19.1258C25.291 19.0976 25.3707 19.081 25.3707 19.081C25.3707 19.081 25.4083 19.0636 25.4092 19.0426C25.4101 19.0103 25.3551 19.0313 25.3304 19.0287C25.2056 19.0147 25.1957 18.9919 25.1093 18.9709C25.0077 18.9455 24.9528 18.9141 24.8471 18.9096C24.754 18.906 24.6667 18.9257 24.6081 18.9396C24.5504 18.9544 24.5486 18.8975 24.5714 18.8863C24.7348 18.8102 24.7384 18.804 24.8538 18.7986C24.9169 18.7959 25.0051 18.8094 25.015 18.8143C25.0244 18.8196 25.1506 18.8134 25.1828 18.7803C25.2159 18.748 25.0794 18.7498 25.015 18.7243C24.9555 18.7006 24.8646 18.6939 24.8664 18.6545C24.8696 18.6151 24.9134 18.637 24.9447 18.629C24.9841 18.6196 25.0069 18.6205 25.0472 18.6152C25.1197 18.6053 25.126 18.5986 25.2334 18.5897C25.3394 18.5794 25.4925 18.6246 25.4925 18.6246C25.4925 18.6246 25.6532 18.6958 25.7319 18.7334C25.8107 18.77 25.906 18.7893 25.906 18.7893C25.906 18.7893 26.0178 18.8049 26.103 18.7517C26.1893 18.6989 26.1405 18.664 26.1105 18.6152C26.081 18.5695 26.0434 18.5033 26.0984 18.378C26.1472 18.2688 26.1727 18.1413 26.1866 18.1296C26.2041 18.1158 26.2717 18.2138 26.3155 18.2541C26.4726 18.4009 26.6803 18.4734 26.8763 18.7803C26.8916 18.8049 26.964 18.7656 27.1914 18.8005C27.4187 18.8354 27.6174 19.0788 27.6676 19.137C27.7195 19.1956 27.7866 19.1925 27.7866 19.1925L27.8958 19.2073L28.2923 19.214C28.2923 19.214 28.4722 19.1817 28.576 19.2212C28.6485 19.2485 28.8902 19.41 28.7801 19.4713C28.7032 19.5143 28.6307 19.4199 28.5608 19.4154C28.4785 19.41 28.4427 19.4257 28.3693 19.444C28.2153 19.4825 27.8851 19.5823 28.005 19.6226C28.0139 19.6261 28.0309 19.6288 28.0309 19.6288L28.09 19.6391C28.09 19.6391 28.235 19.6722 28.3227 19.7066C28.4551 19.759 28.5178 19.8168 28.6396 19.8883C28.7093 19.9286 28.7398 19.9689 28.8159 19.9917C28.8857 20.0119 28.9304 19.9917 29.002 20.0038C29.096 20.0204 29.1488 20.0397 29.2348 20.0808C29.3627 20.1421 29.4093 20.2164 29.5239 20.2988C29.5811 20.3404 29.6294 20.3466 29.6724 20.4026C29.6823 20.4151 29.6904 20.4219 29.6949 20.4366C29.7101 20.4876 29.6107 20.4576 29.5579 20.4492C29.4997 20.4393 29.4756 20.4106 29.4219 20.386C29.3422 20.3485 29.3046 20.3073 29.2178 20.2916C29.1551 20.2795 29.1175 20.2889 29.0531 20.2925C28.9905 20.2952 28.9574 20.3046 28.8946 20.3055C28.7882 20.3073 28.7282 20.2979 28.6234 20.2759C28.5062 20.2513 28.448 20.2057 28.3317 20.1815C28.2001 20.1542 27.9674 20.0414 27.9897 20.1542C28.0014 20.2083 28.1249 20.254 28.1249 20.254C28.1249 20.254 28.2099 20.2996 28.2905 20.3354C28.3711 20.3703 28.4157 20.4236 28.4157 20.4236L28.4712 20.4648C28.4712 20.4648 28.5285 20.5436 28.6037 20.6326C28.6771 20.7203 28.8078 20.7176 28.8078 20.7176C28.8078 20.7176 28.8865 20.7176 29.0566 20.7525C29.2257 20.7874 29.4003 20.8921 29.4003 20.8921C29.4003 20.8921 29.5318 20.9825 29.6088 21.0734C29.6849 21.1643 29.641 21.2099 29.6312 21.2193C29.6223 21.2291 29.6258 21.2246 29.6151 21.2291C29.6062 21.2336 29.5113 21.1145 29.5113 21.1145L29.4433 21.0568C29.4433 21.0568 29.377 21.0103 29.2911 20.9825C29.2052 20.9552 29.1765 20.9736 29.1765 20.9736C29.1765 20.9736 28.9939 21.0246 28.8346 21.0201C28.6771 21.0156 28.5948 20.9525 28.5948 20.9525L28.4945 20.8854C28.4945 20.8854 28.3441 20.7444 28.3387 20.8111C28.3351 20.8563 28.405 20.9064 28.405 20.9064C28.405 20.9064 28.4533 20.9552 28.4856 20.9861C28.5464 21.0461 28.5716 21.0761 28.6413 21.1382C28.7111 21.2009 28.7541 21.2009 28.7541 21.2009C28.7541 21.2009 28.7917 21.2098 28.806 21.2126C28.8203 21.2152 28.8454 21.222 28.8454 21.222C28.8454 21.222 28.8687 21.231 28.9778 21.2753C29.0861 21.3191 29.2034 21.4145 29.2034 21.4145C29.2034 21.4145 29.2142 21.4234 29.2303 21.4266C29.2463 21.4284 29.2786 21.4445 29.2875 21.4472C29.2974 21.4494 29.3251 21.4494 29.3878 21.4583C29.4514 21.4678 29.4272 21.508 29.4272 21.508L29.4164 21.5232L29.3645 21.5581C29.3645 21.5581 29.2974 21.5774 29.2517 21.5796C29.2051 21.5823 29.1389 21.5564 29.1389 21.5564L28.9984 21.5035C28.9984 21.5035 28.8561 21.4659 28.8256 21.461C28.7952 21.4565 28.6681 21.431 28.6467 21.4266C28.6261 21.4217 28.5625 21.3988 28.5455 21.389C28.5285 21.3796 28.4972 21.3733 28.4202 21.3357C28.3441 21.2982 28.3137 21.2547 28.2189 21.2247C28.1231 21.1943 28.0649 21.1881 27.9933 21.2378C27.8698 21.3228 28.1794 21.3367 28.3334 21.4136C28.5608 21.5255 28.6887 21.6078 28.7424 21.7287C28.797 21.8499 28.8516 21.8938 28.8516 21.8938C28.8516 21.8938 29.0119 21.9744 29.0834 22.0589C29.1228 22.1046 29.1282 22.1422 29.1676 22.1878C29.2552 22.2907 29.4254 22.2849 29.4594 22.3722C29.4916 22.4536 29.3215 22.4169 29.2329 22.4088C29.0736 22.3932 29.0351 22.2473 28.8865 22.1887C28.8024 22.1551 28.7487 22.1551 28.6627 22.1256C28.5061 22.0741 28.4327 22.0066 28.276 21.9578C28.1812 21.9287 28.0093 21.8039 28.0308 21.9C28.0344 21.9233 28.0487 21.9412 28.0549 21.9551C28.063 21.969 28.1024 22.02 28.1024 22.02C28.1024 22.02 28.1551 22.0898 28.1793 22.1082C28.2017 22.1275 28.3028 22.2035 28.4478 22.2823C28.591 22.3611 28.7163 22.5123 28.7163 22.5123C28.7163 22.5123 28.7593 22.5741 28.7799 22.6171C28.8014 22.6655 28.7861 22.6802 28.8202 22.7473C28.8515 22.814 28.8667 22.827 28.9096 22.8682C29.0152 22.9698 29.1263 22.9496 29.2605 23.0047C29.2972 23.0203 29.2999 23.0257 29.3393 23.0678C29.3786 23.1094 29.332 23.1272 29.332 23.1272C29.332 23.1272 29.1826 23.1657 29.0859 23.1576C28.9607 23.1478 28.9042 23.1093 28.7825 23.0484C28.659 22.988 28.5946 22.8793 28.5821 22.8726C28.5713 22.8654 28.5409 22.8332 28.5176 22.8166C28.4944 22.8001 28.4344 22.7875 28.3807 22.7728C28.3261 22.7581 28.2956 22.7553 28.2411 22.7405C28.1668 22.7195 28.0897 22.6868 28.0548 22.6757C28.0199 22.6636 27.9403 22.6493 27.8821 22.6837C27.7657 22.7526 28.0629 22.7991 28.1551 22.8981C28.2025 22.9478 28.2222 22.9827 28.267 23.0351C28.301 23.0753 28.3153 23.1035 28.3574 23.1348C28.386 23.1558 28.4388 23.1786 28.4388 23.1786C28.4388 23.1786 28.5104 23.2118 28.6151 23.2695C28.7199 23.3272 28.8424 23.4906 28.8424 23.4906L28.9167 23.6042L28.9606 23.6691L28.9722 23.6991L28.9883 23.7358C28.9883 23.7358 29.0421 23.8056 29.0814 23.8284C29.1208 23.8522 29.1136 23.8728 29.1136 23.8728C29.1136 23.8728 29.1092 23.8871 29.0814 23.9028C29.0546 23.9194 29.0393 23.9055 29 23.8938C28.9606 23.8826 28.9347 23.8451 28.9007 23.8177C28.8648 23.7891 28.8273 23.7197 28.7637 23.6803C28.7073 23.6464 28.634 23.6343 28.6053 23.6253C28.5775 23.6151 28.5077 23.5712 28.48 23.5591C28.4532 23.5483 28.3807 23.5152 28.3807 23.5152C28.3807 23.5152 28.2411 23.4374 28.164 23.4164C28.0871 23.3949 28.1362 23.4419 28.1362 23.4419C28.1362 23.4419 28.2052 23.5493 28.2714 23.5922C28.3574 23.649 28.4782 23.6992 28.4388 23.7452C28.4119 23.7752 28.3761 23.7645 28.3367 23.76C28.2723 23.7524 28.1944 23.6754 28.1944 23.6754C28.1944 23.6754 28.1622 23.6544 28.0181 23.6087C27.8749 23.5617 27.9277 23.6405 27.9608 23.683C27.9931 23.7242 28.037 23.7479 28.037 23.7479L28.1345 23.7918L28.1793 23.8056C28.1793 23.8056 28.2187 23.8128 28.3485 23.8432C28.4782 23.8728 28.5499 23.9359 28.5499 23.9359C28.5499 23.9359 28.6197 24.0008 28.7163 24.0724C28.8147 24.1449 28.9114 24.1633 28.9652 24.1704C29.0189 24.1771 29.017 24.2147 29.017 24.2147C29.017 24.2147 29.0242 24.2492 29.0207 24.2604C29.0189 24.272 29.0073 24.2814 28.9956 24.2814C28.9848 24.2814 28.9795 24.2859 28.9652 24.2935C28.9509 24.3007 28.8954 24.3096 28.8954 24.3096C28.8954 24.3096 28.7504 24.3052 28.6358 24.2769C28.5231 24.2492 28.4228 24.1704 28.412 24.166C28.4031 24.1615 28.2975 24.1029 28.2241 24.0796C28.1534 24.0559 28.0397 24.0662 28.0271 24.0707C28.0156 24.0752 27.9761 24.0815 27.909 24.1011C27.841 24.119 27.926 24.1449 27.926 24.1449L27.9744 24.1494L28.0898 24.1584C28.0898 24.1584 28.2098 24.1722 28.3109 24.2098C28.412 24.2465 28.4783 24.3208 28.5454 24.3888C28.6125 24.4555 28.6869 24.4994 28.6869 24.4994L28.7406 24.5343L28.7683 24.5553L28.7755 24.5736C28.7755 24.5736 28.7728 24.583 28.7683 24.5946C28.7638 24.6067 28.7469 24.6156 28.7469 24.6156C28.7469 24.6156 28.7218 24.6111 28.7111 24.6111C28.6985 24.6111 28.6225 24.5709 28.5661 24.5463C28.5079 24.5208 28.4783 24.4966 28.4157 24.4813C28.362 24.4684 28.2904 24.4625 28.2742 24.4675C28.2582 24.472 28.14 24.4886 28.0487 24.4948C27.9574 24.5019 27.8786 24.5033 27.7712 24.4903C27.6182 24.472 27.415 24.3511 27.389 24.3847C27.3362 24.4554 27.4973 24.4755 27.5761 24.5207C27.6835 24.5829 27.8697 24.6389 27.8697 24.6389C27.8697 24.6389 28.0057 24.6689 28.0854 24.7064C28.2599 24.7875 28.3128 24.9074 28.4533 25.0336C28.5302 25.1043 28.5929 25.1347 28.6967 25.15C28.7862 25.163 28.7844 25.1522 28.9258 25.1245C29.0681 25.0963 29.1541 24.9616 29.1953 25.0109C29.2033 25.0203 29.1997 25.0292 29.1979 25.0431C29.1953 25.0569 29.1837 25.0825 29.1837 25.0825C29.1837 25.0825 29.1676 25.1053 29.1425 25.1312C29.1165 25.1567 29.019 25.21 28.9679 25.231C28.9169 25.2521 28.7917 25.287 28.6341 25.282C28.4765 25.2776 28.2546 25.1567 28.2546 25.1567L28.0953 25.0896C28.0953 25.0896 28.0219 25.0551 27.9718 25.0363C27.8393 24.9862 27.7552 24.9907 27.6191 24.9549C27.535 24.9321 27.4795 24.9083 27.4034 24.8927C27.3265 24.8762 27.3703 24.9066 27.3775 24.9173C27.4133 24.9661 27.4616 24.9817 27.5225 25.0099C27.6031 25.0493 27.6594 25.0413 27.7418 25.0762C27.834 25.1134 27.9146 25.1657 27.9656 25.1988C28.0157 25.2311 28.0533 25.2678 28.1025 25.3188L28.2717 25.4638C28.2717 25.4638 28.3111 25.496 28.3155 25.5095C28.32 25.5234 28.3388 25.5582 28.3299 25.6142C28.32 25.6702 28.2744 25.6308 28.2744 25.6308L28.2296 25.6022L28.1848 25.561L28.1141 25.5024C28.1141 25.5024 28.0533 25.4473 27.9485 25.394C27.8447 25.3399 27.7194 25.3264 27.7194 25.3264C27.7194 25.3264 27.6083 25.3099 27.612 25.3448C27.6173 25.3793 27.6423 25.3824 27.73 25.4052C27.8186 25.4281 27.8768 25.4728 27.8768 25.4728C27.8768 25.4728 27.9673 25.54 28.0326 25.6142C28.097 25.6886 28.1158 25.7606 28.1158 25.7606C28.1158 25.7606 28.1489 25.8214 28.2322 25.902C28.3154 25.9834 28.3593 25.9552 28.3548 25.9946C28.3503 26.034 28.3136 26.0412 28.3136 26.0412C28.3136 26.0412 28.2921 26.0393 28.2832 26.0393C28.2742 26.0393 28.2528 26.0273 28.2295 26.0183C28.2062 26.0094 28.1185 25.9485 28.1185 25.9485C28.1185 25.9485 27.9807 25.8367 27.9655 25.8259C27.9484 25.8138 27.8187 25.7167 27.8187 25.7167C27.8187 25.7167 27.7417 25.6675 27.6871 25.6397C27.6307 25.6125 27.5564 25.5838 27.5143 25.5699C27.4732 25.5565 27.3962 25.552 27.3962 25.552C27.3962 25.552 27.304 25.5382 27.2476 25.5171C27.159 25.4831 27.056 25.3886 27.0445 25.3841C27.0319 25.3793 26.9496 25.351 26.9334 25.3537C26.9174 25.3555 26.8797 25.5113 26.8708 25.6012C26.8333 25.9781 26.9334 26.2282 27.0892 26.5737C27.3138 27.0758 27.9395 27.7001 27.9395 27.7001C27.9395 27.7001 28.097 27.7892 28.1633 27.8424C28.3503 27.9888 28.66 28.196 28.9348 28.4699C29.1693 28.7048 29.4809 29.1215 29.4809 29.1215C29.4809 29.1215 29.6616 29.373 29.7458 29.5511C29.8478 29.7695 29.9302 30.1025 29.9302 30.1025C29.9302 30.1025 29.9374 30.1598 29.9427 30.1723C29.9499 30.1839 29.9659 30.1992 29.9768 30.1992L30.0859 30.2028C30.0967 30.2028 30.2211 30.1939 30.3034 30.1732C30.3849 30.1526 30.5782 30.064 30.7071 29.9969C30.8342 29.9288 30.9873 29.8 30.9873 29.8C30.9873 29.8 31.0168 29.7749 31.1654 29.6084C31.3158 29.442 31.4125 29.1923 31.4491 29.0978C31.4849 29.0043 31.5145 28.824 31.536 28.516C31.5592 28.2068 31.5172 27.881 31.5172 27.881C31.5172 27.881 31.4608 27.4263 31.4267 27.2714C31.3927 27.1175 31.3104 26.865 31.3104 26.865C31.3104 26.865 31.2531 26.6405 31.2352 26.4986C31.2164 26.3567 31.2138 26.1258 31.2138 26.1258C31.2138 26.1258 31.2138 25.9844 31.2593 25.7231C31.3068 25.463 31.4662 25.2008 31.4662 25.2008C31.4662 25.2008 31.5109 25.1126 31.6828 24.9067C31.8591 24.6959 31.9154 24.6628 32.0891 24.537C32.227 24.4381 32.405 24.2788 32.4633 24.3164C32.5277 24.3567 32.4006 24.4372 32.3576 24.4793C32.2493 24.5867 32.0471 24.7764 31.8833 25.0624C31.7401 25.3099 31.6864 25.4737 31.6506 25.6353C31.6147 25.7964 31.6301 25.9736 31.6345 26.034C31.6399 26.0945 31.673 26.0726 31.673 26.0726C31.673 26.0726 32.0212 25.7928 32.21 25.5811C32.415 25.352 32.5976 24.9443 32.6691 24.9407C32.7175 24.9376 32.7399 25.0468 32.7282 25.0974C32.6835 25.309 32.6684 25.3354 32.5993 25.476C32.5206 25.6371 32.4473 25.7087 32.338 25.8573C32.2234 26.013 32.1671 26.0726 32.0749 26.2788C31.9416 26.5755 32.0194 26.8047 32.0194 26.8047C32.0194 26.8047 32.0355 26.9439 32.0981 26.9421C32.203 26.9385 32.4329 26.648 32.5833 26.4104C32.6944 26.2363 32.7346 26.0349 32.8071 25.9293C32.8733 25.8358 32.9316 26.0815 32.9029 26.2264C32.8697 26.3987 32.7847 26.5536 32.5977 26.7975C32.4151 27.0355 32.4205 27.262 32.4205 27.262C32.4205 27.262 32.4017 27.3654 32.3864 27.591C32.3722 27.8156 32.4366 28.1567 32.4366 28.1567C32.4366 28.1567 32.4938 28.4417 32.5055 28.6579C32.5163 28.8753 32.5091 29.369 32.3058 29.7534C32.2253 29.9074 32.0525 30.1204 32.0525 30.1204C32.0525 30.1204 31.9192 30.2574 31.8099 30.337C31.7007 30.4167 31.4385 30.5411 31.4385 30.5411C31.4385 30.5411 31.2568 30.6038 31.2317 30.6092C31.2049 30.6163 31.1888 30.6387 31.1888 30.6387C31.1888 30.6387 31.2049 30.6736 31.212 30.6879C31.2182 30.7023 31.2693 30.8275 31.2693 30.8275C31.2693 30.8275 31.3238 31.0047 31.3444 31.1453C31.365 31.2858 31.3408 31.3181 31.3212 31.4255C31.3015 31.5284 31.2568 31.4809 31.2451 31.6832C31.2353 31.8623 31.3159 31.9517 31.3015 32.1523C31.2953 32.24 31.1959 32.0413 31.1475 31.9572C31.0455 31.7745 31.0696 31.4935 31.0679 31.4237C31.0652 31.3539 31.0598 31.2769 31.0339 31.1892C31.0026 31.0746 30.9551 30.986 30.9023 30.9162C30.8486 30.8472 30.7922 30.8079 30.7734 30.8151C30.7546 30.8214 30.7528 30.858 30.7528 30.8759C30.7519 30.8956 30.7894 30.9619 30.7975 30.9762C30.8074 30.9896 30.8745 31.1123 30.8745 31.1123C30.8745 31.1123 30.904 31.2072 30.9156 31.3916C30.9273 31.5742 30.8709 31.8015 30.8709 31.8015C30.8709 31.8015 30.7975 32.0566 30.7206 32.207C30.6345 32.3725 30.444 32.5981 30.444 32.5981C30.444 32.5981 30.307 32.7234 30.204 32.9293C30.103 33.1351 30.1898 33.2247 30.1521 33.2515C30.1127 33.2774 30.0321 33.1325 30.0107 33.0349C29.9901 32.9436 29.9999 32.9006 30.0376 32.7985C30.0725 32.7001 30.1549 32.5577 30.1549 32.5577L30.2774 32.3492C30.2774 32.3492 30.426 32.0664 30.4726 31.8605C30.5191 31.6564 30.4654 31.4291 30.4654 31.4291C30.4654 31.4291 30.4592 31.3539 30.4082 31.3575C30.3562 31.3602 30.3205 31.405 30.299 31.4595C30.2568 31.5723 30.3169 31.5518 30.2524 31.7397C30.2023 31.8874 30.188 31.8677 30.1611 31.9554C30.1288 32.0601 30.1119 32.1675 30.1137 32.2329C30.1164 32.2973 30.0806 32.2705 30.0806 32.2705C30.0806 32.2705 30.018 32.1541 30.018 32.0091C30.018 31.9304 30.0216 31.8856 30.0305 31.8068C30.0448 31.6806 30.0967 31.4873 30.0967 31.4873C30.0967 31.4873 30.1522 31.2966 30.1406 31.123C30.1273 30.9475 30.0664 30.9154 30.0664 30.9154C30.0664 30.9154 30.0503 30.8921 29.9822 30.8956C29.9151 30.9011 29.9187 31.0218 29.9187 31.0218C29.9187 31.0218 29.8981 31.1946 29.8713 31.302C29.797 31.5983 29.6977 31.754 29.5222 32.0037C29.3629 32.2293 29.1472 32.428 29.0388 32.5211C28.9314 32.616 28.6002 32.8568 28.6002 32.8568L28.2118 33.1154C28.2118 33.1154 28.0579 33.2658 27.988 33.4448C27.9164 33.623 27.92 33.7626 27.9611 33.9263C28.0024 34.0911 28.0614 34.1662 28.0927 34.2127C28.1231 34.2576 28.1832 34.338 28.2029 34.433C28.2154 34.4911 28.2065 34.526 28.21 34.5851C28.2137 34.637 28.2208 34.6657 28.219 34.7185C28.2172 34.8008 28.2324 34.8589 28.1849 34.9261C28.1509 34.9771 28.0578 35.0218 28.0578 35.0218C28.0578 35.0218 27.9523 35.0683 27.8895 35.1068C27.2289 35.5052 26.9945 35.7638 26.6221 36.2078C26.5039 36.3501 26.5908 36.3412 26.4646 36.5094C26.388 36.6097 26.2113 36.6097 26.1473 36.7296C26.0583 36.8934 26.3478 37.0545 26.0135 37.1987C25.5825 37.3848 24.8409 37.2514 24.8262 37.1933C24.7859 37.0339 24.9711 36.8496 25.0369 36.7762C25.3386 36.4468 25.608 36.4387 25.7069 36.1658C25.7284 36.1076 25.7199 36.0575 25.9602 35.8793C26.1289 35.7549 26.8029 35.2474 27.0974 34.9091C27.1985 34.7927 27.2853 34.7158 27.3292 34.5904C27.374 34.4632 27.2853 34.3836 27.2853 34.3836L27.1645 34.1867L26.9327 33.7723C26.9327 33.7723 26.8352 33.5521 26.7823 33.425C26.7278 33.2979 26.6266 32.9559 26.6266 32.9559C26.6266 32.9559 26.5524 32.6481 26.5397 32.4475C26.5174 32.0877 26.5666 31.8783 26.6616 31.5293C26.7841 31.0764 27.0625 30.8866 27.1735 30.4372C27.2058 30.3066 27.2129 30.0828 27.1466 30.0936C27.084 30.1052 27.0786 30.2815 27.0303 30.3997C26.8513 30.8454 26.615 31.0406 26.4852 31.5024C26.3984 31.8147 26.3626 32.0001 26.3634 32.3241C26.3644 32.5093 26.3572 32.4753 26.4046 32.7967C26.4234 32.9148 26.452 32.9783 26.487 33.0938C26.512 33.1761 26.5792 33.3301 26.5792 33.3301C26.5792 33.3301 26.6714 33.5333 26.7036 33.6756C26.7134 33.7249 26.726 33.7525 26.7224 33.8018C26.7161 33.8868 26.7313 33.9048 26.6902 33.9817C26.6392 34.0775 26.6704 34.1339 26.5076 34.1696C26.3626 34.2 26.0663 34.1034 26.0663 34.1034C26.0663 34.1034 24.8486 33.7346 24.0712 33.8411C23.9172 33.8617 23.8344 33.9181 23.6796 33.9154C23.5386 33.9136 23.467 33.8035 23.3261 33.8456C23.2974 33.8537 23.2885 33.8742 23.2625 33.8913C23.0567 34.0344 23.2142 34.2725 22.6718 34.149C22.3388 34.0729 21.9356 33.8689 22.0054 33.7409C22.0989 33.5708 22.2242 33.543 22.4874 33.4347C22.7689 33.3201 23.1914 33.3524 23.2746 33.347C23.3762 33.3389 23.5221 33.2682 23.7038 33.2638C24.018 33.2584 24.0739 33.296 24.0739 33.296L24.6073 33.3434L25.6281 33.356C25.6281 33.356 25.8107 33.3425 25.8832 33.3282C25.9566 33.3138 26.0143 33.1697 26.0545 33.1008C26.094 33.0328 26.0528 32.9325 26.0528 32.9325L26.0224 32.8851L25.9253 32.7285L25.7458 32.4259L25.5467 32.0286C25.5467 32.0286 25.4165 31.752 25.3471 31.5703C25.2782 31.3895 25.2379 31.2874 25.1922 31.1005C25.1444 30.9079 25.1148 30.7522 25.1086 30.5974C25.101 30.3752 25.0862 30.2024 25.1484 30.0207Z" fill="black"/>
<path d="M27.6778 40.3766V40.1591C27.6778 39.665 27.9275 39.5683 28.657 39.5648C29.3283 39.5683 29.5655 39.6525 29.5655 40.0785V41.7228H29.8134V42.0933H28.1737C27.8282 42.0933 27.6027 41.8561 27.6027 41.5643V41.2313C27.6027 40.944 27.7494 40.6934 28.2632 40.6907H28.9041V40.1903C28.9041 39.929 28.8862 39.8977 28.624 39.8977H28.6213C28.3071 39.8977 28.2865 39.9389 28.2865 40.1903V40.3765H27.6778M28.4387 40.9665C28.3098 40.9665 28.2337 41.0703 28.2337 41.1991V41.5169C28.2337 41.6449 28.2883 41.7469 28.4387 41.7487H28.6696C28.7967 41.7487 28.9006 41.7093 28.9006 41.5169L28.9023 40.9665H28.6839C28.6786 40.9665 28.4387 40.9665 28.4387 40.9665Z" fill="black"/>
<path d="M26.1182 40.1841V39.6095H25.2035V39.9514H25.4474V41.7218H25.2035V42.0933H26.3492V41.7218H26.1182V40.7731C26.1182 40.6846 26.6575 40.0034 26.6575 40.0821V41.0246H27.2913V39.964C27.2913 39.7214 27.1328 39.5649 26.8437 39.5649C26.5 39.5648 26.2677 39.9971 26.1182 40.1841Z" fill="black"/>
<path d="M33.4099 41.7201V39.6095H32.4763V39.9514H32.7377V41.7201H32.4763V42.0933H33.6551V41.7201H33.4099Z" fill="black"/>
<path d="M23.7647 40.1841V39.6095H22.85V39.9514H23.0939V41.7218H22.85V42.0933H23.9948V41.7218H23.7647V40.7731C23.7647 40.6846 24.3035 40.0034 24.3035 40.0821V41.0246H24.9368V39.964C24.9368 39.7214 24.7792 39.5649 24.4897 39.5649C24.1468 39.5648 23.9142 39.9971 23.7647 40.1841Z" fill="black"/>
<path fill-rule="evenodd" clip-rule="evenodd" d="M22.4999 41.2797H21.8581V41.4659C21.8581 41.7183 21.816 41.729 21.5032 41.7326H21.4987C21.1402 41.7344 21.1604 41.6986 21.1644 41.4659V41.0246H22.4998V40.066C22.4998 39.7186 22.2376 39.5728 21.5457 39.5702H21.4464C20.6994 39.5737 20.5007 39.7438 20.5007 40.1734V41.5768C20.5007 42.0494 20.7799 42.1291 21.4602 42.1479H21.5344C22.277 42.1309 22.4998 42.0798 22.4998 41.6386V41.2797M21.1716 40.1018C21.1716 39.9711 21.211 39.9066 21.3605 39.9048H21.642C21.7583 39.9048 21.8232 39.9568 21.8232 40.0498V40.7686H21.1716V40.1018H21.1716Z" fill="black"/>
<path d="M33.0715 39.0993V38.65" stroke="black" stroke-width="0.74" stroke-miterlimit="10"/>
<path d="M30.9771 40.1841V39.6095H30.0614V39.9514H30.3049V41.7218H30.0614V42.0933H31.2071V41.7218H30.9771V40.7731C30.9771 40.6846 31.515 40.0034 31.515 40.0821V41.0246H32.1496V39.964C32.1496 39.7214 31.9902 39.5649 31.7002 39.5649C31.3583 39.5648 31.1255 39.9971 30.9771 40.1841Z" fill="black"/>
<path d="M19.7006 40.8859V40.5547H19.3439V41.7228H19.9619V42.0933H18.1499V41.7228H18.6319V39.0993H18.2533V38.6482H32.367V39.0993H19.3439V40.1528H19.7006V39.8413H20.111V40.8859H19.7006Z" fill="black"/>
<path d="M33.4008 38.6321H32.7278V39.0761H33.4008V38.6321Z" fill="black"/>
</g>
<defs>
<clipPath id="clip0_601_50057">
<rect width="20.0145" height="32" fill="white" transform="translate(16 12)"/>
</clipPath>
</defs>
</svg>
