<svg width="64" height="45" viewBox="0 0 64 45" fill="none" xmlns="http://www.w3.org/2000/svg">
<path d="M19.6874 28.983L20.1759 29.0412C20.3969 29.0644 20.4202 29.2505 20.4202 29.3669V29.9368H18.1752V29.3669C18.1752 29.2505 18.1985 29.0644 18.4195 29.0412L18.908 28.983V28.4945H16V28.983L16.4885 29.0412C16.7096 29.0644 16.7328 29.2505 16.7328 29.3669V31.2513C16.7328 31.3676 16.7096 31.5537 16.4885 31.577L16 31.6351V32.1237H18.908V31.6351L18.4195 31.577C18.1985 31.5537 18.1752 31.3676 18.1752 31.2513V30.6813H20.4086V31.2513C20.4086 31.3676 20.3853 31.5537 20.1643 31.577L19.6758 31.6351V32.1237H22.5838V31.6351L22.0952 31.577C21.8742 31.5537 21.851 31.3676 21.851 31.2513V29.3669C21.851 29.2505 21.8742 29.0644 22.0952 29.0412L22.5838 28.983V28.4945H19.6758V28.983H19.6874Z" fill="black"/>
<path d="M39.0549 28.4945H35.4722V28.983L35.9026 29.0295C36.0538 29.0528 36.1585 29.111 36.1585 29.3203V31.2396C36.1585 31.356 36.1352 31.5421 35.9142 31.5653L35.4257 31.6235V32.112H39.0549C40.3577 32.112 41.4278 31.5886 41.4278 30.2974C41.4278 29.0063 40.3577 28.4945 39.0549 28.4945ZM38.7873 31.4258H37.566V29.1924H38.7873C39.5085 29.1924 39.7528 29.5297 39.7528 30.3091C39.7528 31.0768 39.5085 31.4258 38.7873 31.4258Z" fill="black"/>
<path d="M47.5231 31.577C47.2905 31.5537 47.2207 31.4025 47.1509 31.2978L45.4759 28.7387C45.3595 28.5526 45.2665 28.4945 45.092 28.4945H42.3468V28.983L43.0099 29.0528C43.1029 29.0644 43.2309 29.1924 43.1262 29.3552L41.8815 31.3676C41.835 31.449 41.7652 31.5421 41.6256 31.5653L41.1371 31.6235V32.112H43.4519V31.6235L43.0564 31.5886C42.8819 31.5653 42.7888 31.449 42.8819 31.3094L43.068 31.007H45.3014L45.4642 31.2513C45.6155 31.4723 45.4293 31.5653 45.2665 31.577L44.8594 31.6235V32.112H48V31.6235L47.5231 31.577ZM43.4519 30.3672L44.1382 29.2505L44.871 30.3672H43.4519Z" fill="black"/>
<path d="M32.8782 28.9828L33.3667 29.041C33.5877 29.0642 33.611 29.2504 33.611 29.3667V31.1813L31.6917 28.6455C31.6103 28.5292 31.5289 28.4943 31.3195 28.4943H28.8302V28.9828L29.3187 29.041C29.5398 29.0642 29.563 29.2504 29.563 29.3667V31.2511C29.563 31.3674 29.5398 31.5535 29.3187 31.5768L28.8302 31.635V32.1235H31.1566V31.635L30.6681 31.5768C30.4471 31.5535 30.4238 31.3674 30.4238 31.2511V29.4365L32.3431 31.9607C32.4362 32.077 32.506 32.1119 32.7153 32.1119H32.7386H34.4834V29.3551C34.4834 29.2387 34.5067 29.0526 34.7277 29.0294L35.2162 28.9712V28.4826H32.9014L32.8782 28.9828Z" fill="black"/>
<path d="M25.7012 28.3663C23.3399 28.3663 22.735 29.4016 22.735 30.2973C22.735 31.1929 23.3399 32.2398 25.7012 32.2398C28.0625 32.2398 28.6674 31.2046 28.6674 30.3089C28.6674 29.4016 28.0625 28.3663 25.7012 28.3663ZM25.7012 31.5535C24.7822 31.5535 24.41 31.1697 24.41 30.3089C24.41 29.4481 24.7939 29.0642 25.7012 29.0642C26.6201 29.0642 26.9923 29.4481 26.9923 30.3089C26.9923 31.1697 26.6201 31.5535 25.7012 31.5535Z" fill="black"/>
<path d="M36.0189 13.1982C35.6234 14.9779 35.4606 15.8038 35.1349 17.0833C34.8208 18.3163 34.5765 19.4679 34.1578 20.0263C33.739 20.5962 33.1691 20.7126 32.7852 20.7591C32.5874 20.7824 32.4362 20.794 32.0058 20.794C31.5754 20.794 31.4242 20.7824 31.2265 20.7591C30.8426 20.7126 30.2727 20.5962 29.8539 20.0263C29.4351 19.4679 29.1909 18.3163 28.8884 17.0833C28.5627 15.7922 28.3999 14.9779 28.0044 13.1982C28.0044 13.1982 27.6089 13.2098 27.4344 13.2215C27.1901 13.2331 27.004 13.2564 26.8063 13.2796C26.8063 13.2796 27.0389 16.9437 27.1436 18.5025C27.2483 20.131 27.446 22.8878 27.6205 24.9699C27.6205 24.9699 27.9579 25.0281 28.5162 25.0513C29.0978 25.0862 29.3653 25.0862 29.3653 25.0862C29.6096 24.1673 29.9004 22.8994 30.2378 22.3527C30.5169 21.9107 30.9357 21.8641 31.18 21.8292C31.5522 21.7827 31.8779 21.7711 32.0175 21.7711C32.1687 21.7711 32.4828 21.7711 32.855 21.8292C33.0993 21.8641 33.518 21.9107 33.7972 22.3527C34.1345 22.8994 34.437 24.1673 34.6696 25.0862C34.6696 25.0862 34.9255 25.0862 35.5071 25.0513C36.0655 25.0164 36.4028 24.9699 36.4028 24.9699C36.5773 22.8878 36.775 20.1426 36.8797 18.5025C36.9844 16.9554 37.217 13.2796 37.217 13.2796C37.0193 13.2564 36.8215 13.2331 36.5889 13.2215C36.4144 13.2098 36.0189 13.1982 36.0189 13.1982Z" fill="black"/>
<path d="M40.6369 15.3617C40.4042 13.0353 38.8455 12.5467 37.4846 12.3141C36.7983 12.1977 35.5769 12.1047 34.7976 12.0698C34.1113 12.0233 32.506 12 32.0175 12C31.5289 12 29.9237 12.0233 29.2374 12.0698C28.458 12.1047 27.2367 12.1977 26.5504 12.3141C25.1894 12.5467 23.6307 13.0353 23.3981 15.3617C23.3283 16.0015 23.3166 16.8273 23.3283 17.7114C23.3515 19.1887 23.4795 20.1774 23.5493 20.8753C23.5958 21.3522 23.7936 22.7714 24.0495 23.5042C24.3984 24.5162 24.7125 24.807 25.0847 25.1094C25.7594 25.6561 26.8761 25.8306 27.1087 25.8771C28.365 26.0981 30.9008 26.1447 32.0291 26.1447C33.1458 26.1447 35.6932 26.1098 36.9495 25.8771C37.1821 25.8306 38.2988 25.6678 38.9735 25.1094C39.3457 24.807 39.6598 24.5162 40.0087 23.5042C40.2647 22.7714 40.4624 21.3406 40.5089 20.8753C40.5787 20.189 40.7067 19.1887 40.7299 17.7114C40.7183 16.8157 40.695 15.9898 40.6369 15.3617ZM39.7761 19.2701C39.6365 21.1312 39.4737 22.2479 39.241 23.0505C39.0316 23.7601 38.7757 24.2254 38.4035 24.5627C37.7754 25.1327 36.9146 25.249 36.4028 25.3304C35.3094 25.4933 33.4599 25.5514 32.0175 25.5514C30.5635 25.5514 28.7256 25.4933 27.6322 25.3304C27.1203 25.249 26.2596 25.1327 25.6314 24.5627C25.2592 24.2254 25.0033 23.7485 24.7939 23.0505C24.5613 22.2479 24.3868 21.1312 24.2588 19.2701C24.1774 18.1534 24.189 16.3388 24.317 15.3617C24.4915 13.896 25.2127 13.1632 26.7597 12.8957C27.4809 12.7677 28.458 12.6747 29.377 12.6281C30.1214 12.5816 31.3312 12.5583 32.0175 12.5583C32.6921 12.5467 33.9135 12.5816 34.6463 12.6281C35.5653 12.6747 36.5424 12.7677 37.2636 12.8957C38.8106 13.1748 39.5318 13.9077 39.7179 15.3617C39.8459 16.3272 39.8575 18.1418 39.7761 19.2701Z" fill="black"/>
</svg>
