<svg width="64" height="40" viewBox="0 0 64 40" fill="none" xmlns="http://www.w3.org/2000/svg">
<g clip-path="url(#clip0_601_50084)">
<path d="M21.76 23.6587V26.6133L20.7574 23.7653C20.736 23.6907 20.6827 23.6587 20.576 23.6587H19.648V27.2533H20.288V24.3307L21.28 27.136C21.3014 27.2107 21.3654 27.2427 21.44 27.2427H22.4V23.648H21.76V23.6587ZM25.0667 23.6587V27.2533H25.8134V25.7173H27.1467V25.056H25.8134V24.3093H27.168V23.648H25.0667V23.6587ZM42.1654 23.6587V24.352H42.9867V27.2533H43.7334V24.3413H44.5547V23.648H42.1547L42.1654 23.6587ZM29.76 27.2533H30.56V23.6587H29.76V27.2533ZM38.8267 27.2533H39.6267V23.6587H38.8267V27.2533ZM47.0934 27.2533H47.8827V23.6587H47.0934V27.2533ZM16.1067 27.2533H16.9067V23.6587H16.1067V27.2533ZM36.0854 23.6587H35.4454V26.6133L34.4427 23.7653C34.4214 23.6907 34.368 23.6587 34.272 23.6587H33.3334V27.2533H33.9734V24.3307L34.9654 27.136C34.9867 27.2107 35.0507 27.2427 35.1254 27.2427H36.0854V23.648V23.6587ZM35.2534 17.76L32 13.3867L28.7467 17.76C27.648 17.6533 25.76 16.9387 25.76 15.6693C25.76 14.0693 28.5334 12.576 32.0107 12.576C35.6694 12.576 38.2614 14.0693 38.2614 15.6693C38.2614 16.9493 36.3627 17.664 35.2747 17.7493M32 12.1067C27.4987 12.1067 24.3627 13.8667 24.3627 16.1387C24.3627 17.2053 25.0454 18.4 26.496 19.1253C27.8507 19.7973 29.7494 20.032 30.016 20.064L32 14.272L33.984 20.064C35.1975 19.9281 36.3839 19.6117 37.504 19.1253C38.9547 18.4 39.6374 17.2053 39.6374 16.1387C39.6267 13.856 36.5014 12.1067 32 12.1067Z" fill="#231F20"/>
</g>
<defs>
<clipPath id="clip0_601_50084">
<rect width="32" height="15.3707" fill="white" transform="translate(16 12)"/>
</clipPath>
</defs>
</svg>
