<svg width="64" height="32" viewBox="0 0 64 32" fill="none" xmlns="http://www.w3.org/2000/svg">
<g clip-path="url(#clip0_601_50102)">
<path fill-rule="evenodd" clip-rule="evenodd" d="M44.2867 13.6827C44.8089 13.7117 45.1859 14.0888 45.244 14.5821C45.273 14.8431 45.273 15.2493 45.273 15.5103C45.273 15.8295 45.273 16.0905 45.244 16.3516C45.1569 16.9609 44.7218 17.3091 44.2867 17.3091H43.9385H43.5322C43.126 17.3091 42.6617 16.9609 42.5748 16.3516C42.5458 16.0905 42.5458 15.8293 42.5458 15.5393C42.5458 15.2493 42.5458 14.8431 42.5748 14.5819C42.6328 14.0886 43.0389 13.7115 43.5611 13.6825C43.6771 13.6535 43.7642 13.6535 43.9093 13.6535L44.2867 13.6827ZM43.9963 12C44.5475 12 45.0698 12.029 45.5051 12.0869C46.7235 12.2321 47.71 13.1894 47.9129 14.379C47.9419 14.5821 48 15.0462 48 15.5105C48 16.0038 47.9419 16.4679 47.9129 16.6419C47.71 17.8605 46.7235 18.7889 45.5051 18.963C45.0698 18.992 44.5475 19.05 43.9963 19.05H43.8222C43.242 19.05 42.7489 18.992 42.2846 18.963C41.0662 18.7889 40.1088 17.8605 39.9056 16.6419C39.8766 16.4679 39.8186 16.0038 39.8186 15.5105C39.8186 15.0464 39.8766 14.5823 39.9056 14.379C40.1086 13.1894 41.0662 12.2322 42.2846 12.0869C42.7489 12.029 43.2421 12 43.7932 12H43.9963Z" fill="#003A80"/>
<path fill-rule="evenodd" clip-rule="evenodd" d="M33.5231 15.5103C33.5231 15.1332 33.5521 14.7562 33.639 14.3788C33.8421 13.1892 34.7994 12.2321 36.018 12.0868C36.4533 12.029 36.9756 12 37.5266 12C38.136 12 38.6873 12.029 39.1514 12.0869C39.3255 12.1159 39.4414 12.261 39.4414 12.4351V13.4794C39.4414 13.6825 39.2963 13.8276 39.1222 13.8276C39.1222 13.8276 38.571 13.7984 38.281 13.7984C37.9328 13.7984 37.6428 13.7984 37.3234 13.8276C36.8013 13.8566 36.4242 14.2337 36.366 14.727C36.337 14.988 36.3079 15.2493 36.3079 15.5103V15.5393C36.3079 15.8005 36.3368 16.0615 36.366 16.3226C36.4242 16.8158 36.7723 17.193 37.3234 17.251C37.6136 17.2799 37.9618 17.3091 38.281 17.3091C38.571 17.3091 39.1222 17.2801 39.1222 17.2801C39.2963 17.2801 39.4414 17.4252 39.4414 17.6283V18.6728C39.4414 18.8469 39.3255 18.992 39.1514 19.021C38.6873 19.021 38.136 19.0498 37.5266 19.0498C36.9756 19.0498 36.4533 18.9918 36.018 18.9628C34.7994 18.7887 33.8423 17.8604 33.639 16.6418C33.5521 16.2938 33.5231 15.9166 33.5231 15.5395C33.5231 14.3499 33.5231 16.7001 33.5231 15.5103Z" fill="#003A80"/>
<path fill-rule="evenodd" clip-rule="evenodd" d="M32.74 17.222C32.9429 17.222 33.088 17.3961 33.088 17.5701V18.6147C33.088 18.8177 32.9429 18.9628 32.74 18.9628H28.5912C27.8369 18.9628 27.2277 18.3536 27.2277 17.5993V13.4796C27.2277 12.7255 27.8369 12.1161 28.5912 12.1161H32.7398C32.9427 12.1161 33.0878 12.2612 33.0878 12.4353V13.4506C33.0878 13.6539 32.9427 13.7988 32.7398 13.7988H30.1869C29.9838 13.7988 29.8387 13.9149 29.8387 14.118V14.7564L32.0147 14.7274C32.1886 14.7274 32.3627 14.9015 32.3627 15.0756V15.946C32.3627 16.1491 32.1886 16.2942 32.0147 16.2942H29.8387V16.8744C29.8387 17.0774 29.9838 17.2225 30.1869 17.2225H32.74V17.222Z" fill="#003A80"/>
<path fill-rule="evenodd" clip-rule="evenodd" d="M22.1795 18.9628C21.5703 18.9628 21.0481 18.5565 20.874 18.0053L19.4525 12.5223C19.4525 12.4933 19.4525 12.4643 19.4525 12.4353C19.4525 12.2612 19.5976 12.1161 19.8007 12.1161H21.9185C22.0926 12.1161 22.2377 12.2322 22.2665 12.3772L23.369 16.9611C23.369 17.0193 23.4271 17.0771 23.5141 17.0771C23.572 17.0771 23.63 17.0191 23.63 16.9611L24.7614 12.3772C24.7904 12.232 24.9355 12.1161 25.0806 12.1161H26.2701C26.4731 12.1161 26.6182 12.2612 26.6182 12.4353C26.6182 12.4643 26.6182 12.4933 26.6182 12.5223L25.2547 17.8895C25.1096 18.4987 24.6163 18.9628 23.9202 18.9628H22.1795Z" fill="#003A80"/>
<path fill-rule="evenodd" clip-rule="evenodd" d="M16.3482 12.1159H18.408C18.6111 12.1159 18.7562 12.261 18.7562 12.4351V18.6147C18.7562 18.8177 18.6111 18.9628 18.408 18.9628H16.3482C16.1741 18.9628 16 18.8177 16 18.6147V12.4351C16 12.261 16.1741 12.1159 16.3482 12.1159Z" fill="#003A80"/>
</g>
<defs>
<clipPath id="clip0_601_50102">
<rect width="32" height="7.04978" fill="white" transform="translate(16 12)"/>
</clipPath>
</defs>
</svg>
