<svg width="64" height="56" viewBox="0 0 64 56" fill="none" xmlns="http://www.w3.org/2000/svg">
<path d="M32.2524 36.4651C36.5414 33.0904 38.5568 28.7229 39.4541 25.289C40.3721 21.7725 40.5117 18.3938 40.5085 18.273L40.5027 18.0827L40.3609 17.9665C36.8664 14.7341 32.3543 13.0064 32.1415 12.9364L32.0284 12.8987L31.9157 12.9364C31.7029 13.0064 27.2999 14.7341 23.6964 17.9665L23.5541 18.0827L23.5487 18.273C23.5451 18.3938 23.6447 21.7824 24.5995 25.289C25.4829 28.5321 27.3578 33.2188 31.8048 36.4651L32.0284 36.6284L32.2524 36.4651Z" fill="#1A377A"/>
<path fill-rule="evenodd" clip-rule="evenodd" d="M32.0338 16.1116C31.2832 16.3558 26.9449 17.811 24.3019 19.7811C24.31 21.1839 24.7772 30.2794 32.0338 35.9294C39.1219 30.2794 39.7463 21.1834 39.7544 19.7811C37.1114 17.811 32.7843 16.3558 32.0338 16.1116Z" fill="#CB9F18"/>
<path d="M31.8542 13.5046L31.8654 13.9311C31.7079 13.8211 31.4942 13.7627 31.2482 13.7627C31.1329 13.7627 30.9829 13.7915 30.8555 13.8413L30.8779 14.1331C31.0103 14.0581 31.1338 14.0433 31.2595 14.0433C31.6203 14.0433 31.8767 14.3135 31.8767 14.6717C31.8767 15.0277 31.6217 15.3001 31.2482 15.3001C31.1104 15.3001 30.9493 15.2755 30.8667 15.2328L30.8555 15.5246C30.9834 15.5547 31.1154 15.5807 31.2482 15.5807C31.4879 15.5807 31.7043 15.5273 31.8654 15.4236L31.8542 15.8051H32.0225H32.2021V15.4348C32.3587 15.5268 32.5598 15.5807 32.7856 15.5807C32.9185 15.5807 33.0505 15.5547 33.1784 15.5246L33.1672 15.2328C33.0846 15.2755 32.9234 15.3001 32.7856 15.3001C32.4126 15.3001 32.1909 15.0272 32.1909 14.6717C32.1909 14.3131 32.414 14.0433 32.7744 14.0433C32.9001 14.0433 33.0231 14.0577 33.156 14.1331L33.1784 13.8413C33.0509 13.791 32.901 13.7627 32.7856 13.7627C32.5545 13.7627 32.3561 13.8224 32.2021 13.9198V13.5046H32.0225H31.8542Z" fill="#CB9F18"/>
<path d="M32.0225 16.1081V17.2528L34.6933 17.0956C33.4014 16.566 32.3578 16.2168 32.0225 16.1081ZM32.0225 17.2528V19.4635L36.2643 19.0707L39.7207 20.4061C39.7359 20.1314 39.7422 19.915 39.7431 19.7777C39.3486 19.4837 38.9158 19.2049 38.4638 18.936L36.2643 19.0595L32.0225 17.2528ZM32.0225 19.4635V19.4747V21.6854L36.2643 21.1243L39.5299 22.2689C39.6121 21.7034 39.6556 21.2042 39.687 20.7989L36.2643 21.1131L32.0225 19.4635ZM32.0225 21.6854V23.9073L36.2643 23.1891L39.1932 24.0981C39.2992 23.6263 39.3822 23.1797 39.4513 22.7627L36.2643 23.1667L32.0225 21.6854ZM32.0225 23.9073V26.118L36.2643 25.2427L38.7107 25.916C38.831 25.5242 38.9311 25.1422 39.0249 24.7714L36.2643 25.2315L32.0225 23.9073ZM32.0225 26.118V28.34L36.2643 27.2963L38.0711 27.7228C38.1896 27.427 38.2941 27.137 38.3965 26.8475L36.2643 27.2851L32.0225 26.118ZM32.0225 28.34V30.5507L36.2643 29.3612L37.2406 29.5519C37.3273 29.3823 37.4067 29.2157 37.4875 29.047L36.2643 29.3387L32.0225 28.34ZM32.0225 30.5507V30.5619V32.7726L36.1297 31.4597C36.1458 31.4354 36.1588 31.4058 36.1746 31.3811L32.0225 30.5507ZM32.0225 32.7726V34.9945L33.7843 34.3549C34.1506 33.9846 34.494 33.6071 34.8167 33.2215L32.0225 32.7726ZM32.0225 34.9945V35.926C32.3641 35.6598 32.6868 35.3869 32.9988 35.1068L32.0225 34.9945Z" fill="#CB9F18"/>
<path d="M32.0225 16.1081C31.6876 16.2168 30.6314 16.566 29.3405 17.0956L32.0225 17.2528V16.1081ZM32.0225 17.2528L27.7806 19.0595L25.5811 18.936C25.1287 19.2054 24.6964 19.4832 24.3018 19.7777C24.3027 19.9155 24.2973 20.13 24.3131 20.4061L27.7806 19.0707L32.0225 19.4635V17.2528ZM32.0225 19.4635L27.7806 21.1131L24.3467 20.7989C24.3781 21.2051 24.4325 21.702 24.5151 22.2689L27.7806 21.1243L32.0225 21.6854V19.4635ZM32.0225 21.6854L27.7806 23.1667L24.5824 22.7627C24.652 23.1806 24.7458 23.6245 24.8517 24.0981L27.7806 23.1891L32.0225 23.9073V21.6854ZM32.0225 23.9073L27.7806 25.2315L25.0088 24.7602C25.1031 25.1319 25.2135 25.5228 25.3342 25.916L27.7806 25.2427L32.0225 26.118V23.9073ZM32.0225 26.118L27.7806 27.2851L25.6372 26.8475C25.74 27.1383 25.8549 27.4256 25.9739 27.7228L27.7806 27.2963L32.0225 28.34V26.118ZM32.0225 28.34L27.7806 29.3387L26.5462 29.047C26.6275 29.2171 26.7056 29.3809 26.7931 29.5519L27.7806 29.3612L32.0225 30.5507V28.34ZM32.0225 30.5619L27.8592 31.3811C27.874 31.4035 27.8892 31.426 27.9041 31.4484L32.0225 32.7726V30.5619ZM32.0225 32.7726L29.217 33.2215C29.538 33.6048 29.8854 33.9868 30.2494 34.3549L32.0225 34.9945V32.7726ZM32.0225 34.9945L31.035 35.118C31.3465 35.3976 31.6813 35.6602 32.0225 35.926V34.9945Z" fill="#E3B80F"/>
<path d="M29.3516 17.0991C28.1801 17.5794 26.8069 18.2105 25.5811 18.9395L27.7806 19.0629L32.0224 17.2562L29.3516 17.0991ZM27.7806 19.0741L24.3242 20.4095C24.331 20.528 24.3354 20.6614 24.3467 20.8023L27.7806 21.1165L32.0224 19.4669L27.7806 19.0741ZM27.7806 21.1277L24.515 22.2724C24.5379 22.4299 24.5545 22.5983 24.5823 22.7661L27.7806 23.1701L32.0224 21.6888L27.7806 21.1277ZM27.7806 23.1926L24.8516 24.1015C24.9001 24.3184 24.9513 24.537 25.0088 24.7636L27.7806 25.235L32.0224 23.9108L27.7806 23.1926ZM27.7806 25.2462L25.3342 25.9195C25.4276 26.2247 25.5254 26.5353 25.6372 26.8509L27.7806 27.2886L32.0224 26.1215L27.7806 25.2462ZM27.7806 27.2998L25.9738 27.7262C26.1476 28.1598 26.3352 28.6092 26.5462 29.0504L27.7806 29.3422L32.0224 28.3434L27.7806 27.2998ZM27.7806 29.3646L26.793 29.5554C27.1059 30.1667 27.4637 30.7772 27.8591 31.3845L32.0224 30.5541L27.7806 29.3646ZM27.904 31.4519C28.2981 32.052 28.7322 32.6459 29.217 33.2249L32.0224 32.7761L27.904 31.4519ZM30.2494 34.3583C30.5034 34.6156 30.7584 34.8737 31.0349 35.1214L32.0224 34.998L30.2494 34.3583Z" fill="#DA442D"/>
<path d="M34.6933 17.0991L32.0225 17.2562L36.2643 19.0629L38.4638 18.9395C37.2384 18.2105 35.8648 17.5798 34.6933 17.0991ZM36.2643 19.0741L32.0225 19.4669L36.2643 21.1165L39.6982 20.8023C39.7095 20.6596 39.7144 20.5294 39.7207 20.4095L36.2643 19.0741ZM36.2643 21.1277L32.0225 21.6888L36.2643 23.1701L39.4513 22.7661C39.4792 22.5969 39.507 22.4313 39.5299 22.2724L36.2643 21.1277ZM36.2643 23.1926L32.0225 23.9108L36.2643 25.235L39.0249 24.7749C39.0828 24.5468 39.1443 24.3197 39.1932 24.1015L36.2643 23.1926ZM36.2643 25.2462L32.0225 26.1215L36.2643 27.2886L38.3965 26.8509C38.5083 26.5344 38.6164 26.2265 38.7107 25.9195L36.2643 25.2462ZM36.2643 27.2998L32.0225 28.3434L36.2643 29.3422L37.4875 29.0504C37.6994 28.6078 37.8973 28.1612 38.0711 27.7262L36.2643 27.2998ZM36.2643 29.3646L32.0225 30.5541L36.1746 31.3845C36.57 30.7772 36.9282 30.1667 37.2406 29.5554L36.2643 29.3646ZM36.1297 31.4631L32.0225 32.7761L34.8167 33.2249C35.3001 32.6472 35.7365 32.0615 36.1297 31.4631ZM33.7843 34.3583L32.0225 34.998L32.9988 35.1102C33.273 34.8642 33.532 34.6138 33.7843 34.3583Z" fill="#C83E29"/>
<path d="M30.3168 38.6115L30.2607 39.0603L31.3492 39.0491L31.3941 38.6115H30.3168ZM17.434 38.6227L17.0188 41.9443H18.1074L18.2757 40.5641H18.2869L18.9602 41.9331H20.161L19.2857 40.205L20.464 38.6227H19.3305L18.3655 39.9469H18.3542L18.5113 38.6227H17.434ZM38.7332 39.2399C38.252 39.2408 37.9526 39.3876 37.8915 39.8795L37.712 41.3159C37.6451 41.8546 37.953 41.9448 38.3404 41.9443H39.7319C40.166 41.9435 40.4569 41.8034 40.5175 41.3159L40.5399 41.1139H39.4514C39.4096 41.3379 39.2202 41.4052 39.1035 41.4057C38.8189 41.4057 38.8171 41.1844 38.8342 41.0466L38.8566 40.8558H40.5736L40.697 39.8683C40.7598 39.3638 40.4802 39.2394 40.0461 39.2399H38.7332ZM41.808 39.2399C41.4017 39.2403 41.1158 39.3853 41.0561 39.8683L40.8878 41.2823C40.8267 41.7738 41.0741 41.9111 41.4713 41.9107H41.8304C42.0122 41.9102 42.2173 41.8873 42.3691 41.7536C42.4481 41.6845 42.4548 41.6575 42.5598 41.4506H42.5711L42.4813 42.1688H40.8429L40.7756 42.8309H42.7057C43.028 42.8309 43.4993 42.7784 43.5698 42.2137L43.9289 39.2623H42.8404L42.7955 39.6439H42.7843C42.7151 39.4109 42.5697 39.2394 42.2007 39.2399H41.808ZM44.8154 39.2399C44.4881 39.2749 44.2729 39.4457 44.2207 39.8683L44.0411 41.2823C43.9801 41.7738 44.2386 41.9111 44.6359 41.9107H44.9838C45.1656 41.9107 45.3702 41.8761 45.5224 41.7424C45.601 41.6732 45.6194 41.6575 45.7244 41.4506L45.6459 42.1576L44.0075 42.1688L43.9289 42.8309L45.8703 42.8197C46.1926 42.8192 46.6639 42.7784 46.7344 42.2137L47.0935 39.2623H46.005L45.9488 39.6326C45.8797 39.3997 45.7231 39.2394 45.3541 39.2399H44.9725C44.9218 39.2399 44.8622 39.2349 44.8154 39.2399ZM28.8579 39.2511C28.5406 39.2511 28.4274 39.3247 28.308 39.4194C28.2084 39.5101 28.1904 39.5406 28.1285 39.7H28.1173L28.1622 39.2848H27.0736L26.7482 41.9331H27.8367L28.0499 40.1937C28.0625 40.09 28.1007 39.7902 28.409 39.7897C28.7264 39.7893 28.6923 40.0479 28.6784 40.1601L28.4652 41.9331L29.5537 41.9219L29.8006 39.8907C29.8656 39.3692 29.5887 39.2506 29.2058 39.2511H28.8579ZM32.3255 39.2511C31.9192 39.2515 31.6333 39.3965 31.5736 39.8795L31.4053 41.2935C31.3442 41.785 31.6028 41.9224 32 41.9219H32.3479C32.5297 41.9219 32.7349 41.8986 32.8866 41.7648C32.9656 41.6957 32.9723 41.6687 33.0773 41.4618H33.0886L32.9988 42.18H31.3716L31.2931 42.8421H33.2345C33.5567 42.8421 34.0173 42.7896 34.0873 42.2249L34.4464 39.2735H33.3579L33.313 39.6551H33.3018C33.2327 39.4221 33.0872 39.2506 32.7182 39.2511H32.3255ZM35.3442 39.2511C35.0167 39.287 34.7904 39.4573 34.7382 39.8795L34.6933 40.2386C34.6125 40.8899 35.0053 40.9034 35.4339 40.9119L36.3429 40.9344L36.3317 41.0129C36.3218 41.0906 36.2778 41.394 35.9277 41.3945C35.8527 41.3945 35.7809 41.3815 35.7257 41.3384C35.67 41.2993 35.6341 41.2383 35.6359 41.1476H34.5586L34.5362 41.3047C34.4621 41.904 34.8675 41.9448 35.2319 41.9443H36.5674C37.0248 41.9439 37.3174 41.7702 37.3753 41.3047L37.4202 40.9568C37.4952 40.3531 37.0589 40.3365 36.6908 40.3284L35.7706 40.3172L35.793 40.1152C35.8339 39.7875 36.1243 39.7897 36.1521 39.7897C36.1943 39.7897 36.2603 39.8028 36.3205 39.8459C36.3806 39.8889 36.4322 39.9567 36.4215 40.0815H37.51L37.5324 39.8795C37.5912 39.4051 37.3533 39.2506 36.9377 39.2511H35.4901C35.4393 39.2512 35.391 39.246 35.3442 39.2511ZM21.5076 39.2623C21.1992 39.2628 20.762 39.296 20.6884 39.8907L20.5088 41.3271C20.4402 41.8788 20.7674 41.9672 21.1597 41.9668L22.5063 41.9556C22.9548 41.9551 23.256 41.7967 23.3143 41.3271L23.4939 39.8907C23.5554 39.3952 23.3139 39.2619 22.8654 39.2623H21.5076ZM24.6834 39.2623C24.2026 39.2632 23.9028 39.3997 23.8417 39.8907L23.6622 41.3271C23.5953 41.8658 23.9032 41.956 24.2906 41.9556H25.6821C26.1162 41.9547 26.4071 41.8142 26.4677 41.3271L26.4901 41.1364H25.4016C25.3598 41.3608 25.1704 41.4165 25.0537 41.4169C24.7691 41.4169 24.7673 41.1961 24.7844 41.0578L24.8068 40.8783H26.5238L26.6472 39.8907C26.7101 39.3862 26.4304 39.2619 25.9963 39.2623H24.6834ZM31.3155 39.2735L30.227 39.2848L29.9016 41.9219H30.9901L31.3155 39.2735ZM42.4701 39.7336C42.7829 39.7332 42.752 40.016 42.7394 40.1152L42.6272 41.0017C42.6186 41.0708 42.5809 41.3716 42.2681 41.372C42.0113 41.372 41.9808 41.1664 41.9987 41.0242L42.1222 40.0815C42.1419 39.9222 42.2272 39.7341 42.4701 39.7336ZM45.5449 39.7336C45.5706 39.7281 45.6043 39.7337 45.6346 39.7336C45.9475 39.7336 45.9053 40.016 45.8927 40.1152L45.7805 40.9905C45.772 41.0596 45.7343 41.3716 45.4214 41.372C45.1647 41.3725 45.1454 41.1664 45.1633 41.0242L45.2755 40.0815C45.2928 39.9421 45.3649 39.7725 45.5449 39.7336ZM32.9876 39.7449C33.3004 39.7449 33.2695 40.0272 33.2569 40.1264L33.1447 41.0129C33.1361 41.0821 33.0984 41.3828 32.7856 41.3833C32.5288 41.3837 32.4987 41.1777 32.5163 41.0354L32.6397 40.0927C32.6594 39.9329 32.7447 39.7453 32.9876 39.7449ZM39.2943 39.7785C39.4761 39.7785 39.6076 39.8858 39.5748 40.1488L39.5524 40.3284H38.9239L38.9464 40.104C38.9711 39.9056 39.1165 39.779 39.2943 39.7785ZM22.1023 39.7897C22.4152 39.7893 22.3806 40.0645 22.3717 40.1376L22.2595 41.069C22.2433 41.2028 22.2132 41.4169 21.9004 41.4169C21.5875 41.4174 21.6144 41.2028 21.631 41.069L21.7432 40.1376C21.7522 40.0645 21.7899 39.7897 22.1023 39.7897ZM25.2445 39.801C25.4263 39.801 25.5578 39.897 25.525 40.1601L25.5026 40.3396H24.8742L24.8966 40.1264C24.9213 39.9285 25.0667 39.8014 25.2445 39.801ZM40.4501 42.1576L34.4913 42.1688C34.4913 42.1688 34.4581 42.6195 34.2444 42.8309L40.3716 42.8197L40.4501 42.1576ZM30.9564 42.1688L16.9964 42.1912L16.9066 42.8533L30.8779 42.8309L30.9564 42.1688Z" fill="#181A21" fill-opacity="0.941176"/>
<path d="M32.0225 13.5081V15.8086H32.202V15.4383C32.3587 15.5303 32.5598 15.5841 32.7855 15.5841C32.9184 15.5841 33.0504 15.5581 33.1783 15.528L33.1671 15.2363C33.0845 15.2789 32.9234 15.3036 32.7855 15.3036C32.4125 15.3036 32.1908 15.0307 32.1908 14.6752C32.1908 14.3165 32.4139 14.0467 32.7743 14.0467C32.9 14.0467 33.023 14.0611 33.1559 14.1365L33.1783 13.8447C33.0508 13.7945 32.9009 13.7662 32.7855 13.7662C32.5544 13.7662 32.356 13.8259 32.202 13.9233V13.5081H32.0225Z" fill="#CB9F18"/>
<path d="M31.8542 13.5081L31.8654 13.9345C31.7079 13.8245 31.4942 13.7662 31.2482 13.7662C31.1329 13.7662 30.9829 13.7949 30.8555 13.8447L30.8779 14.1365C31.0103 14.0616 31.1338 14.0467 31.2595 14.0467C31.6203 14.0467 31.8767 14.317 31.8767 14.6752C31.8767 15.0311 31.6217 15.3036 31.2482 15.3036C31.1104 15.3036 30.9493 15.2789 30.8667 15.2363L30.8555 15.528C30.9834 15.5581 31.1154 15.5841 31.2482 15.5841C31.4879 15.5841 31.7043 15.5307 31.8654 15.427L31.8542 15.8086H32.0225V13.5081H31.8542Z" fill="#E3B80F"/>
</svg>
