<svg width="64" height="44" viewBox="0 0 64 44" fill="none" xmlns="http://www.w3.org/2000/svg">
<path d="M17.6298 31.4487C16.8895 31.3345 16.4406 31.062 16.2592 30.5572L16.1627 30.2886L16.0162 28.9308V27.5332L16.673 27.5229C17.2575 27.5138 17.3349 27.5197 17.3768 27.5766C17.4123 27.6248 17.4239 27.9392 17.4239 28.8516C17.4239 29.9964 17.4281 30.0714 17.5009 30.2206C17.5432 30.3074 17.6361 30.4226 17.7073 30.4765C17.9827 30.6851 17.9575 30.6826 19.8157 30.6824H21.5343L21.678 30.4044C21.759 30.2477 21.927 30.0135 22.0628 29.8679C22.1953 29.7257 22.3038 29.5999 22.3038 29.5882C22.3038 29.5766 22.1138 29.5623 21.8815 29.5565L21.4592 29.546L21.4678 29.403C21.4879 29.0702 21.9289 28.4362 22.3796 28.0918C22.504 27.9968 22.7278 27.8631 22.877 27.7946C23.3997 27.5548 23.4479 27.5518 26.728 27.553L29.6799 27.554L30.5722 28.2052C31.0629 28.5634 31.4825 28.8564 31.5046 28.8564C31.5547 28.8564 32.9152 28.0202 33.3206 27.7403L33.6203 27.5333L34.7654 27.5366C35.935 27.5399 35.9072 27.539 35.9577 27.5658C36.0312 27.6049 36.005 27.6273 36.005 28.8776C36.005 29.9503 36.0146 30.1861 36.0628 30.3006C36.1376 30.4784 36.2149 30.5607 36.3992 30.6588C36.5436 30.7356 36.6021 30.7391 37.935 30.7505C38.6971 30.757 39.3599 30.7525 39.4079 30.7406L39.4952 30.7188L39.505 29.1633L39.5148 27.6079H40.2093H40.9037L40.9225 29.1546L40.9412 30.7014L43.4603 30.711L45.9793 30.7206L46.0831 30.6395C46.1401 30.5949 46.2104 30.5026 46.2391 30.4342C46.2838 30.3281 46.2838 30.292 46.2391 30.1859C46.2104 30.1176 46.1403 30.0253 46.0834 29.9809L45.9799 29.9001H43.681C41.684 29.9001 41.376 29.8927 41.3354 29.8442C41.2754 29.7723 41.3374 29.3262 41.4485 29.0314C41.5344 28.8036 41.7471 28.4608 41.9333 28.2502C42.1161 28.0435 42.5623 27.7634 42.8576 27.6699C43.1161 27.5881 43.1378 27.5874 45.2769 27.5976L47.4353 27.6079L47.4462 27.9402C47.4541 28.1809 47.4438 28.2809 47.4087 28.303C47.382 28.3198 46.5191 28.3338 45.4912 28.3341C43.7158 28.3347 43.615 28.3383 43.4794 28.407C43.2358 28.5304 42.9494 28.9288 43.0035 29.0688C43.0185 29.1078 43.3815 29.1174 44.8421 29.1174C46.0467 29.1174 46.7293 29.1315 46.861 29.1593C47.1552 29.2213 47.3846 29.3508 47.5774 29.5637C47.8 29.8095 47.8795 30.0435 47.8605 30.3967C47.8296 30.9691 47.4529 31.3663 46.8486 31.4636C46.5067 31.5187 36.1688 31.5171 35.8106 31.4619C35.188 31.366 34.8707 31.1808 34.6841 30.8045L34.5598 30.5542L34.5411 29.2704C34.5288 28.4338 34.5088 27.9822 34.4834 27.9739C34.3935 27.9442 32.2513 29.3086 32.2513 29.3954L34.9212 31.5496C34.9212 31.5714 34.4533 31.4655 33.8407 31.4655H32.84L31.9488 30.8319C31.4587 30.4834 31.0341 30.1982 31.0053 30.1982C30.9538 30.1982 29.4592 31.0983 29.0662 31.3659L28.8653 31.5027L23.398 31.499C19.2344 31.4962 17.8589 31.4843 17.6298 31.4489V31.4487ZM28.3177 30.8665C28.4476 30.7831 28.9254 30.4846 29.3796 30.2031C29.8338 29.9215 30.2055 29.6719 30.2055 29.6483C30.2055 29.6092 28.3017 28.1373 27.986 27.8586C27.8717 27.7577 27.7321 28.042 27.7982 28.1521L27.6409 28.3292L25.9074 28.3345C24.0164 28.3403 23.9709 28.3549 23.8241 28.4336C23.6028 28.5521 23.1019 28.9987 23.1019 29.1362C23.1019 29.1988 23.505 29.1758 25.4312 29.1764C26.5512 29.177 27.5027 29.1741 27.5027 29.1741C27.496 29.2074 27.5003 29.5809 27.5003 29.5809L27.5027 29.844L25.776 29.8627C23.9141 29.8828 24.0067 29.8724 23.7228 30.0933C23.5686 30.2133 23.2401 30.6573 23.2969 30.7137L27.9532 30.7013L27.9647 31.0727C27.9732 31.3438 28.0159 31.0602 28.3176 30.8665L28.3177 30.8665Z" fill="url(#paint0_linear_601_50147)"/>
<path d="M16.0295 27.5073V27.8602H17.5029V27.5073H16.0295ZM39.3044 27.5282V27.8823H40.9187V27.5282H39.3044ZM33.6275 27.5294L33.4959 27.6214H34.0223C34.196 27.6172 34.3153 27.6267 34.4032 27.6424L34.402 27.8881H35.9499V27.5306L35.2697 27.5399C34.6395 27.5353 34.1934 27.5322 33.6275 27.5294H33.6275ZM27.3635 27.5504C27.0501 27.551 26.6872 27.5524 26.2687 27.5539C23.6785 27.5632 23.4691 27.5679 23.3837 27.6284C23.3837 27.6549 23.265 27.7039 23.5607 27.6832C23.6045 27.6801 23.6242 27.6879 23.6877 27.6808C24.0989 27.6874 24.7588 27.6738 26.1872 27.6738C27.7907 27.6738 29.1226 27.6811 29.1223 27.6657C29.1213 27.6161 29.2093 27.5871 29.0128 27.5702C28.7984 27.5517 28.3037 27.5484 27.3635 27.5504V27.5504ZM46.0517 27.5807C45.8069 27.5813 45.5235 27.5827 45.1967 27.5842C43.174 27.5935 43.0097 27.5994 42.943 27.6599C42.943 27.6863 42.8507 27.7342 43.0816 27.7135C43.1158 27.7104 43.1311 27.7194 43.1806 27.7123C43.5018 27.7189 44.0172 27.7053 45.1327 27.7053C46.3849 27.7053 47.4251 27.7125 47.4249 27.6971C47.4241 27.6476 47.4922 27.6185 47.3387 27.6016C47.1713 27.5832 46.7859 27.5787 46.0517 27.5807V27.5807Z" fill="url(#paint1_linear_601_50147)"/>
<path d="M42.589 29.146C42.4949 28.9934 42.815 28.5644 43.1713 28.3666C43.5744 28.1427 43.7328 28.1275 45.6567 28.1269L47.4545 28.1483L47.4824 28.4405C47.3886 28.445 47.0326 28.4463 45.6202 28.4477C43.5456 28.4498 43.5225 28.4522 43.237 28.6871C43.1454 28.7626 43.0511 28.879 43.0231 28.9514C43.0038 29.0012 43.0046 29.0433 42.9721 29.0741C42.8891 29.1165 42.7917 29.1558 42.7151 29.176C42.6805 29.1849 42.6452 29.2092 42.6242 29.1985C42.6096 29.191 42.6185 29.191 42.6054 29.1731L42.589 29.146Z" fill="url(#paint2_linear_601_50147)"/>
<path d="M22.5809 29.4157C22.5802 29.3759 22.6082 29.2616 22.6462 29.1485C22.7439 28.8569 22.9894 28.5766 23.312 28.388C23.6999 28.1612 23.8058 28.1516 25.9297 28.1495C27.1064 28.1483 27.7933 28.1495 27.7933 28.1495C27.7933 28.1495 27.7933 28.2449 27.7933 28.3178C27.7933 28.3834 27.7933 28.4945 27.7933 28.4945C27.702 28.4835 27.0598 28.497 25.9457 28.497C24 28.497 23.9074 28.4909 23.6308 28.6606C23.5626 28.7024 23.4391 28.8101 23.3636 28.8964C23.263 29.0112 23.1638 29.1143 23.114 29.2301C23.0241 29.3099 22.9087 29.3122 22.823 29.3517C22.6487 29.4319 22.5753 29.4475 22.5753 29.4475L22.5809 29.4157Z" fill="url(#paint3_linear_601_50147)"/>
<path d="M46.1866 30.4774C46.2392 30.2679 45.975 29.99 45.6781 29.9231C45.6049 29.9066 44.6407 29.9018 43.5355 29.9125C42.4302 29.9232 41.4664 29.9076 41.3907 29.9066C41.3113 29.9055 41.2801 29.9123 41.2651 29.8947C41.2356 29.8603 41.3054 29.7767 41.4432 29.6712L41.6016 29.5501L43.5461 29.5521C45.6944 29.5543 46.0003 29.5711 46.1763 29.6965C46.4762 29.91 46.5976 30.2567 46.4418 30.4542C46.3395 30.5838 46.0541 30.7625 45.9904 30.7231C46.1489 30.5934 46.1397 30.5991 46.1866 30.4774Z" fill="url(#paint4_linear_601_50147)"/>
<path d="M39.4677 30.8014C39.4065 30.7666 39.3158 30.7693 39.3025 30.7345C39.2892 30.6998 39.2849 29.938 39.2849 29.0986C39.2849 28.0267 39.2823 27.6914 39.2728 27.5183C39.3254 27.5157 39.4497 27.5729 39.5554 27.6786L39.726 27.8868L39.7148 30.7308C39.7144 30.7895 39.7211 30.8494 39.7133 30.9081C39.6062 30.8618 39.5413 30.8334 39.4677 30.8014H39.4677Z" fill="url(#paint5_linear_601_50147)"/>
<path d="M22.7454 30.8802C22.7454 30.8802 22.7253 30.6733 22.8017 30.4694C22.8833 30.2517 23.1875 29.9402 23.4253 29.8307C23.7919 29.6619 23.8716 29.6557 25.6876 29.6553C26.9471 29.6546 27.4964 29.6647 27.4964 29.6647L27.5087 29.9973C27.5087 29.9973 26.8335 29.9986 25.776 29.9986C24.76 29.9986 24.0813 30.0124 23.9954 30.0344C23.7244 30.1038 23.4356 30.3842 23.3277 30.6827C23.31 30.7318 22.81 30.8754 22.769 30.8932L22.7454 30.8802Z" fill="url(#paint6_linear_601_50147)"/>
<path d="M35.9864 31.5199C35.6763 31.4802 35.1459 31.299 34.957 31.1682C34.818 31.072 34.6366 30.8659 34.5535 30.7098C34.448 30.5116 34.405 30.0534 34.4037 29.1143C34.403 28.5979 34.4069 28.1572 34.3894 28.1464C34.3719 28.1356 33.9527 28.3768 33.4809 28.671C32.598 29.2214 32.3447 29.391 32.1733 29.47L31.4833 29.4734C31.5726 29.3899 34.186 27.7281 34.3238 27.6706C34.4184 27.6311 34.3566 27.6209 34.4018 27.6467C34.4685 27.6849 34.6887 27.767 34.7153 27.8292C34.7625 27.9393 34.7258 28.1656 34.7397 28.943C34.7642 30.3085 34.7792 30.3832 35.0912 30.6878C35.2222 30.8157 35.3749 30.9171 35.5444 30.9887C35.5444 30.9887 35.7262 31.0435 35.8189 31.0639C35.8842 31.0783 36.0167 31.0972 36.0167 31.0972L41.164 31.1068L46.4414 31.11C46.4414 31.11 46.5658 31.0903 46.6251 31.0699C46.6704 31.0543 46.7115 31.0284 46.7547 31.0076C47.435 30.6803 47.6712 30.2369 47.4266 29.7461C47.3742 29.6409 47.2641 29.4941 47.1819 29.4199C47.0998 29.3457 46.9779 29.2295 46.9844 29.2106C47.0021 29.1585 47.4138 29.3753 47.5368 29.4981C47.8442 29.805 47.9744 30.4217 47.7732 30.8329C47.5665 31.2554 47.1479 31.4752 46.5602 31.5277C46.084 31.5703 36.3236 31.563 35.9864 31.5199V31.5199Z" fill="url(#paint7_linear_601_50147)"/>
<path d="M17.6116 31.5071C17.2142 31.4504 17.0323 31.388 16.7634 31.2161C16.5037 31.0499 16.3068 30.8196 16.1677 30.5191C16.1431 30.4659 16.1146 30.4141 16.0951 30.3588C16.0785 30.3116 16.0664 30.2628 16.0577 30.2135C16.0405 30.1159 16.0344 30.0165 16.0289 29.9175C16.0119 29.6089 16.0167 28.9905 16.0167 28.9905L16.0034 27.6021C16.003 27.5608 16 27.5024 16 27.5024C16 27.5024 16.1513 27.5795 16.2598 27.673L16.4604 27.8458L16.4616 28.8106C16.463 29.8843 16.483 30.0086 16.6495 30.362C16.7497 30.5746 16.9686 30.7635 17.3219 30.9426C17.7373 31.1531 17.7278 31.1527 22.9599 31.1527H27.7579L27.9988 30.9757C28.1313 30.8783 28.645 30.5471 29.1404 30.2396C29.6358 29.9321 30.0413 29.6627 30.0414 29.6409C30.0419 29.5616 29.8155 29.3899 28.1313 28.1922C27.8068 27.9614 27.557 27.7948 27.4307 27.6796C27.5513 27.6826 27.8271 27.6866 27.9999 27.6867L28.2712 27.6869L29.0912 28.2708C29.5422 28.5919 30.0789 28.9745 30.2839 29.121C30.4888 29.2674 30.7697 29.4835 30.7428 29.5007L29.7062 30.1659C29.3908 30.3683 29.0446 30.5814 28.9421 30.6476C28.8396 30.7139 28.6342 30.8464 28.4856 30.9421C28.3369 31.0378 28.2054 31.156 28.2054 31.1764C28.2353 31.1945 28.3441 31.1899 28.5228 31.1897L28.8303 31.189L29.8827 30.5025C30.4616 30.125 30.9683 29.8055 31.0088 29.7927C31.1112 29.7602 31.1445 29.7806 32.1288 30.4812C32.6106 30.8241 33.0571 31.164 33.0981 31.1848C33.1391 31.2057 33.3551 31.1898 33.6011 31.2014C33.7794 31.2098 33.8758 31.1987 33.9956 31.219C34.6333 31.4517 34.0714 31.2489 34.9068 31.5553L32.742 31.5575C32.6272 31.4974 31.5654 30.732 31.2731 30.4946C31.139 30.3858 31.0057 30.2964 30.9768 30.296C30.9479 30.2953 30.7718 30.3997 30.5854 30.5274C30.3991 30.6551 29.9794 30.9402 29.6528 31.161L29.0589 31.5625L23.503 31.5585C19.2015 31.5554 17.8713 31.5437 17.6116 31.5068V31.5071Z" fill="url(#paint8_linear_601_50147)"/>
<path d="M36.1144 30.6669C35.8743 30.6021 35.7078 30.4799 35.6397 30.3875C35.5956 30.3276 35.5934 30.3396 35.5823 30.306C35.5718 30.2745 35.5471 30.2203 35.5422 30.1875C35.4921 29.8545 35.4959 29.0654 35.4959 29.0654V27.9176L35.704 27.7322C35.8184 27.6303 35.9186 27.5403 35.9267 27.5323C35.9348 27.5242 35.9481 27.5295 35.9793 27.5554C36.0283 27.596 36.0079 27.8145 36.008 28.9587C36.008 30.4699 36.1285 30.5089 36.4493 30.6969C36.5885 30.7337 36.3081 30.7226 36.1144 30.6669ZM17.4854 30.5888C17.2803 30.539 17.1038 30.363 17.0674 30.2615L17.0203 30.1302C16.9894 29.3721 16.968 28.6264 16.968 27.8463L17.1156 27.6988C17.2809 27.5338 17.4894 27.5031 17.4894 27.5031C17.5032 27.5318 17.499 28.1518 17.5044 28.8778C17.5162 30.4586 17.4932 30.3425 17.8322 30.5302C17.9284 30.5835 18.1162 30.6349 18.1055 30.6524C18.0827 30.6899 17.6487 30.6284 17.4854 30.5888ZM40.4157 29.3771V27.8714L40.5467 27.7565C40.6896 27.631 40.8969 27.5125 40.9247 27.5403C40.948 27.5636 40.9539 30.6451 40.9304 30.7063C40.9203 30.7325 40.8172 30.7829 40.7175 30.8183C40.5846 30.8655 40.431 30.9076 40.4338 30.8925C40.4137 30.9085 40.4157 30.3911 40.4157 29.3771H40.4157Z" fill="url(#paint9_linear_601_50147)"/>
<path d="M41.2527 29.8982C41.2539 29.7072 41.3699 29.1285 41.5299 28.801C41.7323 28.3868 42.0931 27.9889 42.424 27.8151C42.5509 27.7485 42.6745 27.6939 42.6987 27.6938C42.8333 27.6534 43.0409 27.6164 43.2184 27.6017C43.0869 27.6606 42.9767 27.6948 42.8252 27.7833C42.6195 27.8958 42.4362 27.9948 42.1522 28.3421C42.0509 28.466 41.9749 28.5723 41.8989 28.7854C41.7974 29.0701 41.7696 29.3618 41.7411 29.5454C41.6425 29.5992 41.6495 29.6241 41.2527 29.8982ZM21.3477 29.531C21.3477 29.3973 21.5259 28.9841 21.7368 28.6292C21.9805 28.2193 22.2036 28.0211 22.6167 27.8477C22.9213 27.7198 23.4739 27.5903 23.6161 27.5942C23.7019 27.5966 23.3798 27.7052 23.1989 27.7724C22.8812 27.8904 22.6926 28.0322 22.4163 28.3105C22.2451 28.4829 22.074 28.7044 21.8289 29.3165L21.7524 29.5576L21.5334 29.5543C21.377 29.5519 21.3743 29.5472 21.3477 29.531V29.531ZM28.8922 27.5533L29.6777 27.5523C30.7243 28.325 31.3148 28.7254 31.502 28.8601L31.0537 29.1374C30.051 28.4175 29.7635 28.1802 28.8922 27.5533V27.5533Z" fill="url(#paint10_linear_601_50147)"/>
<path d="M32.2065 29.9936L31.4993 29.4684H31.8617C32.0611 29.4684 32.2438 29.3885 32.2731 29.4143C32.2731 29.4143 32.8586 29.8903 34.918 31.5394C33.5901 31.1988 33.2077 30.7373 32.2065 29.9936Z" fill="url(#paint11_linear_601_50147)"/>
<path d="M21.5905 30.7184C21.5284 30.6748 21.5312 30.6573 21.6375 30.4203C21.7658 30.1343 22.2265 29.6223 22.4133 29.497C22.4854 29.4486 22.5976 29.3756 22.7001 29.3378C22.8026 29.2999 22.8996 29.2535 22.9866 29.2199C23.0389 29.1996 23.143 29.1717 23.3327 29.1735L23.6319 29.1762L23.4456 29.2426C23.0929 29.3683 22.8493 29.5171 22.5938 29.763C22.3013 30.0443 22.1247 30.3012 21.9867 30.6459C21.9338 30.7779 21.8892 30.8832 21.876 30.8913C21.7667 30.8889 21.6837 30.7826 21.5905 30.7185V30.7184Z" fill="url(#paint12_linear_601_50147)"/>
<path d="M30.5162 25.5134C29.1677 25.3718 27.9058 25.0113 26.666 24.4133C25.6327 23.9149 24.9762 23.4551 24.2756 22.7392C23.4899 21.9362 23.1067 21.349 22.7475 20.3976C22.3181 19.2605 22.4673 17.7392 23.138 16.4138C23.7029 15.2977 24.4116 14.5156 25.5237 13.7811C25.9373 13.5079 26.9625 12.982 27.2319 12.9048C27.422 12.8503 27.1378 12.957 26.8129 13.1449C26.6125 13.2559 26.4887 13.3244 26.3038 13.4341C25.8743 13.6959 25.7629 13.7886 25.3174 14.1478C24.1 15.1292 23.344 16.2934 23.0728 17.6043C22.9841 18.0328 22.9841 18.9928 23.0728 19.4212C23.3944 20.9755 24.3289 22.249 25.9227 23.305C26.8395 23.9123 27.9023 24.3596 29.1411 24.6595C30.1883 24.9129 30.5832 24.9535 31.997 24.9535C33.0275 24.9535 33.3618 24.9389 33.774 24.8756C35.0906 24.6735 36.4938 24.2182 37.4338 23.688C38.2029 23.2542 38.4585 23.103 38.5279 23.0412C38.5675 23.0058 38.745 22.9118 38.9224 22.8322C39.1348 22.7368 39.2858 22.6367 39.3653 22.5386C39.4835 22.3925 39.4915 22.3898 39.7925 22.3897C39.9728 22.3897 40.2491 22.129 40.2491 22.1539C39.8975 22.6557 39.3161 23.2136 38.9861 23.4676C38.4959 23.8457 38.1109 24.1043 37.4126 24.4364C36.2381 24.9951 35.2765 25.3214 33.7952 25.4995C32.7095 25.63 31.5542 25.6224 30.5162 25.5134Z" fill="url(#paint13_linear_601_50147)"/>
<path d="M30.4222 24.8472C29.6433 24.7643 28.5008 24.5163 27.8974 24.2992C27.4703 24.1455 26.5662 23.7503 26.3318 23.6149C26.0719 23.4647 25.4392 22.9941 25.0705 22.6767C24.5922 22.2651 23.8256 21.2989 23.892 21.1914C23.911 21.1607 24.2543 21.0329 24.3172 21.0329C24.3286 21.0329 24.392 21.1274 24.4673 21.2615C24.8097 21.8708 25.3193 22.4177 25.8868 22.8803C26.6461 23.4994 27.1936 23.7731 28.3029 24.0882C30.5907 24.738 33.2526 24.7079 35.3816 24.008C36.213 23.7348 37.0544 23.2781 37.3708 22.9285C37.4566 22.8337 38.1373 22.5937 38.1851 22.6414C38.2452 22.7015 38.0853 22.9052 37.7553 23.1887C37.1674 23.6938 35.7049 24.3239 34.5339 24.5766C33.4803 24.804 33.1088 24.8419 31.821 24.8539C31.145 24.8601 30.5155 24.8571 30.4222 24.8472Z" fill="url(#paint14_linear_601_50147)"/>
<path d="M26.28 23.405C25.9371 23.296 25.7481 23.188 25.3263 22.8606C24.3992 22.1408 23.729 21.2296 23.4331 20.2864C23.2584 19.7293 23.2186 19.3643 23.2447 18.5574C23.2648 17.9381 23.2852 17.7706 23.38 17.4488C23.616 16.6468 23.9434 16.037 24.4907 15.3797C25.7309 13.8902 28.0476 12.7666 30.4059 12.5106C31.0588 12.4397 32.2789 12.4336 32.4667 12.5002C32.6596 12.5687 32.8614 12.7921 32.9263 13.009C32.9692 13.1523 32.9636 13.1946 32.88 13.3587C32.8277 13.4613 32.7305 13.6124 32.6639 13.6944C32.5974 13.7764 32.4239 14.0008 32.2784 14.1932C32.1329 14.3855 31.7932 14.8147 31.5234 15.1469C31.2537 15.4791 30.8144 16.0561 30.5472 16.4291C30.0527 17.1196 28.9701 18.7575 28.754 19.1419C28.6885 19.2585 28.5719 19.4418 28.4949 19.5493C28.4179 19.6568 28.2859 19.8904 28.2015 20.0684C28.0602 20.3664 28.0493 20.4168 28.0637 20.7034C28.0834 21.0933 28.205 21.2962 28.5541 21.5213C29.0795 21.8602 28.602 21.8335 34.1466 21.8335H39.0924L39.5211 21.3715C39.8523 21.0145 39.9829 20.8376 40.0954 20.5937C40.2599 20.2372 40.4299 19.6805 40.5033 19.258C40.5657 18.8994 40.5268 17.939 40.4401 17.6937C40.2768 17.0298 39.9879 16.3808 39.6315 15.8145C38.9525 14.754 37.9851 13.9117 36.5867 13.1637C36.3385 13.0309 35.7045 12.725 35.7143 12.7151C35.7447 12.6847 36.6888 13.079 37.1544 13.311C38.3045 13.884 39.2933 14.7042 39.9501 15.6298C40.4369 16.3159 40.8407 17.0967 41.0398 17.8836C41.1506 18.3214 41.1642 18.7025 41.1629 19.1794C41.1602 20.1314 40.9616 20.7565 40.496 21.6644C40.1694 22.3014 40.0947 22.3829 39.6 22.6433L39.0518 22.8418L34.172 22.872C29.1914 22.9029 29.1775 22.8718 28.6921 22.7781C27.6534 22.5777 27.2278 22.3302 26.9565 21.7687C26.8219 21.4902 26.7918 20.9493 26.8893 20.5603C27.1124 19.6702 28.6431 17.2986 30.7845 14.5252C31.1922 13.9971 31.5452 13.5287 31.5689 13.4845C31.6817 13.2733 31.5688 13.1335 31.247 13.0859C31.0226 13.0526 29.8783 13.2307 29.383 13.376C28.1723 13.7311 27.7052 13.912 27.1007 14.2596C26.191 14.7828 25.4449 15.4254 24.9271 16.1318C24.3748 16.8851 24.1552 17.3591 23.9464 18.2483C23.8229 18.7741 23.8515 19.5952 24.0137 20.1789C24.3517 21.3957 25.0693 22.3415 26.3118 23.2079C26.5038 23.3418 26.6609 23.4593 26.6609 23.469C26.6609 23.5034 26.5098 23.478 26.28 23.405Z" fill="url(#paint15_linear_601_50147)"/>
<path d="M26.3043 23.4135C25.9614 23.3045 25.7724 23.1966 25.3506 22.8692C24.4235 22.1494 23.7533 21.2381 23.4574 20.295C23.2826 19.7379 23.2429 19.3729 23.269 18.566C23.2891 17.9467 23.3095 17.7792 23.4043 17.4574C23.6403 16.6554 23.9677 16.0456 24.515 15.3883C25.7552 13.8988 28.0719 12.7751 30.4302 12.5192C31.0831 12.4483 32.3032 12.4422 32.491 12.5088C32.6839 12.5773 32.8857 12.8007 32.9506 13.0176C32.9935 13.1609 32.9879 13.2032 32.9043 13.3673C32.852 13.4699 32.7548 13.621 32.6882 13.703C32.6217 13.785 32.4482 14.0094 32.3027 14.2017C32.1572 14.3941 31.8175 14.8233 31.5477 15.1555C31.2779 15.4877 30.8387 16.0647 30.5715 16.4377C30.077 17.1282 28.9944 18.7661 28.7783 19.1505C28.7128 19.2671 28.5962 19.4504 28.5192 19.5579C28.4422 19.6654 28.3102 19.899 28.2258 20.077C28.0845 20.375 28.0736 20.4254 28.088 20.7119C28.1077 21.1019 28.2293 21.3048 28.5784 21.5299C29.1038 21.8688 28.6263 21.8421 34.1709 21.8421H39.1167L39.5454 21.3801C39.8766 21.0231 40.0072 20.8462 40.1197 20.6023C40.2842 20.2458 40.4542 19.6891 40.5276 19.2666C40.59 18.908 40.5511 17.9476 40.4643 17.7023C40.3011 17.0384 39.9468 16.4476 39.5905 15.8812C38.9114 14.8207 38.0093 14.1291 36.611 13.3811C36.3628 13.2483 35.1345 12.5891 35.7386 12.7237C35.769 12.6933 36.7131 13.0876 37.1787 13.3196C38.3288 13.8926 39.3176 14.7127 39.9744 15.6384C40.4612 16.3245 40.865 17.1053 41.0641 17.8922C41.1749 18.33 41.1885 18.7111 41.1872 19.188C41.1845 20.14 40.9859 20.7651 40.5203 21.673C40.1937 22.31 40.119 22.3915 39.6243 22.6519L39.0761 22.8504L34.1963 22.8806C29.2157 22.9115 29.2018 22.8804 28.7164 22.7867C27.6776 22.5863 27.2521 22.3388 26.9808 21.7773C26.8462 21.4988 26.8161 20.9579 26.9136 20.5689C27.1367 19.6787 28.6674 17.3071 30.8088 14.5338C31.2165 14.0057 31.5695 13.5373 31.5932 13.4931C31.706 13.2819 31.5931 13.1421 31.2713 13.0944C31.0469 13.0612 29.9026 13.2393 29.4073 13.3846C28.1966 13.7397 27.7295 13.9206 27.125 14.2682C26.2153 14.7914 25.4692 15.4339 24.9514 16.1403C24.3991 16.8937 24.1795 17.3677 23.9707 18.2569C23.8472 18.7827 23.8758 19.6038 24.038 20.1875C24.376 21.4043 25.0936 22.3501 26.3361 23.2165C26.5281 23.3504 26.6852 23.4679 26.6852 23.4776C26.6852 23.512 26.5341 23.4866 26.3043 23.4135Z" fill="url(#paint16_linear_601_50147)"/>
<path d="M26.3043 23.4135C25.9614 23.3045 25.7724 23.1966 25.3506 22.8692C24.4235 22.1494 23.7533 21.2381 23.4574 20.295C23.2826 19.7379 23.2429 19.3729 23.269 18.566C23.2891 17.9467 23.3095 17.7792 23.4043 17.4574C23.6403 16.6554 23.9677 16.0456 24.515 15.3883C25.7552 13.8988 28.0719 12.7751 30.4302 12.5192C31.0831 12.4483 32.3032 12.4422 32.491 12.5088C32.6839 12.5773 32.8857 12.8007 32.9506 13.0176C32.9935 13.1609 32.9879 13.2032 32.9043 13.3673C32.852 13.4699 32.7548 13.621 32.6882 13.703C32.6217 13.785 32.4482 14.0094 32.3027 14.2017C32.1572 14.3941 31.8175 14.8233 31.5477 15.1555C31.2779 15.4877 30.8387 16.0647 30.5715 16.4377C30.077 17.1282 28.9944 18.7661 28.7783 19.1505C28.7128 19.2671 28.5962 19.4504 28.5192 19.5579C28.4422 19.6654 28.3102 19.899 28.2258 20.077C28.0845 20.375 28.0736 20.4254 28.088 20.7119C28.1077 21.1019 28.2293 21.3048 28.5784 21.5299C29.1038 21.8688 28.6263 21.8421 34.1709 21.8421H39.1167L39.5454 21.3801C39.8766 21.0231 40.0072 20.8462 40.1197 20.6023C40.2842 20.2458 40.4542 19.6891 40.5276 19.2666C40.59 18.908 40.5511 17.9476 40.4643 17.7023C40.3011 17.0384 40.0122 16.3894 39.6558 15.8231C38.9768 14.7625 38.0093 13.9203 36.611 13.1723C36.3628 13.0395 35.7288 12.7336 35.7386 12.7237C35.769 12.6933 36.7131 13.0876 37.1787 13.3196C38.3288 13.8926 39.3176 14.7127 39.9744 15.6384C40.4612 16.3245 40.865 17.1053 41.0641 17.8922C41.1749 18.33 41.1885 18.7111 41.1872 19.188C41.1845 20.14 40.9859 20.7651 40.5203 21.673C40.1937 22.31 40.119 22.3915 39.6243 22.6519L39.0761 22.8504L34.1963 22.8806C29.2157 22.9115 29.2018 22.8804 28.7164 22.7867C27.6776 22.5863 27.2521 22.3388 26.9808 21.7773C26.8462 21.4988 26.8161 20.9579 26.9136 20.5689C27.1367 19.6787 28.6674 17.3071 30.8088 14.5338C31.2165 14.0057 31.5695 13.5373 31.5932 13.4931C31.706 13.2819 31.5931 13.1421 31.2713 13.0944C31.0469 13.0612 29.9026 13.2393 29.4073 13.3846C28.1966 13.7397 27.7295 13.9206 27.125 14.2682C26.2153 14.7914 25.4692 15.4339 24.9514 16.1403C24.3991 16.8937 24.1795 17.3677 23.9707 18.2569C23.8472 18.7827 23.8758 19.6038 24.038 20.1875C24.376 21.4043 25.0936 22.3501 26.3361 23.2165C26.5281 23.3504 26.6852 23.4679 26.6852 23.4776C26.6852 23.512 26.5341 23.4866 26.3043 23.4135Z" fill="url(#paint17_linear_601_50147)"/>
<path d="M23.2448 18.5574C23.2648 17.9381 23.2853 17.7706 23.38 17.4488C23.6161 16.6468 23.9434 16.037 24.4907 15.3797C25.731 13.8902 28.0476 12.7666 30.4059 12.5106C31.0589 12.4397 32.279 12.4336 32.4667 12.5002C32.6597 12.5687 32.8615 12.7921 32.9264 13.009C32.9692 13.1523 32.9636 13.1946 32.8801 13.3587C32.8278 13.4613 32.7305 13.6124 32.664 13.6944C32.5974 13.7764 32.424 14.0008 32.2785 14.1932C32.133 14.3855 31.7932 14.8147 31.5235 15.1469C31.2537 15.4791 30.8144 16.0561 30.5473 16.4291C30.0528 17.1196 28.9701 18.7575 28.7541 19.1419C28.6886 19.2585 28.572 19.4418 28.495 19.5493C28.418 19.6568 28.2859 19.8904 28.2015 20.0684C28.0603 20.3664 28.0493 20.4168 28.0638 20.7034C28.0835 21.0933 28.205 21.2962 28.5541 21.5213C29.0796 21.8602 28.602 21.8335 34.1466 21.8335H39.0925L39.5212 21.3715C39.8523 21.0145 39.983 20.8376 40.0955 20.5937C40.2599 20.2372 40.4299 19.6805 40.5034 19.258C40.5657 18.8994 40.5269 17.939 40.4401 17.6937C40.2768 17.0298 39.9077 16.4611 39.5513 15.8948C38.8722 14.8343 37.9048 13.992 36.5064 13.244C36.2582 13.1113 35.7045 12.725 35.7144 12.7151C35.7448 12.6847 36.6889 13.079 37.1545 13.311C38.3045 13.884 39.2934 14.7042 39.9501 15.6298C40.4369 16.3159 40.8407 17.0967 41.0399 17.8836C41.1507 18.3214 41.1643 18.7025 41.1629 19.1794C41.1603 20.1314 40.9616 20.7565 40.496 21.6644C40.1694 22.3014 40.0948 22.3829 39.6 22.6433L39.0518 22.8418L34.1721 22.872C29.1915 22.9029 29.1775 22.8718 28.6921 22.7781C27.6534 22.5777 27.2279 22.3302 26.9565 21.7687C26.8219 21.4902 26.7919 20.9493 26.8894 20.5603C27.1125 19.6702 28.6431 17.2986 30.7845 14.5252C31.1923 13.9971 31.5453 13.5287 31.5689 13.4845C31.6817 13.2733 31.5689 13.1335 31.2471 13.0859C31.0226 13.0526 29.8783 13.2307 29.383 13.376C28.1724 13.7311 27.7052 13.912 27.1008 14.2596C26.191 14.7828 25.445 15.4254 24.9271 16.1318C24.3748 16.8851 24.1552 17.3591 23.9464 18.2483C23.823 18.7741 23.8516 19.5952 24.0137 20.1789C23.3098 19.5909 23.2295 19.0694 23.2448 18.5574Z" fill="url(#paint18_linear_601_50147)"/>
<path d="M23.4331 20.2864C23.2584 19.7293 23.2186 19.3643 23.2447 18.5574C23.2648 17.9381 23.2852 17.7706 23.38 17.4488C23.616 16.6468 23.9434 16.037 24.4907 15.3797C25.7309 13.8902 28.0476 12.7666 30.4059 12.5106C31.0588 12.4397 32.2789 12.4336 32.4667 12.5002C32.6596 12.5687 32.8614 12.7921 32.9263 13.009C32.9692 13.1523 32.9636 13.1946 32.88 13.3587C32.8277 13.4613 32.7305 13.6124 32.6639 13.6944C32.5974 13.7764 32.4239 14.0008 32.2784 14.1932C32.1329 14.3855 31.7932 14.8147 31.5234 15.1469C31.2537 15.4791 30.8144 16.0561 30.5472 16.4291C30.0527 17.1196 28.9701 18.7575 28.754 19.1419C28.6885 19.2585 28.5719 19.4418 28.4949 19.5493C28.4179 19.6568 28.2859 19.8904 28.2015 20.0684C28.0602 20.3664 28.0493 20.4168 28.0637 20.7034C28.0834 21.0933 28.205 21.2962 28.5541 21.5213C29.0795 21.8602 28.602 21.8335 34.1466 21.8335H39.0924L39.5211 21.3715C39.8523 21.0145 39.9829 20.8376 40.0954 20.5937C40.2599 20.2372 40.4299 19.6805 40.5033 19.258C40.5657 18.8994 40.5268 17.939 40.4401 17.6937C40.2768 17.0298 39.9879 16.3808 39.6315 15.8145C38.9525 14.754 37.9851 13.9117 36.5867 13.1637C36.3385 13.0309 35.7045 12.725 35.7143 12.7151C35.7447 12.6847 36.6888 13.079 37.1544 13.311C38.3045 13.884 39.2933 14.7042 39.9501 15.6298C40.4369 16.3159 40.8407 17.0967 41.0398 17.8836C41.1506 18.3214 41.1642 18.7025 41.1629 19.1794C41.1602 20.1314 40.9616 20.7565 40.496 21.6644C40.1694 22.3014 40.0947 22.3829 39.6 22.6433L39.0518 22.8418L34.172 22.872C29.1914 22.9029 29.1775 22.8718 28.6921 22.7781C27.6533 22.5777 27.2278 22.3302 26.9565 21.7687C26.8219 21.4902 26.7918 20.9493 26.8893 20.5603C27.1124 19.6702 28.6431 17.2986 30.7845 14.5252C31.1922 13.9971 31.5452 13.5287 31.5689 13.4845C31.6817 13.2733 31.5688 13.1335 31.247 13.0859C31.0226 13.0526 29.8783 13.2307 29.383 13.376C28.1723 13.7311 27.7052 13.912 27.1007 14.2596C26.191 14.7828 25.4449 15.4254 24.9271 16.1318C24.3748 16.8851 24.1552 17.3591 23.9464 18.2483C23.8229 18.7741 23.8515 19.5952 24.0137 20.1789C23.8162 20.2946 24.3437 21.0991 23.4331 20.2864Z" fill="url(#paint19_linear_601_50147)"/>
<path d="M23.4796 20.2398C23.3049 19.6827 23.2651 19.3178 23.2912 18.5108C23.3113 17.8916 23.3317 17.7241 23.4265 17.4022C23.6625 16.6003 23.9899 15.9904 24.5372 15.3331C25.7774 13.8437 28.0941 12.72 30.4524 12.4641C31.1053 12.3932 32.3254 12.387 32.5132 12.4537C32.7061 12.5222 32.908 12.7455 32.9728 12.9624C33.0157 13.1058 33.0101 13.148 32.9265 13.3121C32.8742 13.4148 32.777 13.5658 32.7105 13.6478C32.6439 13.7298 32.4704 13.9543 32.3249 14.1466C32.1794 14.3389 31.8397 14.7681 31.5699 15.1003C31.3002 15.4325 30.8609 16.0095 30.5937 16.3826C30.0993 17.073 29.0166 18.711 28.8006 19.0954C28.7351 19.2119 28.6185 19.3953 28.5414 19.5028C28.4644 19.6103 28.3324 19.8439 28.248 20.0219C28.1067 20.3199 28.0958 20.3702 28.1103 20.6568C28.1299 21.0468 28.2515 21.2496 28.6006 21.4748C29.126 21.8137 28.6485 21.787 34.1931 21.787H39.1389L39.5676 21.3249C39.8988 20.968 40.0294 20.791 40.142 20.5471C40.3064 20.1906 40.4764 19.6339 40.5498 19.2114C40.6122 18.8529 40.5733 17.8924 40.4866 17.6471C40.3233 16.9832 39.9541 16.4146 39.5977 15.8482C38.9187 14.7877 37.9513 13.9455 36.5529 13.1975C36.3047 13.0647 35.751 12.6785 35.7608 12.6686C35.7912 12.6381 36.7353 13.0325 37.2009 13.2645C38.351 13.8374 39.3398 14.6576 39.9966 15.5833C40.4834 16.2694 40.8872 17.0501 41.0863 17.837C41.1971 18.2749 41.2107 18.656 41.2094 19.1329C41.2067 20.0848 41.0081 20.7099 40.5425 21.6179C40.2159 22.2548 40.1412 22.3364 39.6465 22.5968L39.0983 22.7952L34.2185 22.8255C29.2379 22.8564 29.224 22.8252 28.7386 22.7316C27.6999 22.5311 27.2743 22.2836 27.003 21.7222C26.8684 21.4436 26.8383 20.9027 26.9358 20.5138C27.1589 19.6236 28.6896 17.252 30.831 14.4786C31.2387 13.9505 31.5917 13.4822 31.6154 13.4379C31.7282 13.2268 31.6153 13.087 31.2935 13.0393C31.0691 13.0061 29.9248 13.1842 29.4295 13.3295C28.2189 13.6846 27.7517 13.8654 27.1472 14.213C26.2375 14.7362 25.4914 15.3788 24.9736 16.0852C24.4213 16.8386 24.2017 17.3125 23.9929 18.2018C23.8694 18.7276 23.8981 19.5486 24.0602 20.1324C23.8627 20.2481 23.9057 20.2014 23.4796 20.2398Z" fill="url(#paint20_linear_601_50147)"/>
<g opacity="0.8">
<path d="M30.489 12.5488C31.1033 12.4808 32.2512 12.475 32.4278 12.5388C32.6094 12.6045 32.7992 12.8186 32.8603 13.0264C32.9006 13.1638 32.8953 13.2043 32.8167 13.3616C32.7675 13.46 32.676 13.6048 32.6134 13.6833C32.5508 13.7619 32.3876 13.977 32.2507 14.1614C31.2609 15.1574 31.4471 14.5914 31.5832 13.4821C31.6893 13.2798 31.5831 13.1458 31.2804 13.1001C30.8944 12.7946 31.2628 12.8456 30.489 12.5488Z" fill="url(#paint21_linear_601_50147)"/>
</g>
<path d="M31.2601 15.4058C31.0063 15.7242 30.593 16.2772 30.3417 16.6347C29.8765 17.2965 28.8579 18.8663 28.6546 19.2348C28.593 19.3465 28.4833 19.5222 28.4109 19.6252C28.3384 19.7283 28.2142 19.9522 28.1348 20.1228C28.0019 20.4083 27.9916 20.4566 28.0052 20.7313C28.0237 21.105 28.1381 21.2994 28.4665 21.5152C28.9609 21.84 28.5116 21.8145 33.728 21.8145C34.4065 22.1164 39.6992 22.6187 33.7519 22.8098C29.0661 22.8394 29.053 22.8096 28.5963 22.7198C27.6191 22.5277 27.2188 22.2905 26.9635 21.7523C26.8369 21.4854 26.8086 20.967 26.9003 20.5942C28.0568 16.5749 31.8113 14.5485 31.2601 15.4058Z" fill="url(#paint22_linear_601_50147)"/>
<path d="M30.1495 21.026C29.9384 20.7302 29.9326 20.3833 30.1311 19.9319C30.4801 19.1381 32.4556 16.3751 33.9468 14.595C34.8074 13.5678 35.1548 13.0789 35.1548 12.8949C35.1548 12.8139 35.103 12.7153 35.0015 12.6029L34.7304 12.3583L34.9726 12.4333C35.1231 12.4798 35.5525 12.623 35.6809 12.7071C35.8912 12.8449 35.8549 13.2289 35.6399 13.6033C35.5374 13.7817 35.1303 14.3082 34.7746 14.7222C33.8028 15.8536 32.6539 17.403 31.5847 19.0246C31.0167 19.8859 30.835 20.2522 30.8965 20.4124C30.9282 20.4952 30.3891 21.1233 30.2879 21.1214C30.2487 21.1207 30.1864 21.0778 30.1495 21.026Z" fill="#505050"/>
<path d="M39.2125 21.3143C39.1211 21.2133 38.895 20.7398 38.895 20.6622C38.895 20.6284 38.987 20.6283 39.0255 20.5972C39.1417 20.5033 39.2223 20.3129 39.3368 19.8619C39.6047 18.8072 39.493 17.7624 39.0036 16.745C38.401 15.4922 37.1536 14.423 35.7618 13.9662C35.5653 13.9017 35.503 13.8785 35.4615 13.8313C35.3902 13.7502 35.3994 13.72 35.5164 13.4642C35.6034 13.2741 35.6232 13.1742 35.6881 13.1648C35.7389 13.1575 35.9858 13.2562 36.3525 13.4351C38.1492 14.3118 39.328 15.4189 39.9213 16.7867C40.232 17.5032 40.2995 17.7864 40.3267 18.489C40.3604 19.3591 40.2223 19.9994 39.8386 20.7519C39.5288 21.3594 39.3635 21.4815 39.2125 21.3143Z" fill="url(#paint23_linear_601_50147)"/>
<path d="M30.6812 21.363C30.4619 21.3355 30.2594 21.1938 30.2594 21.1095C30.2594 21.0254 30.8227 20.3761 30.8932 20.3761C30.9169 20.3761 30.9292 20.4682 31.0051 20.5069C31.1299 20.5705 31.5189 20.5789 35.086 20.5944L39.0289 20.6116L39.1989 20.9198C39.3018 21.1064 39.3888 21.2862 39.3722 21.3289C39.3467 21.3941 36.9463 21.4329 33.0311 21.427C30.7012 21.4235 30.7523 21.3719 30.6812 21.363V21.363Z" fill="url(#paint24_linear_601_50147)"/>
<path opacity="0.5" d="M30.6812 21.363C30.4619 21.3355 30.2594 21.1938 30.2594 21.1095C30.2594 21.0254 30.8227 20.3761 30.8932 20.3761C30.9169 20.3761 30.9292 20.4682 31.0051 20.5069C31.1299 20.5705 31.5189 20.5789 35.086 20.5944L39.0289 20.6116L39.1989 20.9198C39.3018 21.1064 39.3888 21.2862 39.3722 21.3289C39.3467 21.3941 36.9463 21.4329 33.0311 21.427C30.7012 21.4235 30.7523 21.3719 30.6812 21.363V21.363Z" fill="url(#paint25_linear_601_50147)"/>
<path d="M30.6861 25.0995C26.5885 24.742 23.312 22.3406 22.825 19.338C22.5208 17.4617 23.3258 15.6306 25.101 14.1613C25.712 13.6556 25.8728 13.5517 26.6593 13.1534C28.1295 12.409 29.5571 12.0694 31.4279 12.0193C32.4345 11.9923 33.165 12.0378 33.9908 12.179C34.71 12.3019 34.796 12.3323 34.9983 12.5346C35.1432 12.6795 35.1792 12.7454 35.1792 12.8658C35.1792 13.0496 34.978 13.33 33.9092 14.6358C32.6401 16.1864 31.8601 17.2361 30.848 18.7556C30.0087 20.0154 29.8927 20.2962 30.0241 20.7482C30.1211 21.0821 30.4251 21.2369 30.7237 21.2938C31.1104 21.3674 31.5458 21.3501 34.4754 21.3454C36.0142 21.343 39.2783 21.35 39.3796 21.3425C39.5112 21.3329 39.588 21.2948 39.6762 21.2103C39.9787 20.8187 40.0974 20.6551 39.6973 21.3663C39.526 21.6706 39.2649 21.9065 38.9774 21.9662C38.6444 22.0354 29.8817 22.0012 29.3999 21.9289C28.979 21.8658 28.7352 21.7729 28.409 21.5513C28.2045 21.4125 28.1255 21.3256 28.0344 21.1394C27.9321 20.9302 27.9219 20.8721 27.9449 20.6258C27.9738 20.3168 28.1026 20.0012 28.3471 19.6403C28.4357 19.5096 28.5724 19.2883 28.651 19.1484C28.7296 19.0085 29.0632 18.484 29.3923 17.9827C30.2658 16.6526 31.1551 15.4412 31.788 14.7189C32.1863 14.2644 32.761 13.4779 32.8023 13.3307C32.8826 13.045 32.6581 12.6591 32.3477 12.5491C32.1362 12.4741 31.0114 12.4903 30.334 12.5779C26.6138 13.0595 23.8064 15.2045 23.3315 17.9281C23.2507 18.391 23.2502 19.3099 23.3304 19.7681C23.5519 21.0328 24.3618 22.2065 25.6445 23.1216C26.1117 23.4549 27.1345 23.9794 27.7401 24.1962C30.4875 25.1798 33.9688 25.0231 36.5852 23.7983C37.2144 23.5037 37.4842 23.3209 37.8761 22.9235L38.2206 22.5742L38.8147 22.5458C39.3821 22.5187 39.6959 22.548 39.6543 22.6152C39.6164 22.6766 38.8163 22.9896 38.4962 23.1032C38.3154 23.1673 38.1473 23.2833 37.8914 23.4442C35.9294 24.6776 33.2049 25.3192 30.686 25.0995L30.6861 25.0995Z" fill="url(#paint26_linear_601_50147)"/>
<path opacity="0.3" d="M30.7327 25.0919C26.6351 24.7344 23.3586 22.333 22.8717 19.3304C22.5674 17.4542 23.3725 15.6231 25.1477 14.1538C25.7587 13.6481 25.9194 13.5441 26.7059 13.1459C28.1761 12.4014 29.6038 12.0619 31.4745 12.0117C30.8619 12.3113 31.1953 12.536 30.3807 12.5704C26.6605 13.052 23.853 15.1969 23.3781 17.9205C23.2974 18.3834 23.2969 19.3024 23.377 19.7605C23.5985 21.0253 24.4084 22.199 25.6911 23.114C26.1583 23.4474 27.1811 23.9718 27.7867 24.1886C30.5341 25.1722 34.0154 25.0156 36.6319 23.7907C37.2611 23.4962 37.5308 23.3134 37.9227 22.9159L38.2672 22.5666L38.8614 22.5382C39.4287 22.5112 39.7425 22.5404 39.701 22.6077C39.6631 22.669 38.8629 22.982 38.5428 23.0956C38.362 23.1598 38.194 23.2758 37.9381 23.4366C35.976 24.67 33.2515 25.3117 30.7327 25.0919L30.7327 25.0919Z" fill="url(#paint27_linear_601_50147)"/>
<path d="M30.7048 25.0969C26.6073 24.7394 23.4271 22.4986 22.9402 19.496C22.6359 17.6197 23.4409 15.8208 25.2161 14.3515C25.8271 13.8458 26.0079 13.7402 26.7461 13.3099C28.1699 12.4799 29.5759 12.0669 31.4466 12.0167C32.4533 11.9897 33.1837 12.0352 34.0095 12.1764C34.7287 12.2994 34.8147 12.3297 35.0171 12.5321C35.1619 12.6769 35.1979 12.7428 35.1979 12.8632C35.1979 13.047 34.9967 13.3275 33.928 14.6332C32.6588 16.1838 31.8789 17.2335 30.8667 18.753C30.0275 20.0129 29.9114 20.2936 30.0428 20.7456C30.1399 21.0795 30.4438 21.2344 30.7424 21.2912C31.1292 21.3648 31.5645 21.3475 34.4941 21.3429C36.033 21.3404 39.2971 21.3474 39.3983 21.34C39.53 21.3303 39.6068 21.2922 39.6949 21.2077C39.9974 20.8161 40.1161 20.6526 39.716 21.3637C39.5448 21.6681 39.2837 21.904 38.9961 21.9637C38.6632 22.0328 29.9004 21.9987 29.4186 21.9264C28.9978 21.8632 28.754 21.7703 28.4277 21.5488C28.2233 21.4099 28.1442 21.323 28.0532 21.1369C27.9508 20.9276 27.9407 20.8695 27.9637 20.6233C27.9925 20.3143 28.1213 19.9987 28.3659 19.6377C28.4544 19.5071 28.5912 19.2857 28.6697 19.1458C28.7483 19.0059 29.0819 18.4814 29.4111 17.9802C30.2846 16.6501 31.1738 15.4386 31.8068 14.7163C32.205 14.2619 32.7797 13.4753 32.8211 13.3281C32.9013 13.0424 32.6769 12.6565 32.3664 12.5465C32.1549 12.4716 31.0301 12.4877 30.3528 12.5754C26.6326 13.057 23.8252 15.2019 23.3502 17.9255C23.2695 18.3884 23.269 19.3074 23.3492 19.7655C23.5707 21.0303 24.3806 22.204 25.6632 23.119C26.1305 23.4523 27.1532 23.9768 27.7589 24.1936C30.5062 25.1772 33.9875 25.0206 36.604 23.7957C37.2332 23.5012 37.5029 23.3184 37.8949 22.9209L38.2393 22.5716L38.8335 22.5432C39.4009 22.5161 39.7147 22.5454 39.6731 22.6127C39.6352 22.674 38.835 22.987 38.5149 23.1006C38.3342 23.1648 38.1661 23.2808 37.9102 23.4416C35.9481 24.675 33.2236 25.3166 30.7048 25.0969L30.7048 25.0969Z" fill="url(#paint28_linear_601_50147)"/>
<path opacity="0.5" d="M30.6861 25.0995C26.5885 24.742 23.312 22.3405 22.825 19.338C22.5208 17.4617 23.3258 15.6306 25.101 14.1613C25.712 13.6556 25.8728 13.5516 26.6593 13.1534C28.1295 12.409 29.5571 12.0694 31.4279 12.0193C31.3885 12.4268 30.7435 12.5796 30.334 12.5779C26.6138 13.0595 23.8064 15.2044 23.3315 17.928C23.2507 18.391 23.2502 19.3099 23.3304 19.768C23.5519 21.0328 24.3618 22.2065 25.6445 23.1216C26.1117 23.4549 27.1345 23.9793 27.7401 24.1962C30.4875 25.1797 33.9688 25.0231 36.5852 23.7983C37.2144 23.5037 37.4842 23.3209 37.8761 22.9235L38.2206 22.5741L38.8147 22.5458C39.3821 22.5187 39.6959 22.548 39.6543 22.6152C39.6164 22.6766 38.8163 22.9896 38.4962 23.1031C38.3154 23.1673 38.1473 23.2833 37.8914 23.4442C35.9294 24.6775 33.2049 25.3192 30.686 25.0995H30.6861Z" fill="url(#paint29_linear_601_50147)"/>
<path opacity="0.3" d="M30.7327 25.0919C26.6351 24.7344 23.3586 22.333 22.8717 19.3304C22.5674 17.4542 23.3725 15.6231 25.1477 14.1538C25.7587 13.6481 25.9194 13.5441 26.7059 13.1459C28.1761 12.4014 29.6038 12.0619 31.4745 12.0117C30.8619 12.3113 31.1953 12.536 30.3807 12.5704C26.6605 13.052 23.853 15.1969 23.3781 17.9205C23.2974 18.3834 23.2969 19.3024 23.377 19.7605C23.5985 21.0253 24.4084 22.199 25.6911 23.114C26.1583 23.4474 27.1811 23.9718 27.7867 24.1886C30.5341 25.1722 34.0154 25.0156 36.6319 23.7907C37.2611 23.4962 37.5308 23.3134 37.9227 22.9159L38.2672 22.5666L38.8614 22.5382C39.4287 22.5112 39.7425 22.5404 39.701 22.6077C39.6631 22.669 38.8629 22.982 38.5428 23.0956C38.362 23.1598 38.194 23.2758 37.9381 23.4366C35.976 24.67 33.2515 25.3117 30.7327 25.0919L30.7327 25.0919Z" fill="url(#paint30_linear_601_50147)"/>
<path opacity="0.3" d="M31.1573 21.5451C30.8205 21.537 30.1949 21.0466 30.2412 21.0859C30.5943 21.3855 32.077 21.3583 34.9783 21.3512L39.3809 21.3404L39.4931 21.2329C39.5548 21.1738 39.6934 20.9402 39.8011 20.7138C40.4398 19.3712 40.4421 18.0099 39.808 16.6853C39.5502 16.1467 39.2488 15.7216 38.7705 15.2221C38.077 14.4976 37.423 14.0054 36.3756 13.5431C35.6328 13.2153 35.6113 13.2879 35.6419 13.0817C35.6419 13.0307 35.6141 12.9652 35.5915 12.8844C35.4937 12.5354 35.5388 12.6123 36.4204 13.0729C37.6051 13.6918 38.2445 14.1134 38.9902 14.8903C40.6374 16.6064 41.047 18.821 40.0854 20.8109C39.9014 21.1915 39.6377 21.4515 39.344 21.5415C39.2132 21.5816 38.4452 21.5847 35.3764 21.5811C33.1733 21.5786 32.883 21.5867 31.1573 21.5451Z" fill="url(#paint31_linear_601_50147)"/>
<path d="M31.1572 21.432C30.5706 21.424 30.0417 20.9447 30.088 20.9835C30.4411 21.2792 32.077 21.2476 34.9782 21.2406L39.3809 21.23L39.4931 21.1239C39.5548 21.0656 39.6933 20.835 39.801 20.6116C40.4397 19.2865 40.4421 17.943 39.8079 16.6357C39.5501 16.1041 39.2487 15.6846 38.7705 15.1915C38.077 14.4765 37.423 13.9907 36.3756 13.5345C35.6328 13.211 35.6113 13.2826 35.6419 13.0792C35.6419 13.0288 35.6141 12.9641 35.5914 12.8844C35.4937 12.54 35.5842 12.7952 36.4658 13.2498C37.6505 13.8606 38.1536 14.187 38.8993 14.9538C40.5465 16.6475 41.047 18.7435 40.0854 20.7074C39.9014 21.0831 39.6376 21.3396 39.344 21.4284C39.2131 21.468 38.4452 21.4711 35.3763 21.4676C33.1732 21.4651 32.8833 21.4556 31.1572 21.432Z" fill="url(#paint32_linear_601_50147)"/>
<path opacity="0.5" d="M39.808 16.6853C39.5502 16.1467 39.2488 15.7216 38.7706 15.2221C38.0771 14.4976 37.423 14.0054 36.3757 13.5431C35.6329 13.2153 35.6114 13.2878 35.6419 13.0817C35.6419 13.0307 35.6141 12.9652 35.5915 12.8844C35.4937 12.5354 35.482 12.7258 36.3637 13.1864C37.5484 13.8054 38.2445 14.1134 38.9902 14.8903C39.6267 15.7569 39.205 15.2941 39.808 16.6853Z" fill="url(#paint33_linear_601_50147)"/>
<path opacity="0.3" d="M37.9228 22.9159L38.2673 22.5666L38.8615 22.5382C39.4288 22.5112 39.7426 22.5404 39.7011 22.6077C39.3027 23.0585 37.5384 23.3787 37.9228 22.9159Z" fill="url(#paint34_linear_601_50147)"/>
<path opacity="0.6" d="M30.7048 25.0876C26.6073 24.7301 23.4271 22.4893 22.9402 19.4867C22.6359 17.6104 23.4409 15.8115 25.2161 14.3422C25.8271 13.8365 26.0079 13.7309 26.7461 13.3005C28.1699 12.4706 29.5759 12.0576 31.4466 12.0074C32.4533 11.9804 33.1837 12.0259 34.0096 12.1671C34.7287 12.29 34.8147 12.3204 35.0171 12.5227C35.1619 12.6676 35.1979 12.7335 35.1979 12.8539C35.1979 13.0377 34.9967 13.3181 33.928 14.6239C32.6588 16.1745 31.8789 17.2242 30.8667 18.7437C30.0275 20.0036 29.9114 20.2843 30.0428 20.7363C30.1399 21.0702 30.4438 21.2251 30.7424 21.2819C31.1292 21.3555 31.5645 21.3382 34.4941 21.3335C36.033 21.3311 39.2971 21.3381 39.3983 21.3307C39.53 21.321 39.6068 21.2829 39.6949 21.1984C39.9974 20.8068 40.1161 20.6432 39.716 21.3544C39.5448 21.6587 39.2837 21.8947 38.9961 21.9544C38.6632 22.0235 29.9004 21.9894 29.4186 21.9171C28.9978 21.8539 28.754 21.761 28.4277 21.5395C28.2233 21.4006 28.1442 21.3137 28.0532 21.1276C27.9508 20.9183 27.9407 20.8602 27.9637 20.614C27.9925 20.3049 28.1213 19.9894 28.3659 19.6284C28.4544 19.4978 28.5912 19.2764 28.6697 19.1365C28.7483 18.9966 29.0819 18.4721 29.4111 17.9709C30.2846 16.6407 31.1738 15.4293 31.8068 14.707C32.205 14.2526 32.7797 13.466 32.8211 13.3188C32.9013 13.0331 32.6769 12.6472 32.3664 12.5372C32.1549 12.4623 31.0301 12.4784 30.3528 12.5661C26.6326 13.0477 23.8252 15.1926 23.3502 17.9162C23.2695 18.3791 23.269 19.2981 23.3492 19.7562C23.5707 21.0209 24.3806 22.1947 25.6632 23.1097C26.1305 23.443 27.1532 23.9675 27.7589 24.1843C30.5062 25.1679 33.9875 25.0113 36.604 23.7864C37.2332 23.4919 37.5029 23.3091 37.8949 22.9116L38.2393 22.5623L38.8335 22.5339C39.4009 22.5068 39.7147 22.5361 39.6731 22.6033C39.6352 22.6647 38.8351 22.9777 38.515 23.0913C38.3342 23.1554 38.1661 23.2714 37.9102 23.4323C35.9482 24.6657 33.2236 25.3073 30.7048 25.0876H30.7048Z" fill="url(#paint35_radial_601_50147)"/>
<defs>
<linearGradient id="paint0_linear_601_50147" x1="30.9248" y1="32.7839" x2="30.7716" y2="26.4478" gradientUnits="userSpaceOnUse">
<stop stop-color="#505050"/>
<stop offset="0.0584744" stop-color="#525252"/>
<stop offset="0.56152" stop-color="#555555"/>
<stop offset="0.786532" stop-color="#5A5A5A"/>
<stop offset="1" stop-color="#C8C8C8"/>
</linearGradient>
<linearGradient id="paint1_linear_601_50147" x1="37.9745" y1="27.363" x2="37.9745" y2="27.9654" gradientUnits="userSpaceOnUse">
<stop stop-color="#B8B8B8"/>
<stop offset="1" stop-color="#828282"/>
</linearGradient>
<linearGradient id="paint2_linear_601_50147" x1="32.8657" y1="26.7622" x2="32.7605" y2="31.3291" gradientUnits="userSpaceOnUse">
<stop stop-color="#464646"/>
<stop offset="1"/>
</linearGradient>
<linearGradient id="paint3_linear_601_50147" x1="32.8655" y1="26.7288" x2="32.7516" y2="31.4788" gradientUnits="userSpaceOnUse">
<stop stop-color="#464646"/>
<stop offset="1"/>
</linearGradient>
<linearGradient id="paint4_linear_601_50147" x1="32.8655" y1="26.3759" x2="32.7259" y2="31.636" gradientUnits="userSpaceOnUse">
<stop stop-color="#464646"/>
<stop offset="1"/>
</linearGradient>
<linearGradient id="paint5_linear_601_50147" x1="32.8655" y1="26.3759" x2="32.7259" y2="31.636" gradientUnits="userSpaceOnUse">
<stop stop-color="#464646"/>
<stop offset="1"/>
</linearGradient>
<linearGradient id="paint6_linear_601_50147" x1="32.8656" y1="26.7283" x2="32.7469" y2="31.5786" gradientUnits="userSpaceOnUse">
<stop stop-color="#464646"/>
<stop offset="1"/>
</linearGradient>
<linearGradient id="paint7_linear_601_50147" x1="32.8655" y1="26.3759" x2="32.7259" y2="31.636" gradientUnits="userSpaceOnUse">
<stop stop-color="#464646"/>
<stop offset="1"/>
</linearGradient>
<linearGradient id="paint8_linear_601_50147" x1="32.8655" y1="26.3759" x2="32.7259" y2="31.636" gradientUnits="userSpaceOnUse">
<stop stop-color="#464646"/>
<stop offset="1"/>
</linearGradient>
<linearGradient id="paint9_linear_601_50147" x1="29.5033" y1="26.61" x2="29.3903" y2="32.0692" gradientUnits="userSpaceOnUse">
<stop stop-color="#787878"/>
<stop offset="1" stop-color="#1E1E1E"/>
</linearGradient>
<linearGradient id="paint10_linear_601_50147" x1="30.8964" y1="26.6853" x2="31.0847" y2="31.128" gradientUnits="userSpaceOnUse">
<stop stop-color="#B4B4B4"/>
<stop offset="0.322353" stop-color="#828282"/>
<stop offset="1" stop-color="#3C3C3C"/>
</linearGradient>
<linearGradient id="paint11_linear_601_50147" x1="31.5759" y1="32.3394" x2="31.7623" y2="29.2454" gradientUnits="userSpaceOnUse">
<stop stop-color="#828282"/>
<stop offset="0.5" stop-color="#828282"/>
<stop offset="1" stop-color="#3C3C3C"/>
</linearGradient>
<linearGradient id="paint12_linear_601_50147" x1="31.1599" y1="28.8689" x2="31.2352" y2="31.2032" gradientUnits="userSpaceOnUse">
<stop stop-color="#828282"/>
<stop offset="0.5" stop-color="#828282"/>
<stop offset="1" stop-color="#3C3C3C"/>
</linearGradient>
<linearGradient id="paint13_linear_601_50147" x1="22.4219" y1="16.0207" x2="39.1544" y2="26.9221" gradientUnits="userSpaceOnUse">
<stop stop-color="#000032"/>
<stop offset="0.25" stop-color="#646464"/>
<stop offset="0.423823"/>
<stop offset="1" stop-color="#787878"/>
</linearGradient>
<linearGradient id="paint14_linear_601_50147" x1="23.1935" y1="23.9911" x2="40.3457" y2="23.8627" gradientUnits="userSpaceOnUse">
<stop stop-color="#999999"/>
<stop offset="0.220528" stop-color="#3C3C3C" stop-opacity="0.87451"/>
<stop offset="0.515847" stop-color="#969696"/>
<stop offset="0.752781" stop-color="#828282"/>
<stop offset="1" stop-color="#5A5A5A"/>
</linearGradient>
<linearGradient id="paint15_linear_601_50147" x1="34.4677" y1="25.5008" x2="34.4355" y2="21.2931" gradientUnits="userSpaceOnUse">
<stop/>
<stop offset="1" stop-opacity="0"/>
</linearGradient>
<linearGradient id="paint16_linear_601_50147" x1="28.6219" y1="12.6206" x2="40.9152" y2="26.6044" gradientUnits="userSpaceOnUse">
<stop stop-color="#5A5A5A"/>
<stop offset="0.268765" stop-color="#505050"/>
<stop offset="0.632019" stop-color="#666666"/>
<stop offset="0.667453" stop-color="#666666"/>
<stop offset="1" stop-color="#666666"/>
</linearGradient>
<linearGradient id="paint17_linear_601_50147" x1="28.6219" y1="12.6206" x2="40.9152" y2="26.6044" gradientUnits="userSpaceOnUse">
<stop stop-color="#5A5A5A"/>
<stop offset="0.268765" stop-color="#505050"/>
<stop offset="0.632019" stop-color="#666666"/>
<stop offset="0.667453" stop-color="#666666"/>
<stop offset="1" stop-color="#666666"/>
</linearGradient>
<linearGradient id="paint18_linear_601_50147" x1="23.8812" y1="14.0027" x2="36.4582" y2="19.4276" gradientUnits="userSpaceOnUse">
<stop stop-color="#323232" stop-opacity="0"/>
<stop offset="0.39399" stop-color="#323232" stop-opacity="0.94902"/>
<stop offset="0.466851" stop-color="#323232" stop-opacity="0.901961"/>
<stop offset="0.704071" stop-color="#E1E1E1" stop-opacity="0.498039"/>
<stop offset="1" stop-color="#C8C8C8" stop-opacity="0"/>
</linearGradient>
<linearGradient id="paint19_linear_601_50147" x1="34.3714" y1="23.3487" x2="34.4358" y2="21.2931" gradientUnits="userSpaceOnUse">
<stop/>
<stop offset="1" stop-opacity="0"/>
</linearGradient>
<linearGradient id="paint20_linear_601_50147" x1="23.3482" y1="15.1809" x2="25.0691" y2="16.9957" gradientUnits="userSpaceOnUse">
<stop stop-color="#28170B"/>
<stop offset="1" stop-color="#28170B" stop-opacity="0"/>
</linearGradient>
<linearGradient id="paint21_linear_601_50147" x1="31.6225" y1="14.0273" x2="30.9811" y2="12.576" gradientUnits="userSpaceOnUse">
<stop stop-color="#B3B3B3" stop-opacity="0"/>
<stop offset="0.160949" stop-color="#B3B3B3" stop-opacity="0.300885"/>
<stop offset="0.341789" stop-color="#B3B3B3" stop-opacity="0.87451"/>
<stop offset="0.405936" stop-color="#B3B3B3" stop-opacity="0.74902"/>
<stop offset="0.658295" stop-color="#B3B3B3" stop-opacity="0"/>
<stop offset="1" stop-color="#B3B3B3" stop-opacity="0"/>
</linearGradient>
<linearGradient id="paint22_linear_601_50147" x1="27.6407" y1="22.0053" x2="26.8152" y2="19.4832" gradientUnits="userSpaceOnUse">
<stop stop-color="#B3B3B3" stop-opacity="0"/>
<stop offset="0.12143" stop-color="#B3B3B3" stop-opacity="0.368627"/>
<stop offset="0.285824" stop-color="#B3B3B3" stop-opacity="0.87451"/>
<stop offset="0.383948" stop-color="#B3B3B3" stop-opacity="0.74902"/>
<stop offset="0.516942" stop-color="#B3B3B3" stop-opacity="0.498039"/>
<stop offset="1" stop-color="#B3B3B3" stop-opacity="0"/>
</linearGradient>
<linearGradient id="paint23_linear_601_50147" x1="36.7307" y1="12.7501" x2="39.2603" y2="20.304" gradientUnits="userSpaceOnUse">
<stop/>
<stop offset="0.552013" stop-color="#7D7D7D"/>
<stop offset="0.693304" stop-color="#969696"/>
<stop offset="0.857541" stop-color="#8A8A8A"/>
<stop offset="1" stop-color="#505050"/>
</linearGradient>
<linearGradient id="paint24_linear_601_50147" x1="30.1084" y1="20.5887" x2="38.4262" y2="22.5562" gradientUnits="userSpaceOnUse">
<stop stop-color="#323232"/>
<stop offset="0.105545" stop-color="#B4B4B6"/>
<stop offset="0.253205" stop-color="#B4B4B4"/>
<stop offset="1" stop-color="#AAAAAA"/>
</linearGradient>
<linearGradient id="paint25_linear_601_50147" x1="35.3226" y1="20.2452" x2="35.3226" y2="21.6307" gradientUnits="userSpaceOnUse">
<stop stop-color="#505050"/>
<stop offset="1" stop-color="#FAFAFA" stop-opacity="0"/>
</linearGradient>
<linearGradient id="paint26_linear_601_50147" x1="24.4918" y1="11.2741" x2="28.1535" y2="17.12" gradientUnits="userSpaceOnUse">
<stop stop-color="#8282A9"/>
<stop offset="1" stop-color="#A9A9A9" stop-opacity="0"/>
</linearGradient>
<linearGradient id="paint27_linear_601_50147" x1="39.0339" y1="22.5359" x2="34.5441" y2="24.0758" gradientUnits="userSpaceOnUse">
<stop stop-color="#FAFAFA"/>
<stop offset="0.25" stop-color="#FAFAFA" stop-opacity="0.901961"/>
<stop offset="0.5" stop-color="#E1E1E1" stop-opacity="0.498039"/>
<stop offset="1" stop-color="#C8C8C8" stop-opacity="0"/>
</linearGradient>
<linearGradient id="paint28_linear_601_50147" x1="32.3799" y1="11.3358" x2="32.2811" y2="27.221" gradientUnits="userSpaceOnUse">
<stop stop-color="#AAAAAA"/>
<stop offset="0.101807" stop-color="#BEBEBE"/>
<stop offset="0.211525" stop-color="#BEBEBE"/>
<stop offset="0.549206" stop-color="#B4B4B4"/>
<stop offset="0.673505" stop-color="#878787"/>
<stop offset="0.778718" stop-color="#969696"/>
<stop offset="1" stop-color="#AAAAAA"/>
</linearGradient>
<linearGradient id="paint29_linear_601_50147" x1="22.3584" y1="22.353" x2="26.0522" y2="19.141" gradientUnits="userSpaceOnUse">
<stop stop-color="#E6E6E6"/>
<stop offset="1" stop-color="#FAFAFA" stop-opacity="0"/>
</linearGradient>
<linearGradient id="paint30_linear_601_50147" x1="39.0339" y1="22.5359" x2="34.5441" y2="24.0758" gradientUnits="userSpaceOnUse">
<stop stop-color="#FAFAFA"/>
<stop offset="0.25" stop-color="#FAFAFA" stop-opacity="0.901961"/>
<stop offset="0.5" stop-color="#E1E1E1" stop-opacity="0.498039"/>
<stop offset="1" stop-color="#C8C8C8" stop-opacity="0"/>
</linearGradient>
<linearGradient id="paint31_linear_601_50147" x1="35.3138" y1="12.6599" x2="36.2288" y2="13.3023" gradientUnits="userSpaceOnUse">
<stop stop-color="#FAFAFA"/>
<stop offset="0.25" stop-color="#EDEDED" stop-opacity="0.74902"/>
<stop offset="0.5" stop-color="#E1E1E1" stop-opacity="0.498039"/>
<stop offset="1" stop-color="#C8C8C8" stop-opacity="0"/>
</linearGradient>
<linearGradient id="paint32_linear_601_50147" x1="30.7418" y1="21.9355" x2="39.2536" y2="13.1345" gradientUnits="userSpaceOnUse">
<stop stop-color="#969696"/>
<stop offset="0.132623" stop-color="#C0BEBE"/>
<stop offset="0.5" stop-color="#B4B4B4"/>
<stop offset="1" stop-color="#BEBEBE"/>
</linearGradient>
<linearGradient id="paint33_linear_601_50147" x1="35.1744" y1="13.1345" x2="37.0053" y2="13.4878" gradientUnits="userSpaceOnUse">
<stop stop-opacity="0"/>
<stop offset="0.109171" stop-color="#323232" stop-opacity="0.94902"/>
<stop offset="0.218341" stop-color="#323232" stop-opacity="0.901961"/>
<stop offset="0.506057" stop-color="#E1E1E1" stop-opacity="0.498039"/>
<stop offset="1" stop-color="#C8C8C8" stop-opacity="0"/>
</linearGradient>
<linearGradient id="paint34_linear_601_50147" x1="38.7931" y1="22.5359" x2="38.7841" y2="23.0961" gradientUnits="userSpaceOnUse">
<stop stop-color="#FAFAFA"/>
<stop offset="0.5" stop-color="#FAFAFA" stop-opacity="0.901961"/>
<stop offset="0.697845" stop-color="#E1E1E1" stop-opacity="0.498039"/>
<stop offset="1" stop-color="#C8C8C8" stop-opacity="0"/>
</linearGradient>
<radialGradient id="paint35_radial_601_50147" cx="0" cy="0" r="1" gradientUnits="userSpaceOnUse" gradientTransform="translate(31.7484 15.986) rotate(76.732) scale(4.40043 5.59461)">
<stop stop-color="#DCDCDC" stop-opacity="0.901961"/>
<stop offset="0.752174" stop-color="#E1E1E1" stop-opacity="0.45098"/>
<stop offset="1" stop-color="#C8C8C8" stop-opacity="0"/>
</radialGradient>
</defs>
</svg>
