<svg width="64" height="56" viewBox="0 0 64 56" fill="none" xmlns="http://www.w3.org/2000/svg">
<path d="M30.6387 31.924H33.372L36.6133 36.9333H33.8747L33.524 36.388H30.4867L30.1347 36.9347H27.3973L30.6387 31.924ZM32.0053 34.0147L31.3947 34.9627H32.616L32.0053 34.0147ZM16 35.1627C16 26.272 23.1627 19.0667 32 19.0667C40.8373 19.0667 48 26.2733 48 35.164C48 35.7627 47.968 36.3533 47.904 36.9347H46.1067C46.1787 36.3547 46.216 35.764 46.216 35.164C46.216 27.2653 39.8507 20.8627 32 20.8627C24.148 20.8627 17.7853 27.2653 17.7853 35.164C17.7853 35.764 17.8213 36.3547 17.892 36.9347H16.0973C16.0329 36.3462 16.0004 35.7547 16 35.1627ZM18.9827 31.9227H21.4227L23.0493 33.56L24.676 31.924H27.1173V36.9333H24.484V35.0933L23.0507 36.536L21.616 35.0933V36.9333H18.9827V31.9227ZM36.876 31.9227H39.4453L42.3387 34.0827V31.9227H44.972V36.9333H42.3827L39.508 34.7933V36.9333H36.8747L36.876 31.9227Z" fill="black"/>
</svg>
