<svg width="74" height="41" viewBox="0 0 74 41" fill="none" xmlns="http://www.w3.org/2000/svg">
<g clip-path="url(#clip0_601_50156)">
<path fill-rule="evenodd" clip-rule="evenodd" d="M55.8174 26.4788C55.5192 26.4788 55.2169 26.4788 54.9187 26.4788C54.9394 26.4333 54.9601 26.392 54.9808 26.3507C55.1299 26.0573 55.2832 25.9623 55.6145 25.9623C55.7677 25.9623 55.921 25.9623 56.0742 25.9623C55.9914 26.1317 55.9044 26.3052 55.8174 26.4788Z" fill="black"/>
<path fill-rule="evenodd" clip-rule="evenodd" d="M54.8482 28.4745C55.1216 27.9208 55.3991 27.3671 55.6724 26.8135C55.3742 26.8135 55.0719 26.8135 54.7737 26.8135C54.5376 27.2927 54.2974 27.7679 54.0613 28.2472C53.9785 28.4083 53.8708 28.4745 53.6803 28.4745C52.9514 28.4745 52.2225 28.4745 51.4935 28.4745C51.7917 27.8836 52.0858 27.2927 52.3798 26.6978C52.5041 26.4499 52.5496 26.4333 52.8437 26.4333C52.9307 26.4333 53.0177 26.4333 53.1046 26.4333C53.3573 26.4333 53.4774 26.3631 53.5809 26.1606C53.6223 26.078 53.6596 25.9954 53.701 25.9168C53.3904 25.9168 53.0798 25.9168 52.7692 25.9168C52.9017 25.6483 53.0384 25.3797 53.1709 25.1111C52.9762 25.1111 52.7774 25.1111 52.5828 25.1111C52.326 25.1111 52.2059 25.1772 52.1065 25.3797C52.0195 25.5574 51.9284 25.7392 51.8414 25.9168C51.6758 25.9168 51.5142 25.9168 51.3486 25.9168C51.2658 26.0904 51.1788 26.2598 51.0918 26.4333C51.2575 26.4333 51.419 26.4333 51.5847 26.4333C51.4811 26.6358 50.777 28.0447 50.6776 28.2472C50.599 28.4083 50.4871 28.4745 50.3008 28.4745C49.6505 28.4745 49.0044 28.4745 48.3583 28.4745C48.7021 27.8464 49.0459 27.2184 49.3896 26.5903C49.1535 26.5903 48.9133 26.5903 48.6772 26.5903C48.5116 26.5903 48.4412 26.6441 48.3335 26.7721C48.3335 26.6358 48.2838 26.5903 48.1554 26.5903C47.9897 26.5903 47.8241 26.5903 47.6626 26.5903C46.8508 26.5903 46.3952 26.8424 46.0432 27.4828C45.9024 27.739 45.7616 27.9952 45.6249 28.2513C45.5338 28.4125 45.4261 28.4745 45.2439 28.4745C44.8297 28.4745 44.4114 28.4745 43.9931 28.4786C43.5417 28.4786 43.3636 28.4125 43.3139 28.1728C43.26 27.9208 43.3719 27.7101 43.9807 27.3093C44.0966 27.2349 44.2085 27.1605 44.3244 27.082C44.4818 26.9787 44.5481 26.9209 44.5274 26.8093C44.5067 26.706 44.4445 26.5903 43.9517 26.5903C43.1648 26.5945 42.382 26.5945 41.5951 26.5945C41.3466 26.5945 41.2306 26.6564 41.1188 26.863C40.8662 27.3258 40.6094 27.7886 40.3568 28.2513C40.2698 28.4125 40.1621 28.4786 39.9799 28.4786C38.7208 28.4786 37.4618 28.4786 36.2027 28.4786C36.2566 28.3216 36.3104 28.1604 36.3643 28.0034C36.9938 28.0034 37.6192 28.0034 38.2487 28.0034C38.6214 28.0034 38.7747 27.9084 38.9113 27.5944C38.9693 27.4539 39.0315 27.3093 39.0894 27.1688C39.135 27.0655 39.1723 26.9126 39.0977 26.7969C39.0066 26.6647 38.7788 26.5945 38.4392 26.5945C37.8345 26.5945 37.2299 26.5945 36.6252 26.5945C36.0454 26.5945 35.7844 26.7556 35.5815 27.2308C35.4531 27.5241 35.3289 27.8216 35.2046 28.115C35.0762 28.4166 34.8733 28.4786 34.5834 28.4786C34.1526 28.4786 33.7219 28.4786 33.2871 28.4786C33.316 28.4373 33.345 28.396 33.3699 28.3546C33.6267 27.9704 33.577 27.5448 33.2374 27.1812C32.8977 26.8259 32.4546 26.7019 32.057 26.5945C31.7215 26.5945 31.3861 26.5945 31.0506 26.5903C30.8187 27.0118 30.5909 27.4332 30.3589 27.8547C30.069 28.3836 29.7543 28.4745 29.1993 28.4745C28.7934 28.4745 28.3875 28.4745 27.9817 28.4745C28.3254 27.8464 28.6692 27.2184 29.0129 26.5903C28.7768 26.5903 28.5366 26.5903 28.3006 26.5903C28.1308 26.5903 28.0603 26.6441 27.9568 26.7721C27.9568 26.6358 27.9071 26.5903 27.7746 26.5903C27.6131 26.5903 27.4474 26.5903 27.2859 26.5903C26.4741 26.5903 26.0185 26.8424 25.6665 27.4828C25.5257 27.739 25.3849 27.9952 25.2482 28.2513C25.1571 28.4125 25.0535 28.4745 24.8672 28.4745C24.2501 28.4745 23.6288 28.4745 23.0117 28.4745C23.5377 27.5159 24.0596 26.5573 24.5855 25.5987C24.6767 25.4334 24.5566 25.2268 24.366 25.2268C21.9059 25.2268 19.4458 25.2268 16.9857 25.2268C16.4846 25.2268 16.2361 25.3549 16 25.7557C17.0644 25.7557 18.1246 25.7557 19.189 25.7557C18.5968 26.8382 18.0045 27.9208 17.4123 28.9992C17.7188 28.9992 18.0252 28.9992 18.3317 28.9992C18.924 27.9208 19.5162 26.8382 20.1085 25.7598C20.5351 25.7598 20.9616 25.7598 21.3841 25.7598C20.7918 26.8382 20.1996 27.9208 19.6073 28.9992C19.9138 28.9992 20.2203 28.9992 20.5268 28.9992C21.119 27.9208 21.7113 26.8382 22.3035 25.7598C22.7301 25.7598 23.1567 25.7598 23.5791 25.7598C23.0904 26.6523 22.6017 27.5448 22.113 28.4373C22.0467 28.5571 21.9805 28.7265 22.0509 28.8463C22.113 28.9455 22.2621 28.9992 22.4858 28.9992C23.2892 28.9992 24.0968 28.9992 24.9044 28.9992C25.0246 28.9992 25.0743 28.962 25.1488 28.8752C25.1488 28.9703 25.2275 28.9992 25.3227 28.9992C26.7102 28.9992 28.0976 28.9992 29.4851 28.9992C30.3092 28.9992 30.7482 28.7596 31.1044 28.1109C31.2867 27.7803 31.4689 27.4456 31.6511 27.1109C31.6594 27.1151 31.7008 27.1233 31.7091 27.1233C32.3635 27.2473 32.6948 27.4911 32.7238 27.8629C32.7362 28.0158 32.6865 28.1563 32.5871 28.2679C32.4629 28.4001 32.2765 28.4745 32.0694 28.4786C31.6511 28.4786 31.4813 28.6397 31.3198 28.9992C32.4919 28.9992 33.6681 28.9992 34.8443 28.9992C34.9603 28.9992 35.0141 28.962 35.0845 28.8752C35.0886 28.9703 35.1673 28.9992 35.2626 28.9992C36.9979 28.9992 38.7333 28.9992 40.4727 28.9992C40.8248 28.9992 40.978 28.9083 41.152 28.586C41.3549 28.2183 41.5578 27.8464 41.7608 27.4746C41.9016 27.2225 42.0755 27.1233 42.3779 27.1233C42.6843 27.1233 42.9908 27.1233 43.2973 27.1233C43.1399 27.2308 42.9701 27.3671 42.8376 27.4993C42.6636 27.6811 42.4938 27.9249 42.4648 28.2431C42.44 28.4662 42.498 28.6563 42.6222 28.7967C42.7423 28.929 42.9246 28.9992 43.1399 28.9992C43.8564 28.9992 44.5688 28.9992 45.2853 28.9992C45.4012 28.9992 45.4551 28.962 45.5255 28.8752C45.5255 28.9703 45.6083 28.9992 45.7036 28.9992C47.2028 28.9992 48.7062 28.9992 50.2096 28.9992C50.3298 28.9992 50.3794 28.962 50.454 28.8752C50.454 28.9703 50.5327 28.9992 50.6279 28.9992C52.8478 28.9992 55.0719 28.9992 57.2959 28.9992C57.6977 28.9992 57.9006 28.8711 57.9751 28.5654C57.9834 28.5323 57.9917 28.5034 58 28.4703C56.948 28.4703 55.8961 28.4703 54.8482 28.4745ZM36.5838 27.3589C36.6749 27.0986 36.8861 27.0738 37.0766 27.0738C37.4204 27.0738 37.76 27.0738 38.1037 27.0738C38.0789 27.144 38.0582 27.2142 38.0333 27.2845C37.9505 27.5283 37.76 27.5489 37.5902 27.5489C37.234 27.5489 36.8737 27.5489 36.5175 27.5489C36.5424 27.4869 36.5631 27.4208 36.5838 27.3589ZM27.2445 28.1191C27.0995 28.3794 26.9338 28.4745 26.6274 28.4745C26.4575 28.4745 26.2877 28.4745 26.1179 28.4745C26.3002 28.1398 26.4865 27.8092 26.6688 27.4746C26.8096 27.2184 26.9794 27.1192 27.2817 27.1192C27.4515 27.1192 27.6213 27.1192 27.7911 27.1192C27.6089 27.4539 27.4267 27.7886 27.2445 28.1191ZM47.617 28.1191C47.4762 28.3794 47.3105 28.4745 47.004 28.4745C46.8342 28.4745 46.6644 28.4745 46.4946 28.4745C46.6769 28.1398 46.8632 27.8092 47.0455 27.4746C47.1821 27.2184 47.3561 27.1192 47.6584 27.1192C47.8282 27.1192 47.998 27.1192 48.1678 27.1192C47.9856 27.4539 47.8034 27.7886 47.617 28.1191Z" fill="black"/>
<path fill-rule="evenodd" clip-rule="evenodd" d="M36.1696 23.2146C36.1696 23.0617 36.1696 22.9089 36.1696 22.756C36.5671 22.756 36.9606 22.756 37.3541 22.756C37.7475 22.756 38.141 22.756 38.5344 22.756C38.5344 22.9089 38.5344 23.0617 38.5344 23.2146C38.141 23.2146 37.7475 23.2146 37.3541 23.2146C36.9606 23.2146 36.5671 23.2146 36.1696 23.2146Z" fill="black"/>
<path fill-rule="evenodd" clip-rule="evenodd" d="M37.3541 24.1691C37.6026 24.1691 37.8511 24.1691 38.0996 24.1691C38.0996 23.9294 38.0996 23.6939 38.0996 23.4543C37.8511 23.4543 37.6026 23.4543 37.3541 23.4543C37.1056 23.4543 36.8571 23.4543 36.6086 23.4543C36.6086 23.6939 36.6086 23.9294 36.6086 24.1691C36.8571 24.1691 37.1056 24.1691 37.3541 24.1691Z" fill="black"/>
<path fill-rule="evenodd" clip-rule="evenodd" d="M36.6086 22.5163C36.6045 22.1238 36.5051 21.7354 36.1862 21.4751C36.5755 21.4751 36.9648 21.4751 37.3541 21.4751C37.7434 21.4751 38.1327 21.4751 38.522 21.4751C38.2031 21.7354 38.0996 22.1238 38.0996 22.5163C37.8511 22.5163 37.6026 22.5163 37.3541 22.5163C37.1056 22.5163 36.8571 22.5163 36.6086 22.5163Z" fill="black"/>
<path fill-rule="evenodd" clip-rule="evenodd" d="M34.6331 20.7149C34.6331 20.6033 34.6331 20.4876 34.6331 20.3761C35.5401 20.3761 36.4471 20.3761 37.3541 20.3761C38.2611 20.3761 39.1681 20.3761 40.071 20.3761C40.071 20.4876 40.071 20.6033 40.071 20.7149C39.1681 20.7149 38.2611 20.7149 37.3541 20.7149C36.4471 20.7149 35.5401 20.7149 34.6331 20.7149Z" fill="black"/>
<path fill-rule="evenodd" clip-rule="evenodd" d="M34.8774 21.942C35.1963 21.8718 35.536 21.6941 35.7637 21.4751C35.449 21.4751 35.1342 21.4751 34.8195 21.4751C34.8402 21.628 34.8567 21.785 34.8774 21.942Z" fill="black"/>
<path fill-rule="evenodd" clip-rule="evenodd" d="M39.8308 21.942C39.5118 21.8718 39.1681 21.6941 38.9403 21.4751C39.2592 21.4751 39.574 21.4751 39.8887 21.4751C39.868 21.628 39.8473 21.785 39.8308 21.942Z" fill="black"/>
<path fill-rule="evenodd" clip-rule="evenodd" d="M34.542 19.6282C34.2438 17.868 33.6681 16.0335 33.0344 14.827C33.7178 15.1947 34.4467 15.7814 35.2295 16.5789C34.9023 16.4921 34.5792 16.426 34.2562 16.3764C34.7076 17.4424 35.0804 18.5291 35.42 19.6282C35.1259 19.6282 34.836 19.6282 34.542 19.6282Z" fill="black"/>
<path fill-rule="evenodd" clip-rule="evenodd" d="M40.1662 19.6282C40.4603 17.868 41.036 16.0335 41.6696 14.827C40.9904 15.1947 40.2615 15.7814 39.4787 16.5789C39.8018 16.4921 40.129 16.426 40.452 16.3764C40.0006 17.4424 39.6278 18.5291 39.2882 19.6282C39.5781 19.6282 39.8722 19.6282 40.1662 19.6282Z" fill="black"/>
<path fill-rule="evenodd" clip-rule="evenodd" d="M34.3473 20.1984C34.3473 20.0827 34.3473 19.967 34.3473 19.8554C35.3496 19.8554 36.3518 19.8554 37.3541 19.8554C38.3564 19.8554 39.3586 19.8554 40.3609 19.8554C40.3609 19.967 40.3609 20.0827 40.3609 20.1984C39.3586 20.1984 38.3564 20.1984 37.3541 20.1984C36.3518 20.1984 35.3496 20.1984 34.3473 20.1984Z" fill="black"/>
<path fill-rule="evenodd" clip-rule="evenodd" d="M36.3394 14.6411C36.8033 13.8436 37.2009 12.9387 37.3541 12.0008C37.5032 12.9387 37.9008 13.8436 38.3688 14.6411C38.2032 14.5667 38.0251 14.4882 37.8304 14.4055C37.6647 14.327 37.5943 14.3725 37.5985 14.546C37.6565 16.2401 37.905 18.1655 38.7913 19.6282C38.4434 19.6282 38.0955 19.6282 37.7476 19.6282C37.5819 19.2398 37.4535 18.8555 37.3541 18.4754C37.2547 18.8555 37.1222 19.2398 36.9607 19.6282C36.6128 19.6282 36.2649 19.6282 35.917 19.6282C36.8033 18.1655 37.0518 16.2401 37.1098 14.546C37.1139 14.3725 37.0435 14.327 36.8737 14.4055C36.679 14.4882 36.5051 14.5667 36.3394 14.6411Z" fill="black"/>
<path fill-rule="evenodd" clip-rule="evenodd" d="M34.3473 21.2355C34.3473 21.1198 34.3473 21.0082 34.3473 20.8925C35.3496 20.8925 36.3518 20.8925 37.3541 20.8925C38.3564 20.8925 39.3586 20.8925 40.3609 20.8925C40.3609 21.0082 40.3609 21.1198 40.3609 21.2355C39.3586 21.2355 38.3564 21.2355 37.3541 21.2355C36.3518 21.2355 35.3496 21.2355 34.3473 21.2355Z" fill="black"/>
</g>
<defs>
<clipPath id="clip0_601_50156">
<rect width="42" height="17" fill="white" transform="translate(16 12)"/>
</clipPath>
</defs>
</svg>
