<svg width="68" height="30" viewBox="0 0 68 30" fill="none" xmlns="http://www.w3.org/2000/svg">
<g clip-path="url(#clip0_601_50174)">
<path d="M22.7232 17.6171H24.2574V14.4198H23.3673C22.9909 14.4198 22.7376 14.5943 22.4771 14.8244C22.1949 15.0941 21.1744 16.0621 21.1744 16.0621V14.4277H20.2698C19.756 14.4277 19.4955 14.6261 19.2132 14.872C19.0106 15.0307 16 17.6171 16 17.6171H17.8237L19.633 15.9827V17.6171H21.1021L22.7232 16.0065V17.6171ZM26.0739 17.6171H28.5562V16.792H26.5226C26.3344 16.792 26.1318 16.665 26.1318 16.2604V16.2049C26.1318 15.8478 26.2982 15.6971 26.5153 15.6971H28.5562V14.8641H26.0232C24.9883 14.8641 24.5758 15.356 24.5758 16.1176V16.3715C24.5758 17.26 25.0245 17.6171 26.0739 17.6171H26.0739ZM31.6174 17.6171V16.7761H30.4306V14.4277H28.8891V17.625H31.6174V17.6171ZM34.5991 16.546C34.5991 16.7047 34.5412 16.7999 34.3675 16.7999H33.5352C33.3905 16.7999 33.2964 16.7523 33.2964 16.6333C33.2964 16.5063 33.3543 16.4349 33.5352 16.4349H34.5991V16.546ZM36.1333 16.546V15.9431C36.1333 15.2528 35.7208 14.8641 34.8379 14.8641H32.0878V15.6574H34.2951C34.5195 15.6574 34.5991 15.7368 34.5991 15.9272V15.9589H32.8405C32.1023 15.9589 31.8418 16.3001 31.8418 16.7444V16.8316C31.8386 16.9192 31.8517 17.0066 31.8803 17.0884C31.9089 17.1702 31.9525 17.2448 32.0082 17.3076C32.2253 17.5298 32.6378 17.6012 33.1951 17.6012H34.7221C35.7208 17.6171 36.1333 17.3711 36.1333 16.546H36.1333ZM38.0077 15.6971H38.9702V14.8641H37.0017C36.6833 14.8641 36.4807 15.0465 36.4807 15.356V17.6171H38.0222V15.6971H38.0077ZM41.9808 15.8478C41.9808 15.9669 41.9301 16.0383 41.7564 16.0383H40.6637V15.9272C40.6637 15.7685 40.7216 15.6733 40.9025 15.6733H41.742C41.8795 15.6733 41.9808 15.7209 41.9808 15.8478H41.9808ZM43.4354 15.7844V15.6733C43.4354 15.2211 43.2038 14.872 42.1255 14.872H40.5406C39.5419 14.872 39.1294 15.2449 39.1294 16.0541V16.5302C39.1294 17.2204 39.5419 17.6171 40.4321 17.6171H43.2473V16.8158H40.9676C40.7433 16.8158 40.6637 16.7444 40.6637 16.554V16.5302H42.4295C43.0519 16.5222 43.4354 16.3001 43.4354 15.7844H43.4354ZM47.8283 17.6171V16.0779C47.8283 15.1179 47.4085 14.8641 46.1638 14.8641H43.7249V17.6171H45.2664V15.7606H45.6789C46.1421 15.7606 46.294 16.0541 46.294 16.3715V17.625H47.8283L47.8283 17.6171Z" fill="black"/>
<path d="M50.7014 12C49.9198 12 48.798 12.2539 47.5822 12.7378C46.5043 13.1702 45.4709 13.726 44.4993 14.396C45.4311 14.0166 46.4147 13.8127 47.4085 13.793C48.7836 13.793 49.7823 14.3722 48.3276 16.4111C52.6192 13.3408 52.4961 12 50.7014 12Z" fill="black"/>
</g>
<defs>
<clipPath id="clip0_601_50174">
<rect width="36" height="5.625" fill="white" transform="translate(16 12)"/>
</clipPath>
</defs>
</svg>
