<svg width="58" height="56" viewBox="0 0 58 56" fill="none" xmlns="http://www.w3.org/2000/svg">
<g clip-path="url(#clip0_601_50228)">
<path fill-rule="evenodd" clip-rule="evenodd" d="M17.4639 39.408V14.072C17.4639 14.072 17.5519 12.656 16.7999 12.176V12H26.5599C27.4102 11.9996 28.2589 12.0746 29.0959 12.224C30.3314 12.443 31.4817 13.0011 32.4183 13.836C33.3549 14.6709 34.041 15.7497 34.3999 16.952C34.7777 18.1839 34.8631 19.487 34.6492 20.7576C34.4354 22.0283 33.9282 23.2316 33.1679 24.272C32.4322 25.2217 31.5679 26.0645 30.5999 26.776C30.3839 26.928 30.2559 27.008 30.0319 27.152C31.3236 29.1033 32.3739 31.2039 33.1599 33.408C33.8304 35.3323 34.3362 37.3101 34.6719 39.32C34.8799 40.984 35.3759 41.152 35.4719 41.184V41.368H29.6319V41.184C29.8079 41.088 31.3919 40.384 31.3999 37.928C31.3336 35.8502 30.9115 33.7991 30.1519 31.864C29.6729 30.5386 29.1036 29.2475 28.4479 28C27.3229 28.4526 26.1578 28.7981 24.9679 29.032C24.2079 29.176 23.4399 29.296 22.4879 29.4C21.5359 29.504 20.8879 29.552 20.3679 29.584V39.424C20.3679 39.64 20.4239 40.8 21.1679 41.2V41.384H16.6639V41.2C17.3919 40.816 17.4639 39.64 17.4639 39.424M26.6879 13.664H20.3439V27.76C21.7179 27.6858 23.0815 27.4795 24.4159 27.144C29.0399 25.776 31.2479 22.552 31.2799 18.752C31.2799 16.544 30.4799 15.192 29.6799 14.472C29.1611 14.0727 28.5454 13.8186 27.8959 13.736C27.5064 13.6818 27.1132 13.6578 26.7199 13.664M26.0799 29.216V30.704C27.0892 30.6426 28.0937 30.5197 29.0879 30.336C29.3599 30.96 29.5999 31.552 29.7679 32.008V32.072C29.2639 32.16 28.7279 32.232 28.1679 32.296C27.3679 32.392 26.5679 32.44 26.0959 32.472V42.072C26.0959 42.28 26.1439 43.416 26.8959 43.808V44H22.4719V43.824C23.1839 43.448 23.2719 42.296 23.2719 42.088V29.728C24.2215 29.6064 25.1641 29.4355 26.0959 29.216M31.9119 29.408C33.3752 28.7709 34.6188 27.7176 35.488 26.379C36.3571 25.0405 36.8133 23.4759 36.7999 21.88C36.7999 19.712 36.0559 18.4 35.1999 17.68L35.0479 17.6C34.9839 17.344 34.9199 17.096 34.8399 16.856C34.6773 16.3704 34.4739 15.8994 34.2319 15.448C34.3839 15.448 34.5279 15.496 34.6639 15.52C35.8746 15.737 37.0018 16.2845 37.9209 17.1019C38.8399 17.9193 39.5152 18.9749 39.8719 20.152C40.2454 21.3633 40.3306 22.645 40.1209 23.8951C39.9111 25.1452 39.4122 26.3289 38.6639 27.352C37.9414 28.2808 37.0933 29.1047 36.1439 29.8C35.9359 29.952 35.8079 30.032 35.5919 30.176C36.8566 32.0865 37.8829 34.1444 38.6479 36.304C39.3041 38.1905 39.8044 40.1277 40.1439 42.096C40.3359 43.696 40.8239 43.856 40.9439 43.888V44H35.1999V43.824C35.3759 43.736 36.9279 43.096 36.9359 40.672C36.8777 38.6352 36.4663 36.624 35.7199 34.728C35.2338 33.434 34.6646 32.1727 34.0159 30.952C33.7279 31.08 33.3119 31.224 32.8559 31.376C32.5599 30.688 32.2559 30.064 31.9119 29.432M30.6159 16.888H26.0799V26.04C25.5006 26.3116 24.9016 26.5389 24.2879 26.72C23.9484 26.8203 23.604 26.9031 23.2559 26.968V17.288C23.2559 17.288 23.3359 15.904 22.5599 15.432V15.256H29.8159C30.1899 15.7286 30.4623 16.2733 30.6159 16.856" fill="black"/>
</g>
<defs>
<clipPath id="clip0_601_50228">
<rect width="25.6" height="32" fill="white" transform="translate(16 12)"/>
</clipPath>
</defs>
</svg>
