<svg width="64" height="56" viewBox="0 0 64 56" fill="none" xmlns="http://www.w3.org/2000/svg">
<path d="M30.9314 12.0363C39.7479 11.4463 47.3737 18.1151 47.9637 26.9314C48.5537 35.7481 41.8848 43.3734 33.0682 43.9637C24.2514 44.5537 16.6259 37.8849 16.0359 29.0683C15.6264 22.9528 18.747 17.1406 24.0709 14.1033C26.1723 12.9052 28.5177 12.1983 30.9314 12.0363ZM31.4146 13.3964C23.3488 13.7171 17.0703 20.5156 17.3913 28.5809C17.7119 36.6465 24.5103 42.9248 32.5761 42.6042C40.6415 42.2832 46.92 35.485 46.5994 27.4194C46.404 22.5075 43.7526 18.0229 39.5427 15.4843C37.0956 14.0067 34.2679 13.2804 31.4116 13.3964H31.4146Z" fill="#0D392E"/>
<path d="M28.4451 15.6766C29.9792 15.153 31.5941 14.93 33.2069 15.0191C33.3763 15.0109 33.5451 15.0409 33.7021 15.107C35.4723 16.5622 36.8733 18.4412 37.7841 20.5817C38.7707 23.0516 39.1349 25.7402 38.8419 28.3955C38.6614 30.327 38.2145 32.2215 37.5145 34.0218H38.7745C38.8976 33.6915 39.0089 33.3582 39.1379 33.031C40.6048 33.2237 41.9656 33.923 43 35.0155C41.9694 36.1153 40.6051 36.8158 39.1349 37C39.0148 36.6758 38.8946 36.3547 38.7833 36.0305C34.9211 36.0305 31.0561 36.0305 27.1939 36.0305C27.0005 36.0438 26.8147 36.1132 26.6577 36.2304C26.2328 36.4516 25.8137 36.6819 25.3888 36.9031C25.2332 36.9773 25.0615 37.0085 24.8907 36.9939C24.3925 36.9939 23.8944 36.9939 23.3933 36.9939C22.3416 35.8345 21.4904 34.4971 20.8762 33.0401H24.29C24.5329 33.0144 24.7784 33.041 25.0108 33.1189C25.5773 33.3713 26.144 33.627 26.7104 33.8854C27.1382 34.146 27.651 33.9915 28.1228 34.0308C28.0504 32.7789 27.7006 31.5607 27.1001 30.4709C26.4619 29.4171 25.5732 28.5503 24.5185 27.9531C23.105 27.1672 21.58 26.6179 20 26.3262C20.2107 24.5998 20.759 22.9362 21.6117 21.4361C22.7234 21.6976 23.8167 22.0357 24.8848 22.4481C26.0306 22.8698 27.1151 23.4518 28.1082 24.1781L28.4276 24.0175C27.7858 23.277 27.0629 22.6162 26.2738 22.0481C25.1512 21.2016 23.9767 20.4315 22.7574 19.7425C23.7821 18.4479 25.0413 17.3726 26.4643 16.5764C27.438 16.9872 28.3482 17.5438 29.166 18.2276C30.4093 19.2589 31.5633 20.4006 32.615 21.6391L33.0252 21.527C31.9703 19.2426 30.2912 17.3217 28.4451 15.6766ZM34.1534 29.3862C33.3361 29.6553 32.8843 30.5581 33.1445 31.4034C33.4047 32.2484 34.2779 32.7156 35.0955 32.4466C35.9128 32.1775 36.3643 31.2744 36.1044 30.4294C36.0068 30.1128 35.8166 29.8349 35.5599 29.6347C35.1573 29.3217 34.6337 29.2293 34.1534 29.3862Z" fill="#0D392E"/>
</svg>
