<svg width="73" height="56" viewBox="0 0 73 56" fill="none" xmlns="http://www.w3.org/2000/svg">
<g clip-path="url(#clip0_601_50264)">
<path d="M45.5055 26.7591C45.5055 26.7591 43.8159 27.3254 40.5476 29.6551C37.6176 31.7471 36.4687 33.1527 36.4687 33.1527L27.4294 25.9064C27.4294 25.9064 31.2323 22.6626 34.4097 25.1471L38.6721 28.5387L39.192 28.142L27.4313 18.5845C27.4313 18.5845 29.1215 18.0175 32.3879 15.6893C35.3197 13.5965 36.4687 12.1902 36.4687 12.1902L45.5073 19.4365C45.5073 19.4365 41.7051 22.6803 38.527 20.1958L34.2646 16.8035L33.7447 17.1995L45.5055 26.7591Z" fill="#E20A17"/>
<path d="M38.505 36.6443H31.6253V38.4189H34.9485L31.5083 42.1442V43.631H38.4922V41.8493H35.0173L38.505 38.1332V36.6443Z" fill="#003399"/>
<path d="M27.5747 43.8098C30.326 43.8098 31.0307 42.9946 31.0307 41.1973V36.6441H28.851V40.9251C28.851 41.6442 28.3207 42.0726 27.5747 42.0726C26.7987 42.0726 26.2995 41.642 26.2995 40.9138V36.6441H24.1199V41.1973C24.1199 42.9946 24.8245 43.8098 27.5747 43.8098Z" fill="#003399"/>
<path d="M42.499 43.8098C45.2504 43.8098 45.955 42.9946 45.955 41.1973V36.6441H43.7747V40.9251C43.7747 41.6442 43.2438 42.0726 42.499 42.0726C41.723 42.0726 41.222 41.642 41.222 40.9138V36.6441H39.043V41.1973C39.043 42.9946 39.7476 43.8098 42.499 43.8098Z" fill="#003399"/>
<path d="M56.8361 36.6443H54.5632V43.631H56.8361V36.6443V36.6443Z" fill="#003399"/>
<path d="M54.2169 36.6443H51.2265L48.8067 39.0552V36.6443H46.5332V43.631H48.8067V41.1529L51.054 43.631H54.1078L50.784 40.0464L54.2169 36.6443Z" fill="#003399"/>
<path d="M18.7472 38.5748C18.7472 38.0346 19.4372 38.0169 19.67 38.0169C19.9035 38.0169 20.4295 38.1251 20.7873 38.806H23.3577C23.3577 37.4895 22.2819 36.4424 19.678 36.4424C16.7858 36.4424 16.2933 37.9144 16.2933 38.76C16.2933 40.319 17.3343 40.7757 19.5981 41.0557C19.7919 41.079 20.9695 41.0147 20.9695 41.6715C20.9695 42.158 20.3076 42.1905 20.0638 42.1905C19.8218 42.1905 19.3689 42.1445 18.9947 41.3717H16.1641C16.1641 42.906 17.0558 43.7926 20.0595 43.7926C22.8262 43.7926 23.5606 42.4825 23.5606 41.4863C23.5606 40.5191 22.9883 39.5349 20.6294 39.1849C19.6457 39.0372 18.7472 38.9749 18.7472 38.5748Z" fill="#003399"/>
</g>
<defs>
<clipPath id="clip0_601_50264">
<rect width="41" height="32" fill="white" transform="translate(16 12)"/>
</clipPath>
</defs>
</svg>
