<svg width="64" height="56" viewBox="0 0 64 56" fill="none" xmlns="http://www.w3.org/2000/svg">
<path d="M32.0003 18.3394C34.6892 18.3394 37.0794 19.4348 38.8225 21.1778C40.6154 22.9207 41.6609 25.3606 41.6609 28.05C41.6609 30.6891 40.6154 33.1291 38.8225 34.8721C37.0796 36.615 34.6892 37.7106 32.0003 37.7106C29.3111 37.7106 26.9208 36.6152 25.1282 34.8721C23.3853 33.1291 22.2898 30.6892 22.2898 28.05C22.2898 25.3608 23.3853 22.9208 25.1282 21.1778C26.9208 19.4348 29.3111 18.3394 32.0003 18.3394ZM32.0003 18.4885C29.361 18.4885 26.9708 19.584 25.2774 21.2774C23.5344 23.0202 22.439 25.4106 22.439 28.0498C22.439 30.6889 23.5344 33.0793 25.2774 34.7723C26.9706 36.5152 29.361 37.5611 32.0003 37.5611C34.6394 37.5611 37.0299 36.5154 38.7227 34.7723C40.4656 33.0793 41.5116 30.6889 41.5116 28.0498C41.5116 25.4106 40.4656 23.0202 38.7227 21.2774C37.0299 19.5842 34.6394 18.4885 32.0003 18.4885Z" fill="#C5C5C1"/>
<path d="M32.0002 13.2101C35.3864 13.2101 38.5239 14.3552 41.0134 16.2478L42.6565 14.6045L45.545 17.4926L43.9018 19.1858C45.7444 21.6759 46.7898 24.7131 46.7898 27.9998C46.7898 36.1667 40.1669 42.8396 32.0001 42.8396C23.8332 42.8396 17.21 36.1667 17.21 27.9998C17.2101 19.8333 23.8334 13.2101 32.0002 13.2101ZM32.0002 16.6959C25.7754 16.6959 20.696 21.7751 20.696 27.9998C20.696 34.2746 25.7754 39.3041 32.0002 39.3041C38.225 39.3041 43.3041 34.2746 43.3041 27.9998C43.3041 21.7751 38.225 16.6959 32.0002 16.6959Z" fill="url(#paint0_radial_601_50304)"/>
<path d="M32.0002 16.6459C35.1375 16.6459 37.9759 17.891 40.0674 19.9825C42.1088 22.0242 43.4038 24.8626 43.4038 28.0497C43.4038 31.187 42.109 34.0251 40.0674 36.1169C37.9758 38.1583 35.1374 39.4533 32.0002 39.4533C28.8628 39.4533 25.9747 38.1585 23.933 36.1169C21.8912 34.025 20.5964 31.1869 20.5964 28.0497C20.5964 24.8626 21.8912 22.0242 23.933 19.9825C25.9747 17.891 28.8628 16.6459 32.0002 16.6459ZM32.0002 16.7956C28.9128 16.7956 26.0742 18.0404 24.0325 20.0821C21.9907 22.1236 20.7458 24.9125 20.7458 28.0498C20.7458 31.1372 21.9906 33.9756 24.0325 36.0174C26.0742 38.0091 28.9128 39.3039 32.0002 39.3039C35.0876 39.3039 37.926 38.0091 39.9679 36.0174C42.0092 33.9756 43.2544 31.1372 43.2544 28.0498C43.2544 24.9125 42.0092 22.1236 39.9679 20.0821C37.926 18.0404 35.0876 16.7956 32.0002 16.7956Z" fill="url(#paint1_linear_601_50304)"/>
<path d="M32.0002 13.1104C35.3864 13.1104 38.5735 14.2557 41.0635 16.1978L41.0135 16.2478C38.5239 14.3552 35.3864 13.2101 32.0003 13.2101C23.8335 13.2101 17.2103 19.8333 17.2103 27.9998C17.2103 36.1667 23.8335 42.8396 32.0003 42.8396C40.1672 42.8396 46.7901 36.1667 46.7901 27.9998C46.7901 24.7133 45.7447 21.6759 43.9021 19.1858L43.9517 19.1358C45.7943 21.6259 46.8898 24.6635 46.8898 27.9998C46.8898 32.133 45.1968 35.8679 42.5076 38.5569C39.8184 41.2462 36.1335 42.8896 32.0003 42.8896C27.9167 42.8896 24.182 41.2463 21.4931 38.5569C18.8039 35.8181 17.1106 32.133 17.1106 27.9998C17.1106 23.9165 18.8039 20.1818 21.4931 17.4926C24.1818 14.8033 27.8669 13.1104 32.0002 13.1104Z" fill="url(#paint2_radial_601_50304)"/>
<path d="M32.0003 16.7456C38.225 16.7456 43.3042 21.7752 43.3042 28.05C43.3042 34.2747 38.225 39.3539 32.0003 39.3539C25.7755 39.3539 20.696 34.2747 20.696 28.05C20.696 21.7751 25.7755 16.7456 32.0003 16.7456ZM32.0003 18.3394C26.6718 18.3394 22.3393 22.6719 22.3393 28.05C22.3393 33.3784 26.6718 37.7105 32.0003 37.7105C37.3287 37.7105 41.6608 33.3783 41.6608 28.05C41.6608 22.6717 37.3287 18.3394 32.0003 18.3394Z" fill="url(#paint3_radial_601_50304)"/>
<path opacity="0.67" d="M22.8267 31.0638H17.5315C17.6621 31.6859 17.8431 32.2883 18.0494 32.8794H23.645C23.3134 32.3078 23.0369 31.7015 22.8267 31.0638Z" fill="url(#paint4_linear_601_50304)"/>
<path opacity="0.86" d="M41.1806 31.0638H46.476C46.3452 31.6859 46.1642 32.2883 45.9579 32.8794H40.3623C40.694 32.3078 40.9706 31.7015 41.1806 31.0638Z" fill="url(#paint5_linear_601_50304)"/>
<path d="M46.7404 24.265C47.0889 25.4603 47.2382 26.7051 47.2382 27.9998C47.2382 29.3446 47.0392 30.6394 46.7404 31.8842H17.3098V31.8342H46.6905C47.0393 30.5894 47.1887 29.2946 47.1887 27.9502C47.1885 26.6554 47.0392 25.4106 46.7404 24.265Z" fill="#1A171B"/>
<path d="M17.2601 24.2155H46.7405C47.0393 25.4106 47.1885 26.6554 47.1885 27.9502C47.1885 29.2946 47.0393 30.5894 46.6903 31.8342H17.3098C16.9611 30.5894 16.762 29.2946 16.762 27.9502C16.762 26.6554 16.9611 25.4106 17.2601 24.2155Z" fill="url(#paint6_radial_601_50304)"/>
<path d="M43.2543 13.6085L46.541 16.8952L44.1009 19.3352L44.2503 19.5343L42.5073 20.9289L41.9594 21.1281L45.545 17.4926L42.6565 14.6045L39.0713 18.19L39.2208 17.6919L43.2543 13.6085Z" fill="url(#paint7_linear_601_50304)"/>
<path d="M39.9678 13.2597C42.8558 14.8035 45.1964 17.1938 46.7899 20.0322V13.2597H39.9678Z" fill="url(#paint8_radial_601_50304)"/>
<path d="M39.9678 13.2597C42.8558 14.8035 45.1964 17.1938 46.7899 20.0322" stroke="#B1B0A8" stroke-width="0.3402" stroke-linecap="round"/>
<path d="M39.9678 13.2597C42.8062 14.8035 45.1964 17.1938 46.7402 20.0322" stroke="#CBCAC4" stroke-width="0.2361" stroke-linecap="round"/>
<path d="M39.918 13.2597C42.8063 14.8035 45.1466 17.1938 46.7404 20.0821" stroke="#E6E6E1" stroke-width="0.1324" stroke-linecap="round"/>
<path d="M46.7899 13.1104C46.8399 13.1104 46.8896 13.1601 46.8896 13.2596H39.9678H39.8682C39.8682 13.1601 39.9178 13.1104 39.9678 13.1104H46.7899Z" fill="url(#paint9_linear_601_50304)"/>
<path d="M46.8897 20.0321C46.8897 20.1318 46.84 20.1818 46.79 20.1818L46.7405 20.0821V13.1104C46.7405 13.1104 46.7405 13.1104 46.79 13.1104C46.84 13.1104 46.8897 13.1601 46.8897 13.2596V20.0321Z" fill="url(#paint10_linear_601_50304)"/>
<path d="M17.3136 24.2728C17.0147 25.468 16.8154 26.7128 16.8154 28.0076C16.8154 28.1147 16.8523 28.7493 16.8549 28.8556L16.9413 29.8175C16.9399 29.7397 16.9021 28.172 16.9021 28.094C16.9021 26.7992 17.1179 25.5983 17.4167 24.4031L27.849 24.3592L32.3517 24.2728H17.3136Z" fill="url(#paint11_linear_601_50304)"/>
<path d="M42.6567 26.2569C44.0016 26.2569 45.0973 27.0539 45.0973 28.05C45.0973 29.0458 44.0018 29.8426 42.6567 29.8426C41.3624 29.8426 40.2668 29.0458 40.2668 28.05C40.2668 27.0539 41.3623 26.2569 42.6567 26.2569ZM42.6567 29.2946C43.1049 29.2946 43.5035 28.7468 43.5035 28.0498C43.5035 27.3029 43.105 26.755 42.6567 26.755C42.1591 26.755 41.8106 27.3029 41.8106 28.0498C41.8106 28.7468 42.1591 29.2946 42.6567 29.2946ZM27.5184 26.3069C28.8629 26.3069 29.9584 27.1037 29.9584 28.0498C29.9584 29.0456 28.8629 29.8424 27.5184 29.8424C26.2237 29.8424 25.128 29.0456 25.128 28.0498C25.1282 27.1035 26.2237 26.3069 27.5184 26.3069ZM27.5184 29.2946C27.9666 29.2946 28.3651 28.7468 28.3651 28.0498C28.3651 27.3528 27.9666 26.8046 27.5184 26.8046C27.0203 26.8046 26.6718 27.3528 26.6718 28.0498C26.6718 28.7468 27.0203 29.2946 27.5184 29.2946ZM40.5653 26.4066V26.8546H39.7685L38.2249 29.7426H36.3823L34.8387 26.8546H34.042V26.4066H37.4284V26.8546H36.5816L37.7769 28.8963L38.8224 26.8546H38.2249V26.4066H40.5653ZM33.2951 26.4066V26.8546H32.4981V29.1948C32.4981 29.1948 33.0459 29.1948 33.3449 29.1948C33.6437 29.1948 34.3407 28.996 34.3907 28.199C34.7888 28.199 34.8885 28.199 34.8885 28.199V29.7426H30.9543H30.1577V29.1948H30.9543V26.8546H30.1577V26.4066H33.2951ZM25.427 26.4066V26.8546H24.6301L23.0864 29.7426H21.2438L19.7002 26.8546H18.9034V26.4066H22.2898V26.8546H21.4432L22.6383 28.8963L23.7338 26.8546H23.0863V26.4066H25.427ZM42.6567 26.2476C41.3339 26.2476 40.2578 27.0562 40.2578 28.0498C40.2578 29.0434 41.3341 29.8514 42.6567 29.8514C44.0074 29.8514 45.1063 29.0432 45.1063 28.0498C45.1063 27.0562 44.0074 26.2476 42.6567 26.2476ZM42.6567 29.2856C42.1795 29.2856 41.8197 28.7544 41.8197 28.05C41.8197 27.305 42.1719 26.7643 42.6567 26.7643C43.1186 26.7643 43.4944 27.3411 43.4944 28.05C43.4944 28.7197 43.1107 29.2856 42.6567 29.2856ZM27.5184 26.2978C26.2177 26.2978 25.1189 27.1002 25.1189 28.05C25.1189 29.0435 26.1953 29.8516 27.5184 29.8516C28.8688 29.8516 29.9675 29.0434 29.9675 28.05C29.9677 27.0837 28.869 26.2978 27.5184 26.2978ZM27.5184 29.2856C27.041 29.2856 26.681 28.7544 26.681 28.05C26.681 27.3452 27.041 26.8139 27.5184 26.8139C27.9724 26.8139 28.3559 27.38 28.3559 28.05C28.3559 28.7197 27.9724 29.2856 27.5184 29.2856ZM40.5744 26.3974H40.5653H38.225H38.2159V26.4066V26.8546V26.8637H38.225H38.8076L37.7763 28.8773L36.5976 26.8637H37.4284H37.4375V26.8546V26.4066V26.3974H37.4284H34.042H34.0329V26.4066V26.8546V26.8637H34.042H34.8332L36.3742 29.7469L36.3768 29.7516H36.3823H38.2249H38.2304L38.233 29.7469L39.774 26.8637H40.5651H40.5743V26.8546V26.4066V26.3974H40.5744ZM33.3042 26.3974H33.2951H30.1577H30.1485V26.4066V26.8546V26.8637H30.1577H30.9452V29.1858H30.1577H30.1485V29.195V29.7428V29.7519H30.1577H30.9543H34.8883H34.8975V29.7428V28.1992V28.19H34.8883H34.3905H34.3818L34.3814 28.1986C34.3305 29.0085 33.6158 29.1858 33.3446 29.1858H32.5069V26.8637H33.2949H33.304V26.8546V26.4066V26.3974H33.3042ZM25.4362 26.3974H25.427H23.0863H23.0771V26.4066V26.8546V26.8637H23.0863H23.7184L22.6378 28.8777L21.459 26.8638H22.2898H22.2989V26.8547V26.4067V26.3976H22.2898H18.9034H18.8943V26.4067V26.8547V26.8638H18.9034H19.6946L21.2358 29.747L21.2384 29.7518H21.2438H23.0864H23.0919L23.0945 29.747L24.6355 26.8637H25.427H25.4362V26.8546V26.4066V26.3974Z" fill="#1D2D28"/>
<defs>
<radialGradient id="paint0_radial_601_50304" cx="0" cy="0" r="1" gradientUnits="userSpaceOnUse" gradientTransform="translate(21.4253 25.0827) scale(30.8921)">
<stop stop-color="white"/>
<stop offset="0.0469" stop-color="#FCFCFB"/>
<stop offset="0.2247" stop-color="#FAFAF9"/>
<stop offset="0.3719" stop-color="#B9B9B8"/>
<stop offset="0.4972" stop-color="#888887"/>
<stop offset="0.5923" stop-color="#6A6A69"/>
<stop offset="0.6461" stop-color="#5F5F5E"/>
<stop offset="0.7275" stop-color="#555554"/>
<stop offset="0.8673" stop-color="#3A3939"/>
<stop offset="1" stop-color="#1B1919"/>
</radialGradient>
<linearGradient id="paint1_linear_601_50304" x1="26.1627" y1="26.0348" x2="37.2385" y2="29.8485" gradientUnits="userSpaceOnUse">
<stop stop-color="#E2E2DC"/>
<stop offset="1" stop-color="white"/>
</linearGradient>
<radialGradient id="paint2_radial_601_50304" cx="0" cy="0" r="1" gradientUnits="userSpaceOnUse" gradientTransform="translate(40.7908 37.5323) scale(33.903 33.9029)">
<stop stop-color="#C5C6C2"/>
<stop offset="1" stop-color="#868680"/>
</radialGradient>
<radialGradient id="paint3_radial_601_50304" cx="0" cy="0" r="1" gradientUnits="userSpaceOnUse" gradientTransform="translate(37.3333 33.3829) scale(23.8081 23.8081)">
<stop stop-color="white"/>
<stop offset="0.1986" stop-color="#F2F2F3"/>
<stop offset="0.2978" stop-color="#EAEAEB"/>
<stop offset="0.2992" stop-color="#E9E9EA"/>
<stop offset="0.3715" stop-color="#C3C3C3"/>
<stop offset="0.443" stop-color="#A5A5A5"/>
<stop offset="0.5126" stop-color="#8F8F8F"/>
<stop offset="0.5794" stop-color="#828281"/>
<stop offset="0.6404" stop-color="#7E7E7D"/>
<stop offset="0.7534" stop-color="#545352"/>
<stop offset="0.8551" stop-color="#353333"/>
<stop offset="0.9408" stop-color="#222020"/>
<stop offset="1" stop-color="#1B1919"/>
</radialGradient>
<linearGradient id="paint4_linear_601_50304" x1="20.5882" y1="32.9659" x2="20.5882" y2="31.8997" gradientUnits="userSpaceOnUse">
<stop stop-color="white" stop-opacity="0"/>
<stop offset="0.17" stop-color="#FAFAF9" stop-opacity="0"/>
<stop offset="0.427" stop-color="#BBBBB8" stop-opacity="0.1"/>
<stop offset="0.5232" stop-color="#8F8F8C" stop-opacity="0.2"/>
<stop offset="0.6238" stop-color="#686866" stop-opacity="0.3"/>
<stop offset="0.7234" stop-color="#4A4948" stop-opacity="0.6"/>
<stop offset="0.8206" stop-color="#343432" stop-opacity="0.8"/>
<stop offset="0.9141" stop-color="#272625" stop-opacity="0.9"/>
<stop offset="1" stop-color="#232221"/>
</linearGradient>
<linearGradient id="paint5_linear_601_50304" x1="43.4191" y1="32.9659" x2="43.4191" y2="31.8997" gradientUnits="userSpaceOnUse">
<stop stop-color="white" stop-opacity="0"/>
<stop offset="0.17" stop-color="#FAFAF9" stop-opacity="0"/>
<stop offset="0.427" stop-color="#BBBBB8" stop-opacity="0"/>
<stop offset="0.5232" stop-color="#8F8F8C" stop-opacity="0"/>
<stop offset="0.6238" stop-color="#686866" stop-opacity="0"/>
<stop offset="0.7234" stop-color="#4A4948" stop-opacity="0.25"/>
<stop offset="0.8206" stop-color="#343432" stop-opacity="0.5"/>
<stop offset="0.9141" stop-color="#272625" stop-opacity="0.75"/>
<stop offset="1" stop-color="#232221"/>
</linearGradient>
<radialGradient id="paint6_radial_601_50304" cx="0" cy="0" r="1" gradientUnits="userSpaceOnUse" gradientTransform="translate(18.1411 25.0841) scale(19.2195 19.2195)">
<stop stop-color="#006AB1"/>
<stop offset="0.0016" stop-color="#006AB1"/>
<stop offset="0.1275" stop-color="#0061A4"/>
<stop offset="0.2416" stop-color="#005E9F"/>
<stop offset="0.5062" stop-color="#00548E"/>
<stop offset="0.8371" stop-color="#004374"/>
<stop offset="0.9588" stop-color="#004173"/>
<stop offset="1" stop-color="#003B6F"/>
</radialGradient>
<linearGradient id="paint7_linear_601_50304" x1="46.2495" y1="21.0109" x2="38.7593" y2="13.5207" gradientUnits="userSpaceOnUse">
<stop offset="0.0056" stop-color="#212111"/>
<stop offset="0.6461" stop-color="#41403F"/>
<stop offset="0.6508" stop-color="#454443"/>
<stop offset="0.6558" stop-color="#52514F"/>
<stop offset="0.6608" stop-color="#666564"/>
<stop offset="0.6659" stop-color="#838281"/>
<stop offset="0.6711" stop-color="#A9A8A6"/>
<stop offset="0.6762" stop-color="#D6D5D2"/>
<stop offset="0.68" stop-color="#FDFCF9"/>
<stop offset="0.6826" stop-color="#FAF9F6"/>
<stop offset="0.6842" stop-color="#F2F1EE"/>
<stop offset="0.6856" stop-color="#E3E2DF"/>
<stop offset="0.6869" stop-color="#CECECA"/>
<stop offset="0.688" stop-color="#B3B3AF"/>
<stop offset="0.6891" stop-color="#93938E"/>
<stop offset="0.69" stop-color="#70706B"/>
<stop offset="0.6924" stop-color="#6D6D68"/>
<stop offset="0.7145" stop-color="#535250"/>
<stop offset="0.7396" stop-color="#3E3C3D"/>
<stop offset="0.7692" stop-color="#2E2B2D"/>
<stop offset="0.8059" stop-color="#222023"/>
<stop offset="0.8573" stop-color="#1C191D"/>
<stop offset="1" stop-color="#1A171B"/>
</linearGradient>
<radialGradient id="paint8_radial_601_50304" cx="0" cy="0" r="1" gradientUnits="userSpaceOnUse" gradientTransform="translate(45.6334 14.0175) scale(8.03209)">
<stop stop-color="#555552"/>
<stop offset="1" stop-color="#50504D"/>
</radialGradient>
<linearGradient id="paint9_linear_601_50304" x1="39.8681" y1="13.185" x2="46.8896" y2="13.185" gradientUnits="userSpaceOnUse">
<stop stop-color="#5D5D5F"/>
<stop offset="0.0852" stop-color="#505051"/>
<stop offset="0.2581" stop-color="#3C3C3C"/>
<stop offset="0.4497" stop-color="#2E2D2D"/>
<stop offset="0.6724" stop-color="#262524"/>
<stop offset="1" stop-color="#232221"/>
</linearGradient>
<linearGradient id="paint10_linear_601_50304" x1="46.8149" y1="20.1818" x2="46.8149" y2="13.1104" gradientUnits="userSpaceOnUse">
<stop stop-color="#5D5D5F"/>
<stop offset="0.096" stop-color="#555456"/>
<stop offset="0.4584" stop-color="#393939"/>
<stop offset="0.7723" stop-color="#292827"/>
<stop offset="1" stop-color="#232221"/>
</linearGradient>
<linearGradient id="paint11_linear_601_50304" x1="20.8328" y1="21.8868" x2="25.3288" y2="27.9676" gradientUnits="userSpaceOnUse">
<stop stop-color="white"/>
<stop offset="0.1091" stop-color="#D8E8F3"/>
<stop offset="0.3376" stop-color="#8CBCDC"/>
<stop offset="0.5419" stop-color="#5099C9"/>
<stop offset="0.7143" stop-color="#257FBC"/>
<stop offset="0.8481" stop-color="#0A70B4"/>
<stop offset="0.927" stop-color="#006AB1"/>
<stop offset="0.9288" stop-color="#046BB2"/>
<stop offset="0.9489" stop-color="#2678B8"/>
<stop offset="0.968" stop-color="#3E81BD"/>
<stop offset="0.9856" stop-color="#4D86C0"/>
<stop offset="1" stop-color="#5288C1"/>
</linearGradient>
</defs>
</svg>
